<svg width="87" height="27" viewBox="0 0 87 27" fill="none" xmlns="http://www.w3.org/2000/svg">
<path fill-rule="evenodd" clip-rule="evenodd" d="M10.0448 0.0595052L9.9018 0.0968161L9.8354 0.272469L9.76892 0.448202L9.75752 1.51899L9.74613 2.58985L9.8601 2.74649L9.97398 2.90313L10.8886 2.94673L11.8031 2.99032L12.0195 3.15277L12.2358 3.31514L12.399 3.53446L12.5622 3.75387L12.587 5.08623L12.6118 6.4185L12.052 6.63926L11.4921 6.86002L10.8029 7.21952L10.1135 7.57902L9.45812 8.01736L8.80281 8.4557V8.60422V8.75267L9.37415 9.04185L9.94541 9.33102L10.8185 9.6653L11.6916 9.99958L12.1778 10.1429L12.6639 10.2862L12.6389 10.4154L12.6138 10.5446L12.6078 10.6043L12.6017 10.6639H12.4893H12.377L11.4803 10.3547L10.5836 10.0454L9.91083 9.75345L9.2381 9.46141L8.72422 9.17844L8.21033 8.89555L7.60425 9.53746L6.99816 10.1795L6.62326 10.7841L6.24827 11.3888L6.01796 12.0605L5.78765 12.7322L5.7412 13.3936L5.69474 14.0549L5.79003 14.6049L5.88532 15.1549L6.1055 15.7249L6.32568 16.2949L6.70802 16.8729L7.09037 17.451L7.56476 17.9607L8.03915 18.4705L8.26154 18.5861L8.48402 18.7017L9.13395 18.3732L9.78396 18.0447L10.6586 17.7012L11.5333 17.3577L12.034 17.218L12.5347 17.0783L12.6005 17.1852L12.6662 17.2922L12.6309 17.3849L12.5955 17.4775L11.629 17.8001L10.6627 18.1227L9.91083 18.461L9.15896 18.7993L9.06003 18.8782L8.9611 18.9569L8.96212 19.0864L8.96315 19.2159L9.53592 19.5844L10.1087 19.9529L10.4933 20.1739L10.878 20.3948L11.2056 20.3829L11.5333 20.3708L12.4434 20.2463L13.3536 20.1218L13.52 20.0808L13.6863 20.0398L13.5645 19.5881L13.4426 19.1363L13.3982 11.3799L13.3536 3.62348L13.1812 3.29986L13.0089 2.97624L12.6747 2.67267L12.3405 2.36917L13.0054 2.40441L13.6702 2.43965L14.1055 2.64355L14.5408 2.84744L14.782 3.09L15.0233 3.33256L15.2569 3.7565L15.4905 4.18036L15.5103 8.1779L15.5301 12.1754L15.5498 16.1883L15.5696 20.2012L14.8969 20.3245L14.2242 20.4478L12.7996 20.6409L11.375 20.8342L10.3857 20.9224L9.39639 21.0105L9.07981 21.0439L8.76324 21.0773L8.07072 21.0813L7.37821 21.0854V21.2756V21.4657L7.63599 21.496L7.89376 21.5263L8.96165 21.4665L10.0295 21.4068L11.4937 21.2454L12.9579 21.0842L13.3932 21.0098L13.8285 20.9355L14.7344 20.7742L15.6404 20.6129L15.6536 20.6303L15.6669 20.6478L15.847 21.2047L16.0271 21.7616L16.2448 22.1997L16.4626 22.6377L16.827 23.125L17.1913 23.6122L17.6921 24.079L18.1929 24.5459L18.769 24.8883L19.3451 25.2307L20.0691 25.4848L20.7931 25.7389L22.099 25.7391L23.4049 25.7392L23.9957 25.5528L24.5865 25.3663L25.0642 25.1257L25.5418 24.8852L26.0204 24.544L26.499 24.2029L26.9893 23.6761L27.4796 23.1493L27.8351 22.5389L28.1906 21.9284L28.2206 21.845L28.2506 21.7616L28.3095 21.8166L28.3684 21.8715L28.1083 22.3337L27.8482 22.7958L27.5146 23.2362L27.1811 23.6766L26.6573 24.1691L26.1335 24.6616L25.6793 24.955L25.2252 25.2485L24.6555 25.5143L24.0858 25.7801L23.3892 25.9548L22.6926 26.1295L21.5054 26.1251L20.3183 26.1206L19.557 25.9173L18.7957 25.7139L18.1836 25.4296L17.5714 25.1454L17.085 24.8131L16.5985 24.4809L16.1788 24.1222L15.7591 23.7637L15.2864 23.173L14.8136 22.5823L14.4558 21.9588L14.098 21.3353L13.805 21.3762L13.5119 21.4172L13.4085 21.4493L13.3052 21.4816L13.6451 22.1387L13.9849 22.7958L14.4364 23.3983L14.8877 24.0009L15.4337 24.5186L15.9797 25.0362L16.681 25.5005L17.3824 25.9648L18.0984 26.2581L18.8145 26.5514L19.329 26.6827L19.8434 26.8138L20.7259 26.9069L21.6083 27L22.4687 26.9062L23.3292 26.8124L23.8426 26.6648L24.356 26.5172L24.9276 26.2758L25.4991 26.0345L26.1803 25.5789L26.8614 25.1233L27.4014 24.5806L27.9414 24.0378L28.2952 23.5361L28.6492 23.0344L28.8795 22.5969L29.1099 22.1594L29.2378 21.8379L29.3657 21.5164L30.1842 21.2131L31.0027 20.9098L31.9525 20.4369L32.9022 19.964L33.4561 19.5899L34.01 19.2159L34.0362 19.0742L34.0624 18.9325L33.324 18.5878L32.5856 18.2431L31.8203 17.957L31.055 17.6707L30.1978 17.4413L29.3407 17.2118L28.3712 17.5685L27.4017 17.9253V18.002V18.0787L27.0964 18.7335L26.7912 19.3882L26.3712 20.018L25.9514 20.6478L25.3904 21.2049L24.8295 21.762L24.3744 22.0644L23.9193 22.3667V22.442V22.5173L24.0578 22.5254L24.1963 22.5335L24.4734 22.5177L24.7504 22.5021L25.6789 22.3648L26.6074 22.2275L26.342 22.5515L26.0767 22.8753L25.5988 23.205L25.1207 23.5347L24.6585 23.7161L24.1963 23.8976L23.2749 23.9316L22.3535 23.9655L21.8898 23.831L21.4263 23.6966L20.9514 23.445L20.4766 23.1935L19.9746 22.6905L19.4726 22.1874L19.513 22.1468L19.5533 22.1062L20.0217 22.2779L20.4901 22.4496L20.879 22.4636L21.268 22.4776L21.2898 21.1353L21.3115 19.793L21.1315 19.8403L20.9514 19.8876L19.5664 20.2186L18.1814 20.5496L18.1141 20.6107L18.0468 20.6717L18.1806 21.1371L18.3143 21.6025L18.6024 22.1594L18.8904 22.7162L19.4857 23.3151L20.0809 23.914L20.6744 24.2067L21.268 24.4995L21.7824 24.621L22.2969 24.7424L23.0559 24.7436L23.8149 24.7448L24.4329 24.586L25.0509 24.4271L25.5734 24.1344L26.0958 23.8417L26.5976 23.3589L27.0994 22.8762L27.3812 22.4171L27.6631 21.9581L27.7016 21.9968L27.7403 22.0356L27.472 22.4889L27.2038 22.9421L26.729 23.4574L26.2541 23.9728L25.7152 24.3533L25.1763 24.7339L24.6072 24.9718L24.0381 25.2097L23.3736 25.3448L22.709 25.4799L21.8303 25.439L20.9514 25.3981L20.4766 25.2673L20.0017 25.1365L19.5128 24.9078L19.0239 24.679L18.563 24.3628L18.1022 24.0467L17.7192 23.6648L17.3361 23.283L17.0376 22.8405L16.7391 22.398L16.5179 21.9605L16.2967 21.5229L16.1533 21.0497L16.0099 20.5765L16.0272 20.5603L16.0445 20.544L17.4295 20.2553L18.8145 19.9666L20.6349 19.4959L22.4552 19.0253L23.4445 18.7397L24.4338 18.4541L26.3332 17.8116L28.2327 17.1691L29.6969 16.5907L31.161 16.0123L32.1899 15.5606L33.2188 15.1089L34.8808 14.253L36.5428 13.3971L37.5717 12.7215L38.6006 12.0459L39.4145 11.3869L40.2284 10.7279L40.6919 10.1744L41.1554 9.62107L41.4096 9.1416L41.6638 8.66206L41.7063 8.19182L41.7487 7.7215L41.6153 7.37036L41.4818 7.01921L41.0878 6.64873L40.6937 6.27817L40.1949 6.04357L39.6961 5.80897L38.9505 5.61915L38.2049 5.42934L37.453 5.33555L36.7011 5.24167L35.1974 5.21924L33.6936 5.19681L33.1594 5.23237L32.6252 5.26793V5.44692V5.62592L34.584 5.6244L36.5428 5.62297L37.3343 5.72472L38.1257 5.82655L38.8776 6.01748L39.6295 6.2084L40.1141 6.44738L40.5986 6.68628L40.9203 7.03711L41.2421 7.38794L41.2954 7.67409L41.3489 7.96016L41.2975 8.30447L41.2461 8.64877L40.9523 9.149L40.6583 9.64923L40.0647 10.2475L39.4712 10.8457L38.6006 11.4976L37.73 12.1495L36.8029 12.7175L35.8757 13.2855L34.4681 13.9931L33.0605 14.7008L32.0316 15.1582L31.0027 15.6156L29.3407 16.2718L27.6787 16.9279L26.3332 17.3695L24.9878 17.8112L24.3546 18.0099L23.7215 18.2087L22.6135 18.5283L21.5054 18.848L20.2391 19.162L18.9728 19.476L18.2605 19.6432L17.5482 19.8105L16.7642 19.9714L15.9801 20.1323L15.9331 20.0851L15.8862 20.0379V12.1489V4.25991L16.1062 3.80956L16.3263 3.35929L16.6369 3.07719L16.9475 2.7951L17.286 2.62151L17.6245 2.44785L18.3383 2.40775L19.052 2.36758L18.7079 2.70465L18.3638 3.04171L18.1934 3.41219L18.0231 3.78259L18.0018 11.525L17.9804 19.2674L18.1205 19.2296L18.2605 19.1917L19.7841 18.8165L21.3076 18.4412V17.459V16.4769L21.1646 16.4L21.0217 16.3231L20.2347 16.36L19.4477 16.397L19.1509 16.4266L18.8541 16.4562V16.2342V16.0123L20.0611 15.9435L21.268 15.8747L21.2892 13.931L21.3104 11.9874L21.2486 11.9252L21.1869 11.8632L20.0798 11.8139L18.9728 11.7645L18.8837 11.7376L18.7945 11.7107L18.8297 11.5254L18.865 11.3401H20.0664H21.268L21.2887 8.17034L21.3094 5.00047L20.8975 5.05743L20.4855 5.11439L20.0539 5.26363L19.6223 5.41295L19.2657 5.61319L18.9092 5.8135L18.8718 5.77587L18.8342 5.73824L18.8384 4.82147L18.8424 3.9047L19.0257 3.57687L19.209 3.24911L19.5033 3.0982L19.7975 2.94728H20.535H21.2724L21.4482 2.82342L21.6242 2.69963V1.47555V0.251467L21.4482 0.127683L21.2724 0.00381827L15.7301 0.0130462L10.1878 0.0222741L10.0448 0.0595052ZM24.6514 0.125773L24.4734 0.251467V1.47555V2.69963L24.6493 2.82342L24.8251 2.94728H25.6029H26.3806L26.6048 3.06375L26.8288 3.18021L27.033 3.4242L27.2373 3.66819L27.3191 3.96405L27.4008 4.25991L27.4012 4.88178L27.4017 5.50372L27.2632 5.46124L27.1247 5.41868L26.1837 5.25098L25.2427 5.0832L24.6404 5.06936L24.0381 5.05544V5.14669V5.23793L24.55 5.61669L25.0619 5.99552L25.5248 6.48008L25.9877 6.96471L26.3824 7.56136L26.777 8.15801L27.0571 8.74814L27.3373 9.33818L27.5764 10.0806L27.8154 10.823L27.9845 10.8227L28.1536 10.8224L29.3011 10.5522L30.4487 10.2819L31.438 9.9509L32.4273 9.61988L33.3069 9.19721L34.1866 8.77447L34.2483 8.67415L34.3099 8.57376L34.0414 8.33764L33.7728 8.10153L33.1148 7.71052L32.4569 7.3196L31.9276 7.05493L31.3985 6.79025L30.6268 6.4862L29.8552 6.18207V5.01399V3.84591L30.0332 3.58291L30.2113 3.31991L30.4343 3.15348L30.6574 2.98706L31.55 2.94728L32.4427 2.90751L32.5735 2.79836L32.7043 2.68913V1.52082V0.35242L32.592 0.198007L32.4797 0.0435949L28.6546 0.0217971L24.8295 0L24.6514 0.125773ZM46.5228 0.628707L46.4921 0.68002L46.3678 1.10284L46.2435 1.52575L46.4979 1.63163L46.7524 1.73752L47.0896 1.83815L47.4267 1.93871L47.4062 5.71963L47.3856 9.50047L46.9899 9.59625L46.5941 9.69203L46.3765 9.74199L46.1588 9.79187V10.2478V10.7037H48.6123H51.0658V10.2552V9.80667L50.3535 9.62974L49.6412 9.45282V8.15204V6.85119L50.5316 6.89892L51.4219 6.94658L52.0013 6.84809L52.5806 6.7496L53.1183 6.4792L53.6561 6.20872L54.0285 5.80849L54.401 5.40818L54.5525 5.06411L54.7039 4.72004L54.7765 4.20446L54.8492 3.6888L54.7887 3.13566L54.7283 2.58253L54.555 2.18811L54.3818 1.79376L54.1286 1.52551L53.8754 1.25734L53.4126 1.03419L52.9498 0.811123L52.3838 0.714943L51.8176 0.618843L50.6305 0.689168L49.4433 0.759573L48.3353 0.750504L47.2273 0.741354L46.8905 0.659415L46.5536 0.577396L46.5228 0.628707ZM55.226 0.839126L55.1834 0.998232L55.1824 1.28088L55.1813 1.56354L55.7199 1.73792L56.2584 1.91222L56.5819 2.64856L56.9054 3.38482L57.8363 5.51287L58.767 7.64091H59.3538H59.9406L59.8853 7.81991L59.8301 7.9989L59.5706 8.516L59.3112 9.03309L59.1421 9.21257L58.9731 9.39212L58.7788 9.52004L58.5845 9.64804L57.7484 9.12235L56.9123 8.59675L56.6869 8.71385L56.4616 8.83103L56.2963 9.04224L56.1309 9.25354L56.0414 9.55377L55.952 9.854L56.0019 10.0539L56.0518 10.2539L56.253 10.4942L56.4542 10.7345L56.906 10.9059L57.3577 11.0773L57.9603 11.0435L58.563 11.0097L58.9892 10.7694L59.4155 10.5292L59.797 10.0596L60.1787 9.58997L60.8368 8.23756L61.4949 6.88516L62.3113 4.90302L63.1277 2.92087L63.4198 2.54952L63.7118 2.17808L64.0901 1.92622L64.4683 1.67443H64.5635H64.6588L64.7083 1.42583L64.7577 1.17723V0.948512V0.719796H62.8978H61.0379L60.9786 0.699908L60.9192 0.68002L60.8957 1.13069L60.8721 1.58144L61.331 1.71015L61.7898 1.83879L61.922 1.89583L62.0542 1.95287L61.3127 3.97073L60.5712 5.98868L60.5295 6.03052L60.4879 6.07237L60.321 5.68327L60.1541 5.2941L59.7175 4.22013L59.2809 3.14617L58.9423 2.23131L58.6036 1.31644L58.5508 0.998232L58.4981 0.68002H56.8834H55.2686L55.226 0.839126ZM65.7008 0.811839L65.6191 0.965218L65.6435 1.24874L65.6679 1.53235L66.0484 1.67698L66.4289 1.82161L66.7121 2.03879L66.9953 2.25589L66.9522 3.73526L66.9091 5.21455L66.7109 5.98088L66.5127 6.7473L66.2788 7.30679L66.0449 7.86637L65.6835 8.41274L65.3222 8.95919L65.1649 9.10223L65.0076 9.24526L64.4317 9.31797L63.8559 9.39069L63.8067 9.45051L63.7576 9.51041L63.8558 11.4197L63.954 13.329L63.9602 13.3886L63.9663 13.4483H64.477H64.9877L65.0582 13.1897L65.1286 12.9312L65.3953 11.8373L65.6619 10.7435H69.1549H72.6478L72.8217 11.8373L72.9957 12.9312L73.0406 13.1897L73.0855 13.4483H73.6645H74.2436L74.2906 13.0306L74.3376 12.613L74.4565 11.0771L74.5754 9.54112L74.5343 9.47445L74.4933 9.40771L73.8598 9.35131L73.2261 9.29498V5.60706V1.91922L73.5229 1.84197L73.8197 1.76473L74.1561 1.67674L74.4924 1.58875V1.13435L74.4924 0.68002L70.1374 0.6692L65.7825 0.658461L65.7008 0.811839ZM75.8162 1.0579L75.7744 1.47555L75.8259 1.52583L75.8775 1.57611L76.4908 1.75621L77.1042 1.93624V5.69696V9.45759L76.4513 9.67381L75.7983 9.89004L75.7704 9.91391L75.7425 9.93777L75.7976 10.3406L75.8528 10.7435H78.2592H80.6653V10.2693V9.79497L80.3685 9.71661L80.0717 9.63818L79.6958 9.54494L79.3198 9.45178V7.79207V6.13243L79.4979 6.0886L79.676 6.04476L81.4963 6.0672L83.3166 6.08963L83.338 7.77305L83.3594 9.45656L82.7246 9.66896L82.0899 9.88145L82.0915 10.0141L82.0923 10.1468L82.1413 10.4452L82.1904 10.7435H84.5473H86.9042L86.9311 10.2637L86.9573 9.784L86.6803 9.71343L86.4033 9.64279L86.1262 9.5871L85.8492 9.53133L85.7107 9.45846L85.5722 9.38551V5.65821V1.93091L86.2647 1.75908L86.9573 1.58724L86.9311 1.11255L86.9042 0.637935L84.5568 0.658938L82.2086 0.68002L82.1857 1.12233L82.1627 1.56465L82.7595 1.75287L83.3562 1.9411V3.39883V4.85656H81.338H79.3198V3.39429V1.93195L79.6958 1.83879L80.0717 1.74555L80.3685 1.66711L80.6653 1.58875V1.11446V0.640243H78.2618H75.858L75.8162 1.0579ZM20.8327 1.43005V2.06066L19.1905 2.08636L17.5482 2.11198L17.1749 2.28532L16.8016 2.45875L16.4086 2.82811L16.0158 3.19756L15.8609 3.51219L15.706 3.82682L15.5058 3.48649L15.3056 3.14617L15.0023 2.85317L14.699 2.56026L14.2638 2.33608L13.8285 2.11198L12.1862 2.08517L10.544 2.05828V1.42885V0.799349H15.6883H20.8327V1.43005ZM31.8964 1.45566L31.9195 2.0722L31.105 2.07268L30.2904 2.07307L29.9956 2.15541L29.7009 2.23767L29.3625 2.49614L29.0241 2.75461L28.8332 3.04919L28.6423 3.3437L28.5245 3.16534L28.4067 2.98706L28.1614 2.72151L27.9161 2.45604L27.5995 2.28659L27.283 2.11723L26.2739 2.08668L25.2648 2.05621V1.42694V0.797599L28.5691 0.818363L31.8733 0.839126L31.8964 1.45566ZM70.931 5.70324V9.41391L70.2384 9.36427L69.5459 9.31471L68.2203 9.26133L66.8946 9.20803V9.15457V9.10111L67.1263 8.66938L67.3579 8.23756L67.5312 7.80002L67.7045 7.36248L67.8535 6.76583L68.0026 6.16918L68.1221 5.25432L68.2416 4.33946L68.2735 3.18594L68.3054 2.03242L68.3123 2.01253L68.3192 1.99265H69.6251H70.931V5.70324ZM51.3338 2.18485L51.7061 2.29741L51.9725 2.50163L52.2388 2.70592L52.374 3.06176L52.5093 3.41768L52.4764 3.93661L52.4435 4.45553L52.2092 4.79522L51.9749 5.13499L51.5977 5.3233L51.2205 5.5116L50.7154 5.55233L50.2103 5.59306L49.9258 5.53944L49.6412 5.48574V3.83199V2.17824L49.694 2.12526L49.7467 2.0722H50.3541H50.9615L51.3338 2.18485ZM27.7939 2.84339L28.1355 3.13726L28.2813 3.45992L28.4271 3.78259L28.4288 4.75712L28.4306 5.73164H28.3203H28.2101L28.1719 5.63164L28.1337 5.53164L28.1194 4.62689L28.105 3.72205L27.948 3.38626L27.7911 3.05046L27.5474 2.80003L27.3038 2.54952H27.378H27.4523L27.7939 2.84339ZM29.5976 2.84784L29.3896 3.06661L29.2284 3.4246L29.0672 3.78259L29.0655 4.83667L29.0637 5.89075H28.945H28.8263L28.828 4.83667L28.8298 3.78259L28.9739 3.46366L29.118 3.14481L29.4102 2.8869L29.7024 2.62907H29.754H29.8056L29.5976 2.84784ZM21.7033 8.19779V11.3799L22.6332 11.3798L23.5632 11.3798L24.4338 11.3008L25.3044 11.222L26.3218 11.0907L27.3392 10.9593L27.2878 10.6366L27.2364 10.3138L26.9312 9.53221L26.6259 8.75052L26.2953 8.20049L25.9647 7.65046L25.5131 7.10998L25.0614 6.56941L24.5985 6.19456L24.1356 5.81971L23.6119 5.54612L23.0883 5.27254L22.5688 5.14414L22.0493 5.01566H21.8763H21.7033V8.19779ZM33.659 9.47819L32.7537 9.93539L31.6804 10.2987L30.607 10.662L29.6573 10.8964L28.7076 11.1307L28.4136 11.1841L28.1196 11.2374L28.031 11.3447L27.9424 11.4521L28.0287 12.0116L28.1151 12.571L28.1188 13.7161L28.1226 14.8612L28.027 15.5479L27.9314 16.2348L27.9814 16.285L28.0314 16.3353L29.3983 15.7935L30.7653 15.2518L31.8733 14.7585L32.9813 14.2651L34.2061 13.6508L35.4308 13.0365L36.1671 12.5948L36.9033 12.1532L36.9469 12.0822L36.9906 12.0112L36.7595 11.5166L36.5285 11.0219L36.2342 10.5611L35.9401 10.1002L35.4206 9.54677L34.9012 8.99332L34.7327 9.00716L34.5642 9.02092L33.659 9.47819ZM26.0958 11.541L25.0669 11.6793L24.2755 11.7276L23.484 11.7759L22.653 11.8235L21.822 11.871L21.7612 11.9292L21.7005 11.9874L21.7217 13.931L21.7429 15.8747L22.7718 15.9296L23.8006 15.9846L24.791 16.0701L25.7813 16.1556L26.5231 16.2671L27.2649 16.3785L27.3654 16.3397L27.4659 16.3009L27.5556 15.8093L27.6454 15.3178L27.6921 14.3234L27.7388 13.329L27.6491 12.5077L27.5594 11.6866L27.4777 11.5332L27.3961 11.3799L27.2604 11.3914L27.1247 11.4027L26.0958 11.541ZM36.5033 13.8663L35.8305 14.2609L34.4455 14.9598L33.0605 15.6586L31.6755 16.2519L30.2904 16.8452L30.1717 16.8876L30.053 16.9301L30.1717 16.9746L30.2904 17.0191L30.9435 17.2213L31.5965 17.4234L32.3681 17.7131L33.1396 18.0029L33.8377 18.3544L34.5357 18.706L34.6814 18.6595L34.8269 18.6131L35.3811 18.0267L35.9353 17.4403L36.2166 16.9982L36.498 16.5562L36.6894 16.1756L36.8809 15.7951L37.0397 15.2776L37.1984 14.7602L37.255 14.1539L37.3115 13.5477L37.2437 13.5096L37.176 13.4717L36.5033 13.8663ZM3.6893 14.2909L2.90657 14.8164L2.37282 15.2547L1.83915 15.693L1.19239 16.3797L0.54562 17.0665L0.305259 17.583L0.0648191 18.0994L0.0323697 18.5497L0 19.0001L0.100513 19.3069L0.201105 19.6137L0.366675 19.8444L0.532244 20.0751L0.999591 20.3813L1.46694 20.6876H1.56413H1.66139L1.70318 20.5269L1.74497 20.3662L1.50983 20.244L1.2747 20.1218L0.957723 19.8339L0.640751 19.546L0.519581 19.3106L0.398491 19.0752L0.401419 18.6925L0.404427 18.3098L0.619857 17.8675L0.835367 17.4251L1.25166 16.9178L1.66804 16.4104L2.32684 15.837L2.98571 15.2636L3.83374 14.6941L4.68177 14.1245L4.68454 14.0348L4.68731 13.9451L4.57968 13.8553L4.47196 13.7655L3.6893 14.2909ZM21.8 16.4059L21.7033 16.5031V17.4021V18.301H21.775H21.8468L23.3169 17.8651L24.787 17.4291L25.7846 17.1029L26.7821 16.7766L26.752 16.7463L26.7218 16.7161L25.7757 16.5988L24.8295 16.4815L23.9193 16.4349L23.0092 16.3883L22.453 16.3486L21.8967 16.3088L21.8 16.4059ZM46.0006 16.5111V16.71H66.4989H86.9968V16.5111V16.3122H66.4989H46.0006V16.5111ZM25.5022 18.541L24.3546 18.9241L23.029 19.3038L21.7033 19.6834V21.0631V22.4428L21.8172 22.4867L21.9311 22.5306L22.391 22.4383L22.8509 22.346L23.5632 22L24.2755 21.654L24.8408 21.1323L25.4061 20.6107L25.7989 20.0724L26.1917 19.5341L26.4719 19.017L26.752 18.4999L26.8052 18.3209L26.8584 18.1419L26.754 18.1499L26.6498 18.1579L25.5022 18.541ZM4.21245 19.4545V20.449H3.47411H2.73578L2.55042 20.0512L2.36506 19.6534H2.25988H2.1547V20.1308V20.6081H2.0693H1.98383L2.03305 20.8334L2.08228 21.0587L2.00702 21.3956L1.93175 21.7324L2.053 21.7792L2.17433 21.8259L2.24785 21.6939L2.32138 21.5618L2.49763 21.3558L2.67389 21.1498L3.38381 21.2887L4.09373 21.4276L4.1151 21.4438L4.13647 21.4598L3.9371 22.2869L3.73782 23.114L3.73766 23.293L3.73758 23.472H3.84253H3.94739L4.1333 23.2731L4.31921 23.0742H4.49475H4.67038L4.71224 22.9646L4.75411 22.855L4.67291 22.7733L4.59179 22.6918L4.67243 22.5469L4.75308 22.402L4.93788 22.4L5.1226 22.398V22.1551V21.9123L5.24132 21.7373L5.36004 21.5623L5.95362 21.5182L6.5472 21.474L6.80402 21.393L7.06077 21.312L6.98281 21.1656L6.90485 21.0191L6.52821 20.8976L6.15148 20.7759L5.80934 20.6874L5.46728 20.5988L5.36099 20.3449L5.25478 20.091L5.33606 19.9926L5.41734 19.8941L5.37136 19.7738L5.32545 19.6534H5.17389H5.02233L4.98173 19.4973L4.94105 19.3411L5.04694 19.2528L5.15276 19.1645L5.10947 19.051L5.0661 18.9375H4.91833H4.77049L4.64774 18.6988L4.52499 18.4601H4.36868H4.21245V19.4545ZM79.4734 20.687L79.1115 20.7498L78.7163 20.9512L78.321 21.1525L78.2225 21.2718L78.1241 21.391L78.3503 21.6455L78.5766 21.9001L79.0242 21.6462L79.4718 21.3922H79.9024H80.3329L80.5023 21.4974L80.6716 21.6025L80.7167 21.7815L80.7619 21.9605L80.7128 22.1579L80.6637 22.3554L80.431 22.4761L80.1983 22.5969H79.6412H79.0828V22.947V23.297L79.7892 23.3249L80.4951 23.3527L80.6993 23.5455L80.9027 23.7384V23.9084V24.0784L80.7484 24.2451L80.5941 24.4117L80.3036 24.5082L80.0124 24.6047L79.6578 24.5557L79.3032 24.5069L78.9124 24.293L78.5214 24.0791L78.2741 24.3277L78.0268 24.5763L78.1277 24.6985L78.2286 24.8207L78.6755 25.0413L79.1224 25.2619H79.8343H80.5466L80.9423 25.063L81.338 24.8642L81.5161 24.5938L81.6942 24.3235L81.6934 23.9972L81.6926 23.6709L81.5921 23.472L81.4924 23.2731L81.2019 23.0834L80.9114 22.8937L81.1647 22.7225L81.4172 22.5513L81.5216 22.236L81.6253 21.9207L81.5778 21.6645L81.5303 21.4083L81.3364 21.1768L81.1425 20.9453L80.8845 20.8233L80.6257 20.7014L80.23 20.6627L79.8343 20.6241L79.4734 20.687ZM60.0882 21.0854V21.4832H60.8005H61.5128V23.3527V25.2221H61.9085H62.3043V23.3527V21.4832H63.0165H63.7288V21.0854V20.6876H61.9085H60.0882V21.0854ZM64.1246 20.7145V20.7494L64.9652 22.1306L65.8057 23.5118L65.8422 23.606L65.8787 23.7003L65.5425 24.2822L65.2063 24.8642L65.0916 25.0432L64.977 25.2221L65.4411 25.2214L65.9053 25.2206L66.6968 23.8166L67.4882 22.4127L67.647 22.1269L67.806 21.8411L68.1021 21.3112L68.3984 20.7811V20.7344V20.6876H67.9817H67.565L66.9785 21.7636L66.3921 22.8395L66.3254 22.8172L66.2589 22.7949L65.6468 21.7611L65.0347 20.7274L64.5796 20.7035L64.1246 20.6797V20.7145ZM69.1106 22.9549V25.2221H69.4668H69.8229V24.5062V23.7902H70.4417H71.0605L71.453 23.673L71.8455 23.5559L72.0956 23.2951L72.3458 23.0344L72.4299 22.8105L72.5138 22.5866V22.19V21.7935L72.3992 21.5706L72.2845 21.3477L72.0097 21.1051L71.7349 20.8626L71.3291 20.7751L70.9232 20.6876H70.0169H69.1106V22.9549ZM73.3581 20.7407L73.3053 20.7937V23.0122V25.2309L73.6747 25.2066L74.0442 25.1824L75.1767 23.6714L76.3093 22.1605L76.3704 22.14L76.4315 22.1195L76.4138 23.5506L76.3962 24.9817L76.4421 25.1019L76.488 25.2221H76.8752H77.2625V22.9549V20.6876H76.8767H76.491L75.3137 22.2588L74.1363 23.83L74.1149 22.2588L74.0934 20.6876H73.7521H73.4108L73.3581 20.7407ZM82.6217 20.7371L82.5648 20.7937V23.0079V25.2221H82.9589H83.353L83.3744 23.651L83.3958 22.0798L84.0756 23.0945L84.7563 24.1092L84.8766 23.9696L84.9969 23.83L85.5817 22.9549L86.1658 22.0798L86.188 23.651L86.2094 25.2221H86.6043H87L86.9786 22.9748L86.9573 20.7274L86.5584 20.7039L86.1595 20.6805L85.4899 21.7181L84.8204 22.7557L84.7808 22.752L84.7412 22.7484L84.1017 21.7379L83.4615 20.7274L83.0697 20.7039L82.6779 20.6805L82.6217 20.7371ZM71.4911 21.7157L71.7224 21.9482V22.2389V22.5296L71.4979 22.7553L71.2733 22.9811L70.9241 23.0334L70.5748 23.0858L70.2187 23.0601L69.8625 23.0344L69.8399 22.2588L69.8173 21.4832H70.5385H71.2597L71.4911 21.7157Z" fill="white"/>
</svg>
