<svg width="154" height="154" viewBox="0 0 154 154" fill="none" xmlns="http://www.w3.org/2000/svg">
<path d="M30.6621 7.23623C29.9777 6.95695 29.2375 6.84145 28.5005 6.89894C24.2001 6.82995 16.7799 7.05225 16.8566 7.05225C16.09 6.554 15.3235 6.07107 14.4649 5.63414C13.3688 5.04389 10.6398 3.83274 9.68933 4.59929C9.59567 4.67919 9.53548 4.79137 9.52068 4.91358C9.45936 5.30452 9.85797 5.55748 11.0538 6.44668C12.3799 7.4202 13.9973 8.54703 15.3541 9.51288C15.998 12.2648 16.8642 15.9212 17.4545 18.2669C17.5029 18.6326 17.6345 18.9824 17.8391 19.2893C18.0438 19.5963 18.316 19.8522 18.635 20.0376C19.3095 20.3672 19.4015 19.6697 19.5165 18.9414C19.7311 17.6 20.1757 14.1812 20.3444 12.9164C21.9925 14.0279 23.6712 15.1547 25.4496 16.2815C25.6365 17.3195 25.8926 18.3439 26.2161 19.3477C26.7834 20.6355 27.4196 18.7498 27.7492 17.3853C31.2217 16.3505 32.7012 15.1777 29.3743 15.1777C30.2022 14.7944 31.559 14.1505 30.6621 13.7979C29.7653 13.4453 27.3736 14.0202 26.6224 14.1812C25.2963 13.085 23.7632 11.9198 22.506 10.9923C33.7053 7.57351 30.1715 8.69267 30.8308 8.41671C31.697 8.07943 31.5283 7.66549 30.6621 7.23623ZM26.5228 14.4571C26.7527 14.6411 28.3012 13.8899 30.2022 13.9359C30.7848 13.9359 30.7388 14.1122 30.7618 14.1198C30.211 14.5613 29.6056 14.9297 28.9604 15.216C27.7032 15.216 27.3736 15.3003 26.4384 15.331C24.6524 14.2885 15.8371 8.47804 11.8203 5.83344C10.5709 5.01323 10.4789 4.92891 10.2106 4.85992C10.1211 4.82842 10.0257 4.81757 9.93142 4.82819C9.83717 4.83881 9.74654 4.87062 9.66633 4.92124C9.68337 4.84679 9.72364 4.77968 9.78131 4.72961C10.6552 3.96306 13.3611 5.2202 14.3806 5.77978C15.1088 6.17839 15.8217 6.60765 16.5193 7.05225C16.0824 7.10591 15.8217 7.5965 16.4503 8.22507C17.8992 9.33107 19.4091 10.3547 20.9729 11.2913C21.0523 11.3387 21.1414 11.3675 21.2336 11.3756C21.5748 11.3125 21.9086 11.2149 22.2301 11.0843C23.6789 12.1805 25.1046 13.315 26.5228 14.4571ZM29.0064 8.78466C27.6956 8.73866 21.1033 8.4857 16.481 7.91079C16.297 7.71915 16.251 7.55818 16.2817 7.45852C16.3123 7.35887 16.6496 7.25922 17.0482 7.25156C17.4468 7.24389 26.1548 7.08292 28.5465 7.09058C29.2679 7.02356 29.9949 7.12593 30.6698 7.38954C32.1186 8.12542 30.6621 8.30173 29.0064 8.78466ZM29.5276 19.1637C32.8545 21.4634 37.2928 24.6982 40.7959 27.3122C40.8419 27.3122 40.7959 27.4195 40.7499 27.3812C37.2391 24.9205 32.9158 21.8313 29.474 19.2327C29.4686 19.2247 29.4658 19.2152 29.4662 19.2055C29.4665 19.1958 29.4699 19.1865 29.4758 19.1788C29.4818 19.1712 29.49 19.1656 29.4993 19.1629C29.5086 19.1602 29.5185 19.1605 29.5276 19.1637ZM30.7005 17.8529C34.2956 20.3212 40.451 24.7519 43.7931 27.2049C43.8391 27.2049 43.7931 27.3122 43.7471 27.2738C40.5813 25.0815 34.3109 20.6432 30.6621 17.9219C30.6582 17.915 30.656 17.9073 30.656 17.8993C30.6559 17.8914 30.6579 17.8835 30.6617 17.8766C30.6656 17.8696 30.6712 17.8638 30.678 17.8597C30.6848 17.8555 30.6925 17.8532 30.7005 17.8529ZM138.891 61.5846C138.172 61.4246 137.436 61.3525 136.699 61.37C139.88 57.5372 132.575 54.747 131.103 58.94C130.613 51.8494 120.778 51.8954 120.073 57.8745C119.997 58.5622 120.026 59.2573 120.157 59.9365C119.688 59.4719 119.094 59.1543 118.448 59.0225C117.801 58.8908 117.13 58.9507 116.517 59.1949C115.904 59.4391 115.376 59.857 114.997 60.3973C114.618 60.9375 114.405 61.5767 114.385 62.2362C113.066 62.4125 110.291 62.9338 110.399 64.1832C110.399 64.9498 111.786 65.1721 112.545 65.2487C113.595 65.356 112.645 65.3637 136.699 65.3254C138.232 65.3254 141.858 65.2717 142.065 63.7923C142.065 62.5275 140.095 61.8452 138.891 61.5846ZM139.091 64.9498C137.627 65.1031 138.723 65.0648 114.967 65.0571C114.032 65.0571 110.644 65.1721 110.629 64.1679C110.46 63.1254 113.45 62.5505 114.461 62.4202C114.473 62.4202 114.485 62.4178 114.497 62.4132C114.508 62.4085 114.518 62.4018 114.526 62.3932C114.535 62.3847 114.542 62.3745 114.546 62.3634C114.551 62.3522 114.553 62.3403 114.553 62.3282C114.668 59.193 118.302 58.3191 120.211 60.3198C120.226 60.3331 120.246 60.3415 120.266 60.3441C120.286 60.3467 120.307 60.3433 120.326 60.3344C120.344 60.3256 120.36 60.3115 120.371 60.2939C120.382 60.2764 120.387 60.2561 120.387 60.2355C120.235 59.4787 120.201 58.7029 120.287 57.9358C121.054 52.1561 130.904 52.2557 130.896 59.6989C130.902 59.7197 130.915 59.738 130.932 59.7511C130.949 59.7641 130.97 59.7712 130.992 59.7712C131.014 59.7712 131.035 59.7641 131.052 59.7511C131.069 59.738 131.082 59.7197 131.088 59.6989C131.185 59.258 131.358 58.8376 131.601 58.4571C133.004 56.3568 136.469 57.1233 137.075 58.986C137.168 59.4207 137.152 59.872 137.028 60.299C136.903 60.7259 136.674 61.1151 136.362 61.4313C136.35 61.4464 136.343 61.4646 136.341 61.4837C136.339 61.5028 136.343 61.522 136.352 61.539C136.361 61.556 136.374 61.5701 136.391 61.5796C136.408 61.589 136.427 61.5934 136.446 61.5923C138.051 61.4963 139.649 61.8692 141.045 62.6655C141.252 62.7726 141.43 62.9283 141.563 63.1192C141.697 63.3101 141.782 63.5306 141.812 63.7616C141.666 64.6202 139.964 64.8578 139.091 64.9498ZM61.0942 15.2543C60.7416 15.9442 59.4384 16.0209 59.3158 16.7184C59.1931 17.416 60.1283 17.7226 60.7645 17.8683C60.79 17.8764 60.8176 17.8741 60.8413 17.8619C60.865 17.8497 60.8829 17.8285 60.891 17.8031C60.8992 17.7777 60.8969 17.7501 60.8846 17.7264C60.8724 17.7027 60.8513 17.6848 60.8259 17.6766C58.051 16.5498 60.9102 16.4961 61.2858 15.377C61.3021 15.3516 61.3076 15.3207 61.3011 15.2913C61.2946 15.2618 61.2767 15.2361 61.2513 15.2198C61.2259 15.2036 61.1951 15.1981 61.1656 15.2045C61.1361 15.211 61.1104 15.2289 61.0942 15.2543ZM58.7255 15.1853C58.8635 15.1853 59.0168 14.9477 59.0705 14.6181C59.1241 14.2885 59.0705 13.9972 58.9018 13.9742C58.7332 13.9512 58.6029 14.2118 58.5569 14.5414C58.5109 14.8711 58.5799 15.1624 58.7255 15.1853ZM63.4475 15.8599C63.5931 15.8599 63.7464 15.6299 63.8001 15.2927C63.8537 14.9554 63.8001 14.6718 63.6238 14.6564C63.4475 14.6411 63.3325 14.8864 63.2788 15.2237C63.2252 15.561 63.3095 15.8446 63.4475 15.8599ZM63.5778 12.0885C63.726 11.9327 63.9085 11.8136 64.1107 11.7404C64.3129 11.6672 64.5293 11.6421 64.7429 11.6669C65.176 11.8001 65.5549 12.0688 65.8238 12.4334C65.838 12.4558 65.8605 12.4716 65.8864 12.4773C65.9123 12.4831 65.9394 12.4783 65.9618 12.4641C65.9841 12.4499 65.9999 12.4273 66.0057 12.4015C66.0114 12.3756 66.0066 12.3485 65.9924 12.3261C65.9175 12.0596 65.7657 11.821 65.5561 11.6402C65.3465 11.4593 65.0883 11.3441 64.8137 11.309C64.5391 11.2738 64.2602 11.3203 64.0118 11.4425C63.7634 11.5648 63.5565 11.7575 63.4168 11.9965C63.417 12.0153 63.4221 12.0336 63.4315 12.0498C63.441 12.066 63.4546 12.0794 63.4709 12.0887C63.4872 12.098 63.5056 12.1029 63.5244 12.1029C63.5431 12.1028 63.5615 12.0979 63.5778 12.0885ZM68.522 13.9665C68.5466 13.9719 68.5721 13.9716 68.5966 13.9658C68.6211 13.96 68.644 13.9488 68.6636 13.933C68.6832 13.9172 68.6991 13.8972 68.7099 13.8745C68.7208 13.8518 68.7264 13.8269 68.7264 13.8017C68.7264 13.7765 68.7208 13.7517 68.7099 13.729C68.6991 13.7062 68.6832 13.6863 68.6636 13.6704C68.644 13.6546 68.6211 13.6434 68.5966 13.6376C68.5721 13.6318 68.5466 13.6316 68.522 13.6369C68.4844 13.6451 68.4507 13.6659 68.4265 13.6959C68.4023 13.7259 68.3891 13.7632 68.3891 13.8017C68.3891 13.8402 68.4023 13.8776 68.4265 13.9076C68.4507 13.9376 68.4844 13.9584 68.522 13.9665ZM69.4189 14.1888C69.4565 14.1807 69.4902 14.1599 69.5144 14.1299C69.5386 14.0999 69.5518 14.0625 69.5518 14.024C69.5518 13.9855 69.5386 13.9482 69.5144 13.9182C69.4902 13.8882 69.4565 13.8674 69.4189 13.8592C69.3943 13.8539 69.3688 13.8541 69.3443 13.8599C69.3198 13.8657 69.2969 13.8769 69.2773 13.8927C69.2577 13.9086 69.2419 13.9285 69.231 13.9513C69.2201 13.974 69.2145 13.9988 69.2145 14.024C69.2145 14.0492 69.2201 14.0741 69.231 14.0968C69.2419 14.1195 69.2577 14.1395 69.2773 14.1553C69.2969 14.1711 69.3198 14.1823 69.3443 14.1881C69.3688 14.1939 69.3943 14.1942 69.4189 14.1888ZM68.775 14.3345C68.7996 14.3291 68.8251 14.3294 68.8496 14.3352C68.8741 14.341 68.897 14.3522 68.9166 14.368C68.9362 14.3838 68.952 14.4038 68.9629 14.4265C68.9737 14.4492 68.9794 14.4741 68.9794 14.4993C68.9794 14.5245 68.9737 14.5493 68.9629 14.572C68.952 14.5948 68.9362 14.6148 68.9166 14.6306C68.897 14.6464 68.8741 14.6576 68.8496 14.6634C68.8251 14.6692 68.7996 14.6694 68.775 14.6641C68.7374 14.6559 68.7036 14.6351 68.6795 14.6051C68.6553 14.5752 68.6421 14.5378 68.6421 14.4993C68.6421 14.4608 68.6553 14.4234 68.6795 14.3934C68.7036 14.3634 68.7374 14.3426 68.775 14.3345ZM70.5227 14.986C70.5685 14.986 70.6123 15.0042 70.6447 15.0366C70.677 15.0689 70.6952 15.1128 70.6952 15.1585C70.6952 15.2043 70.677 15.2481 70.6447 15.2805C70.6123 15.3128 70.5685 15.331 70.5227 15.331C70.477 15.331 70.4331 15.3128 70.4008 15.2805C70.3684 15.2481 70.3503 15.2043 70.3503 15.1585C70.3503 15.1128 70.3684 15.0689 70.4008 15.0366C70.4331 15.0042 70.477 14.986 70.5227 14.986ZM68.6753 16.3658C68.7 16.3712 68.7254 16.3709 68.75 16.3651C68.7745 16.3593 68.7974 16.3481 68.817 16.3323C68.8366 16.3165 68.8524 16.2965 68.8632 16.2738C68.8741 16.2511 68.8797 16.2262 68.8797 16.201C68.8797 16.1758 68.8741 16.151 68.8632 16.1283C68.8524 16.1056 68.8366 16.0856 68.817 16.0697C68.7974 16.0539 68.7745 16.0427 68.75 16.0369C68.7254 16.0311 68.7 16.0309 68.6753 16.0362C68.6377 16.0444 68.604 16.0652 68.5798 16.0952C68.5556 16.1252 68.5424 16.1625 68.5424 16.201C68.5424 16.2395 68.5556 16.2769 68.5798 16.3069C68.604 16.3369 68.6377 16.3577 68.6753 16.3658ZM69.5109 16.6035C69.5355 16.6088 69.561 16.6086 69.5855 16.6028C69.61 16.597 69.6329 16.5857 69.6525 16.5699C69.6721 16.5541 69.6879 16.5341 69.6988 16.5114C69.7096 16.4887 69.7153 16.4638 69.7153 16.4387C69.7153 16.4135 69.7096 16.3886 69.6988 16.3659C69.6879 16.3432 69.6721 16.3232 69.6525 16.3074C69.6329 16.2916 69.61 16.2804 69.5855 16.2746C69.561 16.2688 69.5355 16.2685 69.5109 16.2738C69.4732 16.282 69.4395 16.3028 69.4154 16.3328C69.3912 16.3628 69.378 16.4001 69.378 16.4387C69.378 16.4772 69.3912 16.5145 69.4154 16.5445C69.4395 16.5745 69.4732 16.5953 69.5109 16.6035ZM68.9896 16.6571C69.0273 16.6653 69.061 16.6861 69.0852 16.7161C69.1093 16.7461 69.1225 16.7834 69.1225 16.8219C69.1225 16.8604 69.1093 16.8978 69.0852 16.9278C69.061 16.9578 69.0273 16.9786 68.9896 16.9867C68.965 16.9921 68.9395 16.9918 68.915 16.986C68.8905 16.9802 68.8676 16.969 68.848 16.9532C68.8284 16.9374 68.8126 16.9174 68.8017 16.8947C68.7909 16.872 68.7852 16.8471 68.7852 16.8219C68.7852 16.7968 68.7909 16.7719 68.8017 16.7492C68.8126 16.7265 68.8284 16.7065 68.848 16.6907C68.8676 16.6748 68.8905 16.6636 68.915 16.6578C68.9395 16.652 68.965 16.6518 68.9896 16.6571ZM69.9708 17.0481C69.9762 17.0235 69.9759 16.998 69.9701 16.9735C69.9643 16.949 69.9531 16.9261 69.9373 16.9065C69.9215 16.8869 69.9015 16.871 69.8788 16.8602C69.856 16.8493 69.8312 16.8437 69.806 16.8437C69.7808 16.8437 69.756 16.8493 69.7332 16.8602C69.7105 16.871 69.6905 16.8869 69.6747 16.9065C69.6589 16.9261 69.6477 16.949 69.6419 16.9735C69.6361 16.998 69.6359 17.0235 69.6412 17.0481C69.6494 17.0857 69.6702 17.1194 69.7001 17.1436C69.7301 17.1678 69.7675 17.181 69.806 17.181C69.8445 17.181 69.8819 17.1678 69.9119 17.1436C69.9418 17.1194 69.9626 17.0857 69.9708 17.0481ZM68.6753 17.715C68.6306 17.715 68.5877 17.7327 68.5561 17.7644C68.5245 17.796 68.5067 17.8389 68.5067 17.8836C68.5067 17.9283 68.5245 17.9712 68.5561 18.0029C68.5877 18.0345 68.6306 18.0522 68.6753 18.0522C68.7201 18.0522 68.763 18.0345 68.7946 18.0029C68.8262 17.9712 68.844 17.9283 68.844 17.8836C68.844 17.8389 68.8262 17.796 68.7946 17.7644C68.763 17.7327 68.7201 17.715 68.6753 17.715ZM69.5262 17.9449C69.4886 17.9531 69.4549 17.9739 69.4307 18.0039C69.4065 18.0339 69.3933 18.0712 69.3933 18.1097C69.3933 18.1483 69.4065 18.1856 69.4307 18.2156C69.4549 18.2456 69.4886 18.2664 69.5262 18.2745C69.5508 18.2799 69.5763 18.2796 69.6008 18.2738C69.6253 18.268 69.6482 18.2568 69.6678 18.241C69.6874 18.2252 69.7032 18.2052 69.7141 18.1825C69.725 18.1598 69.7306 18.1349 69.7306 18.1097C69.7306 18.0846 69.725 18.0597 69.7141 18.037C69.7032 18.0143 69.6874 17.9943 69.6678 17.9785C69.6482 17.9627 69.6253 17.9514 69.6008 17.9456C69.5763 17.9398 69.5508 17.9396 69.5262 17.9449ZM70.3618 16.5038C70.3864 16.4985 70.4119 16.4987 70.4364 16.5045C70.4609 16.5103 70.4838 16.5215 70.5034 16.5373C70.523 16.5532 70.5388 16.5731 70.5496 16.5959C70.5605 16.6186 70.5661 16.6434 70.5661 16.6686C70.5661 16.6938 70.5605 16.7187 70.5496 16.7414C70.5388 16.7641 70.523 16.7841 70.5034 16.7999C70.4838 16.8157 70.4609 16.8269 70.4364 16.8327C70.4119 16.8385 70.3864 16.8388 70.3618 16.8334C70.3241 16.8253 70.2904 16.8045 70.2662 16.7745C70.242 16.7445 70.2289 16.7071 70.2289 16.6686C70.2289 16.6301 70.242 16.5928 70.2662 16.5628C70.2904 16.5328 70.3241 16.512 70.3618 16.5038ZM68.3841 17.0787C68.3464 17.0869 68.3127 17.1077 68.2885 17.1377C68.2643 17.1677 68.2512 17.205 68.2512 17.2435C68.2512 17.2821 68.2643 17.3194 68.2885 17.3494C68.3127 17.3794 68.3464 17.4002 68.3841 17.4083C68.4087 17.4137 68.4342 17.4134 68.4587 17.4076C68.4832 17.4018 68.5061 17.3906 68.5257 17.3748C68.5453 17.359 68.5611 17.339 68.5719 17.3163C68.5828 17.2936 68.5884 17.2687 68.5884 17.2435C68.5884 17.2184 68.5828 17.1935 68.5719 17.1708C68.5611 17.1481 68.5453 17.1281 68.5257 17.1123C68.5061 17.0964 68.4832 17.0852 68.4587 17.0794C68.4342 17.0736 68.4087 17.0734 68.3841 17.0787ZM69.2196 17.3164C69.182 17.3245 69.1482 17.3453 69.1241 17.3753C69.0999 17.4053 69.0867 17.4426 69.0867 17.4812C69.0867 17.5197 69.0999 17.557 69.1241 17.587C69.1482 17.617 69.182 17.6378 69.2196 17.646C69.2442 17.6513 69.2697 17.6511 69.2942 17.6453C69.3187 17.6395 69.3416 17.6283 69.3612 17.6124C69.3808 17.5966 69.3966 17.5766 69.4075 17.5539C69.4183 17.5312 69.424 17.5063 69.424 17.4812C69.424 17.456 69.4183 17.4311 69.4075 17.4084C69.3966 17.3857 69.3808 17.3657 69.3612 17.3499C69.3416 17.3341 69.3187 17.3229 69.2942 17.3171C69.2697 17.3113 69.2442 17.311 69.2196 17.3164ZM70.0705 17.554C70.0328 17.5622 69.9991 17.583 69.9749 17.6129C69.9508 17.6429 69.9376 17.6803 69.9376 17.7188C69.9376 17.7573 69.9508 17.7947 69.9749 17.8247C69.9991 17.8546 70.0328 17.8754 70.0705 17.8836C70.0951 17.8889 70.1206 17.8887 70.1451 17.8829C70.1696 17.8771 70.1925 17.8659 70.2121 17.8501C70.2317 17.8343 70.2475 17.8143 70.2584 17.7916C70.2692 17.7688 70.2749 17.744 70.2749 17.7188C70.2749 17.6936 70.2692 17.6688 70.2584 17.646C70.2475 17.6233 70.2317 17.6033 70.2121 17.5875C70.1925 17.5717 70.1696 17.5605 70.1451 17.5547C70.1206 17.5489 70.0951 17.5487 70.0705 17.554ZM69.5186 14.8174C69.5132 14.842 69.5135 14.8675 69.5193 14.892C69.5251 14.9165 69.5363 14.9394 69.5521 14.959C69.5679 14.9786 69.5879 14.9944 69.6106 15.0053C69.6333 15.0162 69.6582 15.0218 69.6834 15.0218C69.7085 15.0218 69.7334 15.0162 69.7561 15.0053C69.7788 14.9944 69.7988 14.9786 69.8146 14.959C69.8304 14.9394 69.8417 14.9165 69.8475 14.892C69.8533 14.8675 69.8535 14.842 69.8482 14.8174C69.84 14.7798 69.8192 14.7461 69.7892 14.7219C69.7592 14.6977 69.7219 14.6845 69.6834 14.6845C69.6448 14.6845 69.6075 14.6977 69.5775 14.7219C69.5475 14.7461 69.5267 14.7798 69.5186 14.8174ZM70.2238 14.4955C70.2484 14.5008 70.2739 14.5006 70.2984 14.4947C70.3229 14.4889 70.3458 14.4777 70.3654 14.4619C70.385 14.4461 70.4008 14.4261 70.4117 14.4034C70.4225 14.3807 70.4282 14.3558 70.4282 14.3306C70.4282 14.3055 70.4225 14.2806 70.4117 14.2579C70.4008 14.2352 70.385 14.2152 70.3654 14.1994C70.3458 14.1836 70.3229 14.1723 70.2984 14.1665C70.2739 14.1607 70.2484 14.1605 70.2238 14.1658C70.1861 14.174 70.1524 14.1948 70.1282 14.2248C70.1041 14.2548 70.0909 14.2921 70.0909 14.3306C70.0909 14.3692 70.1041 14.4065 70.1282 14.4365C70.1524 14.4665 70.1861 14.4873 70.2238 14.4955ZM70.9367 14.8174C70.9743 14.8092 71.008 14.7884 71.0322 14.7585C71.0564 14.7285 71.0696 14.6911 71.0696 14.6526C71.0696 14.6141 71.0564 14.5767 71.0322 14.5467C71.008 14.5168 70.9743 14.496 70.9367 14.4878C70.9121 14.4825 70.8866 14.4827 70.8621 14.4885C70.8376 14.4943 70.8147 14.5055 70.7951 14.5213C70.7755 14.5371 70.7596 14.5571 70.7488 14.5798C70.7379 14.6026 70.7323 14.6274 70.7323 14.6526C70.7323 14.6778 70.7379 14.7026 70.7488 14.7254C70.7596 14.7481 70.7755 14.7681 70.7951 14.7839C70.8147 14.7997 70.8376 14.8109 70.8621 14.8167C70.8866 14.8225 70.9121 14.8227 70.9367 14.8174ZM133.794 144.433C133.541 143.054 132.345 141.597 129.869 142.256C129.243 142.412 128.69 142.776 128.299 143.289C127.909 143.802 127.705 144.433 127.723 145.077C127.715 145.463 127.786 145.847 127.93 146.205C128.074 146.563 128.289 146.888 128.561 147.161C128.834 147.435 129.159 147.65 129.516 147.795C129.874 147.94 130.257 148.012 130.643 148.005C131.097 148.016 131.547 147.927 131.963 147.745C132.379 147.564 132.75 147.293 133.05 146.953C133.35 146.612 133.572 146.211 133.701 145.775C133.829 145.34 133.861 144.882 133.794 144.433ZM130.919 146.334C130.683 146.334 130.451 146.264 130.255 146.133C130.058 146.001 129.905 145.815 129.814 145.596C129.724 145.378 129.7 145.137 129.746 144.905C129.793 144.673 129.906 144.46 130.074 144.293C130.241 144.126 130.454 144.012 130.686 143.966C130.918 143.92 131.158 143.943 131.377 144.034C131.595 144.124 131.782 144.278 131.913 144.474C132.045 144.671 132.115 144.902 132.115 145.139C132.115 145.456 131.989 145.76 131.765 145.984C131.541 146.208 131.236 146.334 130.919 146.334ZM117.811 110.383C117.045 106.742 120.486 102.196 122.633 101.491C120.755 100.364 116.845 100.311 113.725 102.066C115.021 104.979 115.128 105.293 115.159 105.416C115.215 105.618 115.222 105.831 115.18 106.036C115.138 106.242 115.048 106.434 114.917 106.598C114.786 106.762 114.618 106.892 114.427 106.979C114.236 107.065 114.027 107.105 113.817 107.095C113.473 107.095 113.12 106.826 112.859 106.274C112.668 105.861 111.686 103.53 111.686 103.53C109.287 105.884 108.513 109.709 109.333 113.02C111.319 110.881 115.925 109.77 117.811 110.383Z" fill="black"/>
<path d="M146.971 122.518H135.196C131.831 116.056 126.764 106.658 124.35 103.078C123.958 102.511 123.461 102.024 122.886 101.645C121.092 102.311 119.237 105.24 118.601 107.279C117.65 110.284 118.447 111.257 123.966 121.843C125.676 125.101 133.932 140.562 135.012 142.448C139.734 139.443 139.405 136.868 139.374 133.211C139.404 131.404 138.935 129.624 138.017 128.068C137.465 126.971 136.484 125.063 135.304 122.771H146.955C146.982 122.771 147.007 122.76 147.026 122.741C147.044 122.723 147.055 122.697 147.055 122.671C147.07 122.602 147.024 122.518 146.971 122.518Z" fill="black"/>
<path d="M117.918 110.782C116.462 110.123 111.142 111.548 109.44 113.388C109.609 114.239 111.602 118.248 113.725 122.372H90.9129C90.7749 121.705 90.637 121.015 90.5067 120.318C90.5067 120.318 90.177 118.877 89.1192 111.671C88.3273 105.567 87.8463 99.4267 87.6781 93.2738L103.96 86.4208L103.4 85.1024C99.3526 86.6355 93.6572 88.8355 85.3938 92.7295C85.3938 92.7295 85.3171 92.6606 85.3554 92.6376C91.3882 89.3414 102.664 85.0717 103.285 84.8341L101.185 79.5296C101.177 79.5123 101.176 79.4925 101.182 79.4745C101.189 79.4565 101.202 79.4419 101.219 79.4337C101.236 79.4256 101.256 79.4247 101.274 79.4311C101.292 79.4376 101.307 79.451 101.315 79.4682C110.138 99.3985 112.453 104.649 113.051 105.991C113.358 106.665 113.564 106.696 113.725 106.757C113.876 106.769 114.028 106.749 114.171 106.699C114.314 106.65 114.445 106.571 114.556 106.468C114.667 106.365 114.755 106.24 114.815 106.101C114.875 105.962 114.906 105.813 114.906 105.661C114.906 105.293 115.604 106.842 102.925 78.556C102.916 78.5347 102.915 78.5106 102.924 78.489C102.933 78.4675 102.949 78.4502 102.971 78.4411C102.992 78.4319 103.016 78.4316 103.038 78.4402C103.059 78.4489 103.077 78.4657 103.086 78.487L105.7 83.9449C107.608 83.255 109.532 82.6264 111.771 82.0055C111.84 82.0055 111.909 82.1512 111.84 82.1741C111.357 82.3505 109.816 82.7797 105.822 84.2745L106.405 85.524L112.997 82.7644C113.022 82.7542 113.041 82.7348 113.051 82.7104C113.061 82.6859 113.061 82.6585 113.051 82.6341C110.751 76.816 108.804 71.8257 106.918 68.3533L102.373 71.1512C102.143 71.0132 102.059 70.9365 102.02 70.9212C106.336 68.2843 107.072 67.809 107.148 67.7937C106.308 65.179 105.204 62.6568 103.852 60.2662C103.086 60.3735 102.235 60.5191 101.415 60.6801C101.295 54.6529 99.9789 48.7096 97.5436 43.1951C106.16 43.3177 118.601 43.4097 127.186 43.0418C128.594 43.0109 129.996 42.8414 131.371 42.5359C132.905 42.1602 134.614 41.386 134.346 39.8453C133.955 37.5456 129.072 37.3233 126.749 37.3156C127.017 31.0146 119.574 28.8836 115.535 32.5324C116.24 29.3359 115.535 25.7867 112.714 23.7554C111.802 23.0847 110.765 22.6035 109.665 22.3401C108.564 22.0768 107.422 22.0367 106.305 22.2223C102.587 22.9198 99.9889 26.3233 100.043 29.0292C97.6049 27.8871 95.5352 28.3853 94.2321 29.7421C93.5107 30.5116 93.0298 31.4751 92.8487 32.5142C92.6676 33.5533 92.7941 34.6227 93.2126 35.5909C93.0823 35.5909 92.952 35.5909 92.8293 35.6369C86.4286 27.9714 76.9157 24.3226 69.5185 24.5679L68.614 22.3526C69.1111 21.6991 69.5424 20.9981 69.9018 20.2599C72.8683 21.2564 74.4091 16.4272 71.6342 16.5575C71.6062 16.3428 71.5125 16.142 71.3659 15.9826C71.5729 15.285 71.7722 14.5798 71.9561 13.8745C72.4398 13.7142 72.9378 13.6013 73.4433 13.5373C73.4818 13.5287 73.5164 13.5074 73.5414 13.4768C73.5664 13.4462 73.5805 13.4081 73.5812 13.3686V12.3568C73.5816 12.3308 73.5763 12.3051 73.5656 12.2814C73.5549 12.2577 73.539 12.2367 73.5193 12.2199C73.4995 12.203 73.4762 12.1908 73.4512 12.184C73.4261 12.1771 73.3998 12.176 73.3743 12.1805L72.8223 12.2648C72.7992 12.2692 72.7753 12.2689 72.7523 12.2639C72.7292 12.2589 72.7074 12.2493 72.688 12.2358C72.6687 12.2222 72.6524 12.2049 72.6399 12.1848C72.6274 12.1648 72.6191 12.1425 72.6154 12.1191V11.9352C72.6079 11.8927 72.6163 11.849 72.6389 11.8122C72.6615 11.7755 72.6967 11.7483 72.738 11.7359L73.9338 11.3833C73.9702 11.373 74.0021 11.3508 74.0244 11.3202C74.0466 11.2896 74.0579 11.2524 74.0565 11.2146V10.2641C74.0577 10.24 74.0537 10.2159 74.0448 10.1934C74.0358 10.1709 74.0222 10.1507 74.0047 10.134C73.9873 10.1172 73.9665 10.1045 73.9436 10.0965C73.9208 10.0885 73.8966 10.0856 73.8725 10.0878L72.876 10.1644C72.8393 10.1662 72.8028 10.157 72.7714 10.1378C72.74 10.1187 72.715 10.0906 72.6997 10.0571L72.6384 9.91915C72.6273 9.89624 72.6213 9.87122 72.6209 9.84579C72.6204 9.82036 72.6254 9.79512 72.6356 9.77182C72.6458 9.74852 72.6609 9.72769 72.6799 9.71078C72.6989 9.69387 72.7214 9.68128 72.7457 9.67385L74.0105 9.27525C74.0559 9.25952 74.0933 9.22666 74.1148 9.18369C74.1363 9.14071 74.1401 9.09104 74.1255 9.04528L73.7959 8.0641C73.7834 8.02159 73.7547 7.9857 73.716 7.96418C73.6772 7.94266 73.6316 7.93725 73.5889 7.94912L72.0558 8.29406C72.0171 8.30504 71.9757 8.30181 71.9391 8.28494C71.9026 8.26807 71.8733 8.23868 71.8565 8.20208L71.7798 8.04877C71.7692 8.02814 71.7628 8.00562 71.7609 7.9825C71.759 7.95938 71.7617 7.93612 71.7689 7.91404C71.776 7.89197 71.7874 7.87152 71.8024 7.85386C71.8175 7.8362 71.8358 7.82168 71.8565 7.81114L73.0063 7.20556C73.0347 7.19232 73.059 7.17176 73.0768 7.146C73.0946 7.12024 73.1052 7.09021 73.1076 7.05898C73.1099 7.02776 73.1039 6.99648 73.0901 6.96835C73.0764 6.94023 73.0554 6.91627 73.0293 6.89894L71.8718 5.67246C71.8389 5.64062 71.795 5.62281 71.7492 5.62281C71.7034 5.62281 71.6594 5.64062 71.6265 5.67246L70.3771 6.69197C70.3475 6.71837 70.3093 6.73297 70.2697 6.73297C70.2301 6.73297 70.1919 6.71837 70.1624 6.69197C70.1311 6.66038 70.1135 6.61767 70.1135 6.57316C70.1135 6.52864 70.1311 6.48593 70.1624 6.45434L70.8523 5.45016C70.8681 5.42796 70.8786 5.4024 70.8828 5.37549C70.8871 5.34858 70.8851 5.32104 70.8769 5.29504C70.8687 5.26905 70.8546 5.2453 70.8357 5.22566C70.8168 5.20603 70.7937 5.19104 70.768 5.18187L69.4725 4.69894C69.4343 4.68357 69.3919 4.68205 69.3527 4.69465C69.3135 4.70725 69.28 4.73318 69.2579 4.76793L68.545 5.8871C68.5239 5.92496 68.489 5.95325 68.4477 5.96609C68.4063 5.97894 68.3615 5.97535 68.3227 5.95609L68.2384 5.91776C68.1948 5.8963 68.1614 5.85846 68.1456 5.8125C68.1298 5.76654 68.1329 5.7162 68.1541 5.67246L68.752 4.50731C68.7633 4.48538 68.77 4.46132 68.7715 4.43666C68.7729 4.41201 68.7692 4.38732 68.7606 4.36419C68.7519 4.34106 68.7384 4.32002 68.7211 4.30241C68.7038 4.28481 68.683 4.27105 68.66 4.26201L67.6098 3.83274C67.568 3.81426 67.5207 3.81272 67.4778 3.82845C67.4349 3.84418 67.3998 3.87595 67.3798 3.91706L66.529 5.63414C66.5108 5.67133 66.4801 5.70094 66.4422 5.71776C66.4044 5.73458 66.3618 5.73754 66.322 5.72612C66.2994 5.72085 66.2781 5.71098 66.2595 5.69712C66.2409 5.68325 66.2254 5.6657 66.2139 5.64555C66.2024 5.62541 66.1951 5.6031 66.1926 5.58003C66.1901 5.55697 66.1924 5.53363 66.1994 5.51149L66.5596 4.26201C66.568 4.23717 66.5704 4.21072 66.5668 4.18476C66.5632 4.15881 66.5535 4.13406 66.5386 4.11248C66.5237 4.09091 66.504 4.07309 66.4811 4.06046C66.4581 4.04783 66.4325 4.04073 66.4063 4.03971L65.0879 3.96306C65.0467 3.96051 65.006 3.97314 64.9735 3.99857C64.941 4.024 64.919 4.06045 64.9116 4.10104L64.6356 5.42717C64.6263 5.47285 64.5994 5.51302 64.5606 5.53888C64.5218 5.56473 64.4744 5.57418 64.4286 5.56515H64.3673C64.3434 5.56328 64.3201 5.55655 64.2989 5.54537C64.2777 5.5342 64.259 5.51881 64.2439 5.50016C64.2288 5.4815 64.2177 5.45997 64.2113 5.43687C64.2048 5.41378 64.2031 5.38961 64.2063 5.36584V4.25435C64.2055 4.22877 64.1993 4.20366 64.1882 4.18062C64.177 4.15757 64.1612 4.1371 64.1418 4.12051C64.1223 4.10391 64.0996 4.09157 64.075 4.08426C64.0505 4.07694 64.0247 4.07483 63.9994 4.07804L62.9185 4.26968C62.8745 4.27722 62.8349 4.3012 62.8079 4.33677C62.7809 4.37235 62.7683 4.41686 62.7729 4.46131L62.8572 5.4425C62.8577 5.48495 62.843 5.52618 62.8156 5.5586C62.7881 5.59102 62.75 5.61247 62.708 5.61899C62.6661 5.62552 62.6232 5.61669 62.5872 5.59412C62.5512 5.57156 62.5246 5.53677 62.5123 5.49616L62.3206 4.72961C62.3144 4.70574 62.3035 4.68336 62.2885 4.6638C62.2735 4.64424 62.2547 4.62789 62.2332 4.61574C62.2118 4.60358 62.1881 4.59586 62.1636 4.59304C62.1391 4.59021 62.1143 4.59234 62.0906 4.59929L61.1555 4.95957C61.1337 4.96803 61.1139 4.98071 61.0971 4.99687C61.0803 5.01304 61.0669 5.03238 61.0577 5.05376C61.0484 5.07515 61.0434 5.09816 61.0431 5.12146C61.0428 5.14477 61.0471 5.16791 61.0558 5.18954L61.4851 6.2857C61.5013 6.3266 61.5016 6.37207 61.486 6.4132C61.4704 6.45433 61.44 6.48815 61.4008 6.508L61.3241 6.52333C61.3035 6.53394 61.2809 6.54036 61.2578 6.54225C61.2347 6.54413 61.2115 6.54144 61.1894 6.53432C61.1673 6.5272 61.1469 6.51579 61.1292 6.50075C61.1115 6.48571 61.097 6.46734 61.0865 6.44668L60.5575 5.47316C60.5478 5.45174 60.5338 5.43259 60.5162 5.41693C60.4987 5.40127 60.4781 5.38945 60.4557 5.38223C60.4333 5.37502 60.4097 5.37256 60.3863 5.37501C60.3629 5.37747 60.3403 5.38479 60.3199 5.3965L59.7297 5.70312C59.7078 5.71342 59.6884 5.7283 59.6728 5.74674C59.6572 5.76518 59.6457 5.78677 59.6392 5.81003C59.6327 5.83329 59.6312 5.85768 59.6349 5.88156C59.6386 5.90544 59.6474 5.92824 59.6607 5.94842L60.4272 7.28222C60.4542 7.31297 60.469 7.35247 60.469 7.39337C60.469 7.43426 60.4542 7.47376 60.4272 7.50452L60.3276 7.58117C60.2956 7.60869 60.2548 7.62383 60.2126 7.62383C60.1704 7.62383 60.1296 7.60869 60.0976 7.58117L59.5994 7.11358C59.5679 7.08806 59.5287 7.07413 59.4882 7.07413C59.4477 7.07413 59.4085 7.08806 59.3771 7.11358L58.9325 7.45086C58.9044 7.48407 58.8889 7.52617 58.8889 7.56967C58.8889 7.61318 58.9044 7.65527 58.9325 7.68849C59.3259 8.44259 59.6517 9.23011 59.906 10.0418C59.6275 10.3664 59.3714 10.7096 59.1394 11.069C58.9222 11.0802 58.7142 11.1607 58.5459 11.2986C58.3777 11.4366 58.2579 11.6247 58.2042 11.8355C58.2006 11.8546 58.2031 11.8743 58.2113 11.8919C58.2196 11.9095 58.2332 11.924 58.2503 11.9334C58.2673 11.9427 58.2868 11.9465 58.3061 11.944C58.3254 11.9416 58.3434 11.9331 58.3575 11.9198C58.495 11.7407 58.6704 11.5941 58.8711 11.4906C58.6397 11.8576 58.4274 12.2362 58.2349 12.6251L56.5025 12.4794C56.4745 12.4751 56.4459 12.4767 56.4186 12.4843C56.3913 12.4918 56.3659 12.5051 56.3442 12.5232C56.3224 12.5414 56.3048 12.5639 56.2924 12.5894C56.2801 12.6149 56.2733 12.6427 56.2725 12.6711V13.0007C56.2695 13.0465 56.2813 13.0921 56.3062 13.1307C56.331 13.1694 56.3676 13.199 56.4105 13.2153C56.2189 14.2655 56.2265 15.6836 57.1234 16.2815C57.0544 16.6878 57.0008 17.0481 56.9624 17.5387C56.0119 17.1324 54.9311 17.2934 54.8851 18.3435C53.5743 17.8529 52.8537 18.4049 52.8001 19.2787C50.83 18.7191 50.2934 22.5059 50.807 24.292C47.2579 28.2474 33.8739 36.5568 37.0551 46.9129C38.7185 52.731 44.7666 53.6585 50.968 51.9721C49.8795 61.1707 50.4468 70.9825 50.807 71.1358C50.9833 71.2278 51.1673 71.3198 51.3513 71.3965C50.1555 73.0726 49.0593 74.7795 48.0628 76.517H47.5645C47.7332 69.917 40.1213 68.1386 36.2809 71.7951C36.2809 62.4432 22.2147 62.0905 22.1381 72.0097C18.0217 69.0968 12.5869 72.1937 14.1583 75.8425C12.1269 75.8425 9.69696 76.0648 7.94922 77.1303C4.99034 78.9546 6.1325 82.2738 9.35201 82.2815C17.6001 82.2815 31.7199 82.7951 45.1116 82.3888C39.6307 94.8222 38.5116 108.451 39.4391 122.357C36.6259 122.357 12.5332 122.495 7.0447 122.679C6.90672 122.679 6.91438 122.893 7.0447 122.886C12.5102 122.755 36.5032 122.717 39.4621 122.717C39.807 127.746 40.4203 132.828 41.1868 137.91C41.1878 137.96 41.2059 138.007 41.238 138.045C41.2702 138.083 41.3144 138.108 41.3631 138.117L42.9422 138.378C42.8349 139.021 42.6893 139.849 42.5743 140.394C40.1134 140.404 37.6739 140.851 35.3687 141.712C30.1178 144.081 46.4607 145.844 46.4837 145.844C47.1195 143.659 47.6036 141.434 47.9325 139.182L49.09 139.374C49.1565 139.381 49.2233 139.363 49.2772 139.323C49.3311 139.284 49.3682 139.225 49.3812 139.159C50.3471 133.686 51.5046 128.144 53.0224 122.709H74.2481C78.239 129.265 82.8025 135.455 87.8851 141.206C87.9278 141.255 87.9862 141.288 88.0505 141.299C88.1147 141.311 88.1808 141.299 88.2377 141.267L89.2572 140.693C89.6788 141.52 89.8551 141.819 90.2077 142.456C88.3549 144.06 86.7982 145.978 85.6084 148.12C84.8419 149.753 86.6662 149.654 88.368 149.171C91.1046 148.404 96.754 144.065 96.754 144.065C96.6314 143.697 95.1519 140.095 94.1171 137.933L94.7917 137.55C94.8453 137.518 94.8861 137.468 94.9071 137.409C94.9281 137.351 94.9279 137.286 94.9066 137.228C93.294 132.483 91.9932 127.639 91.0126 122.725H113.932C116.232 127.132 118.585 131.578 119.015 132.391C124.457 142.632 124.38 142.448 125.147 143.161C125.816 143.798 126.625 144.27 127.508 144.541C127.953 141.344 132.33 140.654 133.702 143.245C134.044 143.056 134.389 142.857 134.737 142.647C132.245 138.523 118.662 113.258 117.918 110.782ZM104.182 74.271C104.239 74.9291 104.187 75.5921 104.029 76.2334C103.898 77.3832 104.443 78.74 103.63 78.947C103.239 78.3184 102.863 77.6438 102.457 76.9999C101.898 76.1797 100.924 75.3519 100.227 75.6815C99.5289 76.0111 100.043 77.0306 100.341 77.6668C100.863 78.7783 100.771 80.1428 100.441 79.9665C100.28 79.8822 99.8892 78.74 99.2223 77.8968C97.0913 75.1832 97.5206 73.3588 97.3213 72.0787C97.8378 71.9996 98.3497 71.8921 98.8544 71.7567C99.0335 71.9648 99.2773 72.1067 99.5467 72.1598C99.8161 72.2128 100.095 72.174 100.34 72.0494C100.585 71.9249 100.781 71.7218 100.896 71.4728C101.012 71.2238 101.041 70.9432 100.978 70.6759C102.381 71.4041 103.937 72.6919 104.182 74.271ZM98.9694 70.9672C98.9694 70.8156 99.0143 70.6674 99.0986 70.5413C99.1828 70.4153 99.3025 70.317 99.4426 70.259C99.5826 70.201 99.7368 70.1858 99.8855 70.2154C100.034 70.2449 100.171 70.318 100.278 70.4252C100.385 70.5324 100.458 70.669 100.488 70.8176C100.517 70.9663 100.502 71.1205 100.444 71.2605C100.386 71.4006 100.288 71.5203 100.162 71.6046C100.036 71.6888 99.8875 71.7337 99.7359 71.7337C99.5326 71.7337 99.3376 71.653 99.1939 71.5092C99.0501 71.3655 98.9694 71.1705 98.9694 70.9672ZM93.3889 35.7749C93.4056 35.7736 93.4217 35.7685 93.4361 35.7598C93.4504 35.7512 93.4625 35.7393 93.4715 35.7252C93.4804 35.711 93.4859 35.695 93.4876 35.6783C93.4892 35.6617 93.4869 35.6449 93.4809 35.6292C92.1164 32.6627 93.9408 28.8606 97.1373 28.6383C98.1966 28.5997 99.2492 28.8208 100.204 29.2822C100.217 29.2824 100.23 29.2796 100.243 29.2741C100.255 29.2685 100.266 29.2603 100.275 29.2501C100.283 29.2399 100.29 29.2278 100.293 29.2148C100.297 29.2018 100.298 29.1882 100.295 29.1749C100.204 26.7143 102.695 23.2878 106.428 22.5902C108.021 22.3246 109.658 22.5489 111.121 23.2332C112.584 23.9176 113.805 25.0298 114.622 26.423C115.556 28.3965 115.799 30.6265 115.312 32.7547C115.304 32.7765 115.304 32.8005 115.312 32.8223C115.32 32.8442 115.335 32.8626 115.355 32.8745C115.375 32.8863 115.399 32.8908 115.422 32.8871C115.445 32.8834 115.466 32.8718 115.481 32.8543C119.39 29.1826 126.772 31.2522 126.596 37.354C126.595 37.3677 126.597 37.3815 126.601 37.3945C126.606 37.4075 126.613 37.4194 126.622 37.4295C126.632 37.4395 126.643 37.4476 126.655 37.453C126.668 37.4585 126.682 37.4613 126.695 37.4613C128.52 37.5609 132.337 37.7832 133.594 39.0404C133.835 39.2464 133.996 39.5296 134.051 39.8414C134.105 40.1533 134.05 40.4744 133.893 40.7498C132.974 42.3366 129.003 42.6355 127.194 42.7198C119.045 43.0418 108.551 42.9268 97.4363 42.8731C96.2539 40.3361 94.7633 37.9546 92.9979 35.7825L93.3889 35.7749ZM75.5819 25.4801C94.9986 29.9721 103.377 49.8257 100.679 68.9895C100.567 69.3011 100.383 69.5821 100.142 69.8097C99.9792 69.7565 99.8068 69.738 99.6362 69.7555C99.4656 69.773 99.3006 69.8261 99.1518 69.9113C99.003 69.9966 98.8737 70.1121 98.7723 70.2504C98.6709 70.3887 98.5996 70.5467 98.5631 70.7142C97.8195 70.9457 97.0415 71.0469 96.2634 71.0132C96.2634 71.0132 95.9108 70.4229 95.3742 69.4801C97.214 69.3651 99.7359 68.6292 100.594 67.0271C100.606 67.002 100.608 66.9736 100.6 66.9471C100.592 66.9207 100.575 66.8979 100.552 66.883C100.528 66.8681 100.501 66.8621 100.473 66.8661C100.446 66.87 100.421 66.8836 100.403 66.9045C99.3296 68.3379 97.007 68.9588 95.2286 69.2041C90.0927 60.3811 85.5701 52.6466 78.6865 45.74C78.657 45.7116 78.6174 45.696 78.5764 45.6967C78.5355 45.6974 78.4964 45.7144 78.468 45.7439C78.4395 45.7733 78.4239 45.8129 78.4247 45.8539C78.4254 45.8949 78.4423 45.9339 78.4718 45.9623C81.0943 48.6519 83.4986 51.5458 85.6621 54.6167C87.5248 58.986 88.6133 62.5351 89.2188 64.3442C85.5823 65.7863 82.048 67.4741 78.6405 69.3958C75.6432 53.4822 72.2934 39.2014 72.8223 31.4285C73.037 28.3623 74.3554 26.0627 75.5436 25.5108L75.5819 25.4801ZM91.4418 63.5393C90.8439 63.754 90.2537 63.9839 89.6635 64.2139C88.7513 61.4466 87.7624 58.7024 86.6432 56.0118C88.437 58.6257 89.9624 61.0787 91.4418 63.5393ZM75.6662 72.8222C74.7812 73.0181 73.8853 73.1614 72.9833 73.2515C71.0211 67.5926 69.4134 61.817 68.1694 55.9581C68.247 48.9095 69.4663 41.9199 71.7798 35.2613C71.7798 42.0223 74.3631 53.7658 77.7666 69.9477C76.8927 70.4587 76.0648 70.9697 75.283 71.4808C75.4056 71.9484 75.5359 72.3853 75.6662 72.8222ZM58.2579 65.0954C57.2154 54.5707 57.3687 37.7143 61.4774 28.0557L60.7109 33.4216C60.708 33.452 60.7143 33.4827 60.729 33.5095C60.7437 33.5364 60.7661 33.5582 60.7933 33.5723C60.8205 33.5863 60.8513 33.5918 60.8817 33.5882C60.9121 33.5846 60.9407 33.5719 60.9638 33.5519L62.3283 32.2641L62.7422 33.9735C59.0321 46.9052 60.5805 55.5212 61.876 61.8452C61.968 62.2898 65.7701 64.2139 65.9847 64.1449C66.0289 64.1297 66.0694 64.1055 66.1037 64.0738C66.138 64.0422 66.1653 64.0037 66.184 63.9609L67.7171 60.4195C65.3332 54.0801 63.1178 43.5554 63.7847 34.2341L65.1952 32.701L66.4063 34.7554C66.4177 34.7712 66.4326 34.7841 66.45 34.793C66.4673 34.8019 66.4865 34.8065 66.506 34.8065C66.5255 34.8065 66.5447 34.8019 66.562 34.793C66.5793 34.7841 66.5943 34.7712 66.6056 34.7554C65.2105 44.6592 67.3722 56.1728 70.1164 65.747C66.1523 65.8642 62.1853 65.6462 58.2579 65.0954ZM64.5359 66.8202C63.867 66.8179 63.1988 66.7744 62.5352 66.6898L62.4739 65.8466C62.9798 65.908 63.8077 65.9463 64.4363 65.954L64.5359 66.8202ZM58.2962 32.1951L57.2461 30.1331C57.695 29.591 58.179 29.0789 58.6948 28.6C59.6056 27.6815 60.7111 26.9794 61.9297 26.5456C60.9369 28.428 60.1652 30.419 59.63 32.4787C57.9589 38.6111 57.3304 46.0237 57.2307 52.3707C56.6328 45.3568 55.9812 39.3393 55.5826 34.855C58.5032 32.0954 58.3346 32.2871 58.2962 32.1951ZM62.2516 25.8557C62.2288 25.9415 62.2109 26.0285 62.198 26.1164C57.6983 27.9254 54.8927 30.5547 51.8802 33.5059C52.2405 31.7275 53.3213 26.3003 53.329 26.2773C53.9874 26.266 54.6387 26.1389 55.253 25.9017C56.5485 25.4035 56.3875 24.9512 58.2656 23.6864C58.725 24.3241 59.3216 24.8507 60.0114 25.2274C60.7013 25.6042 61.4668 25.8215 62.2516 25.8634V25.8557ZM59.4997 20.6968C60.0823 21.3714 61.4084 20.9498 61.7994 20.2446C61.8044 20.2283 61.8158 20.2147 61.8309 20.2068C61.846 20.1989 61.8636 20.1973 61.8798 20.2024C61.8961 20.2075 61.9097 20.2188 61.9176 20.2339C61.9255 20.249 61.9271 20.2666 61.922 20.2829C61.7534 21.4021 59.8753 21.816 59.3387 20.8118C59.3271 20.7905 59.3237 20.7656 59.3292 20.7419C59.3346 20.7181 59.3485 20.6972 59.3683 20.6831C59.3881 20.669 59.4124 20.6626 59.4366 20.6651C59.4608 20.6676 59.4833 20.6789 59.4997 20.6968ZM62.3513 26.5763C62.3513 26.5763 62.5122 27.8104 62.5276 27.8334C62.8879 28.7533 63.2328 29.6731 63.5931 30.5853L61.0098 33L61.922 27.2508L62.3513 26.5763ZM64.329 30.662L69.1506 25.5644C67.8749 28.4304 67.0129 31.463 66.5903 34.5714L64.329 30.662ZM74.9917 25.3498C72.5617 26.7526 71.9255 30.9763 71.8105 33.7819L69.1736 31.4822C70.4 30.1791 72.3164 27.9791 72.9373 27.2355C72.9617 27.2065 72.975 27.1699 72.975 27.132C72.975 27.0942 72.9617 27.0575 72.9373 27.0285C72.158 26.1276 71.2034 25.3947 70.1318 24.8745C71.7642 24.8648 73.3931 25.0267 74.9917 25.3575V25.3498ZM69.6872 24.9665C70.8084 25.4516 71.8046 26.1856 72.6 27.1129C71.9715 27.8334 70.1624 30.0258 69.0356 31.4285C69.0292 31.4336 69.0241 31.44 69.0205 31.4473C69.017 31.4546 69.0151 31.4626 69.0151 31.4707C69.0151 31.4788 69.017 31.4868 69.0205 31.4941C69.0241 31.5014 69.0292 31.5078 69.0356 31.5129L71.7875 34.2265C69.5338 40.8111 68.0084 46.7979 67.9548 54.7547C66.4753 47.0048 65.8314 38.4348 67.6635 30.8306C68.1165 28.8088 68.7953 26.8444 69.6872 24.9742V24.9665ZM69.3269 25.0202C65.4941 29.0446 64.3826 30.1331 64.099 30.4857C63.961 30.6467 63.9227 30.6467 63.869 30.4857C63.8154 30.3247 63.5241 29.6578 62.8035 27.7261C62.7269 27.0975 62.6579 26.469 62.5812 25.8481C64.8809 25.8481 67.0119 24.315 68.4607 22.5442C68.4913 22.6439 69.2042 24.6752 69.3269 25.0279V25.0202ZM71.6725 16.8104C71.82 16.7886 71.9705 16.7998 72.1132 16.8434C72.2558 16.887 72.3869 16.9617 72.497 17.0623C72.6071 17.1629 72.6934 17.2867 72.7497 17.4248C72.806 17.5628 72.8308 17.7117 72.8223 17.8606C72.8336 18.215 72.7569 18.5666 72.5991 18.8841C72.4414 19.2016 72.2074 19.4751 71.9181 19.6801C71.6288 19.8851 71.2933 20.0152 70.9414 20.0589C70.5896 20.1025 70.2324 20.0584 69.9018 19.9303H69.8481C69.9709 19.6035 70.0682 19.2678 70.1394 18.9261C70.145 18.8888 70.1374 18.8507 70.1177 18.8185C70.0981 18.7863 70.0678 18.762 70.0321 18.7498L67.9624 18.1212C67.9284 18.1121 67.8923 18.1138 67.8593 18.1262C67.8263 18.1385 67.7981 18.1609 67.7784 18.1902C67.6226 18.5362 67.3959 18.8456 67.113 19.0985C66.8301 19.3514 66.4973 19.5421 66.1361 19.6584C65.775 19.7747 65.3934 19.814 65.0161 19.7737C64.6388 19.7334 64.2742 19.6144 63.9457 19.4244C61.3854 18.0446 60.2663 18.3205 58.9938 18.6578L57.1081 19.1637C57.0621 18.228 57.116 17.2901 57.269 16.3658C57.5774 16.4949 57.9083 16.5613 58.2426 16.5613C58.5768 16.5613 58.9077 16.4949 59.2161 16.3658C59.5263 16.1476 59.7827 15.8617 59.966 15.5296C60.1493 15.1976 60.2546 14.8282 60.2739 14.4495C60.9562 14.0279 61.3088 14.2272 61.9833 14.6948C61.8607 15.8139 62.106 16.8411 63.1868 17.186C64.6509 17.646 65.7701 17.1477 66.253 15.4076C66.707 15.3265 67.1742 15.3635 67.6098 15.515C68.568 15.8292 70.5993 16.4425 70.9366 16.5498C70.9366 16.6495 70.883 16.7568 70.8523 16.8564C70.8438 16.8789 70.8426 16.9036 70.8489 16.9268C70.8551 16.95 70.8685 16.9707 70.8871 16.986C70.9057 17.0012 70.9287 17.0102 70.9527 17.0117C70.9767 17.0132 71.0006 17.0072 71.021 16.9944C71.2186 16.8777 71.4431 16.8143 71.6725 16.8104ZM62.4049 13.6982L66.2377 14.2195C65.8391 16.1589 65.1415 17.3547 63.2635 16.7951C62.0906 16.4272 62.1443 14.9094 62.4049 13.6982ZM59.1701 11.3986C59.5032 11.5427 59.7879 11.7795 59.9903 12.0808C60.0045 12.0941 60.0225 12.1026 60.0417 12.105C60.061 12.1074 60.0806 12.1037 60.0976 12.0944C60.1146 12.085 60.1282 12.0705 60.1365 12.0529C60.1448 12.0353 60.1473 12.0156 60.1436 11.9965C60.0869 11.8002 59.9892 11.6181 59.8571 11.4622C59.725 11.3063 59.5614 11.1802 59.3771 11.092C59.6292 10.7356 59.9031 10.3951 60.1973 10.0725C62.0256 9.72266 63.9005 9.69154 65.7394 9.98047C66.0946 10.0243 66.4372 10.1394 66.7469 10.3187C67.0565 10.4981 67.3268 10.7381 67.5415 11.0244C67.7562 11.3107 67.9109 11.6373 67.9964 11.9848C68.0819 12.3323 68.0964 12.6935 68.0391 13.0467C68.0347 13.0902 68.0475 13.1338 68.0747 13.1681C68.1018 13.2025 68.1413 13.2249 68.1847 13.2306C69.3637 13.4512 70.4869 13.9047 71.4885 14.5644C71.3736 15.009 71.2663 15.446 71.1436 15.8829L66.5443 14.2272C66.6516 14.1582 66.6363 14.0662 66.6823 13.7596C66.6888 13.7038 66.6732 13.6476 66.6388 13.6032C66.6044 13.5587 66.554 13.5296 66.4983 13.5219L62.4126 12.9624C62.3568 12.9558 62.3006 12.9714 62.2562 13.0058C62.2118 13.0402 62.1826 13.0907 62.175 13.1463L62.129 13.4683C62.1222 13.5088 62.1281 13.5505 62.146 13.5876C62.1638 13.6246 62.1927 13.6552 62.2286 13.6752C62.1535 13.9054 62.0971 14.1412 62.06 14.3805C61.97 14.2446 61.8535 14.1283 61.7174 14.0385C61.5814 13.9487 61.4287 13.8873 61.2683 13.858C61.108 13.8286 60.9434 13.8319 60.7844 13.8677C60.6254 13.9035 60.4752 13.971 60.3429 14.0662V13.5143C60.3726 13.499 60.3975 13.4759 60.415 13.4476C60.4326 13.4192 60.4421 13.3866 60.4426 13.3533C60.4426 13.2153 60.5882 12.8244 60.2816 12.8014L58.4649 12.6404C58.6766 12.221 58.912 11.8141 59.1701 11.4216V11.3986ZM60.1359 13.4836C60.0593 14.3421 59.8217 15.6146 59.0628 16.0132C58.5096 16.237 57.8912 16.237 57.338 16.0132C57.4966 15.099 57.7536 14.2046 58.1046 13.3456L60.1359 13.4836ZM56.4795 13.177L57.8056 13.2843C57.4676 14.1003 57.2108 14.9476 57.0391 15.8139C56.4105 15.331 56.4028 14.0432 56.4795 13.2V13.177ZM57.7443 22.8355C57.0467 23.0731 55.3757 23.7554 54.4481 24.1616C53.9499 23.0578 53.8119 22.6975 53.0147 21.0341C53.4658 21.0555 53.916 20.977 54.3332 20.8042C54.9694 20.4669 55.1457 19.7923 53.7046 19.4857C54.7463 19.1688 55.7699 18.7951 56.7708 18.3665C56.7139 19.9218 57.0487 21.4664 57.7443 22.8585V22.8355ZM56.8015 17.8299V18.1519C56.1652 18.3282 55.6976 18.4968 55.437 18.5888C55.2978 18.5026 55.1517 18.4283 55.0001 18.3665C55.069 17.439 55.9582 17.4773 56.8015 17.8299ZM55.0001 18.7345C54.7011 18.8418 54.0572 19.0718 53.2677 19.4014L52.892 19.2864C53.0454 18.1826 53.9805 18.2899 55.0001 18.7345ZM50.7764 24.5296C50.8407 24.7247 50.931 24.9103 51.0447 25.0815C51.0654 25.1064 51.0946 25.1227 51.1266 25.1272C51.1587 25.1317 51.1912 25.1242 51.218 25.106C51.2448 25.0878 51.2639 25.0603 51.2715 25.0289C51.2791 24.9974 51.2748 24.9643 51.2593 24.9359C51.131 24.7312 51.0329 24.5092 50.968 24.2766C50.4927 22.8049 50.9143 19.1024 52.5011 19.5164C52.7311 19.5777 52.961 19.6697 53.214 19.7463C53.467 19.823 55.1687 20.0529 54.1952 20.5819C53.5118 20.8213 52.7808 20.8923 52.0642 20.7888C52.047 20.7942 52.032 20.8049 52.0214 20.8194C52.0107 20.8338 52.005 20.8513 52.005 20.8693C52.005 20.8873 52.0107 20.9048 52.0214 20.9193C52.032 20.9337 52.047 20.9444 52.0642 20.9498C52.291 21.0172 52.5253 21.0559 52.7617 21.0648C53.444 22.8125 53.7123 23.3644 54.1952 24.5603C54.2171 24.6096 54.2574 24.6484 54.3075 24.6685C54.3576 24.6885 54.4136 24.6882 54.4635 24.6676C55.391 24.292 57.1924 23.4718 57.9053 23.1345C57.9823 23.2743 58.0667 23.4099 58.1582 23.5407C56.3952 24.4836 56.4028 25.1428 55.161 25.6334C54.4658 25.911 53.7249 26.0566 52.9764 26.0627C52.9481 26.0697 52.923 26.086 52.9051 26.1089C52.8872 26.1318 52.8774 26.1601 52.8774 26.1892C52.8774 26.2183 52.8872 26.2465 52.9051 26.2695C52.923 26.2924 52.9481 26.3086 52.9764 26.3157H53.1833C53.122 26.538 53.0684 26.7603 53.007 26.9826C52.3095 26.3923 51.2133 25.5108 50.4468 24.9742C50.5157 24.7979 50.6461 24.6522 50.7764 24.5296ZM50.1401 25.2042C50.8454 25.8021 52.1102 26.7373 52.8691 27.2508C52.5701 28.3853 52.4474 28.9449 52.3401 29.3895C50.9008 28.7064 49.5101 27.9252 48.1778 27.0515C48.7373 26.5226 49.4732 25.8634 50.1401 25.1812V25.2042ZM51.1366 70.8369C50.364 61.8194 50.849 52.7382 52.5778 43.8543C52.5808 43.8412 52.5812 43.8277 52.579 43.8144C52.5768 43.8012 52.572 43.7885 52.5648 43.7771C52.5577 43.7657 52.5484 43.7559 52.5375 43.7481C52.5266 43.7403 52.5142 43.7347 52.5011 43.7317C52.488 43.7286 52.4745 43.7282 52.4612 43.7305C52.448 43.7327 52.4353 43.7375 52.4239 43.7446C52.4125 43.7517 52.4026 43.761 52.3948 43.7719C52.3871 43.7829 52.3815 43.7952 52.3785 43.8083C51.7709 46.3856 51.3153 48.9964 51.014 51.6271C45.1729 53.1602 39.1555 52.4627 37.4154 46.7136C35.752 41.2557 38.9485 36.2118 42.8579 32.0878C44.483 30.3707 46.1847 28.8683 47.9248 27.2892C48.8523 28.2397 50.991 29.2132 52.2788 29.6655C51.7576 31.9268 51.0753 35.4223 50.6307 38.2815C50.6354 38.295 50.6442 38.3068 50.6559 38.3151C50.6676 38.3234 50.6816 38.3278 50.6959 38.3278C50.7102 38.3278 50.7242 38.3234 50.7359 38.3151C50.7475 38.3068 50.7563 38.295 50.761 38.2815C51.1213 36.986 51.4816 35.3839 51.7576 34.0655C53.7948 31.8912 56.0764 29.9595 58.5569 28.3087C57.9708 28.8395 57.4226 29.4107 56.9164 30.0181C56.8993 30.0443 56.8902 30.0749 56.8902 30.1062C56.8902 30.1376 56.8993 30.1682 56.9164 30.1944L58.1199 32.1951C55.0537 34.8244 55.1994 34.6404 55.207 34.7707C55.4983 38.8564 56.2495 45.0501 57.2077 54.7853C57.1898 60.4801 57.6617 66.1658 58.6182 71.7797C56.083 72.1521 53.4942 71.8179 51.1366 70.8139V70.8369ZM9.35201 82.0208C6.40079 82.0208 5.2893 79.0543 8.06421 77.3526C9.80428 76.2794 12.3416 76.0571 14.3806 76.1644C14.4042 76.1663 14.428 76.1621 14.4496 76.1521C14.4711 76.1421 14.4897 76.1268 14.5036 76.1075C14.5175 76.0882 14.5261 76.0657 14.5288 76.0421C14.5314 76.0185 14.5279 75.9946 14.5186 75.9728C14.3141 75.5447 14.2118 75.075 14.2196 74.6006C14.2579 71.8104 18.6503 69.6334 22.1841 72.3623C22.2011 72.3751 22.2215 72.3829 22.2427 72.3848C22.264 72.3868 22.2854 72.3827 22.3045 72.3732C22.3236 72.3636 22.3396 72.3489 22.3509 72.3308C22.3621 72.3126 22.368 72.2917 22.368 72.2703C22.368 62.4738 36.3422 63.0717 36.0663 72.071C36.0659 72.0916 36.0714 72.1119 36.0822 72.1295C36.093 72.147 36.1087 72.1611 36.1273 72.17C36.1459 72.1789 36.1666 72.1822 36.1871 72.1796C36.2075 72.177 36.2268 72.1686 36.2426 72.1553C40.244 68.5909 47.4419 70.5226 47.3576 76.655C47.3591 76.6817 47.3699 76.707 47.3881 76.7266C47.4063 76.7462 47.4307 76.7588 47.4572 76.7623H47.9325C46.9104 78.51 46.011 80.2833 45.2342 82.0822C41.2252 82.1972 9.35201 82.0208 9.35201 82.0208ZM46.8363 142.931L43.6934 142.578L42.9269 140.547C43.1322 139.862 43.296 139.166 43.4175 138.462L47.4955 139.129C47.2349 140.386 47.0356 141.651 46.8363 142.931ZM53.1297 122.326C55.5443 113.787 58.8481 105.539 63.7157 98.2334C65.9827 106.709 69.4493 114.816 74.0105 122.311C67.0502 122.306 60.09 122.311 53.1297 122.326ZM95.2899 141.605L92.4307 143.391L90.5296 142.325C90.1924 141.597 90.0314 141.237 89.6328 140.463L93.6725 138.163C93.7722 138.301 93.3889 137.519 95.3129 141.605H95.2899ZM94.2857 137.212L88.1533 140.662C73.1136 123.277 61.738 102.143 61.6614 78.9546C61.6614 78.786 61.3471 78.7553 61.3394 78.9546C61.264 85.2594 62.0113 91.5471 63.5624 97.6585C55.276 109.617 51.3589 124.526 48.9213 138.822L41.6698 137.649C38.4579 114.201 38.1513 91.1121 51.6349 71.5421C53.9833 72.4281 56.5209 72.6922 59.0015 72.3087C59.0681 72.2956 59.127 72.2571 59.1657 72.2012C59.2043 72.1454 59.2197 72.0767 59.2084 72.0097C58.8788 70.2083 58.6182 68.3916 58.4419 66.5672C62.463 67.1518 66.5206 67.449 70.584 67.4564C71.4272 70.2466 72.5387 73.5428 72.577 73.5888C72.594 73.6392 72.6274 73.6825 72.6719 73.7117C72.7164 73.7408 72.7693 73.7543 72.8223 73.7498C73.8283 73.662 74.8272 73.5058 75.8119 73.2822C76.3321 75.0403 77.0308 76.7407 77.8969 78.3567C77.9736 78.2954 79.1157 78.1344 94.5387 75.4745L97.1526 73.8801L97.1986 74.294C96.4015 74.9262 95.567 75.5099 94.6997 76.0418L78.3108 78.694C80.1833 84.0406 82.3745 89.2702 84.8725 94.3546C84.8855 94.3782 84.907 94.396 84.9325 94.4046C84.9581 94.4131 84.9859 94.4117 85.0105 94.4006L87.2718 93.4578C87.3868 105.853 89.4795 124.526 94.2857 137.212Z" fill="black"/>
</svg>
