<svg width="155" height="140" viewBox="0 0 155 140" fill="none" xmlns="http://www.w3.org/2000/svg">
<path d="M26.6921 89.5368C26.3715 89.5837 24.5981 90.2331 24.3755 90.4138C23.0125 91.5195 24.0396 101.292 23.6864 103.87C23.5455 104.895 21.7823 108.783 21.1922 109.59C19.9884 111.232 11.6604 111.258 10.0463 109.835C9.66854 109.502 7.23456 104.892 7.0467 104.165C6.22891 100.997 5.96856 96.2864 5.54282 92.8947C5.45297 92.176 6.18603 90.8018 4.80976 90.6333C3.61932 90.4873 1.56718 91.4143 0 90.4444C0.502315 88.7231 3.99606 89.9462 4.56167 89.5327C3.56113 86.9292 3.68568 84.5677 6.41881 83.3079L5.01498 77.2147L4.11245 77.4373L5.47237 82.2338C4.10428 82.4758 4.75463 81.8622 4.51471 81.1649C4.28703 80.5043 3.84393 79.3026 3.75715 78.7084C3.55398 77.3066 3.68772 71.8486 5.25286 71.7107C5.81746 71.6576 6.22891 71.7699 6.6281 72.1875C8.01968 73.6424 9.0825 80.2766 9.98503 82.4288L12.3169 82.6912C12.2434 80.0357 8.5955 69.8618 10.9294 68.3007C12.3353 67.3614 14.1781 68.6182 14.5743 70.1711C15.4349 73.5454 15.0572 78.394 15.4809 81.9633L17.3329 82.6943C17.8832 80.5676 17.5933 70.1487 19.4514 69.5146C19.9701 69.337 21.0329 69.3492 21.477 69.6596C23.1269 70.8113 20.2794 81.5967 21.8966 82.9271C22.5245 83.4437 24.3153 83.362 24.8666 84.5167C25.4179 85.6714 25.1739 87.4734 24.64 88.621L34.5954 88.088C34.9098 87.8073 35.9972 81.5579 36.039 80.636C36.2687 75.6159 34.7383 72.015 36.7425 66.7335C37.3152 65.2256 38.4067 64.5007 38.7824 63.0744C38.5292 62.8273 32.7117 65.7207 32.3666 66.0423C31.7714 66.5967 33.3008 68.2211 30.1174 69.6872C28.246 70.5489 26.9433 70.8776 26.541 68.3854C26.9249 66.3384 38.7742 61.6328 41.0918 60.5628L41.0857 56.9762C40.8447 56.1206 32.9915 55.2855 32.0328 55.8746C31.799 56.0185 31.7714 56.9016 31.2109 57.0987C29.756 57.6092 28.8596 56.1124 28.4267 54.9496C27.9938 53.7867 25.9652 45.1503 26.0908 44.2549C26.1653 43.7261 27.1423 41.4208 27.6692 41.2319C30.4125 40.2456 31.7336 44.3009 31.9317 46.4255C32.1308 48.5573 31.8071 50.882 31.9378 53.0363C35.1008 52.7994 38.2698 53.314 41.0622 54.8587C40.518 48.1295 41.8667 49.127 47.4146 48.886C49.1707 37.5646 43.3593 25.5539 49.1125 14.7644L102.69 14.4561C103.215 14.8114 103.091 15.1963 103.041 15.72C102.676 19.4823 100.679 23.8826 100.369 28.1482C99.8391 35.4379 101.458 43.0941 102.217 50.3001C103.314 49.8427 109.056 48.6563 109.056 50.5247V60.5638C109.056 60.7742 111.456 62.3607 112.174 63.3786C116.572 69.6055 112.483 80.1521 115.036 87.21L125.484 87.7164C125.395 86.0012 125.647 84.2288 125.435 82.5166C124.683 76.4358 119.13 72.1385 128.653 70.1211C132.657 69.2727 137.024 69.2992 141.022 70.1242C145.564 71.0604 148.014 72.1181 145.562 77.2158C150.031 75.5587 152.673 79.4578 150.127 83.3814C148.738 85.5203 146.001 86.1257 144.193 87.7144H153.091C153.165 87.7144 154.424 88.1626 154.229 88.622L146.02 89.0875C146.461 89.9891 147.805 89.9156 148.563 90.8722C150.165 92.8947 148.78 94.9387 146.909 96.1343C142.083 99.2176 127.677 98.4335 122.777 95.6687C120.636 94.4599 118.926 91.9636 121.136 89.9809C121.847 89.3438 123.031 89.4204 123.202 88.6271H115.445C117.387 94.1914 121.72 100.64 120.032 106.675C117.911 114.252 110.936 113.964 104.263 114.634C87.2037 116.346 65.6695 116.671 48.5989 115.088C44.463 114.706 35.1253 113.805 32.4677 110.686C26.3807 103.543 32.0471 96.9316 33.7653 89.5388C31.5519 89.7655 28.8269 89.2274 26.6921 89.5388V89.5368ZM102.21 15.1615C92.8271 15.38 83.5261 16.3397 74.1292 16.0896C70.1311 15.9834 65.3673 15.1911 61.3906 15.1391C57.1628 15.0839 53.034 15.5291 48.8276 15.6179C48.7715 18.7074 47.6617 21.9336 47.4606 24.974C46.9899 32.0605 49.3453 38.8336 48.8409 45.9763C48.6428 48.7829 47.6362 51.5885 47.4534 54.3982L101.301 54.8587C101.113 45.3014 98.1545 35.4869 99.5982 26.0052C100.156 22.343 101.477 18.7819 102.211 15.1605L102.21 15.1615ZM43.8035 49.8376H41.978V58.7353C41.978 59.5827 42.9387 60.1881 43.8035 59.8757V49.8366V49.8376ZM108.144 50.294L105.86 50.2919C106.065 53.7816 105.088 56.8751 105.866 60.329L108.144 60.3331V50.294ZM102.209 55.7725C98.4914 56.1859 94.6189 55.4039 91.0507 55.2946C81.6455 55.0078 72.0587 55.2865 62.7597 55.3324C61.0241 55.3406 46.7632 54.7668 46.5397 55.5468C46.2364 56.6066 47.5177 56.2002 48.1334 56.2247C50.2253 56.3064 51.7864 55.798 53.5966 55.752C66.2034 55.4284 78.8971 56.4024 91.4672 56.7056C94.3525 56.775 98.8325 57.0303 101.536 56.6852C102.202 56.6005 102.951 56.337 102.21 55.7745L102.209 55.7725ZM101.262 58.0921L47.4514 57.1365L47.8812 61.9595L100.583 62.177L101.262 58.0931V58.0921ZM46.5376 62.1576L45.8617 59.889C42.6161 61.0447 41.4236 60.9671 39.4725 63.9882C39.1571 64.4762 38.4015 64.5099 39.2326 65.1316L52.2264 66.2833C70.0709 65.3185 89.8286 67.3339 107.475 65.8238C109.492 65.6513 112.529 65.4849 110.675 63.0468C108.801 60.5822 105.018 61.1805 102.209 60.7905V62.1555C102.566 62.5302 105.465 61.3204 104.946 63.0672C87.219 62.2107 68.9621 64.4711 51.3127 63.5451C49.1176 63.4297 46.457 62.9539 44.2598 62.6078L46.5366 62.1565L46.5376 62.1576ZM85.7835 70.3763C83.3413 70.3722 80.3571 67.5462 78.2324 67.2001C75.24 66.7131 71.3175 67.5381 68.2015 67.1399C66.5536 68.9204 64.6945 69.6004 62.7138 70.7827C62.3034 71.0277 61.8061 70.5458 62.0583 71.7373L84.2041 71.3003L85.7845 70.3763H85.7835ZM41.978 72.1967H51.3321C52.2652 72.1967 52.2652 69.0021 51.3321 69.0021H41.978V72.1967ZM20.062 85.8797C20.2478 81.4119 21.3443 76.3765 21.0084 71.9486C20.9461 71.1318 21.136 70.4723 20.3029 69.924C19.6699 70.409 19.3953 70.7469 19.189 71.5382C18.8276 72.9236 17.7311 85.3917 18.2518 85.8878L20.062 85.8787V85.8797ZM101.135 69.9731C99.1428 70.6265 100.974 73.963 103.15 72.4499C104.438 71.5535 103.404 69.2288 101.135 69.9731ZM130.864 70.9624C129.697 71.0828 124.132 71.9905 124.123 73.3382C126.347 76.0815 126.783 74.1559 128.877 73.5372C132.89 72.3509 137.407 72.2651 141.453 73.3402C142.622 73.6506 143.971 75.3954 145.102 73.7894C145.598 72.0691 142.703 71.6607 141.557 71.4116C138.341 70.7112 134.144 70.6254 130.865 70.9634L130.864 70.9624ZM6.3943 79.9509L7.76137 79.7325C8.12688 79.4731 8.17282 79.3322 8.14321 78.9075C8.11259 78.4593 6.04717 71.4371 5.01906 72.6562L6.3943 79.952V79.9509ZM103.58 74.939C85.7621 74.1764 67.8329 74.5827 49.9446 74.4592L45.1695 75.6139C57.8448 75.4883 70.5915 75.2045 83.2954 75.3689C89.2854 75.4464 95.4939 76.3531 101.55 75.8712C102.351 75.8079 103.308 75.9569 103.58 74.939ZM144.646 75.8497C137.976 77.8018 131.238 77.6681 124.571 75.8518C127.354 79.855 126.283 84.2788 126.829 88.4188C127.541 93.8105 142.238 92.5588 142.831 88.4015C143.03 87.0027 141.46 88.2759 140.973 87.4162C139.517 84.8454 142.453 84.1726 142.813 83.3661C143.604 81.5906 140.957 83.0516 141.231 80.8126C141.621 77.6221 144.375 78.7993 144.647 75.8497H144.646ZM49.6413 77.8069C46.9256 77.9723 42.2996 77.6364 40.9713 80.0877C39.7656 82.3134 36.331 94.9142 36.1013 97.5779C35.6991 102.255 38.6353 102.052 42.6437 102.332C47.97 102.704 49.8057 102.179 55.1923 103.472C61.6132 105.013 83.8467 104.786 91.0476 104.154C93.1089 103.973 94.5097 103.028 96.0789 102.797C98.5731 102.43 101.688 102.967 104.283 102.788C107.378 102.576 113.458 102.428 113.538 98.4457C113.578 96.4467 108.843 82.5472 107.626 80.6983C106.198 78.5287 100.474 78.3511 97.8717 78.1326C83.5119 76.9279 64.1033 76.9248 49.6413 77.8059V77.8069ZM149.602 78.6513C148.884 77.4986 141.069 78.1204 142.371 81.3231L147.353 79.9887C148.602 83.4763 144.443 84.1696 141.978 85.0394L141.913 86.7965C146.087 85.8368 150.796 83.8255 149.602 78.6502V78.6513ZM10.034 86.3401L8.66186 80.4083L6.85884 80.8902C7.24374 82.8801 7.33972 86.5954 10.034 86.3401ZM12.7774 83.6019L10.4955 83.607C10.1882 83.8715 11.4399 87.5142 12.7784 86.1114V83.6019H12.7774ZM23.7231 85.8878C17.7525 87.8267 11.0856 87.7674 5.01906 86.3442C4.96597 92.273 8.91711 90.7609 13.2266 91.8237C13.2297 92.6129 11.2286 92.325 10.6987 92.2954C9.22135 92.2148 7.86347 91.7615 6.38716 91.8207C7.41323 94.3945 7.40301 104.881 9.14274 106.171C11.7309 108.093 19.2809 107.283 22.1457 105.979L22.8104 91.8186C22.3173 91.2928 17.4901 93.9433 16.8817 91.8227L23.666 90.3883L23.7221 85.8878H23.7231ZM124.894 89.1508C123.758 89.4286 120.88 90.6435 120.988 91.9657C121.073 92.3046 121.232 92.6109 121.426 92.8988C123.18 95.5033 133.589 96.4712 136.687 96.4017C138.726 96.3558 148.318 95.2082 148.317 92.5037C148.364 91.3469 144.639 89.4939 144.03 89.6093C143.436 89.7216 142.58 91.1183 141.89 91.5695C138.216 93.9698 127.477 94.5405 125.48 89.2815L124.894 89.1519V89.1508ZM19.3912 108.245C17.1175 108.509 14.0301 108.245 11.6339 108.245C11.492 108.245 10.9886 107.616 10.4965 107.791C10.0228 109.713 11.8789 109.545 13.44 109.637C15.8015 109.775 18.2171 109.647 20.5265 109.143L20.5296 107.791C20.0191 107.619 19.5872 108.222 19.3922 108.245H19.3912Z" fill="black"/>
<path d="M29.6591 122.853C29.799 123.707 30.6199 123.603 31.1977 123.817C35.9268 125.564 42.4671 126.01 46.4305 128.615C47.0431 129.018 47.3239 130.023 47.7139 130.12C48.0835 130.212 53.6324 127.553 54.7473 127.175C55.7826 126.822 56.8862 127.055 57.9644 126.741C61.2651 125.778 61.9063 122.022 66.9397 124.128C70.3364 125.549 72.7959 129.741 68.4507 131.516C66.4496 125.774 64.7099 124.539 59.3457 127.667C53.7743 130.915 51.4823 134.683 44.2559 136.761C41.4053 137.581 39.5074 136.917 36.9437 135.41C35.5654 134.599 34.0064 133.384 33.8604 131.641C33.7706 130.569 35.0141 127.848 33.0161 127.479C31.2161 127.146 29.8204 131.386 27.5008 131.888C25.0893 132.41 19.6863 130.653 18.5306 128.273C13.5759 118.076 33.6644 118.458 39.0071 118.286C41.5483 118.204 44.9777 117.851 47.2738 117.877C51.4128 117.923 58.1686 121.86 53.615 126.033C51.0024 121.006 50.1846 119.536 44.1078 119.69C41.6116 119.753 39.9464 120.964 37.9892 121.368C35.3163 121.922 32.3249 121.974 29.6591 122.854V122.853ZM21.7681 122.021C18.8471 122.459 18.6348 128.071 21.8998 129.465C24.6993 130.66 29.506 131.562 29.6898 127.172C29.8307 123.819 24.2317 121.651 21.7681 122.02V122.021ZM38.6171 127.088C36.3005 127.313 34.4505 130.56 35.6399 132.598C36.5466 134.15 40.8397 135.839 42.6213 135.616C44.9215 135.329 46.8736 132.419 45.8486 130.156C45.333 129.017 39.831 126.969 38.6171 127.088Z" fill="black"/>
<path d="M143.734 121.027C143.892 121.955 143.146 122.325 142.519 122.772C140.443 124.254 137.054 125.526 134.758 126.877C127.557 131.111 120.648 135.86 113.394 140L89.4243 128.551L89.7153 127.374C99.6095 122.934 109.338 118.092 119.829 115.117L143.734 121.027ZM142.364 121.483L119.835 116.024C111.58 118.763 103.558 122.031 95.6604 125.649L90.8077 128.317L113.36 138.817L142.364 121.483Z" fill="black"/>
<path d="M133.692 63.0703C132.902 62.9049 132.782 62.1565 132.748 61.4725C132.6 58.4678 136.947 51.0362 138.144 47.668C138.992 45.279 139.346 42.8542 140.066 40.4641C140.251 39.8515 140.102 39.047 140.993 38.8867C140.968 47.5935 134.602 54.6729 133.692 63.0713V63.0703Z" fill="black"/>
<path d="M130.957 68.0873C129.81 68.3088 130.147 67.88 129.808 67.2052C128.139 63.8809 128.427 59.6061 129.824 56.2319L134.605 45.7333C133.495 53.7305 127.212 59.5326 130.957 68.0873Z" fill="black"/>
<path d="M120.92 9.22354L122.743 9.23069L120.921 10.1445L121.831 11.9618L120.236 11.0592L118.643 13.3329L119.096 11.0541L117.269 10.1434L119.549 9.45734L117.725 6.94883L119.78 8.30467L121.828 5.11926L120.92 9.22354Z" fill="black"/>
<path d="M140.084 54.4053C139.338 57.1283 137.945 60.5413 137.851 63.35C137.815 64.4404 139.308 67.8872 137.35 67.636C136.451 63.6257 137.146 58.9936 138.97 55.3181C139.292 54.6708 138.862 54.1675 140.085 54.4053H140.084Z" fill="black"/>
<path d="M27.372 2.38103L27.8376 5.11926L29.662 4.4393L28.2888 5.58584L29.6569 7.39703L27.8335 6.94883L27.6017 8.76819L26.691 6.95291L25.0942 7.8534L26.4552 6.2607L25.0942 4.66799L26.9197 4.66085C27.2209 4.40356 25.4516 1.93589 27.371 2.38205L27.372 2.38103Z" fill="black"/>
<path d="M72.4129 0.18398C76.3293 -1.02893 76.9572 4.12184 73.9311 4.93453C71.4368 5.6053 69.446 1.10285 72.4129 0.18398ZM72.1362 3.70835C72.7365 4.71196 75.976 3.34591 74.6314 1.44181C73.4818 -0.185609 71.1173 2.00334 72.1362 3.70835Z" fill="black"/>
<path d="M24.1131 24.8117C25.9999 27.7735 20.3866 29.743 20.9808 25.9052C21.2483 24.1777 23.5394 23.9122 24.1131 24.8117Z" fill="black"/>
<path d="M127.176 28.4699C130.802 27.3978 131.178 33.0142 127.564 32.5108C125.447 32.2158 125.349 29.0099 127.176 28.4699ZM129.121 31.5726C129.286 31.3255 129.166 30.0666 128.933 29.7318L126.854 29.303L126.894 31.5389C127.093 31.8891 128.95 31.8288 129.12 31.5736L129.121 31.5726Z" fill="black"/>
<path d="M102.21 15.1615C101.477 18.7819 100.155 22.343 99.5972 26.0062C98.1546 35.4879 101.113 45.3024 101.3 54.8597L47.4524 54.3992C47.6352 51.5895 48.6418 48.7839 48.8399 45.9773C49.3433 38.8357 46.9889 32.0626 47.4596 24.975C47.6617 21.9346 48.7705 18.7084 48.8266 15.6189C53.033 15.5301 57.1618 15.085 61.3896 15.1401C65.3673 15.1922 70.1301 15.9844 74.1282 16.0906C83.5252 16.3397 92.8261 15.38 102.209 15.1625L102.21 15.1615ZM52.4735 22.003H76.8858C76.9879 22.003 77.721 21.2148 77.5699 21.0954C70.3813 20.298 60.4799 19.0871 53.4588 20.9575C52.6389 21.176 52.2847 20.8258 52.4725 22.003H52.4735ZM91.0313 21.0903C89.3937 20.6737 84.053 21.0903 81.9049 21.0903C81.6374 21.0903 80.9544 22.1582 81.2219 22.4563C84.689 23.3936 88.2645 22.6278 91.7143 21.9979C91.8297 21.8407 91.1936 21.1321 91.0313 21.0913V21.0903ZM54.5267 25.1966L52.0263 26.337C52.9483 27.8736 54.3266 26.5647 54.9831 26.5647H66.8467L67.5215 25.8806L66.8467 25.1966H54.5267ZM87.1526 26.5708C82.3827 26.2992 76.5458 25.0965 71.8433 25.6305C71.0602 25.7193 70.271 25.7632 70.2649 26.7903C70.2516 27.5356 83.8447 27.605 85.124 27.5029C85.9234 27.4396 86.8821 27.5887 87.1526 26.5708ZM77.5678 30.6751C69.5267 30.4515 61.3386 29.016 53.3648 30.4443L52.4756 31.5827C57.1118 31.6644 61.7694 31.4888 66.4097 31.5664C69.737 31.6215 73.632 32.8691 76.9348 31.6358C77.5648 31.401 77.7179 31.7839 77.5678 30.6751ZM81.4495 32.0422H88.7504C89.1098 32.0422 90.285 31.4388 89.8888 30.6761C88.4227 31.2764 81.0963 29.258 80.7675 30.9089L81.4495 32.0432V32.0422ZM65.7073 35.2408C63.5224 34.7304 61.3335 34.6844 59.0945 34.7845C57.8111 34.8416 54.1704 35.2449 53.1086 35.6421C51.5026 36.2424 52.8656 36.9142 53.9794 36.9009C56.0602 36.8764 63.8685 36.809 65.1417 36.2659C65.791 35.9882 65.8298 36.1526 65.7083 35.2408H65.7073ZM69.3572 35.6921L70.0413 37.0612H84.6431L85.318 36.3772L84.6431 35.6931H69.3572V35.6921ZM80.7645 41.629L61.3906 40.2364L52.0182 40.7153C51.8803 41.5923 52.3765 41.9353 53.1606 42.0782C55.7906 42.5581 60.2686 41.9465 63.2151 42.0619C67.1009 42.2151 75.9925 43.5403 79.2351 42.602C79.8487 42.4243 80.6236 42.4295 80.7634 41.629H80.7645ZM91.26 41.6239H83.0463C82.8881 43.8067 89.5274 43.1523 90.6933 42.6551C91.3519 42.3743 91.3753 42.5387 91.26 41.6239ZM54.0703 47.5557C57.7713 48.0815 62.5556 47.1678 66.3903 47.5557L66.8518 46.643C66.6241 46.305 66.3158 46.2387 65.937 46.1846C63.3774 45.8139 57.073 45.5138 54.5022 45.7067C52.0907 45.8885 51.5526 47.1984 54.0693 47.5557H54.0703ZM85.0995 46.1876C80.6624 45.864 75.8883 46.4255 71.4104 46.1876L70.9489 47.1014C71.8035 48.2326 87.1343 48.4154 88.8679 47.6762C89.5203 47.3985 89.558 47.5578 89.4324 46.6471C87.9388 47.0871 86.2113 46.2693 85.0995 46.1886V46.1876Z" fill="white"/>
<path d="M49.6413 77.807C64.1023 76.9259 83.5118 76.9289 97.8717 78.1337C100.474 78.3522 106.198 78.5298 107.626 80.6994C108.843 82.5483 113.578 96.4477 113.538 98.4468C113.458 102.43 107.378 102.577 104.283 102.789C101.687 102.967 98.5731 102.431 96.0789 102.798C94.5107 103.029 93.1089 103.974 91.0476 104.155C83.8477 104.787 61.6132 105.014 55.1923 103.473C49.8057 102.18 47.97 102.705 42.6436 102.333C38.6364 102.052 35.699 102.256 36.1013 97.579C36.33 94.9153 39.7655 82.3145 40.9713 80.0888C42.2996 77.6375 46.9256 77.9734 49.6413 77.808V77.807ZM95.9329 100.158C96.9855 99.7005 104.237 99.8833 106.491 99.5198C107.827 99.3044 111.136 99.0042 111.364 97.5136C111.556 96.2568 107.035 82.5657 106.087 81.3252C104.318 79.0097 95.3224 79.657 92.382 79.5161C79.4137 78.8943 66.6047 78.977 53.6333 79.5161C50.7389 79.6365 43.732 78.4522 42.3996 81.0587C41.3797 83.0537 38.0085 95.1103 38.0105 97.1553C38.0115 99.725 42.8478 99.9231 44.9265 100.05C47.4116 100.201 51.9508 99.2993 53.5904 99.5647C54.6686 99.7393 55.2189 101.032 56.4471 101.307C64.1207 103.02 79.6291 101.864 87.8438 101.405C92.1227 101.166 92.1216 101.813 95.9339 100.157L95.9329 100.158Z" fill="white"/>
<path d="M23.7231 85.8878L23.667 90.3882L16.8826 91.8227C17.4901 93.9443 22.3183 91.2928 22.8114 91.8186L22.1467 105.979C19.2829 107.283 11.7319 108.092 9.14374 106.171C7.40401 104.88 7.41422 94.3945 6.38815 91.8206C7.86447 91.7614 9.22235 92.2147 10.6997 92.2954C11.2296 92.325 13.2307 92.6129 13.2276 91.8237C8.9181 90.7609 4.96697 92.2729 5.02006 86.3442C11.0866 87.7664 17.7535 87.8266 23.7241 85.8878H23.7231Z" fill="white"/>
<path d="M101.262 58.0921L100.583 62.176L47.8812 61.9585L47.4514 57.1365L101.262 58.0921Z" fill="white"/>
<path d="M144.646 75.8497C144.373 78.7993 141.62 77.6221 141.23 80.8126C140.956 83.0506 143.603 81.5906 142.811 83.3661C142.452 84.1726 139.516 84.8455 140.972 87.4162C141.459 88.2759 143.029 87.0027 142.83 88.4015C142.238 92.5599 127.54 93.8116 126.828 88.4188C126.282 84.2788 127.353 79.855 124.57 75.8518C131.237 77.6681 137.975 77.8018 144.645 75.8497H144.646Z" fill="white"/>
<path d="M46.5375 62.1576L44.2607 62.6088C46.4579 62.955 49.1185 63.4307 51.3136 63.5461C68.962 64.4721 87.2189 62.2117 104.947 63.0683C105.466 61.3214 102.567 62.5313 102.209 62.1566V60.7915C105.018 61.1815 108.802 60.5833 110.675 63.0479C112.529 65.4869 109.492 65.6523 107.475 65.8249C89.8284 67.3349 70.0707 65.3195 52.2263 66.2843L39.2325 65.1327C38.4014 64.5109 39.1569 64.4772 39.4724 63.9892C41.4235 60.9682 42.616 61.0457 45.8616 59.89L46.5375 62.1586V62.1576Z" fill="white"/>
<path d="M124.894 89.1509L125.48 89.2806C127.477 94.5386 138.215 93.9678 141.89 91.5686C142.58 91.1183 143.436 89.7216 144.03 89.6083C144.64 89.4919 148.363 91.345 148.317 92.5028C148.318 95.2073 138.726 96.3549 136.687 96.4008C133.589 96.4702 123.18 95.5023 121.426 92.8979C121.232 92.61 121.074 92.3026 120.988 91.9647C120.879 90.6426 123.758 89.4276 124.894 89.1499V89.1509Z" fill="white"/>
<path d="M85.7835 70.3763L84.2031 71.3003L62.0573 71.7372C61.8052 70.5447 62.3024 71.0277 62.7128 70.7826C64.6924 69.6004 66.5516 68.9204 68.2005 67.1398C71.3165 67.538 75.239 66.712 78.2315 67.2001C80.3561 67.5462 83.3414 70.3722 85.7825 70.3763H85.7835Z" fill="white"/>
<path d="M103.58 74.9391C103.31 75.957 102.351 75.8079 101.55 75.8712C95.494 76.3531 89.2856 75.4465 83.2956 75.3689C70.5917 75.2045 57.845 75.4883 45.1697 75.6139L49.9447 74.4592C67.8331 74.5827 85.7622 74.1764 103.58 74.9391Z" fill="white"/>
<path d="M102.209 55.7724C102.95 56.336 102.2 56.5984 101.535 56.6831C98.8314 57.0282 94.3514 56.773 91.4662 56.7035C78.8961 56.4013 66.2024 55.4263 53.5956 55.7499C51.7854 55.7969 50.2243 56.3054 48.1324 56.2227C47.5167 56.1981 46.2354 56.6045 46.5386 55.5447C46.7622 54.7647 61.0231 55.3395 62.7587 55.3303C72.0577 55.2854 81.6445 55.0067 91.0496 55.2926C94.6179 55.4008 98.4904 56.1828 102.208 55.7704L102.209 55.7724Z" fill="white"/>
<path d="M130.864 70.9623C134.144 70.6244 138.341 70.7101 141.556 71.4105C142.702 71.6606 145.597 72.069 145.101 73.7883C143.971 75.3943 142.621 73.6495 141.452 73.3391C137.406 72.264 132.889 72.3498 128.876 73.5362C126.782 74.1549 126.348 76.0804 124.122 73.3371C124.132 71.9894 129.697 71.0818 130.863 70.9613L130.864 70.9623Z" fill="white"/>
<path d="M20.0619 85.8797L18.2517 85.8889C17.73 85.3927 18.8276 72.9257 19.189 71.5392C19.3952 70.7479 19.6699 70.41 20.3029 69.925C21.136 70.4723 20.9461 71.1328 21.0083 71.9496C21.3442 76.3775 20.2477 81.4129 20.0619 85.8807V85.8797Z" fill="white"/>
<path d="M149.602 78.6512C150.797 83.8265 146.087 85.8378 141.913 86.7975L141.979 85.0404C144.443 84.1705 148.602 83.4773 147.353 79.9897L142.372 81.3241C141.069 78.1213 148.884 77.4995 149.602 78.6522V78.6512Z" fill="white"/>
<path d="M108.144 50.2939V60.3331L105.866 60.329C105.088 56.8751 106.065 53.7815 105.86 50.2919L108.144 50.2939Z" fill="white"/>
<path d="M41.978 72.1967V69.0021H51.3321C52.2653 69.0021 52.2653 72.1967 51.3321 72.1967H41.978ZM51.1044 69.9199C48.9502 70.5713 46.2722 69.7423 44.217 70.1966C43.3757 70.3824 43.195 70.266 43.3512 71.2829C45.8475 70.3457 49.6832 72.6183 51.1044 69.9199Z" fill="white"/>
<path d="M43.8035 49.8375V59.8767C42.9388 60.1891 41.978 59.5826 41.978 58.7363V49.8385H43.8035V49.8375Z" fill="white"/>
<path d="M19.3911 108.245C19.5871 108.223 20.019 107.619 20.5285 107.791L20.5254 109.143C18.216 109.647 15.7993 109.775 13.4389 109.637C11.8778 109.545 10.0217 109.713 10.4954 107.791C10.9875 107.617 11.4919 108.245 11.6328 108.245C14.029 108.245 17.1164 108.509 19.3901 108.245H19.3911Z" fill="white"/>
<path d="M6.39428 79.9509L5.01904 72.6551C6.04715 71.4361 8.11257 78.4583 8.14319 78.9065C8.1728 79.3322 8.12686 79.4721 7.76135 79.7314L6.39428 79.9499V79.9509Z" fill="white"/>
<path d="M10.0338 86.3401C7.34054 86.5943 7.24355 82.8801 6.85864 80.8902L8.66167 80.4083L10.0338 86.3401Z" fill="white"/>
<path d="M101.135 69.9731C103.404 69.2288 104.437 71.5535 103.15 72.4499C100.974 73.964 99.1438 70.6275 101.135 69.9731Z" fill="white"/>
<path d="M12.7775 83.6019V86.1115C11.4401 87.5153 10.1874 83.8725 10.4957 83.607L12.7775 83.6019Z" fill="white"/>
<path d="M38.617 127.088C39.8309 126.969 45.3329 129.019 45.8485 130.156C46.8735 132.419 44.9225 135.329 42.6212 135.616C40.8396 135.839 36.5454 134.149 35.6398 132.598C34.4494 130.56 36.2994 127.314 38.617 127.088Z" fill="white"/>
<path d="M21.7679 122.021C24.2305 121.652 29.8295 123.82 29.6896 127.173C29.5058 131.562 24.6991 130.66 21.8996 129.466C18.6346 128.072 18.8469 122.459 21.7679 122.022V122.021Z" fill="white"/>
<path d="M142.364 121.483L113.36 138.817L90.8076 128.317L95.6603 125.649C103.557 122.031 111.58 118.763 119.835 116.024L142.364 121.483ZM129.586 121.027L119.097 117.83C118.863 119.122 119.406 118.579 120.097 118.856C122.346 119.755 125.752 120.863 128.1 121.373C128.561 121.473 129.701 121.835 129.586 121.026V121.027ZM122.745 122.843C121.052 121.035 117.844 120.133 115.447 119.655C115.189 120.977 115.836 120.382 116.448 120.682C118.346 121.612 120.6 122.755 122.744 122.843H122.745ZM124.11 126.504C119.781 124.826 115.532 122.076 110.881 121.483C110.995 122.189 111.732 122.341 112.258 122.61C114.718 123.866 119.368 125.659 122.04 126.516C122.47 126.654 124.124 127.483 124.109 126.503L124.11 126.504ZM115.44 126.048L107.691 122.848C106.54 123.99 113.33 126.257 113.956 126.393C114.415 126.493 115.557 126.855 115.44 126.048ZM115.896 131.06C116.685 130.275 113.756 129.062 113.325 128.845C110.43 127.385 106.702 125.75 103.581 125.133C107.061 127.911 111.896 129.124 115.897 131.06H115.896ZM107.687 131.056C107.057 129.987 99.3919 126.648 99.0203 126.956C98.7681 128.17 99.3255 127.742 99.9177 128.089C102.141 129.394 105.088 130.813 107.687 131.056Z" fill="white"/>
<path d="M72.1362 3.70833C71.1163 2.00332 73.4818 -0.184605 74.6315 1.44179C75.9761 3.34589 72.7365 4.71194 72.1362 3.70833Z" fill="white"/>
<path d="M129.122 31.5725C128.951 31.8288 127.094 31.888 126.896 31.5378L126.855 29.3019L128.935 29.7307C129.167 30.0666 129.287 31.3244 129.123 31.5715L129.122 31.5725Z" fill="white"/>
<path d="M80.7645 41.629C80.6257 42.4295 79.8508 42.4244 79.2362 42.602C75.9936 43.5403 67.101 42.2151 63.2162 42.0619C60.2697 41.9455 55.7917 42.5571 53.1617 42.0783C52.3776 41.9353 51.8814 41.5923 52.0193 40.7153L61.3917 40.2365L80.7656 41.629H80.7645Z" fill="black"/>
<path d="M52.4735 22.0031C52.2857 20.8259 52.64 21.1761 53.4598 20.9576C60.481 19.0872 70.3823 20.2981 77.5709 21.0954C77.722 21.2159 76.989 22.0031 76.8869 22.0031H52.4746H52.4735Z" fill="black"/>
<path d="M77.5678 30.675C77.7169 31.7838 77.5648 31.3999 76.9348 31.6357C73.632 32.8691 69.737 31.6215 66.4097 31.5663C61.7694 31.4897 57.1118 31.6643 52.4756 31.5827L53.3648 30.4443C61.3386 29.016 69.5277 30.4514 77.5678 30.675Z" fill="black"/>
<path d="M85.0996 46.1877C86.2114 46.2683 87.9388 47.0871 89.4325 46.6461C89.5581 47.5568 89.5203 47.3975 88.8679 47.6752C87.1333 48.4144 71.8035 48.2316 70.949 47.1004L71.4105 46.1866C75.8884 46.4245 80.6624 45.863 85.0996 46.1866V46.1877Z" fill="black"/>
<path d="M87.1527 26.5708C86.8821 27.5887 85.9234 27.4386 85.124 27.5029C83.8458 27.605 70.2516 27.5356 70.2649 26.7903C70.271 25.7632 71.0602 25.7203 71.8433 25.6305C76.5449 25.0965 82.3827 26.2992 87.1527 26.5708Z" fill="black"/>
<path d="M54.0701 47.5556C51.5534 47.1983 52.0914 45.8884 54.503 45.7067C57.0738 45.5127 63.3782 45.8139 65.9378 46.1845C66.3165 46.2396 66.6249 46.306 66.8526 46.6429L66.3911 47.5556C62.5553 47.1677 57.7721 48.0814 54.0711 47.5556H54.0701Z" fill="black"/>
<path d="M69.3572 35.6921H84.6431L85.3189 36.3762L84.6431 37.0613H70.0412L69.3572 35.6921Z" fill="black"/>
<path d="M54.5267 25.1965H66.8467L67.5215 25.8806L66.8467 26.5646H54.9831C54.3266 26.5646 52.9483 27.8735 52.0264 26.337L54.5267 25.1965Z" fill="black"/>
<path d="M65.7072 35.2408C65.8287 36.1525 65.7909 35.9892 65.1406 36.2659C63.8674 36.809 56.0601 36.8774 53.9784 36.9009C52.8655 36.9142 51.5025 36.2424 53.1075 35.642C54.1703 35.2449 57.8101 34.8416 59.0934 34.7844C61.3324 34.6844 63.5213 34.7303 65.7062 35.2408H65.7072Z" fill="black"/>
<path d="M91.0313 21.0902C91.1936 21.1321 91.8297 21.8406 91.7143 21.9968C88.2645 22.6268 84.6891 23.3935 81.2219 22.4552C80.9544 22.1571 81.6374 21.0892 81.9049 21.0892C84.053 21.0892 89.3937 20.6726 91.0313 21.0892V21.0902Z" fill="black"/>
<path d="M81.4493 32.0422L80.7673 30.9079C81.0961 29.257 88.4236 31.2754 89.8886 30.6751C90.2848 31.4378 89.1096 32.0412 88.7503 32.0412H81.4493V32.0422Z" fill="black"/>
<path d="M91.2599 41.6239C91.3753 42.5387 91.3518 42.3743 90.6933 42.6551C89.5273 43.1523 82.888 43.8057 83.0462 41.6239H91.2599Z" fill="black"/>
<path d="M95.9329 100.158C92.1207 101.814 92.1217 101.167 87.8428 101.405C79.6281 101.865 64.1207 103.021 56.4461 101.307C55.2179 101.033 54.6686 99.7403 53.5894 99.5657C51.9498 99.3013 47.4106 100.203 44.9255 100.051C42.8469 99.9241 38.0116 99.726 38.0095 97.1562C38.0085 95.1113 41.3797 83.0557 42.3987 81.0597C43.731 78.4532 50.7379 79.6365 53.6323 79.517C66.6037 78.978 79.4127 78.8953 92.381 79.517C95.3214 79.6579 104.317 79.0117 106.086 81.3262C107.034 82.5667 111.556 96.2568 111.363 97.5146C111.135 99.0052 107.826 99.3054 106.49 99.5208C104.236 99.8843 96.9835 99.7015 95.9319 100.159L95.9329 100.158ZM45.2441 84.4503C47.0573 84.8894 52.6205 84.8291 50.45 81.7468C49.5852 80.5186 42.7111 81.1833 45.2441 84.4503ZM52.5358 81.8387C52.3531 82.6882 52.2428 84.1308 53.2209 84.4534C55.2842 84.6137 58.9444 85.2191 57.8959 82.0664C57.4518 80.733 53.714 81.2833 52.5358 81.8387ZM65.1794 84.4503C67.7267 80.1357 58.6524 80.2532 59.8081 83.7796L60.5289 84.4483L65.1794 84.4503ZM67.5297 84.5198L72.5773 84.3176C74.4794 80.539 70.2863 80.977 67.7972 81.7284L67.5297 84.5198ZM80.3112 84.5187L79.8813 81.5222C78.2498 81.0852 76.4376 81.1975 74.8949 81.8387L75.2604 84.3186L80.3112 84.5187ZM82.6614 84.4503C84.4747 84.8894 90.0379 84.8291 87.8673 81.7468C87.0026 80.5186 80.1284 81.1833 82.6614 84.4503ZM89.9531 81.8387C89.7704 82.6882 89.6601 84.1308 90.6382 84.4534C92.7016 84.6137 96.3617 85.2191 95.3132 82.0664C94.8691 80.733 91.1313 81.2833 89.9531 81.8387ZM102.614 84.4646L103.018 82.5187L102.209 81.5549L97.2541 81.8387L97.6196 84.3186L102.614 84.4646ZM48.8256 86.7965L43.7749 86.9976L43.3451 89.5368L48.8256 89.5399V86.7975V86.7965ZM51.8579 86.868C48.4152 90.1453 56.5257 90.2423 56.9974 88.8058L56.8402 87.2223L51.8579 86.868ZM64.7966 86.7965H59.316V89.5388H64.7966V86.7965ZM72.5539 86.7965L67.5032 86.9976L67.0733 89.5368L72.5539 89.5399V86.7975V86.7965ZM75.287 89.5388L80.5695 89.1141C81.7272 85.6612 77.4504 87.0354 75.287 86.7965V89.5388ZM88.5248 86.7965L83.4741 86.9976L83.0443 89.5368L88.5248 89.5399V86.7975V86.7965ZM91.5571 86.868C88.1144 90.1453 96.2249 90.2423 96.6966 88.8058L96.5394 87.2223L91.5571 86.868ZM104.495 86.7965H99.0142V89.5388H104.495V86.7965ZM46.9287 91.883C45.6637 91.7278 42.4344 91.5573 41.7391 92.7202C40.5129 96.0362 44.8173 94.9111 46.9287 94.9479C47.4984 93.9259 47.5004 92.905 46.9287 91.883ZM50.1896 95.0143L55.2373 94.8121C57.1393 91.0335 52.9462 91.4715 50.4571 92.2229L50.1896 95.0143ZM63.8277 94.9601C65.3714 90.8845 61.215 91.5961 58.4533 92.3169L58.8331 94.8131L63.8277 94.9591V94.9601ZM67.0733 95.0143L72.121 94.8121C74.023 91.0335 69.8299 91.4715 67.3408 92.2229L67.0733 95.0143ZM80.7665 95.0143C81.5057 90.6129 78.3632 91.6747 75.336 92.3169L75.7158 94.8131L80.7665 95.0143ZM83.9989 94.9734C86.4911 94.8856 90.5116 96.1567 89.2364 92.2423C88.5554 91.2806 85.1332 91.9565 84.0601 92.3802L83.9989 94.9734ZM92.2197 92.3169L92.2381 94.2628C92.7894 95.9372 100.449 95.4145 96.8998 91.885L92.2207 92.3169H92.2197ZM105.793 94.9469C108.636 90.6895 100.922 91.2265 100.431 93.0346L101.148 95.0316L105.793 94.9479V94.9469ZM94.769 97.437C94.1524 96.9939 92.7547 96.8836 91.9604 96.8214C80.498 95.928 67.9156 97.5412 56.3297 96.8152C55.4844 96.7724 54.5849 97.1593 54.7584 98.2048C56.4257 97.8709 58.0286 98.5601 59.5519 98.6591C70.2863 99.3523 82.9534 97.4809 93.3305 98.6469C94.0145 98.7234 94.7384 98.7418 94.911 99.5718L54.7584 99.3462C56.0357 100.764 59.7489 100.847 61.8103 100.964C69.8503 101.423 85.1924 101.867 92.868 100.956C94.8558 100.72 97.0754 99.0971 94.769 97.438V97.437Z" fill="black"/>
<path d="M51.1045 69.92C49.6833 72.6185 45.8475 70.3458 43.3513 71.283C43.1951 70.2661 43.3768 70.3825 44.217 70.1967C46.2723 69.7434 48.9513 70.5714 51.1045 69.92Z" fill="black"/>
<path d="M115.896 131.06C111.895 129.124 107.06 127.911 103.58 125.133C106.701 125.75 110.428 127.384 113.324 128.845C113.755 129.062 116.684 130.275 115.895 131.06H115.896Z" fill="black"/>
<path d="M124.11 126.504C124.125 127.484 122.471 126.655 122.041 126.517C119.369 125.66 114.718 123.867 112.259 122.611C111.732 122.342 110.996 122.19 110.882 121.484C115.533 122.076 119.782 124.827 124.111 126.505L124.11 126.504Z" fill="black"/>
<path d="M129.586 121.027C129.701 121.835 128.561 121.473 128.1 121.374C125.752 120.863 122.346 119.756 120.097 118.857C119.405 118.58 118.863 119.123 119.096 117.831L129.586 121.028V121.027Z" fill="black"/>
<path d="M107.687 131.056C105.089 130.813 102.142 129.394 99.9177 128.089C99.3255 127.742 98.7681 128.17 99.0202 126.956C99.3919 126.648 107.057 129.987 107.687 131.056Z" fill="black"/>
<path d="M115.44 126.047C115.556 126.855 114.415 126.493 113.956 126.393C113.33 126.257 106.541 123.99 107.691 122.848L115.44 126.047Z" fill="black"/>
<path d="M122.746 122.843C120.602 122.754 118.347 121.612 116.449 120.682C115.836 120.382 115.19 120.978 115.448 119.655C117.845 120.133 121.052 121.035 122.747 122.843H122.746Z" fill="black"/>
<path d="M94.7691 97.437C97.0755 99.096 94.8559 100.719 92.8681 100.955C85.1925 101.866 69.8504 101.422 61.8103 100.963C59.75 100.846 56.0357 100.763 54.7585 99.3452L94.911 99.5708C94.7385 98.7418 94.0146 98.7224 93.3306 98.6458C82.9535 97.4799 70.2864 99.3513 59.5519 98.6581C58.0287 98.56 56.4258 97.8699 54.7585 98.2037C54.586 97.1583 55.4854 96.7713 56.3298 96.8142C67.9157 97.5401 80.4981 95.927 91.9604 96.8203C92.7558 96.8826 94.1535 96.9929 94.7691 97.436V97.437Z" fill="white"/>
<path d="M45.2441 84.4503C42.7121 81.1832 49.5863 80.5196 50.45 81.7468C52.6206 84.8291 47.0573 84.8893 45.2441 84.4503Z" fill="white"/>
<path d="M82.6613 84.4503C80.1294 81.1832 87.0035 80.5196 87.8672 81.7468C90.0378 84.8291 84.4746 84.8893 82.6613 84.4503Z" fill="white"/>
<path d="M65.1794 84.4503L60.5289 84.4483L59.8081 83.7796C58.6523 80.2531 67.7267 80.1357 65.1794 84.4503Z" fill="white"/>
<path d="M105.793 94.9469L101.148 95.0306L100.431 93.0336C100.922 91.2265 108.636 90.6884 105.793 94.9459V94.9469Z" fill="white"/>
<path d="M102.614 84.4646L97.6194 84.3186L97.2539 81.8386L102.209 81.5548L103.018 82.5186L102.614 84.4646Z" fill="white"/>
<path d="M46.9286 91.883C47.5014 92.905 47.4983 93.9259 46.9286 94.9479C44.8173 94.9102 40.5129 96.0353 41.7391 92.7202C42.4343 91.5583 45.6637 91.7288 46.9286 91.883Z" fill="white"/>
<path d="M63.8275 94.9602L58.8329 94.8142L58.4531 92.3179C61.2148 91.5971 65.3712 90.8845 63.8275 94.9612V94.9602Z" fill="white"/>
<path d="M67.0732 95.0143L67.3407 92.223C69.8309 91.4715 74.024 91.0335 72.1209 94.8121L67.0732 95.0143Z" fill="white"/>
<path d="M67.5298 84.5198L67.7973 81.7285C70.2874 80.977 74.4805 80.539 72.5774 84.3176L67.5298 84.5198Z" fill="white"/>
<path d="M80.311 84.5187L75.2603 84.3186L74.8948 81.8387C76.4375 81.1975 78.2497 81.0852 79.8812 81.5222L80.311 84.5187Z" fill="white"/>
<path d="M83.999 94.9734L84.0603 92.3802C85.1333 91.9565 88.5556 91.2806 89.2366 92.2423C90.5118 96.1567 86.4912 94.8856 83.999 94.9734Z" fill="white"/>
<path d="M50.1895 95.0143L50.4569 92.223C52.9471 91.4715 57.1402 91.0335 55.2371 94.8121L50.1895 95.0143Z" fill="white"/>
<path d="M52.5356 81.8388C53.7138 81.2844 57.4516 80.7331 57.8957 82.0664C58.9452 85.2192 55.284 84.6137 53.2207 84.4535C52.2426 84.1308 52.3529 82.6882 52.5356 81.8388Z" fill="white"/>
<path d="M89.9531 81.8388C91.1313 81.2844 94.869 80.7331 95.3132 82.0664C96.3627 85.2192 92.7015 84.6137 90.6382 84.4535C89.6601 84.1308 89.7703 82.6882 89.9531 81.8388Z" fill="white"/>
<path d="M80.7664 95.0142L75.7157 94.8131L75.3359 92.3168C78.3631 91.6736 81.5056 90.6128 80.7664 95.0142Z" fill="white"/>
<path d="M92.2195 92.3169L96.8986 91.885C100.448 95.4145 92.7882 95.9372 92.2369 94.2628L92.2185 92.3169H92.2195Z" fill="white"/>
<path d="M91.5571 86.8679L96.5394 87.2222L96.6966 88.8057C96.2249 90.2412 88.1144 90.1452 91.5571 86.8679Z" fill="white"/>
<path d="M51.8579 86.8679L56.8402 87.2222L56.9974 88.8057C56.5257 90.2412 48.4152 90.1452 51.8579 86.8679Z" fill="white"/>
<path d="M64.7965 86.7965H59.3159V89.5388H64.7965V86.7965Z" fill="white"/>
<path d="M104.496 86.7965H99.0151V89.5388H104.496V86.7965Z" fill="white"/>
<path d="M72.5538 86.7965V89.5388L67.0732 89.5368L67.5031 86.9976L72.5538 86.7965Z" fill="white"/>
<path d="M88.525 86.7965V89.5388L83.0444 89.5368L83.4732 86.9976L88.525 86.7965Z" fill="white"/>
<path d="M48.8258 86.7965V89.5388L43.3452 89.5368L43.775 86.9976L48.8258 86.7965Z" fill="white"/>
<path d="M75.2869 89.5388V86.7965C77.4503 87.0354 81.7271 85.6612 80.5693 89.1141L75.2869 89.5388Z" fill="white"/>
</svg>
