<svg width="399" height="360" viewBox="0 0 399 360" fill="none" xmlns="http://www.w3.org/2000/svg">
<mask id="mask0_341_1805" style="mask-type:alpha" maskUnits="userSpaceOnUse" x="10" y="12" width="380" height="332">
<path d="M153.143 22.1546L149.181 23.1685L150.423 25.8811C157.023 25.7816 158.268 30.3241 158.885 35.8657C159.884 44.7558 156.274 48.5769 166.963 53.2198C177.018 36.2608 191.488 27.2948 211.279 26.5179C237.803 25.4826 259.762 34.478 263.978 62.8734C264.477 66.2297 263.934 79.1431 265.56 79.905C274.402 79.4473 282.812 80.5353 291.321 82.8115C293.33 78.3217 295.889 68.2673 301.327 67.6945C317.699 65.975 335.601 74.6973 342.733 89.6816C358.369 86.9762 369.604 86.7399 382.363 97.3818C391.968 105.391 390.641 106.215 387.163 117.215C384.076 127.011 378.919 138.732 374.525 148.092C373.337 150.628 368.015 162.125 366.89 163.248C365.827 164.301 363.535 162.812 362.148 164.095C360.761 165.377 360.309 171.215 358.544 172.103C355.27 173.767 349.553 167.875 347.144 168.944L340.452 180.155C336.995 181.842 337.092 178.893 336.921 176.263L329.873 177.16L336.06 162.233L315.188 153.023L311.353 157.417L311.619 159.018C322.772 171.148 333.774 187.581 332.698 204.888C331.32 227.111 321.609 240.334 300.856 247.299C292.067 250.251 306.849 254.993 309.338 256.69C315.247 260.713 319.793 268.964 320.665 275.985C323.528 299.235 301.827 320.545 283.266 331.181C267.068 340.464 227.477 356.204 228.673 323.971C197.68 340.609 156.01 327.173 148.593 291.037C138.323 294.173 129.013 301.172 117.51 301.01C82.0774 300.505 57.0852 273.613 62.5856 238.29L51.854 229.703C45.5875 230.827 40.2956 235.319 33.7294 236.717C31.2119 237.252 11.0243 239.341 10.3319 238.392C10.5867 236.7 10.6072 234.914 11.3357 233.313C13.0755 229.489 22.4703 216.974 25.8508 214.342C28.5667 212.225 38.1837 208.206 39.5525 205.986C41.727 202.446 40.0961 199.605 40.6784 196.73C42.4088 188.28 46.697 180.217 53.4703 174.804C45.4842 160.009 41.8798 146.103 50.2601 130.353C57.3448 117.063 73.229 112.178 86.5999 108.197C83.7657 102.252 83.9639 94.9937 84.5581 88.5408C78.1033 87.3497 74.6935 83.3759 73.8768 76.979C72.8732 69.1818 73.56 43.8915 74.5894 35.804C75.4947 28.6722 77.6401 30.805 79.2533 28.0851C79.8677 27.0441 78.7638 25.1279 79.99 23.1948C81.9848 20.0552 90.383 18.6457 93.7386 20.404L94.8956 24.4759L99.2758 24.6486C103.084 15.4784 100.885 13.964 111.3 12.8384C122.874 11.609 132 11.2439 134.658 24.5601L141.007 24.4128L141.443 21.5156C137.301 21.3489 134.312 20.1927 136.77 15.7606L152.533 16.3655L153.763 18.0422L153.143 22.1546ZM261.792 81.3458C265.095 45.6915 245.995 28.079 210.697 29.2541C196.162 29.739 185.243 34.2188 175.858 45.2831C174.165 47.2751 169.401 55.327 168.1 55.9066C164.784 57.3856 160.069 49.9938 158.895 50.9901C155.711 58.8524 161.885 79.2704 153.963 83.5256C150.003 85.6533 129.147 87.2243 123.336 87.7011C111.178 88.7132 98.9581 88.6222 86.8173 89.786L89.1146 110.982C73.0824 114.274 57.4421 119.454 50.9022 135.929C44.7748 151.381 48.9313 160.697 56.4372 174.257C49.0382 182.767 43.0375 191.766 42.4301 203.456C43.9486 204.073 44.7348 203.475 45.9956 203.029C48.7488 202.052 61.1284 195.803 63.6446 194.154C67.7279 191.478 71.8309 185.832 77.157 184.348C78.8604 183.869 80.7648 184.762 81.8851 184.324C83.0054 183.887 85.1603 179.618 89.8482 179.2C95.7151 178.682 103.597 191.135 103.169 196.281C102.688 202.054 96.4543 202.1 93.7443 204.177C86.3318 209.871 85.6594 209.581 78.1345 213.777C70.6096 217.972 62.9601 223.919 54.6929 227.695C53.9871 229.607 55.0102 228.956 55.6887 229.535C59.889 233.081 65.8103 235.107 65.5928 241.238C65.3189 248.933 63.6233 251.869 65.5039 260.315C71.4231 286.849 98.9597 302.133 125.054 297.215C131.165 296.068 136.67 292.731 142.603 291.119C143.289 288.608 142.784 289.586 141.476 288.961C136.389 286.544 121.222 281.257 120.361 275.151C119.621 269.959 123.184 267.573 123.424 265.054C123.589 263.299 122.193 261.338 122.653 258.882C123.491 254.375 127.378 253.728 128.469 251.506C131.594 245.156 131.072 235.542 133.917 228.872C109.722 203.422 104.417 168.589 123.408 138.132C153.453 89.9513 226.878 95.7529 249.1 148.168C269.281 195.772 235.274 245.294 185.276 248.838C184.498 249.447 177.733 263.591 177.366 265.166C176.232 269.986 180.197 271.727 176.096 278.546C175.393 279.713 173.615 280.36 173.104 281.506C171.972 284 172.742 287.01 171.183 289.439C168.033 294.374 156.056 294.846 151.512 291.467C152.862 304.626 168.443 321.689 180.953 325.472C200.835 331.48 233.367 328.993 238.099 303.855C238.446 302.008 238.886 300.215 236.857 299.353C235.287 302.447 224.913 314.794 222.477 315.581C219.162 316.652 216.613 315.552 217.294 311.956C220.083 305.983 233.63 294.562 235.192 289.408C235.943 286.936 233.522 282.932 233.064 280.099C230.931 266.723 243.823 256.415 255.01 251.946C257.518 250.942 267.788 248.731 268.235 248.202C268.769 247.566 269.355 244.005 270.837 241.763C274.15 236.734 278.738 234.343 281.814 230.889C284.088 228.338 290.999 217.458 293.038 216.8C297.951 215.214 297.455 219.832 298.658 220.888C300.549 222.535 305.985 224.08 307.181 228.029C301.604 235.6 292.87 240.16 290.073 249.682C298.323 251.969 294.631 249.205 297.463 246.251C298.714 244.948 308.758 242.057 311.887 240.033C319.591 235.048 326.843 224.011 328.954 215.152C334.428 192.213 322.195 175.376 308.464 158.702L311.806 151.57C310.796 149.628 276.9 137.203 271.672 134.079C267.839 131.792 269.371 127.3 269.72 123.335L288.949 85.4866C280.436 81.7782 270.82 82.4274 261.776 81.3235L261.792 81.3458ZM126.133 24.1706C127.785 17.6981 119.356 18.387 114.792 18.7733C110.48 19.1379 107.377 18.8096 107.224 24.3147L126.143 24.1721L126.133 24.1706ZM88.4447 21.6746C84.7602 21.8354 78.1078 26.7094 82.354 27.5082C83.786 27.7736 98.1375 23.622 90.1915 21.6991C89.6153 21.5626 89.0249 21.6526 88.4447 21.6746ZM151.593 32.182C145.547 30.0582 130.045 28.5779 135.814 39.0717C142.756 40.9229 154.289 42.9386 151.593 32.182ZM111.572 33.1526C108.173 33.3267 102.467 36.2155 100.212 38.8387C84.6518 56.8872 108.621 81.4575 125.863 65.3824C139.589 52.5758 129.966 32.2051 111.572 33.1526ZM271.146 124.564C289.614 122.534 301.049 133.185 313.316 144.847L341.464 90.445C332.415 75.5794 317.035 67.8735 299.516 69.3506L271.136 124.563L271.146 124.564ZM388.154 105.622C387.967 105.146 381.595 99.6424 380.473 98.7675C369.028 89.9043 357.864 87.8845 343.787 91.2721L315.631 146.19C328.955 143.574 340.813 145.211 352.483 152.259C354.881 153.704 364.72 162.534 365.985 161.73C369.253 153.97 390.104 110.569 388.144 105.62L388.154 105.622ZM150.851 76.8525C139.045 75.5312 92.0728 75.9618 82.2039 80.0033C75.8442 82.6047 81.852 86.2341 86.3084 86.8259C96.0784 88.1287 141.808 84.916 151.224 82.1684C152.877 81.6916 154.272 81.0168 155.526 79.8237C154.182 77.2549 153.433 77.142 150.849 76.8622L150.851 76.8525ZM174.11 265.918L183.769 245.638C208.205 243.344 230.15 232.561 242.715 210.751C282.755 141.257 190.112 72.6751 135.564 127.684C106.644 156.844 110.035 197.782 136.114 227.234L132.435 252.382C134.575 256.393 170.75 267.421 174.118 265.929L174.11 265.918ZM273.476 128.902L288.551 131.173C292.14 131.714 302.714 139.233 305.227 142.624C297.515 138.947 290.998 133.352 282.427 131.354C280.313 130.857 277.28 129.734 275.956 132.249C281.437 133.701 286.628 135.09 291.853 137.378C299.261 140.632 308.035 148.476 314.681 150.78C322.497 153.498 332.327 151.956 339.893 156.795L339.782 153.706C333.595 150.736 327.812 149.904 321.039 149.968C321.078 148.522 323.849 148.611 324.799 148.645C331.293 148.917 337.288 150.586 343.224 153.041C348.693 155.297 355.982 161.446 360.353 162.87C360.902 163.052 361.92 163.365 361.887 162.594C352.606 152.496 340.717 147.633 326.963 146.893C323.362 146.698 316.885 148.427 314.02 147.638C311.785 147.022 302.224 136.544 298.581 134.116C290.917 129.004 283.094 126.662 273.898 125.973L273.458 128.89L273.476 128.902ZM349.474 158.368L342.132 155.144L333.219 174.691L336.771 173.297L339.387 176.594C340.684 176.77 350.712 161.109 349.474 158.368ZM358.548 163.761C358.267 163.053 352.077 159.903 351.27 160.507C348.951 163.688 357.213 168.263 358.163 167.502C358.211 166.326 358.96 164.788 358.548 163.761ZM89.1799 181.854C87.2555 181.952 83.1879 184.391 83.0585 186.241C83.0079 187.039 87.6219 192.526 88.5771 194.042C89.7729 195.943 91.4563 202.132 93.657 202.116C107.005 200.269 97.4385 181.438 89.1785 181.864L89.1799 181.854ZM89.5105 206.333C93.0978 203.582 84.3917 190.926 81.9546 188.551C79.24 185.905 76.9128 184.45 76.4678 189.583C81.302 193.543 84.1325 200.9 86.659 206.709L89.5008 206.332L89.5105 206.333ZM288.981 230.656C288.486 230.044 301.81 218.122 294.297 218.541C292.291 218.656 284.389 231.227 282.561 233.656L291.826 241.017L305.18 228.632C296.793 216.7 297.204 229.021 288.981 230.656ZM80.0755 211.126C83.652 210.163 85.0138 209.971 84.0337 206.045C83.2293 202.802 75.3843 188.655 71.9667 189.025C66.465 189.628 73.5677 195.629 74.3087 196.785C77.0238 201.012 79.5547 206.066 80.0755 211.126ZM71.4068 195.91C68.7824 194.58 68.0454 194.191 65.2217 195.108C58.8326 197.178 36.5615 209.532 30.4825 213.637C29.1431 214.539 27.411 215.143 27.4546 217.099L32.0539 219.382C42.5192 210.788 57.4042 206.527 68.3842 199.402C69.7401 198.523 71.4466 197.825 71.4166 195.912L71.4068 195.91ZM270.61 248.549L279.693 255.008C282.044 253.593 291.249 245.574 290.962 243.522L280.108 234.36C279.133 234.492 270.941 244.503 270.345 245.755C269.969 246.534 270.086 248.003 270.618 248.561L270.61 248.549ZM77.7067 212.589L76.4089 205.622L36.0025 227.504L35.4853 229.683L36.9158 233.458L77.7067 212.589ZM266.002 251.077C252.099 253.307 234.215 263.35 235.094 279.5C235.424 285.625 241.073 293.088 240.671 300.445C240.052 311.557 229.801 320.045 230.529 329.54C230.872 333.997 236.988 339.75 241.184 340.75C255.086 344.068 282.49 330.13 293.659 321.88C322.533 300.557 332.869 259.678 288.554 250.726C283.385 255.783 271.632 261.311 268.079 267.328C265.847 271.118 267.825 276.079 264.101 281.851C252.843 299.275 234.114 277.553 247.14 267.077C249.844 264.909 253.486 265.03 256.262 263.042C257.511 262.146 266.492 251.717 266.01 251.088L266.002 251.077ZM27.6476 223.014C27.2676 222.499 28.453 219.715 27.2894 218.526C24.5122 215.701 19.7186 223.818 18.3233 226.412C17.5784 227.791 16.6823 229.117 16.3741 230.702L20.2952 235.836C22.9848 235.545 34.0115 235.834 34.8974 233.651C35.4725 231.55 32.5524 231.061 32.0255 229.739C31.3908 228.142 32.4105 225.929 31.8412 224.69C31.1447 223.173 28.069 223.585 27.6559 223.025L27.6476 223.014ZM252.667 266.965C248.009 266.263 245.272 271.757 244.406 275.653C246.955 276.624 246.178 275.115 247.098 274.09C248.019 273.065 253.183 267.639 252.667 266.965ZM264.393 271.724C263.525 271.613 253.211 282.567 252.025 284.238C249.408 287.94 255.651 286.375 257.337 285.555C260.973 283.796 267.183 275.724 264.393 271.724ZM150.155 277.363C155.834 278.755 162.37 278.815 168.148 280.073C168.617 277.817 168.738 278.402 167.001 277.912C160.86 276.162 153.589 275.762 146.861 273.745C140.809 271.928 134.919 269.43 129.454 266.29C128.759 268.393 130.378 269.203 131.849 270.131C135.158 272.2 146.308 276.425 150.155 277.363Z" fill="black"/>
<path d="M271.146 124.564L299.525 69.3521C317.044 67.875 332.424 75.5809 341.474 90.4465L313.326 144.849C301.06 133.177 289.623 122.536 271.155 124.566L271.146 124.564ZM327.083 83.3071C319.563 78.4258 311.524 74.938 302.383 75.5992C302.064 77.3209 301.587 77.587 303.54 77.7619C310.056 78.3459 311.809 77.6057 318.519 80.5355C320.517 81.4032 327.301 87.6054 327.073 83.3057L327.083 83.3071ZM319.106 90.0398C319.799 88.1457 318.563 87.5717 317.348 86.5932C313.045 83.1312 304.85 82.7318 299.424 82.1034C298.125 85.7754 303.314 83.8825 305.378 84.3725C310.258 85.5251 314.943 87.2352 319.106 90.0398ZM323.864 104.676C324.558 102.773 323.319 102.218 322.105 101.23C315.121 95.5642 303.933 91.9896 295.05 91.3972C291.266 93.4719 302.155 94.3467 303.003 94.5938C310.587 96.81 317.25 100.508 323.873 104.678L323.864 104.676ZM316.334 108.504C310.781 101.463 299.456 99.1899 290.951 98.7339C292.676 102.533 298.907 101.513 302.694 102.591C307.654 103.994 311.183 107.837 316.334 108.504ZM318.31 121.737C319.028 119.807 317.667 119.333 316.54 118.298C310.65 112.897 299.594 107.781 291.779 106.246C290.194 105.938 289.376 104.9 287.772 106.696C293.4 109.612 299.695 110.61 305.42 113.541C310 115.891 313.597 119.675 318.321 121.728L318.31 121.737ZM308.678 126.251C312.254 123.509 295.514 116.513 293.801 116.066C290.279 115.147 286.218 115.162 282.626 114.382C283.688 117.963 288.693 116.828 291.563 117.717C297.785 119.659 303.417 122.416 308.678 126.251Z" fill="white"/>
<path d="M388.153 105.622C390.102 110.579 369.253 153.97 365.995 161.731C364.731 162.525 354.89 153.705 352.492 152.26C340.824 145.203 328.964 143.575 315.64 146.191L343.796 91.2735C357.862 87.8942 369.035 89.9155 380.483 98.769C381.606 99.6342 387.968 105.136 388.163 105.623L388.153 105.622ZM373.274 100.208C365.391 96.4756 358.262 95.6005 349.687 96.9335C348.617 97.1005 346.712 96.7438 346.736 98.1692C351.24 99.5637 356.865 97.7464 361.182 98.3372C364.525 98.7911 368.327 100.955 371.643 101.852C373.526 102.364 373.07 101.888 373.285 100.2L373.274 100.208ZM381.468 118.306C382.813 113.736 387.798 107.716 382.345 104.299C379.046 102.231 377.987 102.529 375.958 105.564C371.397 112.404 374.12 116.244 381.468 118.306ZM364.326 106.785C361.734 102.596 351.329 102.938 346.876 103.709C345.119 104.011 344.544 103.407 344.59 105.81L364.326 106.785ZM342.785 114.487C348.522 115.033 354.544 116.258 360.292 117.124C361.702 117.337 366.125 121.513 368.593 121.377C370.605 120.298 369.344 119.89 368.183 119.078C360.238 113.517 348.938 112.401 339.525 113.021C338.414 116.831 341.734 114.398 342.784 114.497L342.785 114.487ZM354.064 122.152C348.507 121.205 340.435 117.941 335.293 121.302C338.384 122.375 341.63 121.233 344.635 121.686C346.823 122.015 353.946 126.499 354.064 122.152ZM331.056 129.623L350.021 132.48C352.433 132.843 359.8 138.546 362.894 139.4C364.889 137.971 362.022 136.336 360.997 135.615C353.693 130.557 342.793 127.772 333.995 128.335C333.011 128.396 331.036 128.237 331.058 129.613L331.056 129.623ZM350.154 141.438C350.046 139.443 348.399 139.483 347.03 138.999C340.828 136.792 333.646 135.272 327.102 135.997C328.519 138.805 334.818 137.925 338.186 138.611C342.086 139.397 345.849 141.555 350.144 141.437L350.154 141.438Z" fill="white"/>
<path d="M150.851 76.8526C153.433 77.1421 154.183 77.2452 155.527 79.814C154.273 81.0072 152.878 81.682 151.225 82.1587C141.81 84.9063 96.0796 88.1191 86.3096 86.8163C81.8533 86.2245 75.8439 82.6048 82.2051 79.9937C92.074 75.9522 139.045 75.5313 150.852 76.8428L150.851 76.8526Z" fill="white"/>
<path d="M111.571 33.1526C129.956 32.2036 139.588 52.5758 125.863 65.3824C108.621 81.4575 84.6612 56.8887 100.211 38.8386C102.466 36.2154 108.173 33.3267 111.571 33.1526ZM111.793 38.1475C97.5975 39.2204 94.6568 63.2963 112.561 64.9396C131.604 66.6849 132.216 36.6107 111.793 38.1475Z" fill="white"/>
<path d="M273.476 128.902L273.915 125.986C283.111 126.675 290.935 129.017 298.589 134.127C302.232 136.555 311.793 147.034 314.028 147.649C316.893 148.438 323.37 146.71 326.971 146.904C340.725 147.644 352.614 152.507 361.895 162.605C361.928 163.376 360.912 163.054 360.361 162.881C355.981 161.456 348.691 155.307 343.232 153.052C337.296 150.597 331.3 148.938 324.807 148.656C323.849 148.611 321.086 148.533 321.047 149.979C327.83 149.917 333.613 150.748 339.79 153.717L339.902 156.806C332.335 151.968 322.505 153.509 314.689 150.791C308.045 148.477 299.27 140.633 291.861 137.389C286.636 135.101 281.445 133.712 275.964 132.26C277.288 129.745 280.312 130.867 282.435 131.366C291.016 133.364 297.522 138.968 305.235 142.635C302.722 139.244 292.148 131.725 288.559 131.185L273.484 128.914L273.476 128.902Z" fill="white"/>
<path d="M77.7065 212.589L36.9156 233.458L35.4851 229.683L36.0023 227.504L76.4184 205.624L77.7065 212.589Z" fill="white"/>
<path d="M270.61 248.55C270.077 247.992 269.959 246.532 270.336 245.744C270.933 244.492 279.133 234.492 280.1 234.349L290.954 243.511C291.251 245.564 282.036 253.582 279.685 254.997L270.602 248.538L270.61 248.55Z" fill="white"/>
<path d="M71.4068 195.91C71.4368 197.824 69.7304 198.521 68.3745 199.401C57.3945 206.526 42.5192 210.788 32.0442 219.381L27.4449 217.097C27.4013 215.142 29.1334 214.538 30.4728 213.636C36.5503 209.54 58.8326 197.178 65.212 195.106C68.0259 194.188 68.7712 194.588 71.3971 195.909L71.4068 195.91Z" fill="white"/>
<path d="M288.981 230.656C297.205 229.021 296.793 216.7 305.18 228.632L291.827 241.018L282.562 233.656C284.39 231.227 292.291 218.657 294.298 218.541C301.812 218.112 288.488 230.035 288.981 230.656Z" fill="white"/>
<path d="M89.1801 181.854C97.4498 181.429 107.015 200.27 93.6586 202.106C91.4482 202.121 89.773 195.943 88.5787 194.033C87.6235 192.517 83.0095 187.029 83.0601 186.231C83.1881 184.391 87.2571 181.942 89.1816 181.844L89.1801 181.854Z" fill="white"/>
<path d="M27.6475 223.014C28.0605 223.573 31.146 223.163 31.8328 224.679C32.4006 225.927 31.3727 228.129 32.0171 229.727C32.5537 231.051 35.4738 231.541 34.889 233.64C34.0017 235.833 22.9764 235.534 20.2868 235.825L16.3656 230.69C16.6642 229.105 17.5685 227.789 18.3149 226.401C19.7102 223.807 24.5135 215.691 27.281 218.514C28.446 219.694 27.2592 222.488 27.6392 223.003L27.6475 223.014Z" fill="white"/>
<path d="M349.473 158.368C350.721 161.111 340.693 176.771 339.387 176.594L336.771 173.297L333.219 174.691L342.131 155.144L349.473 158.368Z" fill="white"/>
<path d="M151.593 32.182C154.289 42.9386 142.747 40.9214 135.814 39.0717C130.045 28.5779 145.547 30.0582 151.593 32.182Z" fill="white"/>
<path d="M80.0753 211.126C79.5544 206.066 77.0236 201.012 74.3085 196.785C73.5675 195.629 66.4648 189.628 71.9665 189.025C75.3744 188.653 83.229 202.802 84.0335 206.045C85.0136 209.971 83.6518 210.163 80.0753 211.126Z" fill="white"/>
<path d="M89.5106 206.333L86.6688 206.71C84.1423 200.901 81.3118 193.545 76.4776 189.585C76.9227 184.452 79.2499 185.906 81.9644 188.552C84.4015 190.928 93.1076 203.584 89.5204 206.335L89.5106 206.333Z" fill="white"/>
<path d="M126.134 24.1705L107.214 24.3131C107.367 18.808 110.48 19.1378 114.783 18.7718C119.346 18.3855 127.775 17.6965 126.124 24.1691L126.134 24.1705Z" fill="white"/>
<path d="M150.155 277.363C146.309 276.416 135.158 272.2 131.849 270.131C130.378 269.203 128.749 268.391 129.454 266.29C134.919 269.43 140.809 271.928 146.861 273.745C153.589 275.762 160.848 276.17 167.001 277.912C168.737 278.402 168.626 277.819 168.148 280.073C162.369 278.815 155.834 278.755 150.155 277.363Z" fill="white"/>
<path d="M264.393 271.724C267.182 275.724 260.971 283.806 257.336 285.555C255.651 286.375 249.408 287.94 252.024 284.238C253.201 282.566 263.515 271.612 264.393 271.724Z" fill="white"/>
<path d="M88.4444 21.6746C89.0246 21.6527 89.6151 21.5627 90.1913 21.6992C98.1275 23.6206 83.7746 27.7819 82.3537 27.5082C78.1173 26.7109 84.7697 21.8369 88.4444 21.6746Z" fill="white"/>
<path d="M358.548 163.762C358.95 164.787 358.209 166.335 358.163 167.502C357.213 168.263 348.95 163.688 351.27 160.508C352.077 159.903 358.278 163.045 358.548 163.762Z" fill="white"/>
<path d="M252.667 266.965C253.182 267.639 248.007 273.074 247.098 274.09C246.189 275.107 246.954 276.634 244.406 275.653C245.271 271.757 248.009 266.263 252.667 266.965Z" fill="white"/>
<path d="M233.023 52.4533C233.814 53.4077 233.75 58.3893 233.812 60.089C234.063 66.8778 234.064 79.1475 231.036 84.9253C227.198 92.2418 214.67 91.816 213.875 82.6383C216.9 75.4282 224.06 75.3734 230.31 78.6514L230.332 61.7322L205.011 61.3877L204.166 62.2447C204.61 68.8042 205.998 85.5382 197.394 86.1312C183.775 87.0723 185.57 71.5933 195.012 72.3694C198.077 72.6224 199.997 76.2523 202.137 73.93C202.1 67.8992 200.659 59.5091 201.29 53.7379C201.43 52.4764 201.461 51.8745 202.605 51.0824C205.639 48.9644 231.269 50.2999 233.025 52.4436L233.023 52.4533ZM230.897 54.0222C229.028 52.4282 207.252 51.9913 203.353 53.1836L205.05 59.0172L231.159 59.8781L230.897 54.0222Z" fill="black"/>
<path d="M291.575 180.359L285.104 190.301L290.855 191.674L283.689 193.091L284.747 199.206L281.789 195.797C280.216 195.54 277 204.412 275.419 201.768L279.644 193.465L273.903 192.093L279.173 189.855L277.218 183.157C282.465 182.725 279.609 189.006 283.276 189.031C284.117 187.478 288.857 177.533 291.566 180.347L291.575 180.359Z" fill="black"/>
<path d="M78.6888 134.368L77.3721 143.108L83.2808 143.501L77.8515 146.66C79.2847 148.437 80.7768 149.954 79.9345 152.442L76.3566 149.915L73.5342 155.445L74.6864 147.665L69.5516 148.87L74.08 145.088C72.8467 142.645 69.5898 142.542 71.0148 139.157L75.5764 141.823C75.9165 141.546 76.476 130.306 78.6918 134.348L78.6888 134.368Z" fill="black"/>
<path d="M92.7944 237.153C96.8914 242.772 85.831 246.733 86.0411 239.198C86.141 235.564 90.9483 234.618 92.7944 237.153Z" fill="black"/>
<path d="M205.992 270.97C210.001 270.57 211.116 278.026 205.737 277.812C200.812 277.627 202.569 271.309 205.992 270.97Z" fill="black"/>
<path d="M202.761 143.932C205.003 145.751 212.469 140.96 217.577 148.977C218.936 151.111 219.567 155.442 220.967 156.846C222.702 158.598 227.615 159.726 230.409 161.977C236.784 167.133 237.303 175.901 233.28 182.732C231.89 185.088 228.181 187.134 227.569 189.15C226.496 192.707 229.661 197.578 226.853 204.463C222.887 214.216 212.548 210.62 208.099 213.013C207.007 213.594 206.392 215.897 205.042 217.066C197.119 223.966 189.692 216.026 182.425 215.608C168.917 214.816 161.037 246.857 156.313 256.426L154.177 257.139C152.379 257.057 150.236 256.296 149.625 254.405C148.493 250.893 157.745 227.579 159.048 221.502C160.564 214.412 161.3 206.489 157.861 199.936C151.528 187.836 132.798 184.408 137.468 166.548C138.589 162.273 142.431 161.4 142.709 158.499C142.955 155.871 140.235 152.339 140.186 149.826C140.084 143.836 147.403 136.248 153.551 136.707C155.291 136.84 156.934 138.151 158.072 138.124C159.768 138.091 163.86 132.98 169.965 133.254C175.459 133.495 177.652 137.295 180.004 137.461C185.715 137.844 190.174 129.766 199.401 138.176C201.238 139.844 202.496 143.713 202.751 143.93L202.761 143.932ZM170.987 148.322C164.244 150.04 159.755 150.189 160.641 141.732C156.864 144.027 158.619 149.81 162.287 150.949C164.643 151.681 167.746 150.429 169.036 151.041C170.475 151.725 170.201 156.049 175.367 156.419C177.139 156.547 178.924 154.996 180.809 154.892C186.337 154.582 191.536 158.626 192.911 148.572C190.52 149.127 189.502 152.583 187.219 153.213C184.53 153.962 183.204 151.873 181.192 151.957C177.567 152.117 173.031 157.867 170.979 148.311L170.987 148.322ZM192.972 161.507C198.396 162.941 197.635 158.153 199.386 155.573C200.805 153.48 205.763 151.801 202.452 148.031C202.225 151.845 198.687 152.555 197.563 154.274C196.618 155.723 196.817 157.771 195.827 158.994C195.008 160.004 192.543 158.678 192.972 161.507ZM203.761 169.118C205.974 174.83 210.321 167.76 212.105 166.945C214.969 165.626 220.834 166.908 219.509 160.514L217.189 159.21C219.178 165.485 214.448 163.609 211.409 164.832C209.058 165.78 207.707 170.061 203.761 169.118ZM161.157 154.746C158.322 153.692 154.647 154.521 152.825 156.911C150.901 159.445 151.725 161.368 150.731 163.476C149.975 165.062 145.352 165.052 144.882 170.549C144.377 176.409 150.65 183.558 155.706 177.797C151.685 177.549 148.983 176.933 147.722 172.826C145.856 166.788 152.48 166.792 153.701 163.834C154.432 162.085 153.2 160.228 154.081 158.671C156.087 155.125 160.885 158.274 161.167 154.747L161.157 154.746ZM189.709 170.819C189.193 170.215 189.945 165.426 186.028 164.418C181.641 163.3 178.489 168.642 176.359 168.719C173.959 168.804 171.901 165.83 167.63 167.573C160.489 170.474 164.975 177.205 164.263 180.478C163.551 183.751 158.519 185.002 160.889 189.077L164.652 191.036C159.377 184.853 165.586 184.834 166.909 181.732C168.232 178.63 162.26 173.704 167.833 170.188C171.383 167.949 174.725 169.795 176.822 172.974C178.083 173.124 180.823 165.563 185.325 166.778L187.076 168.225L188.031 174.235C189.597 175.923 193.821 171.319 195.958 175.29C196.883 177.01 195.333 180.694 197.612 180.093C200.169 179.425 199.135 175.133 198.075 173.72C195.934 170.892 190.454 171.687 189.711 170.809L189.709 170.819ZM223.778 188.032C224.413 179.925 215.709 184.818 213.811 177.741L207.452 177.628C206.76 182.287 210.695 179.738 212.369 180.447C213.519 180.929 213.285 183.21 214.689 184.058C216.769 185.306 218.468 184.259 219.685 184.701C221.326 185.296 221.441 188.227 223.777 188.042L223.778 188.032ZM204.288 196.719C196.597 200.562 196.771 192.146 193.915 191.428C190.436 190.556 186.98 195.474 183.765 189.481C182.514 187.155 183.419 182.797 179.875 182.422C180.524 191.578 184.165 198.182 194.09 193.502C193.967 196.298 197.012 199.719 199.622 200.291C203.309 201.105 205.32 197.789 206.837 197.819C211.43 197.904 216.383 201.862 218.025 193.141L211.533 196.757L206.496 194.407C205.376 194.576 204.913 196.396 204.289 196.709L204.288 196.719ZM174.51 191.557C171.468 190.82 170.608 194.022 170.981 196.295C171.448 199.139 174.816 199.1 175.612 200.681C176.286 202.016 175.365 204.432 176.713 205.918C178.573 207.968 188.651 210.789 191.766 209.061L178.639 203.633C177.037 199.743 178.901 197.667 173.69 196.932L174.5 191.555L174.51 191.557Z" fill="black"/>
<path d="M242.837 316.838C245.584 314.776 246.392 313.178 250.711 312.834C254.002 312.575 254.799 320.818 254.115 323.25C252.819 327.887 246.858 336.226 242.137 330.464C241.843 330.101 238.649 322.253 238.59 321.786C238.066 317.74 240.941 318.263 242.827 316.837L242.837 316.838Z" fill="black"/>
<path d="M262.943 325.913C261.481 324.002 260.216 318.005 261.418 315.641C261.573 315.336 266.509 311.884 267.08 311.661C280.411 306.491 276.578 326.982 269.64 328.005C267.829 328.279 264.056 327.373 262.943 325.913Z" fill="black"/>
<path d="M291.319 298.917C301.723 300.505 296.518 317.359 287.728 315.031C287.308 314.918 281.179 309.977 280.966 309.607C278.194 304.835 286.264 298.146 291.318 298.927L291.319 298.917Z" fill="black"/>
<path d="M304.022 280.816C307.397 280.798 312.385 287.237 311.924 290.299C311.348 294.12 305.59 296.295 302.155 297.11C299.307 296.929 297.677 289.266 296.361 286.91C296.505 284.238 301.684 280.822 304.024 280.807L304.022 280.816Z" fill="black"/>
<path d="M302.977 261.807C308.365 262.092 308.422 267.131 307.57 271.597C295.107 279.453 288.533 261.033 302.977 261.807Z" fill="black"/>
<path d="M318.31 121.737C313.585 119.693 309.989 115.9 305.409 113.549C299.684 110.619 293.399 109.622 287.761 106.705C289.365 104.908 290.185 105.936 291.768 106.254C299.585 107.78 310.639 112.905 316.529 118.307C317.656 119.341 319.017 119.815 318.299 121.745L318.31 121.737Z" fill="black"/>
<path d="M323.864 104.676C317.252 100.499 310.579 96.7988 302.994 94.5923C302.146 94.3452 291.258 93.4607 295.041 91.3957C303.933 91.9895 315.111 95.5627 322.096 101.228C323.309 102.217 324.549 102.771 323.854 104.675L323.864 104.676Z" fill="black"/>
<path d="M308.678 126.251C303.415 122.426 297.785 119.659 291.563 117.717C288.694 116.818 283.688 117.963 282.626 114.382C286.218 115.162 290.279 115.147 293.801 116.066C295.514 116.513 312.254 123.509 308.678 126.251Z" fill="black"/>
<path d="M316.335 108.504C311.183 107.837 307.653 104.004 302.694 102.591C298.907 101.513 292.686 102.535 290.951 98.7339C299.456 99.1899 310.781 101.463 316.335 108.504Z" fill="black"/>
<path d="M327.083 83.3072C327.309 87.6166 320.525 81.4145 318.528 80.537C311.818 77.6072 310.066 78.3474 303.549 77.7634C301.587 77.5871 302.064 77.321 302.393 75.6007C311.534 74.9395 319.572 78.4273 327.093 83.3087L327.083 83.3072Z" fill="black"/>
<path d="M319.106 90.0398C314.934 87.2337 310.258 85.5251 305.378 84.3725C303.314 83.8824 298.124 85.7851 299.424 82.1034C304.861 82.7235 313.047 83.1215 317.348 86.5932C318.563 87.5717 319.799 88.1457 319.106 90.0398Z" fill="black"/>
<path d="M331.057 129.623C331.025 128.246 333.01 128.406 333.994 128.345C342.792 127.781 353.682 130.565 360.996 135.625C362.023 136.336 364.89 137.971 362.893 139.41C359.8 138.546 352.432 132.853 350.02 132.49L331.055 129.632L331.057 129.623Z" fill="black"/>
<path d="M342.786 114.487C341.736 114.388 338.416 116.821 339.527 113.012C348.94 112.391 360.23 113.506 368.185 119.069C369.346 119.88 370.607 120.289 368.594 121.368C366.135 121.514 361.703 117.327 360.293 117.114C354.545 116.249 348.523 115.023 342.787 114.477L342.786 114.487Z" fill="black"/>
<path d="M381.468 118.306C374.12 116.245 371.397 112.404 375.958 105.564C377.988 102.52 379.056 102.233 382.345 104.299C387.798 107.716 382.813 113.736 381.468 118.306ZM380.805 116.237C382.342 110.99 385.508 105.422 377.595 104.866L375.284 112.811L380.805 116.237Z" fill="black"/>
<path d="M373.274 100.209C373.06 101.896 373.515 102.373 371.633 101.86C368.326 100.965 364.524 98.8009 361.172 98.3455C356.854 97.7548 351.239 99.5735 346.725 98.1776C346.701 96.7522 348.616 97.1103 349.676 96.9419C358.243 95.5977 365.382 96.4743 373.263 100.217L373.274 100.209Z" fill="black"/>
<path d="M350.154 141.438C345.859 141.557 342.095 139.409 338.196 138.613C334.819 137.925 328.529 138.807 327.112 135.998C333.657 135.274 340.828 136.792 347.04 139C348.409 139.485 350.056 139.445 350.164 141.44L350.154 141.438Z" fill="black"/>
<path d="M364.326 106.785L344.59 105.81C344.544 103.407 345.12 104.011 346.876 103.709C351.329 102.938 361.735 102.596 364.326 106.785Z" fill="black"/>
<path d="M354.064 122.152C353.957 126.491 346.833 122.017 344.635 121.686C341.63 121.233 338.385 122.375 335.294 121.303C340.435 117.941 348.506 121.215 354.064 122.152Z" fill="black"/>
<path d="M111.793 38.1475C132.206 36.6092 131.604 66.6848 112.561 64.9396C94.6568 63.2962 97.6072 39.2218 111.793 38.1475Z" fill="black"/>
<path d="M230.897 54.0222L231.159 59.8782L205.05 59.0173L203.353 53.1837C207.252 51.9914 229.029 52.4283 230.897 54.0222Z" fill="white"/>
<path d="M189.709 170.819C190.452 171.697 195.923 170.9 198.073 173.73C199.143 175.144 200.177 179.436 197.61 180.103C195.322 180.703 196.88 177.03 195.956 175.3C193.819 171.329 189.595 175.932 188.029 174.245L187.074 168.235L185.323 166.788C180.821 165.573 178.081 173.134 176.82 172.984C174.723 169.804 171.381 167.959 167.831 170.198C162.259 173.713 168.253 178.623 166.907 181.742C165.562 184.86 159.375 184.862 164.65 191.046L160.887 189.087C158.517 185.011 163.581 183.617 164.262 180.488C164.942 177.359 160.486 170.493 167.628 167.582C171.909 165.841 173.967 168.816 176.358 168.728C178.497 168.653 181.64 163.31 186.027 164.428C189.944 165.426 189.193 170.215 189.707 170.829L189.709 170.819Z" fill="white"/>
<path d="M204.288 196.719C204.922 196.407 205.386 194.578 206.495 194.417L211.532 196.766L218.024 193.151C216.382 201.872 211.428 197.914 206.836 197.829C205.319 197.799 203.307 201.115 199.62 200.301C197.011 199.729 193.967 196.298 194.089 193.512C184.154 198.19 180.523 191.588 179.873 182.432C183.408 182.805 182.503 187.163 183.763 189.491C186.988 195.485 190.435 190.565 193.914 191.438C196.77 192.156 196.596 200.571 204.286 196.729L204.288 196.719Z" fill="white"/>
<path d="M170.987 148.322C173.039 157.878 177.575 152.128 181.2 151.968C183.204 151.873 184.538 153.973 187.227 153.224C189.51 152.594 190.528 149.138 192.919 148.584C191.546 158.628 186.345 154.593 180.817 154.904C178.932 155.007 177.137 156.556 175.376 156.43C170.21 156.06 170.483 151.736 169.044 151.052C167.754 150.44 164.652 151.683 162.295 150.96C158.627 149.821 156.863 144.037 160.649 141.744C159.763 150.201 164.252 150.052 170.996 148.333L170.987 148.322Z" fill="white"/>
<path d="M161.157 154.746C160.875 158.273 156.077 155.124 154.071 158.67C153.19 160.227 154.421 162.093 153.691 163.832C152.462 166.779 145.836 166.785 147.711 172.825C148.982 176.933 151.675 177.548 155.696 177.796C150.64 183.557 144.365 176.417 144.872 170.547C145.342 165.05 149.975 165.062 150.721 163.474C151.725 161.369 150.891 159.443 152.814 156.909C154.637 154.519 158.312 153.691 161.147 154.744L161.157 154.746Z" fill="white"/>
<path d="M174.51 191.557L173.7 196.933C178.901 197.667 177.047 199.744 178.639 203.633L191.766 209.061C188.661 210.79 178.582 207.97 176.713 205.918C175.356 204.431 176.287 202.016 175.612 200.682C174.815 199.11 171.448 199.139 170.982 196.295C170.608 194.022 171.468 190.82 174.51 191.557Z" fill="white"/>
<path d="M223.778 188.032C221.443 188.217 221.327 185.287 219.686 184.691C218.47 184.25 216.769 185.306 214.691 184.048C213.287 183.2 213.52 180.929 212.37 180.437C210.687 179.726 206.762 182.277 207.454 177.619L213.812 177.731C215.71 184.808 224.405 179.914 223.78 188.022L223.778 188.032Z" fill="white"/>
<path d="M203.761 169.118C207.707 170.06 209.058 165.78 211.409 164.831C214.449 163.599 219.178 165.485 217.189 159.21L219.509 160.514C220.834 166.907 214.969 165.626 212.105 166.945C210.321 167.76 205.974 174.83 203.761 169.118Z" fill="white"/>
<path d="M192.972 161.507C192.543 158.678 195.008 160.004 195.827 158.994C196.818 157.761 196.62 155.713 197.562 154.274C198.687 152.555 202.225 151.845 202.452 148.031C205.773 151.802 200.814 153.491 199.386 155.573C197.625 158.151 198.386 162.939 192.972 161.507Z" fill="white"/>
<path d="M380.806 116.237L375.284 112.811L377.595 104.866C385.508 105.422 382.342 110.99 380.806 116.237Z" fill="white"/>
</mask>
<g mask="url(#mask0_341_1805)">
<g filter="url(#filter0_f_341_1805)">
<path d="M-26.9077 123.142C-69.7852 184.589 -17.201 295.349 90.5426 370.533C198.286 445.716 320.389 456.851 363.266 395.404C512.317 370.13 353.56 223.196 245.816 148.013C156.793 251.327 15.9699 61.6947 -26.9077 123.142Z" fill="url(#paint0_linear_341_1805)"/>
</g>
<g filter="url(#filter1_f_341_1805)">
<path d="M28.3648 0.505011C0.82146 39.9768 34.6001 111.126 103.811 159.422C173.023 207.717 251.458 214.87 279.001 175.398C374.747 159.163 272.766 64.7772 203.555 16.4817C146.369 82.8477 55.908 -38.9668 28.3648 0.505011Z" fill="url(#paint1_linear_341_1805)"/>
</g>
<g filter="url(#filter2_f_341_1805)">
<path d="M398.693 290.547C451.87 254.115 443.193 148.993 379.311 55.7505C315.43 -37.4921 220.535 -83.5462 167.358 -47.1142C39.7141 -72.0498 122.859 94.4398 186.74 187.682C289.777 131.571 345.516 326.979 398.693 290.547Z" fill="url(#paint2_linear_341_1805)"/>
</g>
</g>
<g clip-path="url(#clip0_341_1805)">
<path d="M271.193 124.358L299.553 69.2725C317.07 67.8041 332.451 75.4985 341.505 90.3352L313.376 144.612C301.108 132.962 289.669 122.34 271.203 124.36L271.193 124.358ZM327.113 83.2066C319.592 78.3333 311.553 74.8503 302.413 75.5073C302.095 77.2252 301.617 77.4906 303.57 77.6657C310.086 78.2505 311.838 77.5125 318.549 80.4381C320.547 81.3046 327.332 87.4957 327.103 83.2051L327.113 83.2066ZM319.139 89.9224C319.831 88.0325 318.595 87.4593 317.379 86.4825C313.076 83.0266 304.882 82.6255 299.456 81.9967C298.158 85.6604 303.346 83.7732 305.411 84.2628C310.29 85.4145 314.976 87.1224 319.139 89.9224ZM323.901 104.529C324.595 102.63 323.355 102.076 322.141 101.089C315.156 95.4337 303.967 91.8632 295.085 91.2692C291.303 93.3384 302.191 94.2147 303.039 94.4615C310.622 96.6754 317.287 100.368 323.91 104.531L323.901 104.529ZM316.373 108.346C310.818 101.318 299.494 99.0467 290.989 98.589C292.715 102.381 298.945 101.365 302.732 102.441C307.692 103.844 311.222 107.679 316.373 108.346ZM318.352 121.551C319.07 119.626 317.709 119.153 316.582 118.12C310.69 112.728 299.634 107.62 291.819 106.085C290.234 105.777 289.416 104.741 287.813 106.534C293.441 109.445 299.736 110.443 305.462 113.369C310.041 115.716 313.64 119.492 318.364 121.543L318.352 121.551ZM308.723 126.053C312.298 123.318 295.557 116.331 293.844 115.885C290.322 114.967 286.262 114.981 282.669 114.202C283.733 117.775 288.737 116.643 291.606 117.532C297.829 119.472 303.461 122.225 308.723 126.053Z" fill="white"/>
<path d="M388.186 105.493C390.136 110.44 369.302 153.732 366.047 161.476C364.784 162.268 354.941 153.463 352.542 152.021C340.873 144.975 329.014 143.347 315.691 145.953L343.828 91.1613C357.891 87.7936 369.065 89.8142 380.514 98.6524C381.637 99.5161 388 105.009 388.196 105.494L388.186 105.493ZM373.306 100.086C365.423 96.3592 358.294 95.4837 349.72 96.8111C348.65 96.9774 346.745 96.6209 346.769 98.0433C351.274 99.4362 356.898 97.6246 361.215 98.2154C364.558 98.6694 368.36 100.83 371.676 101.726C373.558 102.238 373.103 101.762 373.317 100.078L373.306 100.086ZM381.505 118.148C382.849 113.588 387.831 107.583 382.378 104.172C379.078 102.107 378.019 102.404 375.991 105.432C371.433 112.255 374.157 116.089 381.505 118.148ZM364.361 106.646C361.768 102.466 351.363 102.803 346.911 103.571C345.155 103.872 344.58 103.269 344.626 105.667L364.361 106.646ZM342.825 114.325C348.561 114.871 354.582 116.096 360.33 116.962C361.74 117.174 366.165 121.343 368.632 121.209C370.644 120.133 369.382 119.725 368.221 118.915C360.276 113.362 348.976 112.245 339.564 112.861C338.454 116.663 341.774 114.236 342.823 114.335L342.825 114.325ZM354.104 121.977C348.548 121.031 340.475 117.771 335.335 121.124C338.426 122.194 341.671 121.056 344.676 121.509C346.864 121.839 353.988 126.315 354.104 121.977ZM331.101 129.425L350.065 132.282C352.477 132.645 359.845 138.338 362.939 139.191C364.934 137.766 362.067 136.133 361.041 135.413C353.736 130.364 342.837 127.581 334.04 128.141C333.056 128.201 331.081 128.042 331.103 129.415L331.101 129.425ZM350.201 141.221C350.093 139.23 348.446 139.27 347.076 138.786C340.874 136.582 333.693 135.063 327.149 135.784C328.567 138.587 334.866 137.71 338.233 138.396C342.133 139.182 345.896 141.336 350.191 141.219L350.201 141.221Z" fill="white"/>
<path d="M150.894 76.7101C153.476 76.9999 154.226 77.103 155.571 79.6668C154.317 80.857 152.923 81.5299 151.27 82.0051C141.856 84.7439 96.1312 87.9354 86.3616 86.6322C81.9054 86.0403 75.8955 82.4265 82.2553 79.8229C92.1221 75.7932 139.088 75.388 150.895 76.7004L150.894 76.7101Z" fill="white"/>
<path d="M111.604 33.0911C129.987 32.1499 139.625 52.4817 125.904 65.2567C108.669 81.2921 84.7038 56.7681 100.247 38.7614C102.501 36.1445 108.206 33.2638 111.604 33.0911ZM111.828 38.0754C97.6334 39.1416 94.7006 63.1652 112.604 64.8107C131.646 66.5582 132.248 36.5483 111.828 38.0754Z" fill="white"/>
<path d="M273.525 128.688L273.964 125.778C283.159 126.468 290.982 128.808 298.638 133.91C302.281 136.334 311.845 146.793 314.08 147.407C316.945 148.196 323.421 146.473 327.021 146.668C340.774 147.41 352.664 152.267 361.947 162.347C361.98 163.116 360.965 162.794 360.414 162.622C356.033 161.198 348.743 155.06 343.283 152.808C337.347 150.357 331.35 148.699 324.859 148.416C323.901 148.371 321.138 148.292 321.099 149.734C327.881 149.675 333.664 150.506 339.842 153.471L339.954 156.553C332.387 151.723 322.558 153.258 314.741 150.543C308.097 148.232 299.321 140.402 291.912 137.162C286.686 134.877 281.495 133.49 276.014 132.039C277.337 129.53 280.361 130.65 282.484 131.149C291.065 133.146 297.572 138.739 305.286 142.401C302.772 139.017 292.196 131.511 288.608 130.97L273.534 128.699L273.525 128.688Z" fill="white"/>
<path d="M77.799 212.134L37.0182 232.946L35.5866 229.179L36.1031 227.004L76.5088 205.183L77.799 212.134Z" fill="white"/>
<path d="M270.697 248.079C270.164 247.522 270.046 246.066 270.423 245.279C271.019 244.03 279.215 234.054 280.181 233.912L291.037 243.057C291.335 245.106 282.124 253.104 279.773 254.516L270.689 248.068L270.697 248.079Z" fill="white"/>
<path d="M71.4939 195.489C71.5246 197.398 69.8185 198.094 68.463 198.971C57.4862 206.078 42.6135 210.326 32.1421 218.897L27.5424 216.617C27.4982 214.666 29.23 214.064 30.569 213.164C36.6447 209.079 58.9212 196.75 65.2994 194.685C68.1128 193.769 68.8582 194.169 71.4842 195.488L71.4939 195.489Z" fill="white"/>
<path d="M289.061 230.229C297.283 228.601 296.868 216.305 305.258 228.215L291.909 240.57L282.643 233.221C284.47 230.798 292.366 218.256 294.373 218.142C301.887 217.716 288.568 229.609 289.061 230.229Z" fill="white"/>
<path d="M89.2615 181.468C97.5304 181.047 107.1 199.851 93.746 201.679C91.5358 201.693 89.8588 195.527 88.664 193.621C87.7084 192.108 83.0931 186.631 83.1434 185.835C83.2708 183.999 87.3387 181.556 89.2629 181.459L89.2615 181.468Z" fill="white"/>
<path d="M27.7473 222.521C28.1605 223.08 31.2456 222.671 31.9328 224.184C32.5009 225.43 31.4738 227.627 32.1187 229.222C32.6557 230.543 35.5757 231.032 34.9916 233.127C34.105 235.315 23.0805 235.013 20.3913 235.303L16.4688 230.178C16.7669 228.596 17.6707 227.283 18.4166 225.898C19.8109 223.31 24.6112 215.213 27.3794 218.031C28.5447 219.209 27.3589 221.997 27.739 222.51L27.7473 222.521Z" fill="white"/>
<path d="M349.525 158.114C350.774 160.852 340.752 176.476 339.446 176.299L336.828 173.008L333.277 174.397L342.183 154.895L349.525 158.114Z" fill="white"/>
<path d="M151.621 32.1351C154.321 42.8697 142.779 40.8531 135.847 39.0051C130.074 28.5319 145.576 30.014 151.621 32.1351Z" fill="white"/>
<path d="M80.1669 210.675C79.6445 205.626 77.1123 200.582 74.3961 196.363C73.6548 195.209 66.5509 189.218 72.0519 188.618C75.4593 188.249 83.3178 202.37 84.1232 205.606C85.1045 209.524 83.7428 209.716 80.1669 210.675Z" fill="white"/>
<path d="M89.5995 205.895L86.7581 206.271C84.2299 200.473 81.3973 193.132 76.5623 189.179C77.0057 184.057 79.3331 185.509 82.0483 188.15C84.4859 190.521 93.1953 203.153 89.6092 205.897L89.5995 205.895Z" fill="white"/>
<path d="M126.162 24.1328L107.244 24.2692C107.395 18.7758 110.508 19.1059 114.81 18.742C119.373 18.358 127.801 17.6732 126.152 24.1314L126.162 24.1328Z" fill="white"/>
<path d="M150.262 276.793C146.416 275.846 135.264 271.637 131.955 269.571C130.483 268.644 128.855 267.834 129.559 265.737C135.024 268.872 140.914 271.367 146.967 273.181C153.695 275.197 160.954 275.606 167.106 277.346C168.843 277.836 168.732 277.254 168.254 279.503C162.475 278.246 155.94 278.184 150.262 276.793Z" fill="white"/>
<path d="M264.488 271.202C267.278 275.194 261.071 283.257 257.436 285.002C255.752 285.819 249.509 287.379 252.125 283.686C253.301 282.017 263.61 271.09 264.488 271.202Z" fill="white"/>
<path d="M88.4755 21.6301C89.0557 21.6084 89.646 21.5188 90.2222 21.6552C98.1584 23.575 83.808 27.7229 82.3872 27.4494C78.1509 26.6524 84.8011 21.7909 88.4755 21.6301Z" fill="white"/>
<path d="M358.601 163.499C359.004 164.522 358.263 166.068 358.217 167.231C357.268 167.991 349.004 163.423 351.322 160.25C352.129 159.647 358.331 162.784 358.601 163.499Z" fill="white"/>
<path d="M252.762 266.449C253.277 267.122 248.104 272.544 247.195 273.558C246.287 274.572 247.052 276.096 244.504 275.117C245.368 271.229 248.103 265.748 252.762 266.449Z" fill="white"/>
<path d="M230.926 53.9536L231.19 59.7972L205.083 58.9298L203.384 53.1082C207.283 51.9196 229.058 52.3625 230.926 53.9536Z" fill="white"/>
<path d="M189.779 170.489C190.522 171.365 195.992 170.572 198.143 173.396C199.213 174.807 200.249 179.09 197.682 179.755C195.394 180.353 196.951 176.689 196.027 174.962C193.889 170.999 189.666 175.591 188.1 173.907L187.144 167.909L185.392 166.465C180.89 165.251 178.152 172.795 176.892 172.645C174.794 169.472 171.451 167.629 167.902 169.862C162.331 173.368 168.327 178.269 166.983 181.381C165.639 184.492 159.452 184.492 164.729 190.665L160.965 188.709C158.594 184.641 163.657 183.251 164.337 180.129C165.016 177.007 160.558 170.154 167.699 167.252C171.979 165.515 174.038 168.485 176.428 168.398C178.567 168.324 181.708 162.993 186.095 164.11C190.012 165.107 189.263 169.885 189.777 170.498L189.779 170.489Z" fill="white"/>
<path d="M204.364 196.338C204.998 196.027 205.462 194.202 206.57 194.041L211.607 196.387L218.098 192.782C216.459 201.484 211.504 197.533 206.912 197.446C205.395 197.416 203.385 200.724 199.698 199.911C197.089 199.339 194.044 195.914 194.165 193.135C184.232 197.799 180.6 191.21 179.947 182.074C183.481 182.448 182.578 186.796 183.839 189.119C187.065 195.101 190.51 190.193 193.989 191.065C196.845 191.782 196.674 200.18 204.363 196.348L204.364 196.338Z" fill="white"/>
<path d="M171.051 148.034C173.106 157.57 177.64 151.834 181.264 151.676C183.268 151.581 184.603 153.677 187.292 152.931C189.574 152.302 190.591 148.854 192.982 148.302C191.611 158.324 186.41 154.296 180.883 154.604C178.997 154.707 177.203 156.253 175.442 156.126C170.276 155.755 170.548 151.44 169.109 150.757C167.819 150.146 164.718 151.385 162.36 150.663C158.693 149.525 156.927 143.753 160.712 141.466C159.829 149.905 164.317 149.757 171.06 148.045L171.051 148.034Z" fill="white"/>
<path d="M161.225 154.441C160.943 157.96 156.145 154.816 154.14 158.354C153.26 159.908 154.491 161.77 153.762 163.505C152.533 166.445 145.909 166.449 147.786 172.477C149.058 176.577 151.75 177.191 155.771 177.44C150.718 183.187 144.441 176.06 144.945 170.203C145.414 164.718 150.047 164.731 150.792 163.147C151.795 161.046 150.961 159.125 152.883 156.597C154.705 154.212 158.38 153.387 161.215 154.439L161.225 154.441Z" fill="white"/>
<path d="M174.587 191.178L173.779 196.542C178.98 197.276 177.126 199.348 178.719 203.229L191.847 208.649C188.743 210.374 178.664 207.556 176.795 205.509C175.437 204.024 176.367 201.615 175.692 200.283C174.894 198.714 171.528 198.743 171.061 195.904C170.686 193.636 171.545 190.442 174.587 191.178Z" fill="white"/>
<path d="M223.85 187.676C221.515 187.86 221.399 184.935 219.758 184.341C218.541 183.9 216.841 184.953 214.762 183.697C213.358 182.851 213.59 180.584 212.441 180.094C210.757 179.384 206.833 181.928 207.524 177.279L213.882 177.394C215.782 184.456 224.474 179.575 223.852 187.666L223.85 187.676Z" fill="white"/>
<path d="M203.829 168.796C207.775 169.737 209.124 165.466 211.475 164.521C214.514 163.292 219.243 165.175 217.253 158.913L219.573 160.215C220.899 166.595 215.035 165.315 212.172 166.63C210.388 167.442 206.043 174.497 203.829 168.796Z" fill="white"/>
<path d="M193.038 161.198C192.608 158.375 195.074 159.699 195.892 158.691C196.883 157.461 196.684 155.417 197.626 153.982C198.75 152.266 202.288 151.559 202.513 147.753C205.835 151.518 200.877 153.201 199.45 155.278C197.69 157.851 198.452 162.628 193.038 161.198Z" fill="white"/>
<path d="M380.842 116.084L375.32 112.662L377.628 104.736C385.54 105.293 382.376 110.848 380.842 116.084Z" fill="white"/>
</g>
<defs>
<filter id="filter0_f_341_1805" x="-364.444" y="-212.009" width="1111.08" height="969.701" filterUnits="userSpaceOnUse" color-interpolation-filters="sRGB">
<feFlood flood-opacity="0" result="BackgroundImageFix"/>
<feBlend mode="normal" in="SourceGraphic" in2="BackgroundImageFix" result="shape"/>
<feGaussianBlur stdDeviation="161.3" result="effect1_foregroundBlur_341_1805"/>
</filter>
<filter id="filter1_f_341_1805" x="-1.72998" y="-28.0575" width="340.267" height="249.45" filterUnits="userSpaceOnUse" color-interpolation-filters="sRGB">
<feFlood flood-opacity="0" result="BackgroundImageFix"/>
<feBlend mode="normal" in="SourceGraphic" in2="BackgroundImageFix" result="shape"/>
<feGaussianBlur stdDeviation="10.25" result="effect1_foregroundBlur_341_1805"/>
</filter>
<filter id="filter2_f_341_1805" x="49.2317" y="-110.893" width="435.597" height="457.303" filterUnits="userSpaceOnUse" color-interpolation-filters="sRGB">
<feFlood flood-opacity="0" result="BackgroundImageFix"/>
<feBlend mode="normal" in="SourceGraphic" in2="BackgroundImageFix" result="shape"/>
<feGaussianBlur stdDeviation="25.65" result="effect1_foregroundBlur_341_1805"/>
</filter>
<linearGradient id="paint0_linear_341_1805" x1="333.023" y1="317.104" x2="81.2142" y2="88.1533" gradientUnits="userSpaceOnUse">
<stop stop-color="#0DD041"/>
<stop offset="1" stop-color="#008FCC"/>
</linearGradient>
<linearGradient id="paint1_linear_341_1805" x1="350.931" y1="69.5954" x2="164.574" y2="379.48" gradientUnits="userSpaceOnUse">
<stop stop-color="#A1FF8B"/>
<stop offset="1" stop-color="#3F93FF"/>
</linearGradient>
<linearGradient id="paint2_linear_341_1805" x1="44.1838" y1="-228.994" x2="407.779" y2="-152.569" gradientUnits="userSpaceOnUse">
<stop stop-color="#0F69DE"/>
<stop offset="1" stop-color="#AE22FF"/>
</linearGradient>
<clipPath id="clip0_341_1805">
<rect width="355.821" height="309.332" fill="white" transform="translate(46.1816) rotate(8.56706)"/>
</clipPath>
</defs>
</svg>
