<svg width="183" height="174" viewBox="0 0 183 174" fill="none" xmlns="http://www.w3.org/2000/svg">
<path d="M181.895 0.142493C182.772 1.00851 180.253 10.8748 180.268 12.822C180.283 14.8432 182.626 16.7191 182.933 19.3197C184.033 28.6486 171.57 41.3307 167.966 50.0469C159.074 71.5611 181.933 93.9439 163.055 114.625C146.905 132.318 118.664 127.082 105.708 148.321C100.372 157.068 98.7215 168.576 87.7649 172.398C76.2339 176.42 56.3688 171.7 43.7042 170.909C36.1128 170.435 28.1978 170.655 20.5746 170.333C17.8437 169.902 13.9678 164.214 12.2928 161.915C9.6766 158.324 6.92281 153.941 4.76002 150.056C3.72703 148.201 0.41152 142.367 0.0230334 140.761C-0.422771 138.917 5.73442 138.166 7.0833 138.052C10.1441 137.795 26.8044 138.534 27.7304 137.956C30.0486 133.945 32.3069 127.565 35.1129 124.066C35.5422 123.53 35.9077 122.938 36.7051 122.942C38.2552 122.951 47.3279 133.631 49.2067 135.268L72.177 128.31C73.7081 128.668 72.0471 134.168 71.7198 135.347C69.5557 143.126 65.6607 150.926 62.2993 158.248C62.214 158.653 62.819 158.594 63.0928 158.507C64.3258 158.116 68.5648 155.775 69.7914 154.967C80.5696 147.86 75.8174 137.258 80.8728 127.802C83.0317 123.764 87.2287 120.047 91.3848 118.105C91.5772 117.25 91.083 117.002 90.5989 116.48C88.3534 114.055 81.9758 110.105 80.8842 107.318C80.6371 106.686 80.4181 106.378 80.8486 105.709C81.9758 103.958 98.0604 99.8876 101.031 99.2101C101.897 77.799 70.2932 72.7163 66.8516 54.0382C66.4759 52.0018 67.0019 49.0382 66.3281 47.5596C65.7116 46.2058 62.833 44.6075 61.7631 43.5072C58.6641 40.322 61.8662 40.0597 64.7028 38.9134C65.7218 38.5021 67.7891 38.3531 68.4196 37.9035C68.6552 37.7354 70.2423 33.6193 70.8256 32.6437C82.4624 13.1786 103.206 13.9109 123.366 16.2556C124.968 15.713 124.63 10.3233 126.673 10.3513C128.136 10.3717 131.117 14.6165 133.13 14.6381C135.065 14.6585 143.611 10.3806 144.722 11.4619L144.188 16.304L155.497 14.1491C155.097 11.5179 151.053 10.7754 151.745 7.70871L164.586 5.99959L166.277 0.147587L172.376 4.38217C173.739 3.62695 180.892 -0.844515 181.895 0.14504V0.142493ZM179.201 14.6853L180.814 1.2212L171.125 10.1119L179.201 14.6853ZM168.426 9.29684C167.457 7.21202 168.026 3.76067 166.279 2.29863L164.656 9.29811H168.426V9.29684ZM168.97 9.84192C169.706 10.5895 172.757 8.03219 172.758 6.87707C172.796 5.7245 168.165 1.94585 167.895 2.29863L168.969 9.84192H168.97ZM164.115 6.60963C162.316 7.24513 160.459 7.04009 158.616 7.30117C158.007 7.38777 155.996 7.45145 156.04 8.21813L164.121 8.75939L164.116 6.60963H164.115ZM169.506 10.3832L152.805 8.76703L162.772 20.0635L169.506 10.3819V10.3832ZM178.124 15.7589C178.489 15.2736 171.333 11.0009 170.367 10.9639C168.086 13.8447 165.647 16.6975 164.118 20.0699L178.124 15.7589ZM130.177 21.146C128.482 18.3251 128.101 14.3834 125.874 11.9942L123.715 20.6086L130.177 21.1448V21.146ZM134.485 18.4486C134.686 17.6272 134.362 17.5877 133.916 17.1458C132.131 15.3717 129.468 13.618 127.49 11.9955L130.724 21.1511L134.485 18.4486ZM139.33 28.6919L143.642 12.5329L131.798 21.4262L139.33 28.6919ZM140.953 13.0768C139.05 13.5989 136.815 14.1924 135.027 14.9807C134.367 15.2711 133.711 14.9514 133.954 16.0263L135.291 17.2782L140.953 13.0768ZM112.4 20.075H121.828C121.959 20.075 122.265 20.6302 122.628 20.62L122.897 17.9112C120.304 18.5683 117.612 18.7059 114.99 19.1631C114.314 19.2815 112.378 19.2612 112.399 20.0737L112.4 20.075ZM129.639 22.2349L109.705 20.6188C113.793 25.4392 118.269 29.7922 122.907 34.0777L129.639 22.2349ZM158.729 21.1575C152.897 22.1292 147.296 25.8289 142.57 29.2268L146.365 27.9099L158.729 21.1575ZM138.797 29.7642C137.361 28.4932 131.883 22.5075 130.489 22.7291L124.256 34.0777L138.798 29.7642H138.797ZM157.115 26.5434C153.629 28.05 150.591 30.4124 147.021 31.7968C141.5 33.9389 136.423 33.8345 131.149 35.3246C130.593 35.4812 129.516 35.4494 129.642 36.2288C139.31 35.7194 150.084 33.6078 157.115 26.5434ZM87.6172 40.5385L82.7757 29.2357C82.507 31.0785 78.1317 39.4738 79.003 40.5436C81.6192 39.5961 84.708 41.0785 87.6172 40.5385ZM99.4666 48.6218L102.697 29.7706L89.2437 40.8136C91.0626 42.2374 93.0751 43.418 94.8748 44.8686C95.5639 45.4239 98.8591 49.3108 99.4679 48.6205L99.4666 48.6218ZM88.1623 40.5423L91.9173 37.0426L84.9283 30.3093L88.1623 40.5423ZM100.008 30.3144C97.1268 30.8493 94.2456 31.8618 91.4995 32.8628C90.8117 33.1137 90.0665 32.6284 90.3149 33.8039L92.7286 36.1384L100.007 30.3157L100.008 30.3144ZM158.198 54.0102C159.106 53.8587 159.162 52.9595 159.422 52.2769C160.487 49.4713 160.726 46.649 162.121 43.6626C163.699 40.2825 166.481 37.5456 167.885 34.079C162.196 39.1936 158.964 46.4351 158.198 54.0102ZM78.4565 36.7764C78.0069 36.3574 67.9763 39.1924 66.4899 39.619C65.4989 39.903 63.3348 40.2252 62.8381 41.0772C65.6568 40.3296 75.946 41.2211 77.4159 39.6343C77.6579 39.3732 78.6616 36.9674 78.4565 36.7764ZM110.78 40.5487C109.083 40.5449 107.171 41.8554 105.768 42.8004C104.764 43.4766 102.748 44.5731 102.704 45.9269L110.78 40.5487ZM87.0784 41.6261L62.8381 42.4259L78.1954 55.0724C80.7989 50.3258 83.531 45.7372 87.0796 41.6261H87.0784ZM97.8515 49.6954C98.1228 48.6473 97.4198 48.6562 96.9498 48.1811C95.6556 46.8745 89.4768 41.8707 87.9623 42.1165L79.5366 55.0826L97.8515 49.6954ZM118.864 43.781L104.461 51.1906L83.3094 57.2374C96.0339 56.7063 109.129 51.8987 118.863 43.781H118.864ZM137.182 57.7812L131.525 45.387L128.562 57.7812H137.182ZM150.105 67.4756L154.955 45.3908L139.347 58.5887L150.106 67.4756H150.105ZM133.415 45.9308C133.013 46.4376 137.881 57.7621 138.528 57.771L143.098 53.2015L133.415 45.9295V45.9308ZM151.189 46.4746C148.539 47.3724 145.169 48.3467 142.711 49.5884C142.204 49.8444 141.842 49.4407 142.035 50.5028L144.382 52.3584L151.188 46.4746H151.189ZM113.476 57.2425H127.483L127.746 54.0026L113.476 57.2425ZM140.417 77.7061C151.981 76.2682 159.072 67.4272 161.958 56.7038C159.556 58.6269 158.818 62.3584 157.207 65.1449C154.893 69.1477 152.316 71.6732 148.317 74.0318L140.417 77.7061ZM137.182 59.4025L109.709 58.3225C109.463 59.2598 110.101 59.3986 110.511 59.9386C112.01 61.9088 117.741 66.8846 119.934 68.8319C120.94 69.7259 127.759 75.6773 128.282 75.5601L137.182 59.4037V59.4025ZM149.571 69.0866C148.417 67.5431 138.653 59.256 137.728 59.9361L130.181 75.555L149.572 69.0866H149.571ZM142.57 117.568L156.842 107.335C165.835 98.0231 160.876 86.174 159.264 75.0227L158.738 80.1296C159.618 86.4911 161.525 93.4855 159.536 99.7934C157.038 107.714 147.285 111.267 142.57 117.568ZM119.4 105.182L112.406 87.9518L106.476 104.643L119.4 105.182ZM119.946 104.644C120.735 105.347 124.959 100.178 125.858 99.5285L114.021 87.9467L119.946 104.644ZM136.64 116.496L141.487 88.4855L121.57 105.453C123.431 106.859 125.581 107.856 127.439 109.27C128.629 110.175 135.87 117.273 136.642 116.495L136.64 116.496ZM137.72 89.568L122.638 94.6775L127.141 98.6816L137.72 89.5693V89.568ZM106.471 99.2623L83.3107 106.257L104.461 104.652L106.472 99.2636L106.471 99.2623ZM118.862 106.264L83.8482 108.144C85.8225 110.47 105.826 127.073 107.003 126.19L110.886 117.945L118.86 106.263L118.862 106.264ZM135.025 117.567C135.575 116.826 121.906 106.492 120.286 106.756C115.796 113.111 110.954 119.397 108.095 126.73L135.025 117.567ZM36.4312 125.116L26.7624 144.721C26.9763 145.406 27.5992 145.365 28.0972 145.574C29.3251 146.089 40.2855 149.377 40.9415 149.248C41.4917 149.141 42.2776 148.387 42.1222 147.703L36.4312 125.116ZM43.4456 146.659L50.6333 141.736L51.5032 140.504L37.519 125.116L43.4456 146.659ZM93.005 127.276C91.8523 126.993 91.8013 127.919 91.2715 128.499C84.8608 135.549 86.802 144.176 82.1414 151.691C81.2447 153.136 79.4946 154.034 78.9979 155.813C79.608 156.389 81.2422 154.388 81.6752 153.917C88.6043 146.365 86.1231 135.029 93.005 127.274V127.276ZM59.0564 161.744C63.4049 151.287 69.2386 141.143 71.4498 129.963L41.8267 150.165L59.0564 161.744ZM66.6058 131.047C61.4867 132.743 56.1943 134.379 51.186 136.376C50.6371 136.595 50.2613 136.085 50.4473 137.228L52.861 140.193L66.6045 131.045L66.6058 131.047ZM26.7394 139.66H6.80562C6.73175 140.48 8.12011 140.518 8.73277 140.694C13.843 142.156 19.2729 142.865 24.3614 144.49L25.3944 143.978L26.7394 139.66ZM39.1302 149.9L1.42158 140.201C0.230651 141.402 17.3814 166.192 19.4665 168.738C24.6467 161.03 32.4164 155.965 39.1302 149.9ZM67.1471 167.126C76.0899 167.368 86.4466 168.443 91.2829 159.216L98.3865 145.049L89.3545 159.441C87.8452 161.904 85.6773 163.89 82.8878 164.828L67.1471 167.126ZM57.4464 163.354C53.8061 160.095 49.8142 157.037 45.7651 154.302C44.6302 153.535 41.0396 150.775 40.0486 151.027C34.4251 156.271 26.9088 161.657 22.1553 167.665C21.7273 168.206 21.1147 168.358 21.3567 169.285C33.4787 167.861 45.6848 166.77 57.4464 163.353V163.354Z" fill="black"/>
<path d="M29.9696 113.8C29.1557 114.65 27.2973 111.087 26.9993 110.581C24.9333 107.066 23.0163 102.649 21.8967 98.7224L29.9696 113.8Z" fill="black"/>
<path d="M40.2104 110.568L42.8929 101.673L45.5907 96.0302C44.2456 99.9604 43.4979 105.609 41.8637 109.264C41.5007 110.076 41.3033 110.773 40.2104 110.568Z" fill="black"/>
<path d="M22.4292 122.417C17.8845 121.393 13.9754 116.919 10.5771 113.809C12.7157 114.593 14.8136 116.328 16.6745 117.673C18.65 119.101 20.8306 120.558 22.4292 122.417Z" fill="black"/>
<path d="M60.1416 112.193C59.7633 113.702 50.8969 119.083 50.4473 118.648L51.6688 116.913L60.1416 112.192V112.193Z" fill="black"/>
<path d="M39.1301 149.9C32.4163 155.965 24.6466 161.03 19.4664 168.738C17.3826 166.19 0.23056 141.402 1.42149 140.201L39.1301 149.9Z" fill="white"/>
<path d="M59.0563 161.744L41.8267 150.165L71.4497 129.963C69.2385 141.143 63.4048 151.287 59.0563 161.744Z" fill="white"/>
<path d="M118.862 106.264L110.887 117.947L107.004 126.192C105.828 127.073 85.8236 110.471 83.8494 108.145L118.863 106.266L118.862 106.264Z" fill="white"/>
<path d="M57.4463 163.354C45.6847 166.77 33.4786 167.863 21.3566 169.287C21.1146 168.359 21.7272 168.208 22.1552 167.667C26.9075 161.659 34.425 156.272 40.0485 151.029C41.0395 150.777 44.6301 153.536 45.765 154.303C49.8141 157.039 53.806 160.095 57.4463 163.356V163.354Z" fill="white"/>
<path d="M136.64 116.496C135.868 117.274 128.629 110.176 127.438 109.271C125.578 107.858 123.429 106.86 121.568 105.454L141.486 88.4868L136.639 116.497L136.64 116.496Z" fill="white"/>
<path d="M135.025 117.567L108.095 126.731C110.954 119.397 115.797 113.111 120.286 106.756C121.906 106.492 135.574 116.826 135.025 117.567Z" fill="white"/>
<path d="M137.182 59.4025L128.282 75.5589C127.759 75.6774 120.94 69.7247 119.934 68.8307C117.741 66.8834 112.01 61.9089 110.511 59.9374C110.101 59.3987 109.463 59.2586 109.709 58.3213L137.182 59.4013V59.4025Z" fill="white"/>
<path d="M36.4313 125.116L42.1223 147.703C42.279 148.387 41.4918 149.141 40.9416 149.248C40.2856 149.376 29.3265 146.089 28.0973 145.574C27.5993 145.365 26.9764 145.406 26.7625 144.721L36.4313 125.116Z" fill="white"/>
<path d="M87.0785 41.6262C83.5311 45.7373 80.7977 50.3259 78.1942 55.0725L62.8369 42.426L87.0772 41.6262H87.0785Z" fill="white"/>
<path d="M150.105 67.4756L139.346 58.59L154.955 45.3921L150.105 67.4756Z" fill="white"/>
<path d="M149.571 69.0867L130.18 75.5551L137.727 59.9362C138.651 59.2561 148.416 67.5432 149.57 69.0867H149.571Z" fill="white"/>
<path d="M129.639 22.235L122.907 34.0779C118.269 29.7923 113.793 25.4393 109.705 20.6189L129.639 22.235Z" fill="white"/>
<path d="M99.4666 48.6219C98.8578 49.3109 95.5627 45.4253 94.8736 44.87C93.0738 43.4182 91.0613 42.2388 89.2424 40.815L102.696 29.772L99.4654 48.6232L99.4666 48.6219Z" fill="white"/>
<path d="M119.4 105.182L106.476 104.642L112.406 87.9507L119.4 105.182Z" fill="white"/>
<path d="M97.8515 49.6955L79.5366 55.0827L87.9623 42.1166C89.4768 41.872 95.6556 46.8746 96.9497 48.1813C97.4197 48.6563 98.1241 48.6474 97.8515 49.6955Z" fill="white"/>
<path d="M43.4456 146.659L37.5203 125.116L51.5032 140.504L50.6345 141.736L43.4456 146.659Z" fill="white"/>
<path d="M169.506 10.3833L162.772 20.0649L152.805 8.76843L169.506 10.3833Z" fill="white"/>
<path d="M139.33 28.692L131.798 21.4263L143.641 12.5331L139.33 28.692Z" fill="white"/>
<path d="M138.797 29.7643L124.255 34.0778L130.488 22.7291C131.882 22.5075 137.36 28.4933 138.795 29.7643H138.797Z" fill="white"/>
<path d="M142.57 117.568C147.285 111.267 157.038 107.714 159.536 99.7934C161.525 93.4855 159.618 86.4898 158.738 80.1297L159.264 75.0227C160.876 86.1753 165.835 98.0245 156.842 107.335L142.57 117.568Z" fill="white"/>
<path d="M106.471 99.2625L104.46 104.651L83.3108 106.257L106.471 99.2625Z" fill="white"/>
<path d="M119.946 104.644L114.021 87.9468L125.858 99.5285C124.959 100.179 120.735 105.347 119.946 104.644Z" fill="white"/>
<path d="M179.201 14.6854L171.125 10.112L180.814 1.22131L179.201 14.6854Z" fill="white"/>
<path d="M178.124 15.7589L164.118 20.0699C165.648 16.6976 168.086 13.8448 170.367 10.964C171.332 11.0009 178.487 15.275 178.124 15.7589Z" fill="white"/>
<path d="M137.182 57.7814H128.562L131.525 45.3871L137.182 57.7814Z" fill="white"/>
<path d="M26.7394 139.66L25.3943 143.978L24.3613 144.49C19.2728 142.865 13.8442 142.156 8.73272 140.694C8.12006 140.518 6.73169 140.48 6.80557 139.66H26.7394Z" fill="white"/>
<path d="M87.6172 40.5386C84.708 41.0785 81.6192 39.5961 79.003 40.5436C78.1318 39.4739 82.507 31.0786 82.7758 29.2357L87.6172 40.5386Z" fill="white"/>
<path d="M67.1472 167.127L82.8879 164.828C85.6761 163.89 87.8453 161.902 89.3546 159.441L98.3866 145.049L91.283 159.217C86.4467 168.445 76.09 167.37 67.1472 167.127Z" fill="white"/>
<path d="M137.72 89.5681L127.141 98.6817L122.638 94.6776L137.72 89.5681Z" fill="white"/>
<path d="M133.415 45.9308L143.098 53.2028L138.528 57.7723C137.881 57.7634 133.014 46.4389 133.415 45.9321V45.9308Z" fill="white"/>
<path d="M118.864 43.7811C109.129 51.8988 96.0353 56.7052 83.3108 57.2376L104.462 51.1907L118.866 43.7811H118.864Z" fill="white"/>
<path d="M93.005 127.276C86.123 135.03 88.6042 146.366 81.6752 153.918C81.2421 154.39 79.6092 156.39 78.9978 155.815C79.4946 154.034 81.2459 153.138 82.1414 151.692C86.8006 144.177 84.8595 135.549 91.2714 128.501C91.8 127.919 91.8522 126.994 93.005 127.277V127.276Z" fill="white"/>
<path d="M66.6057 131.047L52.8622 140.195L50.4485 137.23C50.2625 136.086 50.6383 136.597 51.1873 136.378C56.1943 134.381 61.4866 132.743 66.607 131.048L66.6057 131.047Z" fill="white"/>
<path d="M140.417 77.7061L148.317 74.0319C152.316 71.6745 154.893 69.1478 157.207 65.145C158.819 62.3585 159.556 58.6269 161.958 56.7039C159.071 67.4272 151.981 76.2683 140.417 77.7061Z" fill="white"/>
<path d="M78.4566 36.7765C78.6616 36.9688 77.6579 39.3746 77.4159 39.6344C75.946 41.2199 65.6569 40.3297 62.8381 41.0773C63.3349 40.2253 65.4989 39.9031 66.4899 39.6191C67.9763 39.1924 78.0069 36.3575 78.4566 36.7765Z" fill="white"/>
<path d="M157.115 26.5435C150.085 33.6079 139.31 35.7194 129.643 36.2289C129.516 35.4495 130.593 35.4813 131.149 35.3246C136.424 33.8346 141.5 33.9403 147.021 31.7969C150.591 30.4113 153.629 28.0501 157.115 26.5435Z" fill="white"/>
<path d="M130.177 21.1461L123.715 20.61L125.874 11.9956C128.101 14.3848 128.482 18.3265 130.177 21.1474V21.1461Z" fill="white"/>
<path d="M88.1622 40.5424L84.9282 30.3093L91.9172 37.0426L88.1622 40.5424Z" fill="white"/>
<path d="M113.476 57.2426L127.746 54.0027L127.485 57.2426H113.476Z" fill="white"/>
<path d="M134.485 18.4487L130.724 21.1512L127.49 11.9956C129.468 13.6181 132.131 15.3731 133.916 17.1459C134.361 17.5891 134.686 17.6273 134.485 18.4487Z" fill="white"/>
<path d="M158.198 54.0103C158.964 46.4364 162.196 39.1937 167.885 34.0791C166.481 37.5457 163.699 40.2826 162.121 43.6626C160.727 46.6479 160.487 49.4713 159.422 52.277C159.162 52.9609 159.106 53.86 158.198 54.0103Z" fill="white"/>
<path d="M168.97 9.84194L167.896 2.29865C168.165 1.94588 172.796 5.7258 172.759 6.8771C172.759 8.03222 169.707 10.5895 168.971 9.84194H168.97Z" fill="white"/>
<path d="M100.008 30.3145L92.7299 36.1372L90.3162 33.8028C90.0678 32.6273 90.8129 33.1125 91.5008 32.8616C94.2456 31.8606 97.1281 30.8494 100.009 30.3132L100.008 30.3145Z" fill="white"/>
<path d="M151.189 46.4746L144.383 52.3584L142.036 50.5029C141.844 49.4407 142.205 49.8444 142.712 49.5885C145.169 48.3467 148.539 47.3737 151.19 46.4746H151.189Z" fill="white"/>
<path d="M158.729 21.1576L146.365 27.91L142.57 29.2269C147.296 25.829 152.897 22.1293 158.729 21.1576Z" fill="white"/>
<path d="M168.426 9.29691H164.656L166.279 2.29871C168.026 3.76203 167.456 7.21337 168.426 9.29691Z" fill="white"/>
<path d="M112.4 20.0751C112.378 19.2626 114.316 19.2829 114.991 19.1645C117.613 18.706 120.305 18.5685 122.898 17.9126L122.629 20.6215C122.266 20.6304 121.959 20.0764 121.829 20.0764H112.401L112.4 20.0751Z" fill="white"/>
<path d="M140.953 13.0769L135.291 17.2784L133.954 16.0265C133.711 14.9516 134.367 15.2712 135.026 14.9809C136.815 14.1925 139.05 13.5991 140.953 13.0769Z" fill="white"/>
<path d="M164.114 6.60974L164.12 8.75951L156.039 8.21825C155.994 7.45156 158.006 7.38661 158.615 7.30128C160.458 7.0402 162.315 7.24525 164.113 6.60974H164.114Z" fill="white"/>
<path d="M110.78 40.5488L102.704 45.9271C102.746 44.5746 104.764 43.4767 105.768 42.8005C107.171 41.8555 109.083 40.545 110.78 40.5488Z" fill="white"/>
</svg>
