<svg width="169" height="164" viewBox="0 0 169 164" fill="none" xmlns="http://www.w3.org/2000/svg">
<path d="M124.144 32.3736C127.557 28.9582 127.557 23.4206 124.144 20.0052C120.73 16.5897 115.195 16.5897 111.781 20.0052C108.367 23.4206 108.367 28.9582 111.781 32.3736C115.195 35.7891 120.73 35.7891 124.144 32.3736Z" fill="white"/>
<path d="M117.961 35.139C113.028 35.139 109.016 31.1245 109.016 26.1896C109.016 21.2547 113.028 17.2402 117.961 17.2402C122.894 17.2402 126.906 21.2547 126.906 26.1896C126.906 31.1245 122.894 35.139 117.961 35.139ZM117.961 17.6473C113.252 17.6473 109.423 21.4797 109.423 26.1896C109.423 30.8995 113.253 34.7319 117.961 34.7319C122.669 34.7319 126.499 30.8995 126.499 26.1896C126.499 21.4797 122.669 17.6473 117.961 17.6473Z" fill="black"/>
<path d="M65.2207 1.74193C65.1841 1.74193 65.1466 1.73211 65.1127 1.71068C65.0181 1.65087 64.9896 1.525 65.0493 1.43037L65.8899 0.0948841C65.9496 -0.000635427 66.0755 -0.0283093 66.17 0.031502C66.2646 0.0913133 66.2941 0.217185 66.2334 0.311812L65.3929 1.6473C65.3545 1.7089 65.2885 1.74193 65.2207 1.74193Z" fill="black"/>
<path d="M63.263 4.85307C63.2265 4.85307 63.189 4.84325 63.1551 4.82183C63.0605 4.76202 63.031 4.63614 63.0917 4.54152L63.9323 3.20603C63.992 3.11051 64.1179 3.08284 64.2124 3.14265C64.307 3.20246 64.3365 3.32833 64.2758 3.42296L63.4353 4.75844C63.3969 4.82004 63.3309 4.85307 63.263 4.85307Z" fill="black"/>
<path d="M63.7749 2.07143C63.7383 2.07143 63.7008 2.06161 63.6669 2.04018L62.3321 1.19926C62.2375 1.13944 62.208 1.01357 62.2687 0.918946C62.3285 0.824319 62.4534 0.795753 62.5489 0.855564L63.8838 1.69649C63.9783 1.7563 64.0078 1.88218 63.9471 1.9768C63.9087 2.0384 63.8427 2.07143 63.7749 2.07143Z" fill="black"/>
<path d="M66.884 4.02898C66.8474 4.02898 66.81 4.01916 66.7761 3.99774L65.4412 3.15681C65.3466 3.097 65.3172 2.97113 65.3779 2.8765C65.4376 2.78098 65.5626 2.75331 65.658 2.81312L66.9929 3.65405C67.0875 3.71386 67.116 3.83973 67.0562 3.93436C67.0179 3.99595 66.9518 4.02898 66.884 4.02898Z" fill="black"/>
<path d="M145.416 31.5083C145.379 31.5083 145.342 31.4985 145.308 31.477C145.214 31.4172 145.184 31.2914 145.245 31.1967L146.086 29.8612C146.145 29.7657 146.271 29.738 146.366 29.7979C146.46 29.8577 146.49 29.9835 146.429 30.0782L145.589 31.4137C145.55 31.4753 145.484 31.5083 145.416 31.5083Z" fill="black"/>
<path d="M143.459 34.6185C143.422 34.6185 143.385 34.6087 143.351 34.5873C143.256 34.5275 143.228 34.4016 143.287 34.307L144.128 32.9715C144.188 32.876 144.313 32.8483 144.408 32.9081C144.503 32.9679 144.532 33.0938 144.471 33.1884L143.631 34.5239C143.593 34.5855 143.527 34.6185 143.459 34.6185Z" fill="black"/>
<path d="M143.971 31.8368C143.933 31.8368 143.897 31.827 143.863 31.8055L142.528 30.9646C142.433 30.9048 142.404 30.7789 142.465 30.6843C142.524 30.5888 142.649 30.5611 142.745 30.6209L144.08 31.4618C144.174 31.5217 144.204 31.6475 144.143 31.7422C144.105 31.8038 144.039 31.8368 143.971 31.8368Z" fill="black"/>
<path d="M147.079 33.7953C147.043 33.7953 147.005 33.7855 146.971 33.7641L145.637 32.9232C145.542 32.8634 145.512 32.7375 145.573 32.6429C145.633 32.5473 145.758 32.5197 145.853 32.5795L147.188 33.4204C147.283 33.4802 147.312 33.6061 147.252 33.7007C147.213 33.7623 147.147 33.7953 147.079 33.7953Z" fill="black"/>
<path d="M42.3806 10.6529C41.0109 10.6529 39.8965 9.53791 39.8965 8.16761C39.8965 6.7973 41.0109 5.68231 42.3806 5.68231C43.7503 5.68231 44.8647 6.7973 44.8647 8.16761C44.8647 9.53791 43.7503 10.6529 42.3806 10.6529ZM42.3806 6.08939C41.2349 6.08939 40.3034 7.02137 40.3034 8.16761C40.3034 9.31384 41.2349 10.2458 42.3806 10.2458C43.5263 10.2458 44.4578 9.31384 44.4578 8.16761C44.4578 7.02137 43.5263 6.08939 42.3806 6.08939Z" fill="black"/>
<path d="M36.0697 16.2564C36.0188 16.2564 35.9688 16.2377 35.9287 16.2002C35.8475 16.1225 35.8448 15.994 35.9225 15.9128L36.6184 15.1852C36.6961 15.104 36.8245 15.1013 36.9057 15.1789C36.9869 15.2566 36.9896 15.3852 36.912 15.4664L36.216 16.194C36.1759 16.2359 36.1223 16.2564 36.0688 16.2564H36.0697Z" fill="black"/>
<path d="M38.505 13.7105C38.4541 13.7105 38.4042 13.6918 38.364 13.6543C38.2828 13.5766 38.2801 13.4481 38.3578 13.3669L39.0537 12.6393C39.1314 12.5581 39.2599 12.5554 39.341 12.633C39.4222 12.7107 39.4249 12.8393 39.3473 12.9205L38.6513 13.6481C38.6112 13.69 38.5576 13.7105 38.5041 13.7105H38.505Z" fill="black"/>
<path d="M39.2242 16.1859C39.1725 16.1859 39.1207 16.1663 39.0814 16.127L38.3748 15.4307C38.2945 15.3521 38.2936 15.2227 38.373 15.1432C38.4515 15.0629 38.5809 15.062 38.6603 15.1414L39.367 15.8377C39.4473 15.9163 39.4482 16.0457 39.3688 16.1252C39.3286 16.1654 39.2769 16.1859 39.2242 16.1859Z" fill="black"/>
<path d="M36.7528 13.7489C36.701 13.7489 36.6493 13.7292 36.61 13.6899L35.9033 12.9936C35.823 12.9151 35.8221 12.7856 35.9015 12.7062C35.9801 12.6267 36.1094 12.6249 36.1889 12.7044L36.8955 13.4007C36.9758 13.4793 36.9767 13.6087 36.8973 13.6882C36.8572 13.7283 36.8054 13.7489 36.7528 13.7489Z" fill="black"/>
<path d="M168.796 74.6698C168.77 73.3263 168.174 72.0595 167.154 71.1936L143.648 51.2345C142.357 49.9436 140.265 49.9436 138.974 51.2345L124.455 65.766C122.877 67.3443 120.331 67.3452 118.753 65.7669L114.116 61.1301C112.541 59.5554 109.989 59.4885 108.415 61.0632L61.5075 105.185C56.9238 102.745 47.5995 99.6674 35.7339 96.2563C22.6209 98.181 11.1854 101.524 0.572536 105.185C-0.252826 111.897 -0.368823 117.658 1.4675 123.486C12.2391 157.664 93.5815 181.071 138.015 144.787C148.458 136.259 159.129 122.677 164.639 105.184H164.387C164.713 104.574 165.01 103.76 165.274 102.952C166.709 98.5685 168.896 79.9475 168.795 74.6671L168.796 74.6698Z" fill="white"/>
<path d="M0.572151 105.39C0.487384 105.39 0.408863 105.338 0.38031 105.253C0.343726 105.147 0.39994 105.031 0.506122 104.994C9.36739 101.937 21.3757 98.1587 35.7049 96.0563C35.7335 96.0519 35.7629 96.0536 35.7906 96.0617C48.8384 99.8119 57.2437 102.717 61.475 104.938L108.276 60.915C109.904 59.2858 112.59 59.3161 114.261 60.9855L118.898 65.6222C120.391 67.1148 122.819 67.1139 124.312 65.6213L138.831 51.0898C140.199 49.7213 142.426 49.7204 143.793 51.0898L167.286 71.0374C168.348 71.939 168.973 73.2611 169 74.6644C169.001 74.7769 168.912 74.8697 168.8 74.8715C168.686 74.8662 168.594 74.784 168.593 74.6724C168.568 73.3852 167.996 72.1738 167.022 71.3471L143.517 51.388C142.295 50.1668 140.327 50.1677 139.118 51.3773L124.599 65.9088C122.948 67.5612 120.261 67.5612 118.61 65.9096L113.972 61.2729C112.461 59.7616 110.032 59.7321 108.559 61.206L61.6472 105.332C61.5838 105.392 61.4892 105.405 61.4125 105.364C57.2545 103.15 48.8491 100.238 35.7201 96.4625C21.4444 98.5613 9.47446 102.328 0.639072 105.376C0.616765 105.383 0.594458 105.387 0.573043 105.387L0.572151 105.39Z" fill="black"/>
<path d="M22.7851 84.2076C25.5387 81.3304 28.2227 72.3177 23.8014 66.2491C20.4295 61.6213 20.7962 60.284 20.1859 56.2561C19.5756 52.2282 18.1113 45.7213 13.8409 44.2108C9.5713 42.7004 6.78826 50.8186 4.95819 58.8744C3.12812 66.9302 -1.6688 70.3957 2.04489 79.088C4.63965 85.1619 14.1086 93.2695 22.7842 84.2067L22.7851 84.2076Z" fill="white"/>
<path d="M14.3968 88.463C13.8034 88.463 13.2065 88.4086 12.6069 88.2997C7.73321 87.4132 3.51092 83.0345 1.85931 79.1673C-0.723855 73.1219 0.784104 69.5064 2.5303 65.3214C3.34763 63.3628 4.19173 61.3373 4.7619 58.8288C6.6821 50.3748 8.8209 45.6015 11.3014 44.2339C12.1357 43.7733 13.0137 43.701 13.9105 44.0188C17.1557 45.1668 19.3356 49.2741 20.3885 56.2256C20.4866 56.8764 20.5616 57.4692 20.6276 57.9914C20.9765 60.7624 21.1683 62.288 23.9674 66.1284C25.9403 68.836 26.729 72.5023 26.1865 76.4517C25.7493 79.6404 24.4716 82.739 22.9333 84.3468C20.3349 87.0615 17.4145 88.4621 14.3977 88.4621L14.3968 88.463ZM12.821 44.2303C12.3713 44.2303 11.9332 44.35 11.4969 44.591C9.12428 45.8988 7.05061 50.5864 5.15808 58.9198C4.58077 61.4622 3.72864 63.5039 2.90506 65.4785C1.12406 69.7474 -0.282175 73.1201 2.23317 79.0084C3.84196 82.7747 7.94736 87.0383 12.68 87.8997C16.2349 88.5478 19.5854 87.257 22.6388 84.0665C25.4201 81.1607 27.9122 72.2345 23.6382 66.3686C20.7784 62.4433 20.5812 60.8802 20.2234 58.0423C20.1547 57.4968 20.0833 56.9318 19.986 56.2863C18.9572 49.4946 16.8675 45.4971 13.7749 44.4026C13.4501 44.2875 13.1333 44.2303 12.8219 44.2303H12.821Z" fill="black"/>
<path d="M14.3039 103.187C14.1933 103.187 14.1022 103.097 14.1005 102.986L13.5044 59.1191C13.5026 59.0066 13.5928 58.9146 13.7052 58.9128C13.8132 58.9155 13.9095 59.0012 13.9113 59.1137L14.5073 102.98C14.5091 103.093 14.419 103.185 14.3066 103.187H14.3039Z" fill="black"/>
<path d="M15.4525 62.8577C15.4347 62.8577 15.4168 62.855 15.3981 62.8505C15.2901 62.8211 15.2268 62.7086 15.2562 62.6006L16.8204 56.9274C16.8499 56.8194 16.9614 56.7551 17.0702 56.7855C17.1782 56.8149 17.2416 56.9274 17.2121 57.0354L15.6479 62.7086C15.623 62.7988 15.5418 62.8577 15.4525 62.8577Z" fill="black"/>
<path d="M12.0668 77.0399C12.0061 77.0399 11.9455 77.0132 11.9062 76.9605L8.20322 72.1622C8.13451 72.0729 8.15057 71.9453 8.2398 71.8765C8.32903 71.8087 8.45663 71.8248 8.52533 71.9131L12.2283 76.7114C12.297 76.8007 12.281 76.9284 12.1917 76.9971C12.1551 77.0257 12.1105 77.0391 12.0677 77.0391L12.0668 77.0399Z" fill="black"/>
<path d="M15.1345 73.4148C15.0872 73.4148 15.0408 73.3988 15.0024 73.3657C14.9176 73.2925 14.9078 73.164 14.981 73.0783L19.4246 67.9068C19.4977 67.822 19.6262 67.8122 19.711 67.8854C19.7957 67.9586 19.8056 68.0872 19.7324 68.1729L15.2888 73.3443C15.2487 73.3907 15.1916 73.4148 15.1345 73.4148Z" fill="black"/>
<path d="M92.6506 162.885C92.5739 162.885 92.5007 162.842 92.4668 162.768C92.4195 162.667 92.4632 162.546 92.565 162.498C93.3716 162.12 95.5586 161.428 97.874 160.697C100.314 159.926 102.837 159.129 103.676 158.713C104.878 158.116 106.111 157.533 107.302 156.968C108.391 156.452 109.517 155.918 110.615 155.377C114.693 153.37 119.416 150.839 123.535 147.276C124.233 146.673 124.983 146.044 125.778 145.378C131.2 140.84 138.626 134.624 138.978 127.495C139.324 120.488 132.99 115.613 127.461 113.567C123.415 112.07 119.373 110.398 115.448 108.599C113.677 107.787 111.974 106.955 110.588 105.699C109.855 105.034 109.262 104.354 108.827 103.677C107.883 102.21 107.634 100.698 108.086 99.1853C109.576 94.2058 118.385 90.302 122.618 88.4264L123.083 88.2202C123.599 87.9908 124.313 87.6935 125.14 87.3498C131.028 84.9011 143.281 79.8074 143.476 74.7413C143.543 73.0139 142.134 71.4034 139.29 69.9537C134.991 67.763 134.338 67.413 133.806 66.8712C133.256 66.3114 133.059 65.7553 133.222 65.2179C133.594 63.9913 135.866 62.962 140.167 62.0702C143.723 61.3337 145.674 60.2482 145.964 58.8439C146.403 56.7238 142.956 54.3001 141.658 53.3877C141.608 53.352 141.576 53.2949 141.573 53.2324C141.569 53.1708 141.594 53.1101 141.641 53.069L142.086 52.6727C142.156 52.6102 142.261 52.6039 142.337 52.6584L142.646 52.8726C144.5 54.1563 147.951 56.547 147.776 59.1421C147.686 60.4794 146.628 61.6729 144.633 62.6906C143.707 63.1629 142.39 63.5717 141.117 63.9672C139.313 64.5269 137.269 65.1616 137.253 65.783C137.248 65.9901 137.507 66.4364 139.3 67.0961C147.397 70.0778 151.073 73.6959 150.227 77.8506C150.209 86.7544 139.018 90.627 130.025 93.738C127.185 94.7209 124.502 95.6493 122.629 96.6072C121.498 97.1857 120.307 97.9409 120.045 99.1523C119.845 100.083 119.965 100.863 120.414 101.537C121.603 103.322 124.896 103.929 127.3 104.372C128.064 104.513 128.725 104.634 129.249 104.776C133.638 105.963 137.444 107.4 140.887 109.17C147.766 112.706 154.886 119.366 154.236 127.455C154.227 127.566 154.128 127.648 154.017 127.641C153.906 127.632 153.822 127.534 153.831 127.423C154.464 119.533 147.464 113.008 140.702 109.533C137.284 107.776 133.504 106.349 129.143 105.17C128.635 105.033 127.981 104.912 127.226 104.773C124.751 104.317 121.36 103.691 120.075 101.763C119.569 101.004 119.425 100.097 119.648 99.0666C119.946 97.6811 121.298 96.8313 122.443 96.2448C124.342 95.2735 127.037 94.3406 129.892 93.3533C138.771 90.2815 149.82 86.458 149.82 77.8291C149.82 77.8148 149.822 77.8015 149.825 77.7881C150.639 73.853 147.051 70.384 139.16 67.4773C137.545 66.8828 136.832 66.357 136.847 65.7713C136.87 64.8581 138.783 64.2645 140.996 63.5771C142.254 63.187 143.554 62.7835 144.449 62.3264C146.307 61.3783 147.29 60.2973 147.37 59.1127C147.529 56.747 144.075 54.3545 142.414 53.2047L142.237 53.0815L142.103 53.2012C143.586 54.2501 146.832 56.6568 146.363 58.9243C146.036 60.5017 143.979 61.6935 140.25 62.4665C135.163 63.5208 133.831 64.6082 133.612 65.3339C133.494 65.7231 133.653 66.132 134.097 66.5837C134.586 67.0809 135.229 67.4246 139.476 69.5886C142.474 71.116 143.957 72.8541 143.884 74.7538C143.679 80.0796 131.263 85.2422 125.297 87.7221C124.474 88.0649 123.762 88.3604 123.25 88.588L122.785 88.7942C118.607 90.6457 109.915 94.4977 108.478 99.2978C108.06 100.692 108.293 102.09 109.17 103.453C109.586 104.101 110.155 104.753 110.862 105.393C112.205 106.61 113.878 107.427 115.618 108.225C119.533 110.02 123.566 111.688 127.604 113.182C133.262 115.275 139.743 120.284 139.386 127.511C139.024 134.818 131.52 141.1 126.042 145.686C125.248 146.351 124.498 146.978 123.803 147.58C119.649 151.173 114.897 153.72 110.796 155.738C109.695 156.28 108.568 156.815 107.478 157.332C106.287 157.896 105.057 158.48 103.858 159.074C102.99 159.504 100.453 160.306 97.9981 161.082C95.7968 161.777 93.5206 162.497 92.7389 162.863C92.7113 162.876 92.6818 162.883 92.6524 162.883L92.6506 162.885Z" fill="black"/>
<path d="M26.8279 62.6959L39.9204 61.9469L40.0016 71.9738L26.8279 73.5673V62.6959Z" fill="white"/>
<path d="M26.8277 73.7709C26.7786 73.7709 26.7304 73.753 26.693 73.72C26.6493 73.6816 26.6243 73.6263 26.6243 73.5682V62.6978C26.6243 62.5897 26.7081 62.5014 26.8161 62.4951L39.9086 61.7452C39.9639 61.7408 40.0183 61.7613 40.0594 61.7997C40.1004 61.8372 40.1236 61.8907 40.1236 61.9461L40.2048 71.9739C40.2048 72.0774 40.129 72.1649 40.0264 72.1774L26.8527 73.7709C26.8447 73.7718 26.8366 73.7727 26.8286 73.7727L26.8277 73.7709ZM27.0311 62.8888V73.3379L39.7962 71.7935L39.7185 62.1612L27.0311 62.8879V62.8888Z" fill="black"/>
<path d="M26.2691 73.661C27.2522 73.661 28.0492 71.2066 28.0492 68.1789C28.0492 65.1512 27.2522 62.6968 26.2691 62.6968C25.286 62.6968 24.489 65.1512 24.489 68.1789C24.489 71.2066 25.286 73.661 26.2691 73.661Z" fill="white"/>
<path d="M26.2688 73.8646C24.9803 73.8646 24.2861 70.9356 24.2861 68.1789C24.2861 65.4223 24.9812 62.4933 26.2688 62.4933C27.5564 62.4933 28.2514 65.4223 28.2514 68.1789C28.2514 70.9356 27.5564 73.8646 26.2688 73.8646ZM26.2688 62.8995C25.5228 62.8995 24.6921 65.0678 24.6921 68.178C24.6921 71.2882 25.5228 73.4566 26.2688 73.4566C27.0147 73.4566 27.8455 71.2882 27.8455 68.178C27.8455 65.0678 27.0147 62.8995 26.2688 62.8995Z" fill="black"/>
<path d="M29.5726 67.3559C25.8946 78.0113 23.3471 87.9328 23.2936 96.2323C23.2775 98.6917 25.0763 100.793 27.5078 101.156C30.4782 101.598 33.5959 101.446 36.8911 100.577L38.5177 66.407L29.5726 67.3559Z" fill="black"/>
<path d="M62.3804 83.1648L73.0129 162.199L71.3827 162.51L60.4736 83.1514L62.3804 83.1648Z" fill="white"/>
<path d="M71.3826 162.714C71.3407 162.714 71.2987 162.7 71.2639 162.675C71.2184 162.643 71.189 162.593 71.181 162.538L60.2719 83.1782C60.2639 83.1193 60.2817 83.0603 60.321 83.0157C60.3602 82.9711 60.4066 82.9434 60.4753 82.947L62.3822 82.9604C62.483 82.9604 62.5686 83.0362 62.582 83.1362L73.2145 162.171C73.2288 162.278 73.1574 162.378 73.0512 162.398L71.421 162.709C71.4085 162.712 71.396 162.713 71.3826 162.713V162.714ZM60.7073 83.3567L71.5548 162.271L72.7853 162.035L62.2019 83.3665L60.7064 83.3558L60.7073 83.3567Z" fill="black"/>
<path d="M60.4327 82.9175L62.3484 82.7523C62.5777 82.7327 62.7812 82.8978 62.8097 83.1264L63.7555 90.8036C63.7841 91.0331 63.6244 91.2437 63.3959 91.2786L61.7711 91.5294C61.5382 91.5651 61.3205 91.4062 61.2839 91.1741L60.0472 83.4111C60.0079 83.1656 60.1855 82.9389 60.4327 82.9175Z" fill="white"/>
<path d="M61.706 91.7383C61.4017 91.7383 61.1322 91.516 61.0832 91.2062L59.8465 83.4432C59.8188 83.2709 59.8652 83.0933 59.9723 82.9549C60.0793 82.8174 60.2409 82.73 60.4157 82.7148L62.3315 82.5505C62.6696 82.5211 62.9703 82.763 63.0114 83.1022L63.9572 90.7795C63.9991 91.1196 63.7663 91.4276 63.4272 91.4803L61.8023 91.7311C61.7702 91.7365 61.7381 91.7383 61.706 91.7383ZM62.3868 82.9549C62.3805 82.9549 62.3734 82.9549 62.3672 82.9549L60.4505 83.1192C60.3881 83.1245 60.3319 83.1549 60.2935 83.2049C60.2551 83.2549 60.2391 83.3165 60.2489 83.3781L61.4856 91.141C61.5052 91.2624 61.6185 91.3455 61.7417 91.3276L63.3665 91.0768C63.487 91.058 63.57 90.9482 63.5548 90.8277L62.609 83.1504C62.5947 83.0371 62.4992 82.954 62.3868 82.954V82.9549Z" fill="black"/>
<path d="M57.8709 91.3419C58.1163 91.5062 58.4143 91.6945 58.9586 91.8302L63.2174 92.8158C63.5842 92.9068 63.9554 92.6765 64.0383 92.306C64.0383 92.306 64.1909 91.7159 63.5601 91.5124C62.9926 91.3303 62.194 91.4678 61.6961 91.1C61.0313 90.6099 61.0081 89.1387 60.8377 88.3933C60.6477 87.5586 59.195 88.4201 58.6454 88.5736C58.0904 88.729 57.497 88.5495 57.1222 88.1139L54.0251 84.078C53.0677 82.9531 51.1172 84.9046 51.1172 84.9046C50.6175 85.5545 50.7603 86.499 51.384 86.9685L57.8709 91.341V91.3419Z" fill="white"/>
<path d="M63.3818 93.039C63.3114 93.039 63.24 93.0301 63.1695 93.0132L58.9133 92.0285C58.3512 91.8875 58.0344 91.6955 57.7587 91.5107L51.2718 87.1383C50.9202 86.8731 50.6891 86.4723 50.6293 86.0313C50.5678 85.5796 50.6846 85.1359 50.9577 84.7815C50.963 84.7744 50.9684 84.7681 50.9746 84.7619C51.0255 84.711 52.2221 83.5264 53.2687 83.5264C53.2866 83.5264 53.3044 83.5264 53.3231 83.5273C53.6676 83.5406 53.9558 83.6826 54.1815 83.9468L57.2858 87.9899C57.6007 88.355 58.1165 88.5103 58.593 88.3773C58.7027 88.347 58.8687 88.2782 59.0445 88.205C59.5995 87.9756 60.2892 87.6891 60.7184 87.9104C60.8326 87.9694 60.9807 88.0926 61.0387 88.347C61.0815 88.5362 61.1154 88.7674 61.1511 89.0112C61.2555 89.7262 61.3849 90.6153 61.8195 90.9358C62.0773 91.126 62.4485 91.1581 62.842 91.1929C63.107 91.2161 63.3818 91.2402 63.6245 91.3179C64.2688 91.5259 64.3071 92.0883 64.2375 92.3561C64.1867 92.5829 64.0466 92.781 63.8423 92.9069C63.7013 92.9935 63.5442 93.0381 63.3836 93.0381L63.3818 93.039ZM57.9844 91.1733C58.2414 91.3447 58.5127 91.5089 59.0079 91.6339L63.2632 92.6177C63.3899 92.6489 63.5175 92.6293 63.6263 92.5623C63.7361 92.4945 63.8119 92.3883 63.8396 92.2624C63.8574 92.1892 63.9172 91.8419 63.497 91.7062C63.2971 91.642 63.0579 91.6214 62.8036 91.5991C62.3718 91.5616 61.9247 91.5223 61.575 91.2643C61.003 90.843 60.8603 89.861 60.7451 89.071C60.7112 88.8353 60.6782 88.6121 60.639 88.4389C60.614 88.33 60.5667 88.2934 60.5283 88.2729C60.2678 88.1372 59.6235 88.405 59.197 88.5818C59.0016 88.663 58.833 88.7326 58.6991 88.7701C58.0719 88.946 57.3919 88.7407 56.9672 88.2479L53.863 84.2039C53.7184 84.0343 53.5337 83.9441 53.3044 83.9352C52.5834 83.9022 51.5992 84.7146 51.27 85.0413C51.0692 85.3082 50.9845 85.6403 51.03 85.9786C51.0755 86.3125 51.2486 86.6151 51.5056 86.8088L57.9835 91.1751L57.9844 91.1733Z" fill="black"/>
<path d="M65.013 89.7003C65.0755 89.3253 65.0335 88.9263 64.8515 88.6085C64.516 88.0238 63.7906 87.6908 63.1285 87.8193C63.2017 87.805 62.6895 88.5879 62.685 88.5995C62.5458 88.92 62.4316 89.2521 62.3433 89.5905C62.279 89.8359 62.2416 90.1341 62.4227 90.3126C62.495 90.3841 62.5931 90.4233 62.6877 90.4608C62.9331 90.5581 63.1776 90.6554 63.4229 90.7528C63.5648 90.809 63.7085 90.8661 63.8611 90.8795C64.2608 90.9152 64.6373 90.634 64.8238 90.2787C64.9148 90.1046 64.9809 89.9065 65.0148 89.7011L65.013 89.7003Z" fill="white"/>
<path d="M63.9308 91.0849C63.9014 91.0849 63.8719 91.0831 63.8416 91.0813C63.6587 91.0653 63.4936 90.9992 63.3473 90.9412L62.612 90.6493C62.5094 90.6082 62.3827 90.5582 62.2801 90.4573C61.983 90.1645 62.1061 89.6932 62.1463 89.5387C62.2373 89.1906 62.3559 88.8478 62.4978 88.5184C62.4996 88.5148 62.5175 88.4827 62.5496 88.4318C62.8021 88.0363 62.8931 87.8756 62.9252 87.8113C62.9288 87.7185 62.9948 87.6373 63.0903 87.6194C63.8354 87.4748 64.65 87.8488 65.0283 88.5068C65.2237 88.8469 65.2889 89.2825 65.2139 89.7333C65.1765 89.9583 65.1033 90.1797 65.0025 90.3716C64.8115 90.7359 64.4118 91.0849 63.9308 91.0849ZM62.8654 88.6933C62.7343 88.9986 62.6245 89.3173 62.5398 89.6405C62.4711 89.9047 62.4791 90.0815 62.5647 90.1663C62.6094 90.21 62.687 90.2404 62.7619 90.2708L63.4963 90.5627C63.623 90.6127 63.7533 90.6644 63.8773 90.676C64.2092 90.7082 64.5064 90.4413 64.6411 90.1833C64.7223 90.0279 64.7812 89.8494 64.8115 89.6664C64.8713 89.3075 64.8222 88.9683 64.6741 88.7094C64.4002 88.2318 63.8291 87.9453 63.2839 88.0015C63.2206 88.13 63.0992 88.3264 62.8913 88.6514L62.8645 88.6942L62.8654 88.6933Z" fill="black"/>
<path d="M48.4102 77.0373C48.4102 77.3328 50.4205 87.3891 50.4205 87.3891L54.6187 83.4853C52.9278 81.1804 51.8347 77.2194 50.8943 72.838L48.411 77.0382L48.4102 77.0373Z" fill="white"/>
<path d="M50.4206 87.5927C50.4001 87.5927 50.3787 87.5891 50.3582 87.5828C50.2877 87.5605 50.2359 87.5016 50.2216 87.4293C49.8853 85.7465 48.2078 77.3381 48.2078 77.0382C48.2078 77.0016 48.2176 76.9659 48.2363 76.9346L50.7195 72.7345C50.7624 72.6622 50.8445 72.6238 50.9274 72.6372C51.0104 72.6505 51.0756 72.713 51.0934 72.7952C51.925 76.6686 53.0145 80.9536 54.783 83.3648C54.8437 83.4478 54.833 83.5639 54.7571 83.6344L50.5589 87.5382C50.5206 87.5739 50.4715 87.5927 50.4206 87.5927ZM48.6191 77.0828C48.711 77.7256 49.7826 83.1577 50.5482 86.9919L54.3485 83.4577C52.6736 81.0714 51.6145 77.0873 50.8043 73.387L48.6191 77.0828Z" fill="black"/>
<path d="M41.4698 151.119C41.4698 151.119 40.607 154.615 41.6027 156.232L41.8856 156.902L36.1562 155.628L36.5417 155.042C37.227 154 37.6374 152.832 37.7392 151.633L41.4707 151.12L41.4698 151.119Z" fill="white"/>
<path d="M41.8855 157.105C41.8712 157.105 41.856 157.103 41.8418 157.1L36.1124 155.826C36.0473 155.811 35.9928 155.765 35.9679 155.703C35.9429 155.642 35.95 155.571 35.9866 155.515L36.3721 154.929C37.0359 153.921 37.4383 152.774 37.5365 151.615C37.5445 151.52 37.6168 151.443 37.7114 151.431L41.4429 150.918C41.5089 150.909 41.5768 150.934 41.6214 150.984C41.6669 151.034 41.6838 151.103 41.6678 151.168C41.6597 151.202 40.8371 154.601 41.7766 156.126C41.782 156.135 41.7864 156.143 41.7909 156.153L42.0738 156.824C42.1032 156.894 42.0916 156.975 42.0425 157.034C42.0033 157.081 41.9462 157.107 41.8864 157.107L41.8855 157.105ZM36.4881 155.492L41.5455 156.618L41.4224 156.325C40.5649 154.912 41.0226 152.247 41.2082 151.36L37.9264 151.811C37.8006 152.982 37.3821 154.134 36.712 155.153L36.489 155.492H36.4881Z" fill="black"/>
<path d="M41.9117 154.28L42.4212 155.016C43.4294 156.474 44.7777 157.666 46.349 158.487L47.5562 159.118C47.6714 159.178 47.749 159.291 47.7641 159.42L47.7722 159.485C47.8561 160.213 46.8433 161.725 44.1941 161.957C42.555 162.101 38.7949 161.857 34.503 159.577C34.2318 159.433 34.0854 159.13 34.1434 158.829C34.354 157.73 34.959 155.121 36.1225 153.937C36.2519 153.805 36.4652 153.809 36.5829 153.951L37.717 155.319C38.2265 155.932 39.1376 156.016 39.7488 155.504L41.3112 154.197C41.4959 154.042 41.7743 154.08 41.9108 154.278L41.9117 154.28Z" fill="white"/>
<path d="M43.3918 162.193C41.816 162.193 38.4298 161.894 34.4074 159.758C34.0549 159.571 33.8685 159.182 33.9434 158.792C34.1531 157.699 34.7715 155.023 35.9769 153.796C36.0804 153.69 36.225 153.638 36.3695 153.64C36.5132 153.646 36.6479 153.713 36.7389 153.823L37.873 155.19C38.0845 155.445 38.3825 155.602 38.7127 155.632C39.0419 155.662 39.364 155.562 39.6183 155.349L41.1807 154.042C41.3128 153.932 41.4859 153.883 41.6563 153.905C41.8267 153.928 41.9802 154.023 42.0784 154.164L42.5879 154.9C43.5738 156.326 44.9069 157.503 46.4425 158.307L47.6498 158.939C47.8247 159.03 47.9424 159.201 47.9648 159.398L47.9728 159.464C48.0147 159.827 47.8461 160.271 47.5115 160.682C47.1215 161.161 46.1739 161.99 44.2109 162.161C44.061 162.175 43.7817 162.193 43.3909 162.193H43.3918ZM36.3481 154.046C36.3285 154.046 36.2964 154.051 36.2669 154.081C35.1391 155.229 34.5448 157.811 34.3423 158.868C34.3012 159.082 34.4038 159.296 34.5975 159.398C39.5148 162.01 43.4391 161.82 44.1752 161.755C45.9892 161.596 46.8467 160.853 47.1965 160.424C47.5052 160.045 47.5918 159.703 47.5695 159.509L47.5614 159.443C47.5543 159.381 47.5168 159.327 47.4615 159.298L46.2542 158.666C44.6597 157.833 43.2767 156.61 42.2532 155.131L41.7438 154.395C41.7107 154.347 41.6599 154.315 41.6019 154.307C41.5439 154.299 41.4868 154.316 41.4422 154.354L39.8798 155.661C39.5425 155.943 39.116 156.075 38.6761 156.036C38.238 155.996 37.8418 155.787 37.5607 155.449L36.4266 154.081C36.4025 154.053 36.3731 154.046 36.3526 154.045H36.3481V154.046Z" fill="black"/>
<path d="M40.9398 159.665C40.9175 159.665 40.8952 159.664 40.872 159.662C38.9456 159.448 37.1182 158.848 35.4398 157.877L34.5011 157.334C34.4039 157.278 34.3708 157.154 34.4271 157.057C34.4833 156.96 34.6073 156.926 34.7046 156.983L35.6432 157.525C37.2717 158.467 39.0464 159.05 40.9166 159.257C40.9773 159.264 41.0353 159.242 41.0755 159.197C41.1165 159.151 41.1326 159.091 41.1192 159.032L41.0059 158.508C40.9595 158.296 41.0407 158.084 41.2173 157.958C41.394 157.831 41.6198 157.82 41.8071 157.931L42.2756 158.208C43.6149 159.003 45.2424 159.217 46.7415 158.796L47.0368 158.713C47.1448 158.682 47.2572 158.745 47.2875 158.854C47.3179 158.962 47.2545 159.074 47.1466 159.105L46.8512 159.188C45.246 159.639 43.5025 159.409 42.0677 158.558L41.5992 158.281C41.5314 158.241 41.4752 158.272 41.4538 158.287C41.4324 158.302 41.386 158.346 41.402 158.422L41.5154 158.946C41.5564 159.135 41.5055 159.325 41.3762 159.469C41.2619 159.596 41.1049 159.665 40.938 159.665H40.9398Z" fill="black"/>
<path d="M20.3428 138.172C20.3428 138.172 17.5286 140.668 17.2966 142.636L17.1003 143.376L13.3179 138.227L14.0174 138.095C15.1845 137.601 16.3516 137.403 17.1672 136.433L20.3419 138.171L20.3428 138.172Z" fill="white"/>
<path d="M17.1006 143.58C17.0363 143.58 16.9757 143.549 16.9364 143.497L13.154 138.348C13.113 138.292 13.1032 138.218 13.129 138.153C13.1549 138.088 13.212 138.04 13.2807 138.028L13.9598 137.9C14.2471 137.78 14.5344 137.676 14.8119 137.575C15.6462 137.274 16.4341 136.991 17.0123 136.303C17.0747 136.229 17.1809 136.209 17.2657 136.256L20.4404 137.994C20.4984 138.026 20.5377 138.084 20.5448 138.149C20.5519 138.215 20.527 138.28 20.4779 138.324C20.4502 138.348 17.7189 140.792 17.4985 142.66C17.4977 142.67 17.4959 142.679 17.4932 142.689L17.2969 143.429C17.2764 143.505 17.2148 143.562 17.1381 143.576C17.1256 143.579 17.1131 143.58 17.1006 143.58ZM13.6733 138.368L17.0123 142.914L17.0961 142.598C17.3094 140.88 19.3259 138.847 19.9961 138.214L17.2121 136.691C16.5804 137.37 15.7863 137.656 14.9493 137.958C14.67 138.059 14.3818 138.163 14.0972 138.283C14.0838 138.289 14.0695 138.293 14.0552 138.296L13.6733 138.368Z" fill="black"/>
<path d="M18.2872 141.832L18.0311 142.73C17.5243 144.508 17.4573 146.384 17.8365 148.193L18.1283 149.584C18.156 149.716 18.1167 149.854 18.0221 149.952L17.974 150.001C17.4431 150.552 15.5532 150.737 13.6107 148.758C12.4088 147.533 10.1138 144.344 9.10734 139.377C9.04399 139.063 9.19121 138.744 9.47228 138.591C10.4975 138.032 13.0004 136.791 14.726 136.943C14.9179 136.96 15.0562 137.135 15.0196 137.324L14.6689 139.145C14.5119 139.961 15.0482 140.75 15.8664 140.904L17.9552 141.297C18.2024 141.343 18.3559 141.592 18.2872 141.833V141.832Z" fill="white"/>
<path d="M16.8266 150.575C16.1797 150.575 14.8939 150.354 13.4663 148.9C12.9113 148.335 10.0845 145.221 8.90851 139.416C8.82642 139.012 9.0138 138.608 9.37518 138.412C10.3951 137.856 12.9604 136.583 14.744 136.74C14.8948 136.753 15.0331 136.83 15.1242 136.949C15.2125 137.066 15.2473 137.217 15.2196 137.362L14.869 139.182C14.8029 139.523 14.8743 139.869 15.0706 140.157C15.266 140.444 15.5623 140.638 15.9049 140.702L17.9937 141.095C18.1677 141.127 18.3212 141.233 18.414 141.383C18.5068 141.533 18.5327 141.717 18.4836 141.888L18.2275 142.786C17.7314 144.526 17.6654 146.381 18.0366 148.152L18.3283 149.543C18.3703 149.741 18.3105 149.947 18.1704 150.093L18.1222 150.143C17.859 150.415 17.3915 150.573 16.84 150.576H16.8284L16.8266 150.575ZM14.421 137.132C12.7614 137.132 10.5021 138.261 9.56969 138.769C9.36625 138.879 9.26096 139.107 9.30736 139.336C10.4611 145.028 13.2165 148.065 13.7563 148.615C15.0804 149.964 16.244 150.169 16.8257 150.169H16.8365C17.3504 150.167 17.6859 150.008 17.8287 149.86L17.8769 149.81C17.9241 149.761 17.9438 149.692 17.9295 149.626L17.6377 148.235C17.2531 146.401 17.3219 144.478 17.8358 142.674L18.0919 141.776C18.1097 141.715 18.1008 141.651 18.0669 141.598C18.033 141.543 17.9804 141.508 17.9179 141.495L15.8291 141.102C15.3802 141.018 14.9912 140.763 14.7342 140.385C14.4773 140.008 14.3836 139.553 14.4701 139.104L14.8208 137.284C14.8288 137.243 14.8136 137.213 14.8003 137.194C14.7878 137.177 14.7592 137.148 14.7092 137.145C14.6156 137.137 14.5201 137.132 14.4219 137.132H14.421Z" fill="black"/>
<path d="M17.9891 149.275C17.949 149.275 17.9088 149.263 17.8731 149.238L17.6108 149.055C16.1849 148.063 15.2159 146.509 14.9518 144.792L14.8652 144.23C14.8518 144.145 14.7858 144.119 14.7582 144.111C14.7296 144.104 14.6591 144.094 14.6056 144.162L14.2585 144.6C14.1353 144.756 13.9489 144.839 13.7526 144.831C13.5536 144.822 13.3778 144.721 13.2689 144.555C12.1652 142.863 11.438 140.994 11.1087 139.002L10.924 137.886C10.9062 137.775 10.9811 137.671 11.0918 137.652C11.2015 137.631 11.3068 137.708 11.3255 137.82L11.5102 138.936C11.8306 140.873 12.5373 142.689 13.6098 144.333C13.6464 144.388 13.7044 144.422 13.7713 144.425C13.8373 144.43 13.8989 144.4 13.9399 144.348L14.287 143.91C14.4262 143.734 14.6466 143.662 14.8626 143.718C15.0785 143.775 15.2337 143.947 15.2676 144.169L15.3542 144.73C15.6023 146.337 16.5097 147.792 17.8437 148.722L18.106 148.905C18.1979 148.97 18.2211 149.096 18.1569 149.188C18.1176 149.246 18.0543 149.276 17.99 149.276L17.9891 149.275Z" fill="black"/>
<path d="M31.8347 94.1996L49.5269 93.7773C49.5269 93.7773 56.1593 116.231 49.758 134.142C45.9043 144.927 43.2631 150.145 42.3262 151.856C42.1067 152.257 41.6659 152.483 41.2117 152.431L37.9745 152.057C37.3419 151.984 36.8966 151.402 36.9921 150.772C37.8835 144.892 39.5949 127.628 41.1109 118.886C41.1127 118.878 41.1002 118.876 41.0975 118.884C40.6621 120.416 36.2765 134.337 19.1224 140.928C18.7949 141.054 18.4237 140.943 18.2149 140.661L16.2108 137.958C16.0128 137.691 16.0038 137.329 16.1903 137.054C18.6379 133.443 35.7394 111.247 31.8347 94.1996Z" fill="black"/>
<path d="M40.1417 122.705C40.1229 122.705 40.1033 122.702 40.0837 122.697C39.9757 122.664 39.9141 122.552 39.9463 122.444C40.048 122.099 40.1479 121.757 40.247 121.421C41.5881 116.839 42.7462 112.881 45.4802 111.074C45.5739 111.012 45.6997 111.037 45.7622 111.131C45.8246 111.224 45.7987 111.35 45.7051 111.413C43.096 113.139 42.011 116.844 40.6378 121.535C40.5387 121.873 40.4388 122.214 40.3371 122.559C40.3112 122.647 40.23 122.705 40.1426 122.705H40.1417Z" fill="white"/>
<path d="M21.0026 77.8987C20.9678 76.69 21.0901 75.4098 21.538 74.2877C22.7952 71.1373 26.4857 68.1396 29.9148 65.9837C38.8688 60.3552 48.4877 63.3681 51.9934 67.0104C53.3096 68.378 51.9238 80.8107 50.9512 79.6171C50.7862 81.6043 50.7728 81.7079 50.7835 82.7059C50.8005 84.2378 50.8281 85.6215 50.9388 86.8124C51.2305 89.9618 51.8105 96.0715 52.2406 98.3729C52.2477 98.4113 51.6856 99.0978 51.6303 99.1862C50.208 101.477 30.9918 101.695 31.1988 100.712C31.2389 100.521 31.8278 86.2616 32.2758 83.7923C32.7995 80.9089 33.0172 76.4097 31.9081 76.7971C31.9081 76.7971 30.0531 78.0085 30.0102 78.0371C29.0653 78.6557 28.8039 79.9305 29.3642 80.9116L31.4959 83.8932L25.398 88.5719L22.7622 84.2467C21.6933 82.2944 21.0669 80.1224 21.0026 77.8978V77.8987Z" fill="white"/>
<path d="M36.9476 101.483C34.1895 101.483 31.9633 101.337 31.3021 101.071C31.0076 100.953 30.9755 100.788 31.0005 100.671C31.0085 100.6 31.0514 99.7075 31.1067 98.5783C31.3092 94.3852 31.7313 85.659 32.0775 83.7567C32.5709 81.0428 32.6967 77.505 32.1212 77.0123C32.0873 76.9837 32.0534 76.9685 31.9981 76.9837C31.7821 77.1248 30.1644 78.1817 30.1243 78.2085C29.2829 78.7593 29.0268 79.8975 29.538 80.8036L31.6635 83.7763C31.7268 83.8656 31.709 83.9897 31.6215 84.0566L25.5237 88.7353C25.4782 88.7701 25.4193 88.7835 25.3631 88.7737C25.3059 88.763 25.2569 88.729 25.2265 88.6799L22.5907 84.3548C21.4825 82.3301 20.8651 80.1028 20.8017 77.9059C20.7598 76.474 20.9454 75.2322 21.3513 74.2136C22.7094 70.8106 26.7006 67.7674 29.8084 65.8133C34.9212 62.5986 39.8172 62.4112 43.0249 62.82C46.694 63.2878 50.1873 64.8393 52.1414 66.8711C53.296 68.0709 52.5661 76.4088 51.7407 79.0021C51.5551 79.5859 51.3776 79.8538 51.1492 79.8975C51.1438 79.8984 51.1384 79.8993 51.1331 79.9002V79.9145C50.9894 81.6267 50.9778 81.7659 50.9885 82.7051C51.0046 84.1048 51.0296 85.5733 51.1429 86.7954C51.3517 89.0486 51.9879 95.9046 52.4421 98.3381C52.4635 98.4515 52.4385 98.4836 52.02 99.0166C51.9326 99.1282 51.8228 99.2674 51.8041 99.2969C50.8458 100.84 42.7287 101.485 36.9485 101.485L36.9476 101.483ZM31.4065 100.676C32.181 101.135 40.7541 101.305 46.8724 100.465C50.4157 99.9789 51.266 99.388 51.4579 99.08C51.4829 99.0398 51.5471 98.9568 51.6988 98.7639C51.8005 98.6345 51.9593 98.4319 52.0272 98.3363C51.5703 95.8225 50.9439 89.0665 50.7369 86.832C50.6218 85.5947 50.5968 84.1164 50.5808 82.7086C50.5701 81.7499 50.5817 81.6088 50.7253 79.8787L50.7485 79.6002C50.7557 79.5172 50.8119 79.4476 50.8913 79.4226C50.9627 79.4003 51.0394 79.419 51.0929 79.4699C51.2714 79.2699 51.6114 78.254 51.9183 76.0482C52.4269 72.4023 52.5233 67.8522 51.8478 67.1506C48.1484 63.3075 38.5064 60.823 30.0235 66.1552C27.5206 67.7281 23.1145 70.8874 21.727 74.3627C21.3415 75.3286 21.1658 76.5168 21.2059 77.8916C21.2675 80.0252 21.868 82.1891 22.9405 84.1495L25.4541 88.2729L31.2164 83.8513L29.1999 81.0294C29.1954 81.0241 29.1918 81.0178 29.1883 81.0116C28.5646 79.918 28.8769 78.5361 29.9003 77.8657C29.9431 77.838 31.7982 76.6257 31.7982 76.6257C31.8116 76.6168 31.8268 76.6097 31.8419 76.6043C32.0382 76.5356 32.2301 76.5704 32.3835 76.7016C33.2821 77.4702 32.8234 81.9177 32.4763 83.8281C32.1355 85.7046 31.7143 94.412 31.5118 98.597C31.4422 100.038 31.419 100.511 31.4065 100.675V100.676ZM31.3994 100.749C31.3994 100.749 31.3994 100.753 31.3985 100.754C31.3985 100.752 31.3985 100.751 31.3994 100.749Z" fill="black"/>
<path d="M39.4852 94.1738C39.4548 94.1738 39.4245 94.1675 39.396 94.1532C39.2951 94.1041 39.2532 93.9818 39.3023 93.881C43.5745 85.1253 46.8331 81.9517 46.8653 81.9214C46.9465 81.8437 47.0749 81.8464 47.1526 81.9276C47.2302 82.0089 47.2275 82.1374 47.1463 82.2151C47.1142 82.2454 43.9011 85.3806 39.6672 94.0595C39.6324 94.1318 39.5601 94.1738 39.4843 94.1738H39.4852Z" fill="black"/>
<path d="M36.3496 83.3075L37.6496 163.044L35.9944 163.162L34.457 83.0709L36.3496 83.3075Z" fill="white"/>
<path d="M35.995 163.365C35.9442 163.365 35.8951 163.347 35.8576 163.312C35.8166 163.274 35.7925 163.222 35.7916 163.165L34.2542 83.0736C34.2533 83.0147 34.2774 82.9576 34.3211 82.9183C34.3648 82.879 34.4228 82.8612 34.4826 82.8674L36.3742 83.104C36.4751 83.1165 36.5509 83.2013 36.5527 83.3022L37.8536 163.039C37.8554 163.147 37.7724 163.238 37.6645 163.245L36.0093 163.363C36.0048 163.363 35.9995 163.363 35.995 163.363V163.365ZM34.6655 83.3013L36.194 162.944L37.4441 162.855L36.1494 83.487L34.6655 83.3013Z" fill="black"/>
<path d="M34.4438 82.8337L36.3658 82.8944C36.596 82.9016 36.7789 83.0899 36.7798 83.3202L36.82 91.0555C36.8209 91.2867 36.6388 91.4769 36.4077 91.4849L34.7641 91.5438C34.5286 91.5519 34.3314 91.3689 34.3216 91.1332L34.003 83.2783C33.9932 83.0301 34.1958 82.8257 34.4438 82.8328V82.8337Z" fill="white"/>
<path d="M34.7491 91.7474C34.4136 91.7474 34.1325 91.4804 34.1191 91.1421L33.8006 83.2881C33.7934 83.1131 33.8604 82.9417 33.9826 82.8176C34.1048 82.6935 34.277 82.6203 34.451 82.631L36.373 82.6917C36.7139 82.7025 36.9824 82.9783 36.9842 83.3193L37.0244 91.0546C37.0262 91.3974 36.7594 91.6759 36.4158 91.6884L34.7723 91.7474C34.7642 91.7474 34.7571 91.7474 34.7491 91.7474ZM34.4305 83.0372C34.3707 83.0372 34.3145 83.0604 34.2717 83.1033C34.2271 83.1479 34.2039 83.2077 34.2066 83.2711L34.5251 91.1251C34.5305 91.2483 34.6384 91.3474 34.7571 91.3403L36.4007 91.2814C36.5229 91.2769 36.6175 91.1778 36.6166 91.0555L36.5765 83.3202C36.5765 83.1988 36.4801 83.1006 36.3587 83.097L34.4368 83.0363H34.4296L34.4305 83.0372Z" fill="black"/>
<path d="M37.6611 88.456C38.0805 88.6926 38.0234 89.3148 37.5674 89.4693C37.4291 89.5166 37.281 89.5389 37.132 89.5184C36.4476 89.4246 35.666 89.3282 35.3769 89.3309L34.812 89.3362C34.7246 89.3514 34.1803 89.4505 33.7618 89.6549C33.5637 89.7522 33.2621 89.8745 32.8954 89.9442C32.2744 90.0611 31.6355 89.8621 31.1813 89.4237L28.0815 86.7456C28.9622 86.135 29.4369 85.7288 30.6567 84.9147L32.6447 87.5821L33.4031 87.0866C33.7734 86.8233 34.3329 86.5805 34.68 86.7751L37.6611 88.4551V88.456Z" fill="white"/>
<path d="M32.543 90.1815C31.9907 90.1815 31.449 89.9655 31.0404 89.5709L27.9486 86.9008C27.9013 86.8597 27.8754 86.799 27.8781 86.7356C27.8817 86.6732 27.9138 86.6151 27.9656 86.5794C28.318 86.3348 28.6027 86.1259 28.9034 85.9036C29.3495 85.5751 29.8117 85.235 30.5434 84.7467C30.6335 84.6869 30.7548 84.7074 30.8191 84.794L32.6929 87.3079L33.2916 86.9169C33.7261 86.6071 34.3499 86.3571 34.779 86.5982L37.7611 88.2782C38.0261 88.4273 38.1733 88.7085 38.1447 89.012C38.1162 89.3156 37.9199 89.5637 37.6326 89.6619C37.4505 89.7235 37.273 89.7432 37.1043 89.72C35.9622 89.5637 35.5366 89.528 35.3787 89.5343L34.8308 89.5396C34.7228 89.5593 34.2267 89.6539 33.852 89.8378C33.6503 89.9369 33.3273 90.0699 32.9338 90.144C32.8044 90.1681 32.6733 90.1806 32.5439 90.1806L32.543 90.1815ZM28.4117 86.7633L31.3134 89.27C31.7319 89.6735 32.3056 89.8485 32.8571 89.745C33.2059 89.6789 33.4933 89.5611 33.6717 89.4727C34.1125 89.2566 34.6693 89.154 34.7773 89.1361C34.788 89.1343 34.7987 89.1335 34.8094 89.1335L35.3742 89.1281C35.6205 89.1317 36.2228 89.1897 37.1588 89.3174C37.2649 89.3325 37.3792 89.3182 37.5005 89.2772C37.6361 89.2308 37.7254 89.1183 37.7387 88.9754C37.7521 88.8317 37.6852 88.7041 37.5603 88.6335L34.5792 86.9535C34.3338 86.816 33.8582 87.0133 33.52 87.2534L32.7544 87.7533C32.6643 87.8114 32.5448 87.7908 32.4805 87.7042L30.6076 85.1922C29.9741 85.6189 29.552 85.9295 29.1434 86.2313C28.9034 86.408 28.6731 86.5776 28.4108 86.7633H28.4117Z" fill="black"/>
<path d="M46.7348 49.4651C46.501 48.7778 45.9442 48.2493 45.2464 48.052L42.2421 47.2004C40.5325 46.7156 38.6944 47.1816 37.422 48.4234L37.3943 48.451C36.9491 48.8858 36.5984 49.3893 36.3441 49.932C35.26 49.3803 31.6641 47.6476 28.583 46.1693C25.6216 44.7481 22.1024 45.2016 19.5977 47.3262C17.5152 49.0929 15.1042 50.4284 12.5023 51.2568L3.79987 54.0287C3.68833 54.0644 3.66157 54.2099 3.75258 54.2822L4.98661 55.2669C6.92018 56.8094 9.29455 57.6968 11.7653 57.7986L14.5885 57.9155C14.924 57.9298 15.0542 58.3574 14.7839 58.5565C13.0948 59.7973 11.1898 60.7141 9.16606 61.2596L6.68194 61.9291C6.53829 61.9675 6.5374 62.171 6.68016 62.2112L9.93075 63.1316C12.6522 63.902 15.5664 63.5735 18.0479 62.2175L22.1818 59.9589C21.3529 61.7907 20.0742 63.3842 18.4663 64.5912C18.3423 64.684 18.4289 64.8804 18.5805 64.8518L20.0296 64.5849C23.2579 63.9913 26.049 61.9773 27.6319 59.1001C28.8257 56.9291 30.53 55.0821 32.5974 53.718L35.8873 51.5469C35.7954 52.4004 35.9158 53.2806 36.2701 54.1045L36.7225 55.157C37.4086 56.7523 38.8987 57.8548 40.6235 58.0441L46.5063 50.7399C46.7954 50.3811 46.8802 49.899 46.7321 49.4634L46.7348 49.4651Z" fill="black"/>
<path d="M39.8452 52.9342C40.0219 52.9994 40.2137 52.8967 40.2539 52.7119C40.4421 51.8371 41.2175 50.4034 42.2695 49.9562C43.6178 49.3821 45.3095 49.5259 45.8538 50.5302C46.3294 51.4068 46.1313 52.0219 47.3734 53.0449C47.4921 53.1431 47.4412 53.3431 47.3359 53.4565L46.7871 54.1117C46.6694 54.2385 46.6149 54.6036 46.6283 54.7759C46.6712 55.3088 46.8041 56.4354 46.6471 56.6122C46.341 56.9568 44.5439 57.1665 44.5439 57.1665L43.9898 62.2817C43.9684 62.4755 44.113 62.6487 44.3084 62.662L45.8565 63.5878C45.8565 63.5878 46.6462 64.6305 42.3391 65.109C39.5864 65.4151 37.6814 63.3021 37.6814 63.3021C37.6814 63.3021 40.8481 62.6138 40.4502 56.289C40.4412 56.1497 40.3582 56.0257 40.2333 55.9641C39.7551 55.7257 38.4532 55.0035 38.4836 54.0296C38.5157 52.9958 39.2402 52.7093 39.8452 52.9333V52.9342Z" fill="white"/>
<path d="M41.7863 65.3437C39.279 65.3437 37.606 63.5225 37.531 63.4386C37.4829 63.3851 37.4659 63.3092 37.4882 63.2404C37.5105 63.1717 37.5676 63.119 37.6381 63.1039C37.6667 63.0976 40.6273 62.3513 40.2472 56.3023C40.2427 56.2363 40.2025 56.1765 40.1428 56.1461C39.4334 55.7926 38.2484 55.0463 38.2806 54.0233C38.302 53.3403 38.592 53.0056 38.8311 52.844C39.138 52.6378 39.5333 52.6003 39.9161 52.7431C39.9563 52.7583 39.9893 52.7458 40.0045 52.7378C40.0196 52.7297 40.0464 52.7092 40.0553 52.669C40.2516 51.7585 41.044 50.2569 42.1897 49.7686C43.5504 49.1893 45.4063 49.2785 46.0327 50.4328C46.1889 50.7203 46.2745 50.9774 46.3575 51.2255C46.536 51.7585 46.6903 52.2191 47.5023 52.8886C47.5862 52.9574 47.6362 53.0582 47.6442 53.1716C47.654 53.3171 47.5924 53.4796 47.4845 53.5957L46.9428 54.2429C46.8777 54.3134 46.8179 54.6035 46.8313 54.7606C46.8376 54.8428 46.8465 54.9383 46.8563 55.0427C46.9518 56.0943 46.9643 56.563 46.8001 56.7487C46.5021 57.0844 45.2903 57.2781 44.73 57.3504L44.1928 62.3049C44.1884 62.3433 44.2 62.3808 44.225 62.4102C44.2499 62.4397 44.2847 62.4575 44.3231 62.4602C44.3552 62.462 44.3865 62.4718 44.4132 62.4888L45.9613 63.4145C45.9836 63.4279 46.0033 63.4458 46.0193 63.4663C46.0871 63.5565 46.1737 63.7752 46.0657 64.0269C45.8043 64.6357 44.5578 65.0687 42.3628 65.3124C42.1665 65.3338 41.9746 65.3446 41.7872 65.3446L41.7863 65.3437ZM38.0575 63.3842C38.6268 63.9011 40.2284 65.1392 42.3173 64.9062C45.169 64.5893 45.6214 64.0287 45.6919 63.8645C45.7177 63.8046 45.7115 63.7582 45.7044 63.7323L44.2419 62.8575C44.1134 62.8361 43.9983 62.7709 43.9135 62.6691C43.8172 62.554 43.7726 62.4084 43.7886 62.2585L44.3427 57.1433C44.3525 57.0486 44.4266 56.9746 44.5212 56.9629C45.3483 56.8656 46.3388 56.6514 46.4958 56.4755C46.5645 56.3309 46.4851 55.4516 46.4512 55.0767C46.4414 54.9704 46.4325 54.8731 46.4262 54.7901C46.4119 54.6062 46.4601 54.1634 46.6386 53.9715L47.1802 53.3243C47.2284 53.2725 47.2435 53.21 47.2382 53.1913C46.3432 52.4575 46.155 51.8959 45.9729 51.3532C45.8917 51.1104 45.815 50.8818 45.6758 50.6256C45.1752 49.7026 43.5513 49.6294 42.3494 50.1418C41.3482 50.5676 40.6255 51.9522 40.4533 52.7538C40.422 52.8985 40.3301 53.0225 40.2008 53.0931C40.0705 53.1645 39.9152 53.1761 39.7751 53.1234C39.5164 53.0279 39.2558 53.0484 39.0586 53.1814C38.8284 53.3368 38.6999 53.6314 38.6874 54.0358C38.6616 54.8615 39.8242 55.5319 40.3248 55.7819C40.5148 55.8765 40.6407 56.0658 40.654 56.2765C40.9851 61.5452 38.8953 63.011 38.0575 63.3842Z" fill="black"/>
<path d="M31.8767 82.1355C32.5013 75.3733 32.4273 69.2761 30.3857 65.05C31.452 63.6753 32.8886 63.0647 34.8588 63.5583C34.7205 70.1269 34.0896 76.3749 32.7012 82.1338C32.5968 82.5676 31.9811 82.5694 31.8767 82.1355Z" fill="black"/>
<path d="M49.8613 79.8493L48.4114 64.3724C50.2254 64.9527 51.4166 65.5812 51.7994 66.2712L50.2513 79.8528C50.2245 80.0867 49.8836 80.0841 49.8613 79.8493Z" fill="black"/>
<path d="M98.4509 58.5039L73.5749 58.4387L73.3599 69.0405H98.7159C98.831 69.236 99.9588 67.0444 99.9588 63.919C99.9588 61.4962 99.3333 59.6341 99.0309 58.8735C98.9425 58.6512 98.7114 58.503 98.4509 58.503V58.5039Z" fill="white"/>
<path d="M98.7342 69.2565C98.7093 69.2565 98.6843 69.2521 98.662 69.244H73.3595C73.305 69.244 73.2524 69.2217 73.214 69.1833C73.1757 69.1441 73.1551 69.0914 73.156 69.0369L73.3711 58.4352C73.3737 58.3245 73.4639 58.2361 73.5745 58.2361L98.4505 58.3013C98.7922 58.3013 99.101 58.5021 99.2196 58.7994C99.5025 59.5118 100.162 61.4373 100.162 63.9199C100.162 66.7829 99.2036 69.1369 98.7967 69.2485C98.7762 69.2539 98.7557 69.2565 98.7351 69.2565H98.7342ZM73.5665 68.837H98.6762C98.9091 68.5129 99.755 66.6338 99.755 63.9191C99.755 61.507 99.1161 59.6394 98.8422 58.9485C98.7851 58.8038 98.6272 58.7065 98.4505 58.7065L73.7744 58.6423L73.5674 68.837H73.5665Z" fill="black"/>
<path d="M73.5739 69.6269C74.0499 69.6269 74.4358 67.0934 74.4358 63.9681C74.4358 60.8428 74.0499 58.3092 73.5739 58.3092C73.0978 58.3092 72.7119 60.8428 72.7119 63.9681C72.7119 67.0934 73.0978 69.6269 73.5739 69.6269Z" fill="white"/>
<path d="M73.5738 69.8296C72.5387 69.8296 72.5093 64.568 72.5093 63.9681C72.5093 63.3682 72.5387 58.1057 73.5738 58.1057C74.6088 58.1057 74.6383 63.3673 74.6383 63.9681C74.6383 64.5689 74.6088 69.8296 73.5738 69.8296ZM73.5738 58.5271C73.2963 58.794 72.9153 60.807 72.9153 63.9681C72.9153 67.1292 73.2954 69.1422 73.5738 69.4092C73.8513 69.1422 74.2323 67.1292 74.2323 63.9681C74.2323 60.807 73.8522 58.794 73.5738 58.5271Z" fill="black"/>
<path d="M76.5754 63.4316C74.2394 74.1432 71.4234 85.7109 71.3591 92.3687C71.3333 95.0549 73.2802 97.3295 75.9107 97.7017C78.3207 98.0427 80.9449 98.1267 81.002 97.6428C81.069 97.0804 76.5745 63.4316 76.5745 63.4316H76.5754Z" fill="white"/>
<path d="M79.3816 98.1874C78.2582 98.1874 76.8448 98.0401 75.8829 97.9035C73.1624 97.5188 71.1297 95.1388 71.1565 92.367C71.2109 86.6769 73.2971 77.2838 75.3146 68.1996C75.6724 66.5892 76.0302 64.9796 76.3764 63.3888C76.3978 63.2924 76.4817 63.2237 76.5834 63.2291C76.6815 63.2326 76.7636 63.3076 76.7761 63.4049C77.2365 66.8517 81.2723 97.0956 81.2036 97.667C81.1956 97.7357 81.1617 97.8348 81.0493 97.9214C80.7967 98.116 80.1579 98.1865 79.3807 98.1865L79.3816 98.1874ZM76.5263 64.6047C76.2577 65.8268 75.9847 67.057 75.7107 68.288C73.6977 77.3517 71.616 86.7242 71.5616 92.3714C71.5366 94.9398 73.4185 97.1447 75.9383 97.5009C78.7418 97.8973 80.5692 97.8134 80.7994 97.6027C80.7789 96.6868 78.0851 76.2956 76.5254 64.6047H76.5263Z" fill="black"/>
<path d="M96.2163 61.9623C99.8452 63.2031 102.748 69.5405 105.45 77.2892C109.253 87.9007 102.197 88.9416 98.8396 82.5383L96.2163 61.9632V61.9623Z" fill="black"/>
<path d="M98.9095 145.337C98.9095 145.337 99.7045 149.138 101.348 150.354L101.91 150.909L95.3608 151.663L95.6009 150.968C95.7561 149.669 96.1764 148.521 95.7258 147.292L98.9086 145.336L98.9095 145.337Z" fill="white"/>
<path d="M95.362 151.867C95.3005 151.867 95.2425 151.839 95.2032 151.791C95.1595 151.736 95.147 151.663 95.1693 151.597L95.4022 150.922C95.4414 150.603 95.4959 150.292 95.5476 149.991C95.7056 149.089 95.8546 148.235 95.5351 147.363C95.5021 147.272 95.5369 147.17 95.6199 147.119L98.8027 145.162C98.8589 145.128 98.9285 145.123 98.9892 145.149C99.0498 145.175 99.0944 145.229 99.1078 145.294C99.1159 145.331 99.9064 149.033 101.469 150.189C101.477 150.195 101.484 150.201 101.491 150.208L102.053 150.762C102.109 150.818 102.128 150.9 102.102 150.974C102.076 151.048 102.011 151.101 101.934 151.11L95.3843 151.864C95.3763 151.865 95.3692 151.866 95.3611 151.866L95.362 151.867ZM95.9715 147.382C96.2579 148.297 96.108 149.155 95.9491 150.062C95.8965 150.363 95.8421 150.676 95.8037 150.992C95.8019 151.006 95.7984 151.02 95.7939 151.035L95.6592 151.424L101.465 150.754L101.215 150.508C99.7824 149.436 98.9945 146.573 98.7741 145.658L95.9715 147.381V147.382Z" fill="black"/>
<path d="M101.134 149.053L101.808 149.742C103.142 151.107 104.787 152.127 106.602 152.714L107.997 153.165C108.13 153.207 108.232 153.314 108.271 153.448L108.291 153.515C108.512 154.273 107.711 156.063 104.943 156.792C103.231 157.243 99.1978 157.667 94.2323 156.026C93.9182 155.922 93.7085 155.627 93.7147 155.296C93.7397 154.091 93.9093 151.211 94.9291 149.741C95.0425 149.578 95.27 149.543 95.4208 149.673L96.8716 150.919C97.523 151.478 98.5045 151.402 99.0604 150.747L100.482 149.075C100.65 148.877 100.951 148.867 101.133 149.052L101.134 149.053Z" fill="white"/>
<path d="M101.241 157.402C99.3847 157.402 96.9586 157.141 94.1711 156.219C93.7696 156.086 93.5055 155.714 93.5144 155.293C93.5394 154.095 93.7107 151.144 94.7654 149.626C94.8537 149.499 94.9911 149.414 95.1428 149.396C95.2918 149.376 95.4426 149.422 95.5559 149.52L97.0068 150.766C97.2798 151.001 97.6278 151.113 97.9874 151.086C98.347 151.058 98.6745 150.891 98.9082 150.616L100.33 148.944C100.447 148.806 100.618 148.723 100.798 148.717C100.982 148.714 101.154 148.781 101.281 148.911L101.954 149.6C103.26 150.936 104.889 151.946 106.667 152.521L108.062 152.972C108.259 153.035 108.412 153.192 108.47 153.391L108.49 153.459C108.598 153.833 108.501 154.331 108.221 154.826C107.894 155.403 107.042 156.451 104.998 156.989C104.588 157.097 103.248 157.402 101.242 157.402H101.241ZM95.2097 149.798C95.2035 149.798 95.1981 149.798 95.1937 149.799C95.1553 149.804 95.1214 149.825 95.0982 149.858C94.1069 151.286 93.9445 154.14 93.9204 155.301C93.915 155.543 94.0667 155.757 94.2978 155.833C99.9906 157.715 104.123 156.798 104.893 156.595C106.792 156.095 107.571 155.146 107.865 154.625C108.127 154.162 108.157 153.778 108.097 153.573L108.077 153.505C108.057 153.435 108.004 153.381 107.935 153.358L106.54 152.908C104.7 152.313 103.014 151.268 101.663 149.884L100.989 149.195C100.942 149.147 100.879 149.124 100.811 149.123C100.744 149.126 100.682 149.155 100.638 149.207L99.217 150.879C98.9127 151.237 98.4871 151.455 98.0186 151.492C97.5511 151.529 97.0969 151.38 96.7409 151.075L95.29 149.829C95.2615 149.804 95.2311 149.798 95.2088 149.798H95.2097Z" fill="black"/>
<path d="M100.107 154.968C98.3363 154.968 96.5972 154.655 94.9251 154.035L93.8312 153.629C93.7259 153.59 93.6723 153.473 93.7116 153.367C93.7509 153.262 93.8678 153.207 93.973 153.248L95.067 153.654C96.9675 154.359 98.9573 154.655 100.98 154.536C101.051 154.531 101.112 154.495 101.151 154.435C101.188 154.375 101.195 154.304 101.168 154.238L100.953 153.702C100.869 153.49 100.915 153.257 101.075 153.095C101.234 152.933 101.466 152.882 101.679 152.964L102.226 153.174C103.794 153.775 105.564 153.707 107.082 152.985L107.38 152.843C107.48 152.795 107.603 152.838 107.651 152.94C107.699 153.041 107.656 153.162 107.554 153.21L107.256 153.352C105.639 154.121 103.752 154.194 102.08 153.553L101.533 153.343C101.447 153.309 101.386 153.357 101.365 153.38C101.348 153.398 101.295 153.461 101.331 153.549L101.546 154.085C101.622 154.273 101.603 154.48 101.494 154.651C101.385 154.822 101.207 154.928 101.004 154.94C100.704 154.958 100.405 154.967 100.107 154.967V154.968Z" fill="black"/>
<path d="M80.7581 147.121C80.7581 147.121 81.5531 150.922 83.1967 152.138L83.7588 152.693L77.2095 153.448L77.4495 152.752C77.6048 151.453 77.9893 147.905 77.5387 146.677L80.7563 147.121H80.7581Z" fill="white"/>
<path d="M77.2099 153.651C77.1484 153.651 77.0904 153.624 77.0511 153.575C77.0074 153.521 76.9949 153.448 77.0172 153.382L77.2501 152.707C77.6115 149.676 77.6454 147.56 77.3482 146.748C77.3241 146.681 77.3357 146.606 77.3803 146.551C77.425 146.495 77.4963 146.466 77.5659 146.477L80.7835 146.919C80.8683 146.931 80.937 146.995 80.9548 147.079C80.9629 147.117 81.7534 150.819 83.3158 151.975C83.3238 151.98 83.331 151.986 83.3381 151.993L83.9003 152.549C83.9556 152.604 83.9752 152.686 83.9493 152.76C83.9235 152.834 83.8583 152.887 83.7807 152.896L77.2313 153.651C77.2233 153.652 77.2162 153.653 77.2081 153.653L77.2099 153.651ZM77.8202 146.922C78.1031 148.198 77.8925 150.763 77.6525 152.777C77.6507 152.792 77.6471 152.806 77.6427 152.82L77.5079 153.209L83.314 152.54L83.0642 152.293C81.5482 151.159 80.7541 148.018 80.5899 147.304L77.8202 146.923V146.922Z" fill="black"/>
<path d="M82.9834 150.837L83.6571 151.527C84.9911 152.892 86.6364 153.912 88.4514 154.498L89.846 154.949C89.9789 154.992 90.0816 155.098 90.1208 155.232L90.1404 155.3C90.3617 156.058 89.5605 157.848 86.7926 158.576C85.0803 159.027 81.0472 159.451 76.0816 157.81C75.7675 157.707 75.5579 157.411 75.5641 157.081C75.5891 155.876 75.7586 152.996 76.7785 151.526C76.8918 151.362 77.1194 151.327 77.2701 151.458L78.721 152.704C79.3724 153.263 80.3539 153.186 80.9098 152.532L82.3312 150.86C82.4989 150.662 82.8005 150.652 82.9825 150.836L82.9834 150.837Z" fill="white"/>
<path d="M83.0882 159.187C81.2323 159.187 78.8062 158.925 76.0178 158.004C75.6163 157.871 75.3521 157.499 75.3611 157.077C75.386 155.879 75.5574 152.929 76.612 151.411C76.7004 151.284 76.8378 151.2 76.9895 151.18C77.1385 151.16 77.2893 151.206 77.4026 151.304L78.8535 152.551C79.1265 152.785 79.4745 152.898 79.8341 152.871C80.1937 152.842 80.5211 152.675 80.7549 152.401L82.1763 150.728C82.2932 150.59 82.4645 150.508 82.6448 150.502C82.8259 150.496 83.0008 150.566 83.1275 150.695L83.8012 151.385C85.1066 152.721 86.7359 153.731 88.5133 154.306L89.9088 154.756C90.106 154.821 90.2586 154.977 90.3166 155.176L90.3363 155.245C90.4451 155.619 90.3478 156.117 90.0677 156.611C89.7411 157.188 88.889 158.237 86.8447 158.774C86.4343 158.882 85.0941 159.188 83.0891 159.188L83.0882 159.187ZM77.0573 151.583C77.051 151.583 77.0457 151.583 77.0412 151.584C77.0029 151.589 76.9689 151.61 76.9458 151.643C75.9544 153.071 75.7911 155.925 75.7679 157.086C75.7626 157.328 75.9143 157.543 76.1454 157.618C81.8373 159.499 85.9703 158.583 86.7403 158.381C88.64 157.881 89.4181 156.932 89.7125 156.411C89.9749 155.947 90.0043 155.563 89.9445 155.358L89.9249 155.289C89.9044 155.22 89.8517 155.165 89.7821 155.143L88.3875 154.692C86.5476 154.098 84.8612 153.052 83.5103 151.669L82.8366 150.979C82.7893 150.931 82.7277 150.905 82.659 150.908C82.5912 150.91 82.5297 150.94 82.4859 150.992L81.0645 152.664C80.7603 153.022 80.3346 153.24 79.8662 153.276C79.3977 153.316 78.9445 153.165 78.5884 152.859L77.1376 151.613C77.109 151.589 77.0787 151.583 77.0564 151.583H77.0573Z" fill="black"/>
<path d="M81.9553 156.752C80.185 156.752 78.446 156.44 76.7747 155.82L75.6808 155.413C75.5755 155.374 75.522 155.257 75.5612 155.152C75.6005 155.046 75.7174 154.992 75.8227 155.032L76.9166 155.438C78.8163 156.143 80.8052 156.439 82.8298 156.319C82.9002 156.315 82.9618 156.278 83.0002 156.22C83.0377 156.16 83.0448 156.088 83.018 156.022L82.803 155.487C82.7182 155.275 82.7646 155.042 82.9243 154.88C83.0841 154.717 83.3161 154.667 83.5284 154.748L84.0754 154.958C85.644 155.56 87.4134 155.491 88.9312 154.77L89.2292 154.628C89.3309 154.58 89.4523 154.622 89.5005 154.724C89.5486 154.825 89.5058 154.947 89.4041 154.995L89.1061 155.137C87.4884 155.905 85.6021 155.978 83.9299 155.338L83.383 155.128C83.2964 155.094 83.2357 155.142 83.2143 155.164C83.1974 155.181 83.1447 155.245 83.1804 155.334L83.3955 155.87C83.4713 156.058 83.4526 156.264 83.3437 156.436C83.2349 156.608 83.0564 156.713 82.8538 156.725C82.554 156.743 82.2542 156.752 81.9562 156.752L81.9553 156.752Z" fill="black"/>
<path d="M89.4325 106.696C89.9902 108.329 92.1138 119.353 92.7098 123.671C93.2515 127.598 94.1027 144.376 94.2624 147.192C94.2767 147.434 94.4775 147.624 94.7211 147.624H101.021C101.257 147.624 101.455 147.445 101.478 147.21C101.771 144.29 103.558 125.622 103.285 117.714C102.987 109.078 99.1146 98.8034 98.3696 95.9744C97.6245 93.1454 96.7019 86.4492 96.7019 86.4492L78.212 89.2291C78.212 89.2291 75.8769 108.631 75.5789 112.503C75.2809 116.375 74.6982 128.898 75.4433 135.599C75.926 139.94 76.2883 146.187 76.464 147.694C76.5452 148.393 77.1377 148.919 77.8408 148.919H82.7609C83.0125 148.919 83.2168 148.718 83.2204 148.466C83.2427 146.659 83.5113 137.456 84.665 131.562C86.0052 124.712 87.4953 113.991 88.2404 109.673C88.4867 108.246 88.7008 106.606 88.8757 105.051C88.8757 105.051 88.8739 105.061 89.4316 106.695L89.4325 106.696Z" fill="white"/>
<path d="M82.7613 149.123H77.8412C77.0346 149.123 76.3556 148.519 76.2619 147.718C76.1932 147.131 76.0977 145.844 75.9772 144.214C75.7916 141.71 75.5364 138.279 75.2411 135.622C74.4996 128.948 75.0805 116.33 75.3758 112.488C75.6703 108.656 77.9866 89.3997 78.0098 89.205C78.0206 89.114 78.091 89.0417 78.1812 89.0283L96.6711 86.2484C96.7246 86.2413 96.7799 86.2538 96.8228 86.2868C96.8656 86.3198 96.895 86.368 96.9022 86.4216C96.9111 86.4885 97.8328 93.1383 98.5654 95.9227C98.7135 96.4842 98.9865 97.3456 99.3327 98.4356C100.702 102.747 103.249 110.773 103.488 117.707C103.78 126.169 101.701 147.021 101.68 147.231C101.646 147.571 101.363 147.827 101.021 147.827H94.7205C94.3699 147.827 94.079 147.553 94.0594 147.204C94.037 146.812 94.0013 146.152 93.9549 145.293C93.6614 139.841 92.9734 127.073 92.5077 123.699C91.9018 119.312 89.7942 108.389 89.2392 106.762C89.1313 106.445 89.0429 106.188 88.9724 105.979C88.8002 107.406 88.6218 108.657 88.4406 109.709C88.1819 111.208 87.8339 113.476 87.4315 116.102C86.6775 121.016 85.7397 127.131 84.8653 131.602C83.5866 138.133 83.426 148.368 83.4242 148.47C83.4198 148.831 83.1226 149.123 82.7613 149.123ZM78.3944 89.4077C78.1731 91.2476 76.0611 108.879 75.7809 112.519C75.4865 116.35 74.9065 128.932 75.6444 135.577C75.9406 138.24 76.1958 141.676 76.3814 144.184C76.5019 145.809 76.5974 147.092 76.6652 147.671C76.7348 148.267 77.2398 148.716 77.8403 148.716H82.7604C82.8996 148.716 83.0147 148.603 83.0164 148.465C83.0173 148.363 83.1797 138.091 84.4646 131.525C85.3382 127.061 86.2751 120.951 87.0282 116.041C87.4315 113.413 87.7795 111.144 88.0382 109.64C88.2559 108.38 88.4683 106.831 88.6717 105.035C88.6717 105.032 88.6717 105.029 88.6726 105.026C88.6869 104.916 88.7886 104.838 88.8984 104.851C88.9831 104.861 89.0501 104.922 89.0706 105.001C89.0786 105.027 89.1429 105.226 89.622 106.632C90.1815 108.271 92.3007 119.243 92.9083 123.645C93.3759 127.035 94.0647 139.815 94.3583 145.272C94.4047 146.13 94.4404 146.791 94.4627 147.183C94.4707 147.318 94.5822 147.423 94.7179 147.423H101.018C101.15 147.423 101.26 147.324 101.273 147.193C101.294 146.984 103.369 126.16 103.079 117.724C102.841 110.845 100.305 102.855 98.9419 98.5615C98.5939 97.4661 98.3191 96.6002 98.1692 96.0289C97.5027 93.4981 96.6862 87.8294 96.5247 86.6831L78.3908 89.4095L78.3944 89.4077Z" fill="black"/>
<path d="M88.9951 106.457C88.9871 106.457 88.9799 106.457 88.9719 106.456C88.8604 106.444 88.78 106.343 88.7925 106.231C88.9175 105.128 89.0138 104.128 89.0843 103.381C89.2199 101.935 89.9677 100.609 91.1366 99.7433C91.2267 99.6764 91.3543 99.6951 91.4212 99.7862C91.4881 99.8763 91.4694 100.004 91.3784 100.071C90.3023 100.868 89.6134 102.088 89.4885 103.419C89.418 104.168 89.3217 105.17 89.1967 106.277C89.1851 106.381 89.0968 106.457 88.9951 106.457Z" fill="black"/>
<path d="M78.1691 97.7715C78.0593 97.7715 77.9683 97.6831 77.9656 97.5724C77.963 97.4599 78.0522 97.3671 78.1637 97.3644C80.4703 97.3108 81.5428 95.0228 81.8961 94.0417C81.9345 93.9364 82.0505 93.881 82.1567 93.9194C82.262 93.9578 82.3173 94.0739 82.2789 94.1801C81.897 95.2397 80.7317 97.7116 78.1735 97.7715H78.1691Z" fill="black"/>
<path d="M97.7767 97.4001C97.7687 97.4001 97.7615 97.4001 97.7535 97.3983C94.8705 97.0716 94.9526 93.7605 94.9544 93.7266C94.958 93.6141 95.0525 93.5284 95.1641 93.5302C95.2765 93.5337 95.3639 93.6284 95.3604 93.74C95.3568 93.8614 95.2917 96.7082 97.799 96.993C97.9105 97.0055 97.9908 97.1064 97.9783 97.218C97.9667 97.3215 97.8784 97.3983 97.7767 97.3983V97.4001Z" fill="black"/>
<path d="M82.8845 70.577C82.0252 70.8269 79.8632 70.6162 78.1661 72.8792C76.1138 75.6172 74.8218 80.6511 74.9164 84.0059C74.9815 86.3368 70.5094 89.9897 68.0957 86.7349C66.445 84.5094 64.4606 83.4417 64.8434 76.1323C65.2574 68.2095 76.2325 57.6175 86.1431 60.2814L82.8845 70.5761V70.577Z" fill="black"/>
<path d="M70.7204 68.3924C70.7204 68.3924 77.1172 56.8712 92.1423 59.9465C107.168 63.0219 98.2223 92.1661 98.2223 92.1661C92.8454 93.7239 85.0112 93.215 76.4783 92.117L70.7195 68.3933L70.7204 68.3924Z" fill="black"/>
<path d="M73.6575 83.2658C73.5611 83.2658 73.4755 83.197 73.4576 83.0979C73.1489 81.3786 73.9118 77.7863 75.1949 74.9198C75.2413 74.8172 75.3609 74.7726 75.4635 74.8172C75.5661 74.8636 75.6116 74.9832 75.5661 75.0859C74.1661 78.2139 73.5977 81.5794 73.8582 83.0256C73.8779 83.1363 73.8047 83.2417 73.6941 83.2622C73.6816 83.264 73.67 83.2658 73.6575 83.2658Z" fill="white"/>
<path d="M84.2571 82.8168C84.1991 82.8168 84.1411 82.7918 84.1009 82.7436C84.0286 82.657 84.0402 82.5293 84.1268 82.457C86.826 80.2011 89.2485 77.1285 91.1321 73.5728C91.1848 73.4737 91.307 73.4353 91.4069 73.488C91.506 73.5407 91.5443 73.6639 91.4917 73.763C89.584 77.365 87.1275 80.4797 84.3873 82.7695C84.349 82.8016 84.3035 82.8168 84.2571 82.8168Z" fill="white"/>
<path d="M88.5867 54.2681L89.1479 58.7271C89.2496 59.3056 89.6949 59.7627 90.2704 59.8805L91.864 60.2064L90.8861 61.0384C88.717 62.8818 85.5859 63.0523 83.2303 61.4553L81.551 60.3171L83.4801 59.7761C84.0343 59.6207 84.442 59.1476 84.5134 58.5763L85.0586 52.6068L88.5867 54.2681Z" fill="white"/>
<path d="M86.7798 62.7443C85.5029 62.7443 84.2234 62.3738 83.116 61.623L81.4368 60.4848C81.3716 60.4402 81.3377 60.3616 81.3502 60.284C81.3627 60.2054 81.4198 60.142 81.4957 60.1206L83.4248 59.5796C83.9013 59.4457 84.2493 59.0422 84.3108 58.5503L84.8551 52.588C84.8614 52.5219 84.8988 52.463 84.9568 52.43C85.0139 52.3969 85.0844 52.3942 85.1442 52.4228L88.6723 54.0841C88.7357 54.1136 88.7785 54.1734 88.7874 54.243L89.3486 58.7021C89.4352 59.1913 89.8135 59.5805 90.3096 59.6814L91.9033 60.0072C91.9791 60.0224 92.0398 60.0804 92.0594 60.1554C92.079 60.2313 92.0532 60.3108 91.9943 60.3608L91.0163 61.1928C89.8055 62.222 88.2949 62.7443 86.7789 62.7443H86.7798ZM82.0275 60.3938L83.3436 61.2865C85.6153 62.8264 88.6625 62.6604 90.754 60.883L91.4143 60.3215L90.2293 60.0796C89.5681 59.9448 89.0649 59.427 88.9471 58.7619L88.3984 54.4037L85.2334 52.9138L84.7141 58.5941C84.6311 59.2556 84.1681 59.793 83.5336 59.9715L82.0266 60.3938H82.0275Z" fill="black"/>
<path d="M93.3371 47.7647C92.2307 47.2532 93.1917 48.9797 89.4896 46.106C88.0155 44.9616 88.0869 47.2416 87.7032 46.9461C86.2881 45.8534 86.3372 45.8891 85.4752 45.7865C84.905 45.7186 84.1903 46.539 84.0056 47.2898C83.7611 48.2807 84.4402 48.8288 84.3393 51.0856C84.2679 52.671 83.8138 53.4718 84.292 53.8958C84.7757 54.3243 85.4931 53.7297 86.057 54.1582C86.786 54.7117 86.0605 56.0695 86.6254 56.9738C86.9814 57.5443 88.0851 58.1781 90.3257 58.0049C90.6888 57.9764 90.9824 57.6925 91.0225 57.3291C91.0734 56.8631 91.135 56.2749 91.1475 55.708C91.2037 53.0058 90.5773 52.1425 91.1225 51.6515C91.9585 50.8999 93.5138 52.1336 94.1116 51.4801C94.7318 50.8026 94.8522 48.4655 93.338 47.7656L93.3371 47.7647Z" fill="black"/>
<path d="M88.0667 49.561L88.1505 50.2939C88.1898 50.6393 88.2058 50.9866 88.1978 51.3339C88.1827 51.9855 88.1639 53.1077 88.2014 53.7361C88.2567 54.6592 91.12 54.6869 91.12 54.6869L91.4609 54.2646L91.7964 54.2611C91.8615 54.2611 91.9267 54.2459 91.9829 54.2128C92.123 54.1298 92.1863 53.9718 92.1533 53.8236C91.9749 53.0148 91.642 51.2267 91.8285 49.8118C91.8285 49.8118 90.1724 48.6075 88.0667 49.561Z" fill="white"/>
<path d="M91.1201 54.8903H91.1183C90.6088 54.885 88.0622 54.8073 87.9989 53.7486C87.9605 53.1067 87.9802 51.9578 87.9944 51.3293C88.0025 50.9928 87.9873 50.6527 87.9489 50.317L87.865 49.5841C87.8552 49.4966 87.9025 49.4118 87.9837 49.3752C90.1725 48.3843 91.8777 49.5948 91.949 49.6466C92.0097 49.6903 92.0409 49.7635 92.0311 49.8376C91.8455 51.2427 92.1944 53.0621 92.3532 53.7789C92.4059 54.0173 92.2988 54.2619 92.0873 54.3868C92.0053 54.4359 91.9053 54.4618 91.8 54.4636L91.56 54.4663L91.2798 54.8145C91.2415 54.8627 91.1835 54.8903 91.1219 54.8903H91.1201ZM88.2862 49.6876L88.3531 50.2706C88.3933 50.625 88.4102 50.9839 88.4013 51.3392C88.387 51.9605 88.3674 53.0978 88.4049 53.7245C88.4334 54.2101 89.9494 54.4583 91.0246 54.4824L91.303 54.1369C91.3414 54.0896 91.3985 54.0619 91.4592 54.061L91.7947 54.0574C91.8295 54.0574 91.8589 54.0503 91.8803 54.0378C91.9401 54.0021 91.9704 53.9342 91.9562 53.8673C91.7599 52.9782 91.4601 51.3043 91.6126 49.9126C91.2504 49.6894 89.9343 49.0101 88.2871 49.6876H88.2862Z" fill="black"/>
<path d="M87.6863 51.8533C87.6863 51.8533 87.4864 50.0911 86.7056 50.3562C85.9249 50.6222 86.1935 52.5567 87.6863 51.8533Z" fill="white"/>
<path d="M79.4099 83.5443L102.804 162.465L101.191 163.042L77.4639 83.8336L79.4099 83.5443Z" fill="white"/>
<path d="M101.191 163.245C101.159 163.245 101.127 163.238 101.099 163.224C101.049 163.199 101.011 163.154 100.996 163.101L77.2694 83.8925C77.2525 83.8363 77.2614 83.7747 77.2926 83.7247C77.3239 83.6747 77.3756 83.6417 77.4345 83.6327L79.3815 83.3435C79.4796 83.3292 79.5778 83.3899 79.6063 83.4872L103 162.408C103.031 162.511 102.975 162.621 102.874 162.657L101.26 163.234C101.238 163.242 101.215 163.245 101.192 163.245H101.191ZM77.7254 84.0005L101.324 162.778L102.554 162.338L79.2655 83.772L77.7254 84.0014V84.0005Z" fill="black"/>
<path d="M77.3847 83.6024L79.313 83.1301C79.5432 83.0739 79.7778 83.2096 79.843 83.4381L82.0264 91.1181C82.0915 91.3475 81.9631 91.5876 81.7355 91.6599L80.1178 92.1741C79.8858 92.2473 79.6387 92.1206 79.5637 91.8893L77.0698 84.1683C76.9912 83.9246 77.1358 83.6649 77.3847 83.6033V83.6024Z" fill="white"/>
<path d="M79.9847 92.3973C79.7126 92.3973 79.4583 92.2232 79.3699 91.951L76.876 84.23C76.8207 84.0603 76.8394 83.8729 76.9269 83.7166C77.0143 83.5613 77.1633 83.447 77.3364 83.4042L79.2646 82.9311C79.6028 82.8489 79.9428 83.0462 80.0383 83.381L82.2217 91.0609C82.318 91.3984 82.1307 91.7456 81.7969 91.8519L80.1792 92.3661C80.115 92.3866 80.049 92.3964 79.9847 92.3964V92.3973ZM79.4181 83.3203C79.3994 83.3203 79.3798 83.3221 79.361 83.3274L77.4328 83.8006C77.3677 83.8166 77.3141 83.8577 77.2811 83.9157C77.2481 83.9737 77.2418 84.0416 77.2624 84.105L79.7563 91.826C79.7964 91.9501 79.9294 92.0188 80.0552 91.9795L81.6729 91.4653C81.7961 91.426 81.8657 91.2975 81.83 91.1734L79.6465 83.4935C79.6171 83.389 79.5225 83.3203 79.4181 83.3203Z" fill="black"/>
<path d="M103.333 75.7759L126.727 154.696L125.113 155.273L101.386 76.066L103.333 75.7759Z" fill="white"/>
<path d="M125.113 155.477C125.082 155.477 125.05 155.47 125.021 155.455C124.971 155.43 124.935 155.386 124.919 155.332L101.192 76.1241C101.175 76.0678 101.184 76.0062 101.215 75.9563C101.246 75.9063 101.298 75.8732 101.357 75.8643L103.304 75.5751C103.402 75.5608 103.5 75.6215 103.529 75.7188L126.923 154.639C126.953 154.743 126.898 154.853 126.796 154.888L125.183 155.465C125.16 155.473 125.137 155.477 125.114 155.477H125.113ZM101.648 76.2321L125.246 155.01L126.476 154.57L103.188 76.0036L101.648 76.233V76.2321Z" fill="black"/>
<path d="M101.307 75.8341L103.235 75.3618C103.466 75.3056 103.7 75.4413 103.765 75.6698L105.949 83.3497C106.014 83.5792 105.885 83.8193 105.658 83.8916L104.04 84.4058C103.808 84.479 103.561 84.3523 103.486 84.121L100.992 76.4C100.914 76.1563 101.058 75.8965 101.307 75.8349V75.8341Z" fill="white"/>
<path d="M103.907 84.629C103.635 84.629 103.381 84.4549 103.293 84.1826L100.799 76.4616C100.744 76.292 100.762 76.1045 100.85 75.9492C100.936 75.793 101.086 75.6796 101.259 75.6368L103.187 75.1645C103.526 75.0815 103.865 75.2797 103.961 75.6144L106.144 83.2944C106.24 83.6318 106.053 83.9791 105.72 84.0853L104.102 84.5995C104.038 84.62 103.972 84.6299 103.907 84.6299V84.629ZM101.355 76.0313C101.29 76.0474 101.237 76.0885 101.205 76.1465C101.172 76.2045 101.165 76.2724 101.186 76.3357L103.68 84.0568C103.72 84.1808 103.854 84.2496 103.979 84.2103L105.597 83.6961C105.72 83.6568 105.789 83.5283 105.754 83.4042L103.57 75.7242C103.535 75.6001 103.41 75.5269 103.285 75.5582L101.356 76.0304L101.355 76.0313Z" fill="black"/>
<path d="M72.9239 83.8863C74.522 84.7585 76.6447 84.6067 78.0804 85.8012C78.8335 86.4278 78.995 87.491 80.1603 87.0724C80.5529 86.9313 80.9429 86.7197 81.3578 86.7537C81.9235 86.8001 82.3741 87.3313 82.4383 87.8954C82.5026 88.4596 82.2402 89.0247 81.8494 89.4363C81.5987 89.7005 81.2944 89.9139 80.9607 90.0594C79.7775 90.5753 78.3802 90.1924 77.272 89.53C76.4279 89.0247 75.9871 88.2186 75.1341 87.7856C74.2481 87.3357 73.1398 87.2884 72.211 86.917C71.3098 86.5564 71.7149 83.2266 72.9239 83.8863Z" fill="white"/>
<path d="M79.7624 90.5002C78.9442 90.5002 78.0475 90.2306 77.1677 89.7039C76.7474 89.4522 76.4262 89.1344 76.1157 88.8264C75.7802 88.4943 75.4634 88.1801 75.0423 87.9667C74.5738 87.7293 74.0429 87.6096 73.4808 87.4829C73.0302 87.382 72.5653 87.2767 72.1361 87.1053C71.8104 86.9749 71.5971 86.5786 71.5365 85.9894C71.4499 85.1556 71.6819 84.079 72.22 83.721C72.3904 83.6077 72.667 83.5139 73.023 83.7076C73.6896 84.071 74.4774 84.2566 75.2403 84.437C76.2825 84.6825 77.3604 84.936 78.2116 85.6448C78.4579 85.8492 78.6444 86.0965 78.8095 86.3143C79.178 86.8009 79.4207 87.1231 80.0926 86.8812C80.1765 86.8508 80.2603 86.8178 80.3442 86.7839C80.6681 86.6545 81.0027 86.5197 81.3757 86.5509C82.0065 86.6027 82.5624 87.1829 82.6409 87.8721C82.707 88.4542 82.4732 89.0746 81.9976 89.5754C81.729 89.8584 81.3989 90.0896 81.042 90.2449C80.6511 90.4154 80.2193 90.4993 79.7624 90.4993V90.5002ZM72.6179 84.004C72.5412 84.004 72.4859 84.0326 72.4439 84.0603C72.095 84.2924 71.8595 85.1744 71.9398 85.9483C71.9826 86.3616 72.1156 86.6598 72.286 86.7286C72.6848 86.8883 73.1346 86.9892 73.5691 87.0865C74.1312 87.2133 74.7121 87.3436 75.2261 87.6043C75.7043 87.8471 76.0586 88.1979 76.4012 88.5381C76.6948 88.8291 76.9972 89.129 77.3756 89.3558C78.6328 90.1074 79.9097 90.2967 80.8787 89.8736C81.1856 89.7396 81.4703 89.5406 81.7014 89.2969C82.0877 88.8898 82.2876 88.3747 82.2358 87.9194C82.1796 87.4249 81.7781 86.9937 81.3409 86.958C81.0652 86.9339 80.7868 87.0455 80.4932 87.1633C80.4049 87.1981 80.3165 87.2338 80.2282 87.2651C79.2752 87.6061 78.8728 87.0749 78.4838 86.5607C78.325 86.3509 78.1608 86.1331 77.9502 85.9581C77.1721 85.3109 76.1879 85.0788 75.1449 84.8333C74.3561 84.6476 73.5405 84.4557 72.8258 84.0656C72.7428 84.0201 72.6741 84.004 72.617 84.004H72.6179Z" fill="black"/>
<path d="M101.253 78.4434L105.03 76.974C106.756 78.0952 106.619 79.8307 106.08 81.6982L102.092 82.748C101.343 81.3438 100.977 79.9146 101.252 78.4443L101.253 78.4434Z" fill="white"/>
<path d="M102.093 82.9506C102.019 82.9506 101.95 82.9105 101.914 82.8426C101.072 81.2625 100.791 79.8119 101.054 78.4059C101.067 78.3371 101.114 78.2791 101.18 78.2541L104.957 76.7847C105.017 76.7615 105.086 76.7686 105.141 76.8035C107.043 78.039 106.781 79.9993 106.275 81.7544C106.256 81.8231 106.201 81.8767 106.132 81.8946L102.145 82.9444C102.128 82.9488 102.11 82.9515 102.093 82.9515V82.9506ZM101.434 78.5915C101.23 79.827 101.48 81.1117 102.198 82.5096L105.916 81.5303C106.374 79.9038 106.551 78.2684 105.005 77.2016L101.433 78.5915H101.434Z" fill="black"/>
<path d="M75.9659 77.7087C76.578 71.0973 76.975 64.8421 75.6509 61.4373L80.7922 60.1777C80.4987 66.3258 78.781 72.1445 75.9659 77.7087Z" fill="white"/>
<path d="M75.966 77.9123C75.9473 77.9123 75.9286 77.9096 75.9098 77.9042C75.8161 77.8775 75.7546 77.7873 75.7635 77.69C76.3462 71.3946 76.803 64.9609 75.4619 61.5115C75.4405 61.457 75.4441 61.3954 75.4708 61.3437C75.4976 61.2919 75.5458 61.2544 75.6029 61.2401L80.7442 59.9805C80.8058 59.9653 80.8727 59.9805 80.9218 60.0216C80.9718 60.0626 80.9985 60.1242 80.9959 60.1885C80.7148 66.0732 79.0837 71.9999 76.1472 77.8016C76.1124 77.8712 76.041 77.9132 75.966 77.9132V77.9123ZM75.9214 61.5802C77.1216 64.9475 76.7905 70.7787 76.2676 76.6366C78.8642 71.2339 80.2767 65.9215 80.5756 60.4393L75.9214 61.5793V61.5802Z" fill="black"/>
<path d="M94.0132 60.4929C96.086 64.5351 98.0481 71.134 99.9942 78.1292C99.9335 71.9463 99.6952 66.3143 98.7352 62.9077C97.6127 61.6177 95.9833 60.8723 94.0132 60.4929Z" fill="white"/>
<path d="M99.9931 78.3319C99.903 78.3319 99.8218 78.2721 99.7977 78.1828C98.0435 71.8776 95.9921 64.7976 93.8319 60.5849C93.7962 60.5161 93.8033 60.4322 93.8497 60.3697C93.8961 60.3072 93.9747 60.2769 94.0505 60.2921C96.2143 60.709 97.7972 61.5204 98.8867 62.7729C98.9063 62.7952 98.9206 62.822 98.9295 62.8515C99.9494 66.4705 100.142 72.6043 100.197 78.1265C100.197 78.2283 100.122 78.3158 100.022 78.3301C100.012 78.3319 100.003 78.3319 99.9931 78.3319ZM94.3833 60.7777C96.3205 64.7145 98.1595 70.843 99.7709 76.5768C99.6942 71.5402 99.4542 66.25 98.5512 63.0059C97.5929 61.9221 96.2268 61.191 94.3833 60.7768V60.7777Z" fill="black"/>
</svg>
