<svg width="152" height="47" viewBox="0 0 152 47" fill="none" xmlns="http://www.w3.org/2000/svg">
<path fill-rule="evenodd" clip-rule="evenodd" d="M17.5378 0.103399L17.2881 0.168232L17.1721 0.473456L17.0561 0.778818L17.0362 2.63946L17.0163 4.50025L17.2152 4.77243L17.4141 5.04462L19.0109 5.12037L20.6076 5.19613L20.9854 5.4784L21.363 5.76054L21.648 6.14166L21.9329 6.52291L21.9763 8.83807L22.0196 11.1531L21.0422 11.5367L20.0647 11.9203L18.8613 12.545L17.6577 13.1697L16.5134 13.9314L15.3693 14.693V14.9511V15.2091L16.3668 15.7115L17.3642 16.214L18.8886 16.7949L20.4129 17.3758L21.2618 17.6247L22.1106 17.8738L22.0669 18.0983L22.0231 18.3228L22.0126 18.4265L22.002 18.5302H21.8058H21.6096L20.044 17.9928L18.4784 17.4554L17.3038 16.9481L16.1293 16.4406L15.2321 15.9489L14.3348 15.4573L13.2766 16.5728L12.2185 17.6883L11.5639 18.739L10.9092 19.7898L10.5071 20.9569L10.105 22.124L10.0238 23.2733L9.94273 24.4224L10.1091 25.3782L10.2755 26.334L10.6599 27.3243L11.0443 28.3147L11.7119 29.3192L12.3794 30.3237L13.2077 31.2094L14.036 32.0952L14.4242 32.296L14.8127 32.497L15.9474 31.9261L17.0823 31.3554L18.6094 30.7585L20.1365 30.1616L21.0108 29.9188L21.885 29.6761L21.9998 29.8619L22.1146 30.0478L22.0529 30.2088L21.9911 30.3697L20.3037 30.9303L18.6165 31.4908L17.3038 32.0787L15.9911 32.6667L15.8184 32.8036L15.6456 32.9405L15.6474 33.1654L15.6492 33.3905L16.6493 34.0308L17.6493 34.6711L18.3208 35.0551L18.9924 35.439L19.5645 35.4182L20.1365 35.3974L21.7256 35.1809L23.3147 34.9645L23.6052 34.8934L23.8956 34.8222L23.683 34.0373L23.4702 33.2522L23.3925 19.7743L23.3147 6.29634L23.0138 5.734L22.7129 5.17166L22.1294 4.64415L21.5459 4.11679L22.7067 4.17802L23.8675 4.23926L24.6275 4.59356L25.3875 4.94786L25.8086 5.36933L26.2299 5.79081L26.6377 6.52747L27.0456 7.26399L27.0802 14.2103L27.1147 21.1566L27.1493 28.1295L27.1838 35.1025L26.0093 35.3168L24.8347 35.531L22.3475 35.8667L19.8602 36.2024L18.1329 36.3557L16.4056 36.5089L15.8529 36.567L15.3002 36.6249L14.0911 36.6319L12.882 36.639V36.9695V37.2999L13.3321 37.3524L13.7821 37.4051L15.6466 37.3013L17.5111 37.1975L20.0675 36.9171L22.6238 36.6369L23.3838 36.5077L24.1438 36.3786L25.7256 36.0982L27.3074 35.818L27.3304 35.8483L27.3536 35.8787L27.668 36.8463L27.9825 37.814L28.3626 38.5752L28.7429 39.3364L29.3791 40.1831L30.0152 41.0296L30.8896 41.8409L31.764 42.6522L32.7698 43.247L33.7756 43.842L35.0397 44.2835L36.3038 44.7252L38.5838 44.7255L40.8638 44.7257L41.8953 44.4017L42.9269 44.0777L43.7608 43.6597L44.5947 43.2417L45.4303 42.6489L46.266 42.0561L47.1219 41.1408L47.978 40.2254L48.5987 39.1647L49.2194 38.1039L49.2718 37.959L49.3241 37.814L49.4269 37.9095L49.5299 38.0049L49.0757 38.808L48.6216 39.611L48.0392 40.3763L47.4569 41.1416L46.5423 41.9974L45.6278 42.8532L44.8349 43.363L44.042 43.873L43.0472 44.3348L42.0526 44.7967L40.8363 45.1002L39.6202 45.4038L37.5475 45.3962L35.4747 45.3885L34.1456 45.0351L32.8164 44.6818L31.7477 44.1877L30.6789 43.6938L29.8296 43.1164L28.9802 42.5391L28.2474 41.916L27.5146 41.293L26.6893 40.2666L25.8639 39.2402L25.2392 38.1567L24.6145 37.0732L24.1028 37.1444L23.5911 37.2156L23.4106 37.2714L23.2302 37.3274L23.8237 38.4692L24.417 39.611L25.2052 40.658L25.9932 41.7052L26.9466 42.6047L27.8997 43.5042L29.1242 44.3109L30.3487 45.1176L31.599 45.6273L32.8493 46.137L33.7475 46.3651L34.6456 46.593L36.1864 46.7548L37.7271 46.9165L39.2293 46.7535L40.7316 46.5905L41.628 46.334L42.5243 46.0776L43.5223 45.6581L44.5201 45.2387L45.7094 44.4471L46.8986 43.6555L47.8414 42.7124L48.7843 41.7692L49.4021 40.8975L50.02 40.0258L50.4221 39.2655L50.8244 38.5052L51.0478 37.9466L51.2711 37.3879L52.7002 36.8609L54.1293 36.3339L55.7875 35.5121L57.4456 34.6904L58.4126 34.0404L59.3798 33.3905L59.4255 33.1443L59.4712 32.8981L58.182 32.2991L56.8929 31.7001L55.5567 31.2029L54.2205 30.7055L52.724 30.3068L51.2275 29.908L49.5347 30.5279L47.842 31.1479V31.2811V31.4144L47.309 32.5522L46.7761 33.6899L46.0429 34.7843L45.3098 35.8787L44.3304 36.8466L43.3511 37.8147L42.5565 38.3401L41.762 38.8655V38.9963V39.1272L42.0038 39.1412L42.2456 39.1553L42.7293 39.1279L43.2129 39.1007L44.8341 38.8622L46.4552 38.6236L45.9919 39.1865L45.5287 39.7493L44.6942 40.3221L43.8596 40.8951L43.0526 41.2103L42.2456 41.5256L40.6368 41.5846L39.0281 41.6437L38.2186 41.4099L37.4093 41.1763L36.5802 40.7392L35.7511 40.3022L34.8747 39.428L33.9983 38.5538L34.0687 38.4833L34.1391 38.4128L34.957 38.7111L35.7747 39.0094L36.4537 39.0338L37.1329 39.0581L37.1709 36.7257L37.2088 34.3932L36.8945 34.4755L36.5802 34.5577L34.162 35.1328L31.7438 35.708L31.6264 35.8141L31.5089 35.9202L31.7424 36.7288L31.9758 37.5375L32.4788 38.5052L32.9818 39.4728L34.0211 40.5134L35.0602 41.5541L36.0965 42.0628L37.1329 42.5715L38.0311 42.7826L38.9293 42.9937L40.2544 42.9957L41.5796 42.9978L42.6587 42.7218L43.7377 42.4457L44.6499 41.9371L45.562 41.4286L46.4381 40.5896L47.3141 39.7508L47.8062 38.953L48.2984 38.1554L48.3657 38.2227L48.4331 38.2901L47.9648 39.0777L47.4965 39.8653L46.6675 40.7607L45.8384 41.6562L44.8975 42.3176L43.9566 42.9787L42.9629 43.3922L41.9693 43.8055L40.8091 44.0404L39.6488 44.2751L38.1146 44.204L36.5802 44.133L35.7511 43.9056L34.922 43.6783L34.0683 43.2809L33.2148 42.8835L32.4101 42.334L31.6056 41.7847L30.9368 41.1211L30.2679 40.4576L29.7468 39.6887L29.2257 38.9199L28.8395 38.1596L28.4533 37.3993L28.2029 36.5771L27.9525 35.7547L27.9828 35.7265L28.0129 35.6983L30.4311 35.1966L32.8493 34.6948L36.0275 33.877L39.2056 33.0592L40.9329 32.563L42.6602 32.0667L45.9765 30.9503L49.2929 29.8339L51.8493 28.8288L54.4056 27.8237L56.202 27.0388L57.9984 26.2539L60.9002 24.7666L63.802 23.2794L65.5984 22.1055L67.3947 20.9316L68.8158 19.7864L70.2369 18.6413L71.046 17.6796L71.8552 16.718L72.2991 15.8849L72.7429 15.0516L72.8171 14.2345L72.8912 13.4173L72.6582 12.8071L72.4252 12.1969L71.7372 11.5532L71.0492 10.9093L70.1783 10.5016L69.3074 10.0939L68.0056 9.76411L66.7038 9.43428L65.3911 9.2713L64.0784 9.10818L61.4529 9.0692L58.8275 9.03022L57.8947 9.09201L56.962 9.1538V9.46483V9.77586L60.382 9.77323L63.802 9.77075L65.1838 9.94755L66.5656 10.1245L67.8784 10.4563L69.1911 10.788L70.0372 11.2033L70.8831 11.6184L71.4448 12.228L72.0067 12.8376L72.0998 13.3349L72.1931 13.832L72.1034 14.4302L72.0137 15.0285L71.5007 15.8977L70.9874 16.767L69.9511 17.8065L68.9147 18.846L67.3947 19.9787L65.8747 21.1116L64.2561 22.0986L62.6373 23.0856L60.1797 24.3152L57.722 25.5448L55.9256 26.3396L54.1293 27.1345L51.2275 28.2746L48.3256 29.4147L45.9765 30.1822L43.6275 30.9496L42.522 31.2949L41.4165 31.6403L39.482 32.1957L37.5475 32.7513L35.3365 33.2969L33.1256 33.8425L31.882 34.1331L30.6384 34.4236L29.2694 34.7033L27.9004 34.9828L27.8185 34.9008L27.7365 34.8188V21.1106V7.40222L28.1207 6.61967L28.5048 5.83726L29.0472 5.34708L29.5896 4.8569L30.1806 4.55527L30.7716 4.2535L32.0177 4.18383L33.2638 4.11402L32.663 4.69972L32.0623 5.28543L31.7648 5.92919L31.4675 6.57281L31.4303 20.0264L31.393 33.4799L31.6376 33.4142L31.882 33.3484L34.542 32.6964L37.202 32.0443V30.3377V28.631L36.9524 28.4975L36.7029 28.3638L35.3288 28.4279L33.9547 28.4922L33.4365 28.5436L32.9184 28.5951V28.2094V27.8237L35.0256 27.7041L37.1329 27.5846L37.1699 24.2072L37.207 20.8298L37.0991 20.7219L36.9913 20.6141L35.0584 20.5284L33.1256 20.4426L32.97 20.3958L32.8143 20.3491L32.8758 20.0271L32.9373 19.7052H35.035H37.1329L37.1691 14.1972L37.2052 8.68906L36.4859 8.78803L35.7667 8.88701L35.0131 9.14634L34.2596 9.40581L33.637 9.75374L33.0145 10.1018L32.9492 10.0364L32.8837 9.97105L32.8909 8.37803L32.8979 6.785L33.2179 6.21534L33.538 5.64581L34.0517 5.38357L34.5655 5.12134H35.8531H37.1405L37.4476 4.90611L37.7547 4.69101V2.56399V0.436962L37.4476 0.221868L37.1405 0.00663481L27.4639 0.0226698L17.7875 0.0387046L17.5378 0.103399ZM43.0402 0.21855L42.7293 0.436962V2.56399V4.69101L43.0365 4.90611L43.3435 5.12134H44.7014H46.0593L46.4506 5.32372L46.8418 5.52609L47.1983 5.95006L47.555 6.37403L47.6977 6.88813L47.8405 7.40222L47.8412 8.48281L47.842 9.56353L47.6002 9.48971L47.3584 9.41576L45.7155 9.12436L44.0725 8.83282L43.021 8.80877L41.9693 8.78458V8.94313V9.10169L42.863 9.75983L43.7568 10.4181L44.565 11.2601L45.3732 12.1022L46.0624 13.139L46.7513 14.1758L47.2404 15.2012L47.7295 16.2265L48.147 17.5166L48.5644 18.8066L48.8596 18.8061L49.1547 18.8055L51.1584 18.3359L53.162 17.8664L54.8893 17.2912L56.6165 16.716L58.1523 15.9815L59.6881 15.2469L59.7958 15.0726L59.9035 14.8982L59.4346 14.4879L58.9656 14.0776L57.8168 13.3982L56.6681 12.7189L55.7441 12.259L54.8202 11.7991L53.4729 11.2707L52.1256 10.7423V8.71256V6.68285L52.4365 6.22584L52.7475 5.76883L53.1369 5.47965L53.5264 5.19046L55.0848 5.12134L56.6434 5.05222L56.8718 4.86256L57.1002 4.67277V2.64264V0.612382L56.9041 0.344066L56.708 0.0757525L50.0296 0.0378756L43.3511 0L43.0402 0.21855ZM81.2266 1.09247L81.173 1.18164L80.9559 1.91636L80.7388 2.65121L81.1831 2.83521L81.6274 3.0192L82.2161 3.19406L82.8046 3.36879L82.7688 9.9387L82.7329 16.5085L82.042 16.6749L81.3511 16.8413L80.9711 16.9282L80.5911 17.0148V17.8071V18.5993H84.8747H89.1584V17.8199V17.0405L87.9147 16.7331L86.6711 16.4257V14.1654V11.905L88.2256 11.9879L89.7802 12.0707L90.7917 11.8996L91.8032 11.7284L92.742 11.2586L93.6809 10.7886L94.3312 10.0931L94.9815 9.39751L95.246 8.79964L95.5103 8.20178L95.6372 7.30587L95.764 6.40983L95.6584 5.44868L95.553 4.48753L95.2504 3.80216L94.9479 3.11693L94.5059 2.6508L94.0638 2.18481L93.2559 1.79706L92.4478 1.40945L91.4595 1.24232L90.4711 1.07533L88.3984 1.19753L86.3256 1.31987L84.3911 1.30411L82.4565 1.28821L81.8684 1.14583L81.2803 1.00331L81.2266 1.09247ZM96.4219 1.45811L96.3475 1.73458L96.3458 2.22573L96.3438 2.71688L97.2841 3.01989L98.2243 3.32276L98.7892 4.60227L99.3541 5.88164L100.979 9.57943L102.604 13.2772H103.629H104.653L104.557 13.5883L104.46 13.8993L104.007 14.7978L103.554 15.6963L103.259 16.0082L102.964 16.3202L102.625 16.5425L102.286 16.7649L100.826 15.8514L99.3661 14.9381L98.9726 15.1416L98.5792 15.3452L98.2905 15.7122L98.0019 16.0794L97.8456 16.6011L97.6894 17.1228L97.7766 17.4702L97.8637 17.8177L98.2149 18.2353L98.5662 18.6528L99.3551 18.9507L100.144 19.2484L101.196 19.1897L102.248 19.1309L102.992 18.7135L103.737 18.296L104.403 17.48L105.069 16.664L106.218 14.314L107.367 11.964L108.792 8.51972L110.218 5.07545L110.728 4.43016L111.238 3.78474L111.898 3.34709L112.558 2.90958H112.725H112.891L112.977 2.47759L113.064 2.04561V1.64818V1.25075H109.817H106.569L106.466 1.21619L106.362 1.18164L106.321 1.96474L106.28 2.74798L107.081 2.97164L107.882 3.19517L108.113 3.29429L108.344 3.3934L107.049 6.89974L105.754 10.4062L105.682 10.4789L105.609 10.5516L105.317 9.87553L105.026 9.19928L104.264 7.33311L103.502 5.46693L102.91 3.87722L102.319 2.28752L102.227 1.73458L102.135 1.18164H99.3156H96.4962L96.4219 1.45811ZM114.71 1.41069L114.568 1.67721L114.61 2.16988L114.653 2.66269L115.317 2.914L115.982 3.16531L116.476 3.54269L116.97 3.91994L116.895 6.49056L116.82 9.06105L116.474 10.3927L116.128 11.7244L115.72 12.6966L115.311 13.669L114.68 14.6184L114.049 15.5679L113.775 15.8165L113.5 16.065L112.495 16.1914L111.489 16.3177L111.403 16.4217L111.318 16.5258L111.489 19.8434L111.661 23.161L111.671 23.2647L111.682 23.3684H112.574H113.465L113.588 22.9191L113.711 22.4699L114.177 20.5691L114.643 18.6684H120.741H126.839L127.143 20.5691L127.447 22.4699L127.525 22.9191L127.604 23.3684H128.615H129.626L129.708 22.6427L129.79 21.9169L129.997 19.248L130.205 16.5791L130.133 16.4633L130.062 16.3473L128.956 16.2493L127.849 16.1514V9.7431V3.33493L128.367 3.2007L128.886 3.06647L129.473 2.91359L130.06 2.7607V1.9711L130.06 1.18164L122.456 1.16283L114.853 1.14417L114.71 1.41069ZM132.371 1.83825L132.298 2.56399L132.388 2.65135L132.478 2.73872L133.549 3.05168L134.62 3.36451V9.89931V16.434L133.48 16.8097L132.34 17.1854L132.291 17.2269L132.243 17.2684L132.339 17.9684L132.435 18.6684H136.637H140.838V17.8444V17.0202L140.319 16.8841L139.801 16.7478L139.145 16.5857L138.489 16.4239V13.5399V10.656L138.799 10.5798L139.11 10.5037L142.289 10.5427L145.467 10.5816L145.504 13.5068L145.541 16.4322L144.433 16.8013L143.325 17.1705L143.328 17.4011L143.329 17.6316L143.415 18.15L143.5 18.6684H147.615H151.731L151.778 17.8347L151.823 17.0011L151.339 16.8785L150.856 16.7558L150.372 16.659L149.889 16.5621L149.647 16.4355L149.405 16.3087V9.83198V3.35525L150.614 3.05666L151.823 2.75807L151.778 1.93322L151.731 1.10851L147.632 1.145L143.532 1.18164L143.492 1.95022L143.452 2.71881L144.494 3.04588L145.536 3.37294V5.90596V8.43899H142.012H138.489V5.89809V3.35704L139.145 3.19517L139.801 3.03316L140.319 2.89686L140.838 2.7607V1.93654V1.11252H136.641H132.444L132.371 1.83825ZM36.3729 2.48492V3.58071L33.5056 3.62536L30.6384 3.66987L29.9866 3.97109L29.3348 4.27244L28.6487 4.91426L27.9627 5.55623L27.6923 6.10295L27.4219 6.64967L27.0724 6.0583L26.7228 5.46693L26.1933 4.95781L25.6638 4.44883L24.9038 4.05928L24.1438 3.66987L21.2765 3.62329L18.4093 3.57656V2.48284V1.38899H27.3911H36.3729V2.48492ZM55.6896 2.52943L55.73 3.60075L54.3078 3.60158L52.8856 3.60227L52.3709 3.74535L51.8563 3.88828L51.2655 4.33741L50.6747 4.78653L50.3414 5.29842L50.0081 5.81017L49.8024 5.50024L49.5966 5.19046L49.1684 4.72903L48.7402 4.26774L48.1875 3.9733L47.6347 3.67899L45.8729 3.62591L44.1111 3.57297V2.47953V1.38595L49.8802 1.42203L55.6493 1.45811L55.6896 2.52943ZM123.842 9.91023V16.3581L122.633 16.2718L121.424 16.1857L119.109 16.0929L116.795 16.0003V15.9074V15.8145L117.199 15.0643L117.604 14.314L117.906 13.5537L118.209 12.7934L118.469 11.7566L118.729 10.7199L118.938 9.13016L119.147 7.54046L119.202 5.53605L119.258 3.53164L119.27 3.49708L119.282 3.46252H121.562H123.842V9.91023ZM89.6263 3.79649L90.2763 3.9921L90.7414 4.34695L91.2064 4.70193L91.4425 5.32026L91.6787 5.93873L91.6212 6.84044L91.5638 7.74214L91.1547 8.33241L90.7457 8.92281L90.0871 9.25001L89.4285 9.57722L88.5466 9.64799L87.6648 9.71877L87.168 9.6256L86.6711 9.53229V6.65866V3.78502L86.7633 3.69296L86.8553 3.60075H87.9158H88.9762L89.6263 3.79649ZM48.5268 4.94081L49.1232 5.45145L49.3778 6.01213L49.6323 6.57281L49.6353 8.26619L49.6384 9.95958H49.4459H49.2534L49.1868 9.78581L49.12 9.61205L49.095 8.0399L49.07 6.46761L48.7959 5.88412L48.5219 5.30063L48.0964 4.86547L47.6711 4.43016H47.8007H47.9304L48.5268 4.94081ZM51.676 4.94855L51.3129 5.32869L51.0314 5.95075L50.7499 6.57281L50.7469 8.40443L50.7438 10.236H50.5365H50.3293L50.3323 8.40443L50.3354 6.57281L50.587 6.01863L50.8386 5.46458L51.3488 5.01642L51.8589 4.5684H51.949H52.0391L51.676 4.94855ZM37.8929 14.2449V19.7743L39.5165 19.7741L41.1402 19.774L42.6602 19.6369L44.1802 19.4999L45.9565 19.2717L47.7328 19.0434L47.6432 18.4826L47.5535 17.9218L47.0205 16.5636L46.4875 15.2053L45.9104 14.2496L45.333 13.2938L44.5446 12.3546L43.756 11.4153L42.9477 10.764L42.1395 10.1126L41.2253 9.63721L40.3111 9.16182L39.4041 8.93871L38.497 8.71546H38.195H37.8929V14.2449ZM58.7669 16.4698L57.1864 17.2642L55.3124 17.8955L53.4384 18.5268L51.7802 18.9341L50.122 19.3412L49.6088 19.4339L49.0954 19.5267L48.9407 19.7132L48.7861 19.8998L48.9368 20.8719L49.0876 21.8439L49.0941 23.8337L49.1007 25.8235L48.9338 27.0168L48.7669 28.2104L48.8542 28.2976L48.9414 28.385L51.3281 27.4436L53.7147 26.5023L55.6493 25.6451L57.5838 24.7878L59.7222 23.7203L61.8604 22.6529L63.1459 21.8854L64.4313 21.1181L64.5076 20.9946L64.5838 20.8712L64.1803 20.0118L63.777 19.1522L63.2632 18.3514L62.7496 17.5506L61.8427 16.5889L60.9358 15.6272L60.6416 15.6513L60.3475 15.6752L58.7669 16.4698ZM45.562 20.0542L43.7656 20.2946L42.3838 20.3785L41.002 20.4624L39.5511 20.5451L38.1002 20.6276L37.9941 20.7288L37.8879 20.8298L37.925 24.2072L37.962 27.5846L39.7584 27.6801L41.5547 27.7756L43.2838 27.9242L45.0129 28.0728L46.308 28.2665L47.6032 28.46L47.7787 28.3927L47.9541 28.3252L48.1108 27.4711L48.2675 26.6169L48.349 24.889L48.4305 23.161L48.274 21.734L48.1174 20.3072L47.9748 20.0407L47.8323 19.7743L47.5953 19.7942L47.3584 19.814L45.562 20.0542ZM63.7329 24.0948L62.5584 24.7805L60.1402 25.9949L57.722 27.2091L55.3038 28.2401L52.8856 29.271L52.6784 29.3447L52.4711 29.4185L52.6784 29.4958L52.8856 29.5732L54.0258 29.9245L55.1659 30.2757L56.5131 30.7792L57.8602 31.2826L59.0789 31.8935L60.2977 32.5044L60.552 32.4236L60.8061 32.343L61.7736 31.324L62.7413 30.305L63.2324 29.5369L63.7237 28.7688L64.0579 28.1075L64.3923 27.4463L64.6695 26.5471L64.9466 25.648L65.0454 24.5945L65.144 23.5411L65.0257 23.475L64.9075 23.409L63.7329 24.0948ZM6.44135 24.8326L5.07473 25.7458L4.14283 26.5073L3.21107 27.2688L2.08185 28.4622L0.952625 29.6556L0.532967 30.553L0.113171 31.4503L0.056516 32.2329L0 33.0156L0.175491 33.5486L0.35112 34.0816L0.640196 34.4825L0.929273 34.8834L1.74524 35.4156L2.5612 35.9478H2.73089H2.90071L2.97367 35.6686L3.04663 35.3893L2.63609 35.1769L2.22556 34.9645L1.67214 34.4644L1.11872 33.9641L0.907162 33.5551L0.695745 33.1461L0.700858 32.481L0.706109 31.816L1.08224 31.0474L1.45851 30.2786L2.18535 29.3971L2.91232 28.5155L4.06255 27.5192L5.21291 26.5228L6.69353 25.5332L8.17415 24.5434L8.17898 24.3875L8.18382 24.2317L7.99589 24.0756L7.80783 23.9195L6.44135 24.8326ZM38.0618 28.5077L37.8929 28.6766V30.2387V31.8008H38.0181H38.1434L40.7102 31.0432L43.2769 30.2857L45.0187 29.7188L46.7603 29.1519L46.7077 29.0992L46.655 29.0467L45.0031 28.8428L43.3511 28.639L41.762 28.558L40.1729 28.4772L39.2018 28.408L38.2305 28.3389L38.0618 28.5077ZM80.3147 28.6905V29.036H116.104H151.892V28.6905V28.3449H116.104H80.3147V28.6905ZM44.5256 32.2177L42.522 32.8834L40.2075 33.5432L37.8929 34.2029V36.6003V38.9977L38.0918 39.074L38.2906 39.1503L39.0936 38.99L39.8965 38.8295L41.1402 38.2283L42.3838 37.6271L43.3709 36.7205L44.3579 35.8141L45.0437 34.8788L45.7295 33.9434L46.2186 33.0449L46.7077 32.1463L46.8005 31.8353L46.8934 31.5243L46.7113 31.5381L46.5293 31.5521L44.5256 32.2177ZM7.35473 33.8052V35.5331H6.06563H4.77653L4.45291 34.8419L4.12929 34.1508H3.94564H3.762V34.9802V35.8096H3.6129H3.46367L3.54961 36.2012L3.63556 36.5927L3.50415 37.178L3.37274 37.7633L3.58444 37.8445L3.79627 37.9258L3.92464 37.6963L4.05301 37.4669L4.36074 37.1088L4.66847 36.751L5.90796 36.9923L7.14745 37.2337L7.18476 37.2617L7.22207 37.2897L6.87399 38.7268L6.52605 40.164L6.52577 40.475L6.52564 40.786H6.70887H6.89196L7.21655 40.4405L7.54113 40.0949H7.84762H8.15425L8.22735 39.9044L8.30044 39.7139L8.15867 39.5721L8.01703 39.4304L8.15784 39.1785L8.29865 38.9268L8.6213 38.9233L8.94382 38.9199V38.4978V38.0758L9.15109 37.7718L9.35836 37.4677L10.3947 37.391L11.4311 37.3143L11.8795 37.1735L12.3278 37.0327L12.1916 36.7783L12.0555 36.5238L11.3979 36.3126L10.7402 36.1012L10.1428 35.9474L9.5456 35.7935L9.36002 35.3523L9.17458 34.911L9.31649 34.74L9.45841 34.5689L9.37812 34.3599L9.29798 34.1508H9.03336H8.76874L8.69785 33.8794L8.62683 33.608L8.81172 33.4546L8.99647 33.3012L8.92088 33.1039L8.84516 32.9066H8.58717H8.32905L8.11473 32.4919L7.90041 32.0772H7.6275H7.35473V33.8052ZM138.757 35.9467L138.125 36.0559L137.435 36.4058L136.745 36.7557L136.573 36.9629L136.401 37.1701L136.796 37.6123L137.191 38.0547L137.972 37.6134L138.754 37.1722H139.506H140.257L140.553 37.3549L140.849 37.5375L140.927 37.8485L141.006 38.1596L140.921 38.5027L140.835 38.8458L140.429 39.0556L140.022 39.2655H139.05H138.075V39.8738V40.4821L139.308 40.5304L140.541 40.5787L140.897 40.9138L141.252 41.249V41.5444V41.8398L140.983 42.1294L140.713 42.419L140.206 42.5866L139.698 42.7542L139.079 42.6692L138.46 42.5843L137.777 42.2126L137.095 41.8411L136.663 42.273L136.231 42.705L136.407 42.9174L136.583 43.1297L137.364 43.513L138.144 43.8963H139.387H140.63L141.321 43.5508L142.012 43.2052L142.323 42.7354L142.634 42.2657L142.633 41.6987L142.631 41.1316L142.456 40.786L142.282 40.4405L141.775 40.1109L141.267 39.7812L141.71 39.4837L142.15 39.1862L142.333 38.6383L142.514 38.0905L142.431 37.6452L142.348 37.2001L142.009 36.7978L141.671 36.3956L141.22 36.1836L140.769 35.9717L140.078 35.9045L139.387 35.8374L138.757 35.9467ZM104.911 36.639V37.3302H106.155H107.398V40.5787V43.8272H108.089H108.78V40.5787V37.3302H110.024H111.267V36.639V35.9478H108.089H104.911V36.639ZM111.958 35.9945V36.0551L113.426 38.4551L114.894 40.8552L114.957 41.019L115.021 41.1828L114.434 42.194L113.847 43.2052L113.647 43.5162L113.447 43.8272L114.257 43.8258L115.067 43.8245L116.449 41.3849L117.831 38.9453L118.108 38.4488L118.386 37.9522L118.903 37.0313L119.42 36.1102V36.0291V35.9478H118.693H117.965L116.941 37.8174L115.917 39.6871L115.801 39.6482L115.685 39.6095L114.616 37.8132L113.547 36.0169L112.753 35.9755L111.958 35.934V35.9945ZM120.664 39.8875V43.8272H121.286H121.907V42.5831V41.339H122.988H124.068L124.753 41.1354L125.439 40.9319L125.875 40.4787L126.312 40.0258L126.459 39.6366L126.606 39.2475V38.5584V37.8694L126.405 37.4821L126.205 37.0947L125.725 36.6733L125.246 36.2519L124.537 36.0999L123.828 35.9478H122.246H120.664V39.8875ZM128.08 36.04L127.987 36.1321V39.9872V43.8424L128.632 43.8003L129.278 43.7581L131.255 41.1326L133.232 38.5072L133.339 38.4716L133.446 38.4359L133.415 40.9226L133.384 43.4095L133.464 43.6183L133.544 43.8272H134.22H134.897V39.8875V35.9478H134.223H133.55L131.494 38.678L129.438 41.4081L129.401 38.678L129.363 35.9478H128.768H128.172L128.08 36.04ZM144.254 36.0338L144.154 36.1321V39.9797V43.8272H144.842H145.53L145.568 41.0971L145.605 38.3669L146.792 40.1301L147.98 41.8933L148.19 41.6507L148.4 41.4081L149.422 39.8875L150.441 38.3669L150.48 41.0971L150.517 43.8272H151.207H151.898L151.86 39.9221L151.823 36.0169L151.127 35.9761L150.43 35.9354L149.261 37.7384L148.092 39.5414L148.023 39.535L147.954 39.5287L146.838 37.7728L145.72 36.0169L145.036 35.9761L144.352 35.9354L144.254 36.0338ZM124.82 37.7342L125.224 38.1383V38.6434V39.1485L124.832 39.5407L124.44 39.933L123.83 40.024L123.22 40.1151L122.598 40.0704L121.977 40.0258L121.937 38.678L121.898 37.3302H123.157H124.416L124.82 37.7342Z" fill="#4093FF"/>
</svg>
