<svg width="73" height="73" viewBox="0 0 73 73" fill="none" xmlns="http://www.w3.org/2000/svg">
<path d="M36.5 0C56.6584 0 73 16.3416 73 36.5C73 56.6584 56.6584 73 36.5 73C16.3416 73 0 56.6584 0 36.5C0 16.3416 16.3416 0 36.5 0ZM40.8193 10.9805C39.9894 10.8383 39.5284 11.2097 39.3027 11.9102C39.1948 12.2535 39.0461 12.5922 39.0049 12.9404C38.9028 13.7361 38.4108 13.9411 37.6172 13.9844C36.2581 14.055 34.9049 14.213 33.5566 14.3984C31.4404 14.6888 31.4458 14.7131 30.3027 13.0068C30.2772 12.9735 30.2569 12.9396 30.2363 12.9062C29.9282 12.3058 29.5081 12.0626 28.8213 12.4629C28.4995 12.6483 28.1296 12.763 27.7764 12.9014C25.2958 13.9081 25.7466 13.7121 26.2588 15.7529C26.4335 16.4437 26.3008 16.8545 25.6855 17.2646C24.302 18.189 22.9232 19.1289 21.6318 20.1582C20.9037 20.745 20.3399 20.8255 19.5146 20.3584C18.9759 20.0532 17.9661 19.6728 17.7051 19.8916C16.8349 20.6068 16.0658 21.5122 15.5791 22.4844C15.4201 22.8043 16.1314 23.6435 16.624 24.0625C17.3315 24.6738 17.3104 25.183 16.916 25.9316C16.2655 27.1709 15.6104 28.44 15.2051 29.7607C14.8606 30.8755 14.2666 31.4059 13.0566 31.2676C11.8214 31.1293 11.2061 31.5814 11.1963 32.7539C11.1914 33.1071 11.1342 33.4691 11.0371 33.8125C10.7094 35.0185 11.3253 35.6526 12.5293 35.8057C13.6664 35.949 13.9536 36.607 14.0508 37.5273C14.2048 38.9432 14.2971 40.3831 14.666 41.7568C14.9681 42.8723 14.6456 43.4825 13.585 43.8779C12.5085 44.2793 12.3078 44.9321 12.8721 45.8477C13.0408 46.1243 13.1488 46.4293 13.2822 46.7197C13.9996 48.3026 13.9952 48.2594 15.7988 47.9307C16.2863 47.8405 17.054 47.9267 17.3311 48.2217C18.5861 49.5611 19.6836 51.0354 20.9033 52.4082C21.4057 52.9665 21.5292 53.3904 21.124 54.0674C20.1653 55.6698 20.2064 55.6939 21.7695 56.8047C21.9383 56.9234 22.1341 57.0237 22.2773 57.167C23.2154 58.1068 24.0967 58.0389 24.9219 57.043C25.5213 56.3228 26.1816 56.2991 27.0479 56.6895C28.503 57.3469 29.979 57.991 31.5166 58.4346C32.5518 58.7397 32.978 59.1497 32.8652 60.1602C32.7367 61.3043 33.3984 61.8389 34.6133 61.8389C34.9105 61.8389 35.2234 61.8336 35.5 61.915C36.8275 62.3055 37.5448 61.8436 37.7451 60.5947C37.8727 59.8079 38.3653 59.4741 39.2207 59.3887C40.8241 59.2268 42.4397 59.0494 44.0127 58.7207C45.1451 58.4783 45.9195 58.6593 46.4219 59.6465C46.9096 60.5904 47.6164 60.8044 48.5957 60.2471C48.8821 60.0902 49.2252 60.0181 49.543 59.8994C51.1935 59.2841 51.2652 59.2607 50.7373 57.6396C50.44 56.7242 50.7582 56.2816 51.5264 55.79C52.7509 55.0031 54.0117 54.2068 55.0264 53.2148C56.0253 52.2326 56.846 52.1997 57.9941 52.9004C58.3632 53.125 59.2448 53.1388 59.5117 52.8916C60.3673 52.0998 61.0429 51.1366 61.8838 50.126C61.3863 49.7296 61.0176 49.3958 60.6074 49.124L60.6084 49.1221C59.6958 48.5117 59.5939 47.8914 60.168 46.9287C60.9166 45.6707 61.4081 44.2783 62.0488 42.8574C60.4651 42.4845 59.107 42.1843 57.7646 41.8369C55.8943 41.3541 55.8582 41.3544 55.0996 42.9951C51.6552 50.4136 43.9204 54.4513 35.5 53.207C28.2071 52.1295 21.3138 46.5804 20.458 38.1748C19.7809 31.557 23.225 24.782 30.8818 21.3877C34.2133 19.9059 37.76 19.6628 41.3682 20.1299C42.4751 20.2732 43.2802 20.2679 43.5059 18.9902C43.813 17.2073 44.7811 15.6338 44.2021 13.5928C43.5763 11.3716 43.9455 11.2804 41.4492 11.0566C41.2394 11.037 41.0243 11.0187 40.8193 10.9805ZM39.6611 27.6074C38.1393 29.9524 36.9607 30.0901 34.9609 28.1982C34.6479 28.3513 34.32 28.5227 33.9814 28.6758C32.9414 29.1379 32.2033 29.6335 32.8027 30.9453C33.1874 31.7794 31.712 33.1967 30.6816 33.0723C29.877 32.9771 29.3583 33.0819 29.1846 33.9111C29.0108 34.7117 28.5442 35.5177 29.5898 36.1279C30.9842 36.9433 31.2155 38.416 30.0264 39.4316C29.0274 40.2805 29.9184 40.8377 30.2314 41.4912C30.5386 42.1299 30.9893 42.573 31.8242 42.168C32.465 41.853 32.9316 42.0452 33.5469 42.3926C34.7506 43.0745 34.7092 44.0081 34.4336 45.21C35.2127 45.4101 35.8896 45.5155 36.5049 45.7539C37.3044 46.054 37.5912 45.7677 37.9346 45.1104C38.1701 44.663 38.7437 44.2479 39.2617 44.0762C40.4864 43.6709 41.3579 44.3296 42.0703 45.249C42.4598 45.0636 42.7875 44.9011 43.126 44.748C44.1053 44.3045 44.8166 43.8803 44.3613 42.5781C43.9773 41.4861 45.3053 40.3238 46.6328 40.4189C47.4166 40.4758 47.8826 40.271 47.9346 39.5361C47.9859 38.764 48.8314 37.8719 47.4736 37.2852H47.4717C46.1803 36.7327 45.9444 35.0351 46.9434 34.043C47.169 33.8193 47.441 33.6281 47.7432 33.3809C47.3644 32.7656 47.0872 32.1224 46.6211 31.6357C46.365 31.3737 45.7538 31.1978 45.375 31.2793C43.812 31.6225 42.4791 30.6927 42.3564 29.1904C42.3258 28.8088 41.9206 28.3231 41.542 28.127C40.968 27.8367 40.2714 27.7654 39.6611 27.6074ZM38.4707 34.1924C40.018 34.1973 41.2839 35.3266 41.2842 36.7002C41.2793 38.0161 40.0183 39.2606 38.6494 39.2891L38.6504 39.2881C37.1491 39.3213 35.6931 38.0152 35.7393 36.6758C35.7856 35.3267 37.0353 34.1925 38.4707 34.1924Z" fill="white"/>
</svg>
