<svg width="154" height="154" viewBox="0 0 154 154" fill="none" xmlns="http://www.w3.org/2000/svg">
<path d="M21.9295 96.9892C20.8823 96.9892 20.0507 97.8208 20.0507 98.868C20.0507 100.1 19.5579 101.178 18.7571 101.979C17.9563 102.78 16.8783 103.272 15.6463 103.272C14.4143 103.272 13.3363 102.78 12.5355 101.979C11.7347 101.178 11.2419 100.1 11.2419 98.868C11.2419 97.636 11.7347 96.558 12.5355 95.7572C13.3363 94.9564 14.4143 94.4636 15.6463 94.4636C16.6935 94.4636 17.5251 93.632 17.5251 92.5848C17.5251 91.5376 16.6935 90.706 15.6463 90.706C13.3979 90.706 11.3651 91.63 9.88671 93.0776C8.40831 94.556 7.51511 96.5888 7.51511 98.8372C7.51511 101.086 8.43911 103.118 9.88671 104.597C11.3651 106.075 13.3979 106.968 15.6463 106.968C17.8947 106.968 19.9275 106.044 21.4059 104.597C22.8843 103.118 23.7775 101.086 23.7775 98.8372C23.8083 97.8208 22.9767 96.9892 21.9295 96.9892ZM124.524 100.254C125.572 100.254 126.403 99.4224 126.403 98.3752C126.403 97.328 125.572 96.4964 124.524 96.4964C122.522 96.4964 120.674 97.328 119.381 98.6216C118.056 99.946 117.256 101.763 117.256 103.765C117.256 105.767 118.087 107.615 119.381 108.909C120.705 110.233 122.522 111.034 124.524 111.034C125.664 111.034 126.773 110.757 127.728 110.295C128.682 109.833 129.545 109.124 130.222 108.293C130.869 107.492 130.746 106.322 129.945 105.675C129.144 105.028 127.974 105.151 127.327 105.952C126.988 106.352 126.588 106.691 126.126 106.938C125.664 107.153 125.14 107.307 124.555 107.307C123.57 107.307 122.707 106.907 122.03 106.26C121.383 105.613 120.982 104.751 120.982 103.734C120.982 102.749 121.383 101.886 122.03 101.209C122.676 100.654 123.539 100.254 124.524 100.254ZM70.1315 136.352C69.3923 135.643 68.1911 135.674 67.4827 136.444C66.7743 137.183 66.8051 138.384 67.5751 139.093C68.8071 140.263 69.5771 141.896 69.5771 143.744C69.5771 145.499 68.8687 147.101 67.6983 148.24C66.5279 149.411 64.9571 150.119 63.2015 150.119C61.4459 150.119 59.8443 149.411 58.7047 148.24C57.5343 147.07 56.8259 145.499 56.8259 143.744C56.8259 142.758 56.0559 141.926 55.0703 141.865C54.4543 141.834 53.7459 141.68 52.9759 141.403C51.6207 140.91 50.0807 139.955 48.5715 138.662C46.2923 136.721 44.0747 133.949 42.4423 130.592C40.8099 127.235 39.7627 123.323 39.7627 119.042C39.7627 116.609 40.1015 114.022 40.8715 111.373C41.1487 110.387 40.5943 109.34 39.6087 109.063C38.6231 108.786 37.5759 109.34 37.2987 110.326C36.4363 113.313 36.0359 116.239 36.0359 119.042C36.0359 122.769 36.7443 126.249 37.8839 129.391C39.6087 134.103 42.3499 138.015 45.3683 140.818C46.8775 142.234 48.4791 143.374 50.0807 144.175C51.1279 144.698 52.1751 145.13 53.2531 145.345C53.5919 147.501 54.6083 149.411 56.0867 150.858C57.9039 152.676 60.4603 153.815 63.2323 153.815C66.0351 153.815 68.5607 152.676 70.3779 150.858C72.1951 149.041 73.3347 146.485 73.3347 143.713C73.3347 140.818 72.1027 138.169 70.1315 136.352ZM114.607 85.9936C114.317 86.759 113.898 87.5336 113.313 88.2112C112.451 89.2584 111.219 90.1516 109.802 90.7984C108.385 91.4452 106.753 91.8148 104.997 91.8148C102.225 91.8148 99.1759 90.8908 96.2499 88.5192C93.3239 86.1476 90.4595 82.2976 88.2727 76.384C85.8703 69.8852 82.6055 64.372 79.0943 59.752C73.8275 52.822 67.9447 47.9556 63.3863 44.7832C58.8279 41.6108 55.5631 40.1632 55.5015 40.1324C54.5467 39.7012 53.4379 40.1324 53.0375 41.0872C52.6063 42.042 53.0375 43.1508 53.9923 43.5512C54.0847 43.582 59.5363 46.046 66.0967 51.5284C69.3923 54.2696 72.9343 57.7808 76.2299 62.0928C79.5255 66.4356 82.5439 71.5792 84.7923 77.6468C87.1639 84.0224 90.3363 88.4884 93.9091 91.3836C97.4511 94.2788 101.394 95.5108 105.028 95.5108C108.046 95.5108 110.88 94.6484 113.19 93.2008C114.33 92.4616 115.346 91.5992 116.208 90.5828C117.071 89.5664 117.718 88.4268 118.18 87.1948C118.518 86.3016 118.734 85.4084 118.826 84.546C119.767 84.6147 122.092 84.2414 123.385 83.7452C125.441 82.9558 127.266 81.6816 128.713 80.0492C129.699 78.9096 130.5 77.616 131.023 76.1992C131.516 76.2608 132.009 76.3224 132.502 76.3224C134.565 76.3224 136.567 75.6756 138.261 74.536C139.924 73.3964 141.28 71.7024 142.019 69.6388C142.419 68.4992 142.635 67.3288 142.635 66.1892C142.635 64.1256 141.988 62.1236 140.848 60.4296C139.709 58.7664 138.015 57.4112 135.951 56.672C134.812 56.2716 133.641 56.056 132.502 56.056C130.9 56.056 129.329 56.4564 127.912 57.1648C126.988 57.6268 126.619 58.7664 127.081 59.6904C127.543 60.6144 128.682 60.984 129.606 60.522C130.5 60.06 131.485 59.8136 132.502 59.8136C133.21 59.8136 133.949 59.9368 134.658 60.1832C135.951 60.6452 136.998 61.5076 137.738 62.5548C138.477 63.602 138.877 64.8956 138.877 66.1892C138.877 66.8976 138.754 67.6368 138.508 68.3452C138.046 69.6388 137.183 70.686 136.136 71.4252C135.089 72.1644 133.795 72.5648 132.502 72.5648C131.793 72.5648 131.054 72.4416 130.346 72.1952C129.822 72.0104 129.237 72.072 128.744 72.3492C128.251 72.6264 127.943 73.1192 127.851 73.6736C127.697 74.5976 127.358 75.5216 126.834 76.3532C126.064 77.616 124.863 78.7556 123.508 79.5564C122.153 80.3572 120.736 80.8192 118.734 80.8192C118.334 78.8788 117.44 77.154 116.239 75.8296C115.408 74.9364 114.453 74.228 113.406 73.7044C112.358 73.2116 111.188 72.9036 110.018 72.9036C108.662 72.9036 107.246 73.304 106.044 74.1356C104.689 75.0288 103.673 76.2916 102.934 77.8932C102.502 78.8172 102.903 79.9568 103.827 80.388C104.751 80.8192 105.89 80.4188 106.322 79.4948C106.845 78.386 107.43 77.7084 108.046 77.308C108.632 76.9076 109.248 76.7228 109.925 76.7228C110.48 76.7228 111.096 76.8768 111.712 77.154C112.605 77.5852 113.491 78.3401 114.114 79.3408C115.146 80.9975 115.441 83.7892 114.607 85.9936ZM100.254 124.894C98.9603 124.894 97.6359 124.555 96.2499 123.754C95.2335 123.138 94.1555 122.245 93.1083 121.013C91.5067 119.134 89.9359 116.455 88.5191 112.759C87.1023 109.094 85.8087 104.443 84.7923 98.6524C80.7267 75.4908 72.4723 64.5568 71.9795 63.91C70.9015 62.4316 68.1295 62.986 68.7455 65.5732C68.8071 65.8812 68.8687 66.1584 68.8687 66.4048C68.8687 66.8668 68.7763 67.2672 68.5915 67.6368C68.3143 68.1912 67.8831 68.684 67.2671 69.0536C66.6511 69.4232 65.9119 69.6388 65.0803 69.6388C63.8542 69.6388 62.2618 69.182 60.9223 67.2056C60.3473 66.3571 59.8135 65.2344 59.2591 63.8484C58.7047 62.4932 58.0887 60.8916 57.3803 59.136C55.0703 53.592 52.2059 50.1116 49.8959 48.0172C47.5859 45.9228 45.7995 45.2452 45.6147 45.1836C44.6291 44.814 43.5819 45.3376 43.2123 46.2924C42.8735 47.2472 43.3663 48.3252 44.3211 48.6948C44.3211 48.6948 45.7071 49.2184 47.6167 50.974C48.9411 52.1752 50.4811 53.9616 52.0211 56.5796C50.1731 56.7644 48.2635 56.8876 46.3539 56.8876C45.8611 56.8876 45.3683 56.8876 44.8447 56.8568C40.9023 51.5284 36.2823 48.356 32.5863 46.508C29.1059 44.7832 26.4263 44.198 25.6871 44.044C24.4631 43.8213 23.3155 44.5026 23.3155 45.8304C23.3155 46.5388 23.7467 47.1856 24.3319 47.4936C24.5167 47.6168 27.3195 49.28 30.6151 54.516C24.3319 52.6064 19.0959 49.6188 15.2151 45.9536C14.5375 45.3068 13.9215 44.66 13.3363 43.9824C13.4287 40.9948 14.2603 38.0072 15.7079 35.2044C18.0487 30.7076 22.0527 26.642 27.2887 23.716C32.5247 20.79 38.9927 19.0036 46.1999 19.0036C47.2471 19.0036 48.0787 18.172 48.0787 17.1248C48.0787 16.0776 47.2471 15.246 46.1999 15.246C35.7279 15.246 26.6111 18.6956 20.0815 24.1164C16.8167 26.8268 14.1987 29.9992 12.3815 33.4796C11.3959 35.3892 10.6567 37.3912 10.1639 39.424C10.0099 39.1468 9.88671 38.8696 9.73271 38.5924C8.46991 35.9744 7.79231 33.1716 7.79231 30.2764C7.79231 26.7436 8.86631 23.3097 10.7183 20.2048C13.535 15.4822 18.3567 11.3652 24.5167 8.4084C30.6767 5.4824 38.1611 3.7268 46.2307 3.7268C56.9799 3.7268 66.7127 6.8068 73.6119 11.704C77.0615 14.1372 79.8335 17.0324 81.7123 20.174C82.6363 21.7448 83.3755 23.3772 83.8683 25.0404C84.2281 26.1932 84.6383 28.6123 84.6383 30.2456C84.6383 33.0484 84.0223 35.7588 82.8211 38.2844C82.7287 38.4692 82.6363 38.6232 82.5747 38.808C82.2667 37.576 81.8971 36.4056 81.4043 35.2352C80.2031 32.4016 78.4783 29.7528 76.2915 27.3504C75.5831 26.5804 74.4127 26.5188 73.6427 27.2272C72.8727 27.9356 72.8111 29.106 73.5195 29.876C75.4291 31.9704 76.9383 34.2804 77.9547 36.6828C78.8787 38.9004 79.4023 41.1796 79.4947 43.5204C79.2791 43.7976 79.0327 44.0748 78.7863 44.3212C78.3551 44.0132 77.9239 43.736 77.4927 43.4896C74.3819 41.6108 72.1643 40.9332 72.0411 40.9024C71.0555 40.5944 70.0083 41.1796 69.7311 42.1652C69.4231 43.1508 70.0083 44.198 70.9939 44.4752C70.9939 44.4752 72.9651 45.0604 75.6755 46.7544C78.4167 48.4484 81.8971 51.2204 85.0695 55.5632C86.0243 56.8568 86.8559 58.1196 87.6567 59.2592C88.2727 60.1216 88.8579 60.9224 89.4739 61.6924C90.3979 62.8012 91.4143 63.8176 92.6463 64.5568C93.2623 64.9264 93.9399 65.2036 94.6483 65.4192C95.3567 65.604 96.1267 65.7272 96.9275 65.7272C99.0567 65.7272 101.247 64.8374 102.472 63.6328C103.156 62.9601 103.765 62.216 104.166 61.3536C104.566 60.4912 104.812 59.5364 104.812 58.52C104.812 57.4728 104.566 56.364 104.012 55.3476C103.55 54.4236 102.41 54.0848 101.486 54.5468C100.562 55.0088 100.223 56.1484 100.685 57.0724C100.962 57.596 101.055 58.0888 101.055 58.52C101.055 60.4533 98.9779 62.0004 96.9275 62.0004C96.0651 62.0004 95.4491 61.8156 94.8023 61.5076C94.3403 61.2612 93.8783 60.9224 93.3855 60.4296C92.6463 59.7212 91.8763 58.7356 91.0139 57.5344C90.5827 56.9184 90.1207 56.2408 89.6279 55.5324C90.1823 52.4216 90.4595 49.0952 90.4595 45.5224C90.4595 39.6088 89.6587 33.0484 87.9647 25.8104C87.4103 23.1308 86.3939 20.5744 84.9771 18.2028C81.6815 12.7204 76.2915 8.162 69.5771 4.9588C62.8319 1.848 54.8239 0 46.1999 0C34.7423 0 24.3319 3.2648 16.6627 8.6856C12.8435 11.396 9.70191 14.63 7.51511 18.2952C6.09831 20.6668 5.08191 23.2232 4.52751 25.9028C2.83351 33.1408 2.03271 39.6704 2.03271 45.6148C2.03271 52.4832 3.11071 58.52 5.08191 63.6944C6.56031 67.5752 8.56231 71.0248 10.9647 73.9816C14.5991 78.4168 19.1575 81.774 24.3011 84.1456C29.0135 86.3016 34.2495 87.626 39.7627 88.1804C40.3171 92.2152 41.1179 95.7264 42.0419 98.7448C43.8283 104.412 46.1999 108.416 48.9411 111.065C50.2963 112.389 51.7747 113.375 53.2531 114.022C54.3619 114.514 55.4707 114.792 56.5487 114.946C57.4419 116.609 58.7355 117.933 60.2447 118.857C62.0619 119.997 64.1563 120.551 66.2507 120.551C67.1747 120.551 68.1295 120.428 69.0535 120.182C69.5771 122.399 70.3471 124.555 71.3327 126.588C73.3347 130.715 76.1067 134.411 79.1867 137.152C80.7267 138.508 82.3591 139.647 84.0223 140.448C84.8539 140.848 85.6855 141.156 86.5171 141.372C86.3015 142.204 86.2091 143.035 86.2091 143.836C86.2091 145.622 86.6711 147.378 87.5643 148.918C88.4575 150.458 89.7511 151.782 91.4143 152.706C92.9543 153.569 94.6483 153.969 96.3115 153.969C98.0979 153.969 99.8535 153.507 101.394 152.614C102.934 151.721 104.258 150.427 105.182 148.764C106.044 147.224 106.445 145.53 106.445 143.867C106.445 142.82 106.291 141.772 105.952 140.756C105.644 139.77 104.597 139.216 103.611 139.555C102.626 139.863 102.071 140.91 102.41 141.896C102.626 142.512 102.718 143.189 102.718 143.867C102.718 144.914 102.472 145.961 101.917 146.947C101.332 147.994 100.5 148.826 99.5455 149.38C98.5907 149.934 97.4511 150.242 96.3423 150.242C95.2951 150.242 94.2479 149.996 93.2623 149.442C92.2151 148.856 91.3835 148.025 90.8291 147.07C90.2747 146.115 89.9667 144.976 89.9667 143.867C89.9667 142.82 90.2131 141.772 90.7675 140.787C91.0755 140.202 91.0755 139.493 90.7367 138.939C90.3979 138.354 89.7819 138.015 89.1351 138.015C88.4575 138.015 87.7183 137.892 86.9175 137.614C85.5007 137.152 83.9299 136.228 82.3591 134.935C80.0183 133.025 77.7391 130.315 75.9219 127.235C74.3511 124.524 73.1191 121.537 72.5339 118.611C74.2279 117.41 75.6755 115.654 76.5071 113.406C76.9691 112.174 77.1847 110.942 77.1847 109.74C77.1847 108.478 76.9383 107.276 76.5071 106.168C75.8603 104.504 74.8439 103.088 73.5503 101.948C72.2875 100.808 70.7783 100.008 69.1459 99.5764C68.1295 99.33 67.1131 99.9152 66.8667 100.932C66.6203 101.948 67.2055 102.964 68.2219 103.211C69.5463 103.55 70.9015 104.412 71.8563 105.552C72.3491 106.137 72.7187 106.784 72.9959 107.492C73.2731 108.2 73.4271 108.94 73.4271 109.74C73.4271 110.48 73.3307 111.26 72.9959 112.081C71.6983 115.264 68.9984 116.824 66.2199 116.824C64.8031 116.824 63.3863 116.424 62.1851 115.685C60.9839 114.946 60.0291 113.868 59.4747 112.451C59.1975 111.742 58.5199 111.28 57.7807 111.28C56.4563 111.25 55.0703 110.88 53.6535 110.048C52.5755 109.402 51.4975 108.508 50.4195 107.246C48.8179 105.336 47.2779 102.626 45.9843 98.9296C44.6907 95.2336 43.6435 90.5212 43.0275 84.6692C41.3335 68.4376 37.2063 58.3968 33.3871 52.3908C33.0175 51.8364 32.6787 51.282 32.3091 50.7892C33.2023 51.3128 34.1263 51.898 35.0811 52.6064C37.6375 54.4852 40.3171 57.0724 42.6579 60.6452C44.9987 64.218 47.0315 68.7456 48.2635 74.536C49.5571 80.6344 50.6967 85.47 51.9595 89.1968C52.6063 91.0448 53.2839 92.6156 54.0847 93.94C54.4851 94.5868 54.9163 95.2028 55.4091 95.7264C55.9019 96.25 56.4255 96.712 57.0107 97.0816C57.8731 97.636 59.0435 97.3588 59.5979 96.4964C60.1523 95.634 59.8751 94.4636 59.0127 93.9092C58.7355 93.7552 58.4583 93.5088 58.1811 93.2008C57.6883 92.6464 57.1339 91.8148 56.6411 90.7368C55.8711 89.0736 55.1011 86.8252 54.3311 83.9916C53.5611 81.158 52.7911 77.7392 51.9595 73.766C50.8507 68.5608 49.1259 64.2488 47.0931 60.676C49.3107 60.6452 51.4667 60.4912 53.5919 60.214C53.6535 60.3372 53.7151 60.4912 53.7767 60.6144C54.3927 62.0928 54.9471 63.5096 55.4707 64.834C55.8711 65.8196 56.2715 66.7436 56.7027 67.6368C57.3495 68.9304 58.1195 70.1624 59.1667 71.148C59.6903 71.6408 60.2755 72.072 60.9531 72.4416C61.5999 72.7804 62.3391 73.0576 63.1091 73.2424C63.7251 73.3656 64.3411 73.458 64.9571 73.458C66.9283 73.458 68.7763 72.7804 70.1623 71.5484C70.6243 71.148 71.0247 70.6552 71.3943 70.1316C72.2259 71.61 73.2115 73.5504 74.2587 75.9528C71.2403 78.4476 67.7907 80.4188 63.9715 81.8664C63.0167 82.236 62.5239 83.314 62.8935 84.2688C63.2631 85.2236 64.3411 85.7164 65.2959 85.3468C69.0843 83.93 72.5955 81.9896 75.7371 79.5564C77.6775 84.6384 79.6487 91.2296 81.0963 99.4224C82.0203 104.72 83.1907 109.186 84.5151 112.882C86.5171 118.457 88.8887 122.368 91.5683 124.956C92.9235 126.249 94.3403 127.204 95.7879 127.851C96.8967 128.344 98.0363 128.621 99.1759 128.713C100.1 130.284 101.363 131.547 102.841 132.44C104.628 133.518 106.66 134.042 108.693 134.042C110.018 134.042 111.342 133.826 112.605 133.333C115.87 137.645 119.473 140.756 123.138 142.82C127.142 145.068 131.239 146.054 134.996 146.054C139.616 146.054 143.774 144.575 146.854 142.142C148.394 140.91 149.657 139.432 150.52 137.768C151.413 136.105 151.906 134.257 151.906 132.317C151.906 130.715 151.659 129.268 151.166 127.974C150.52 125.972 149.318 124.463 147.84 123.477C146.392 122.492 144.698 121.999 143.004 121.999C141.187 121.999 139.37 122.584 137.861 123.724C137.122 124.309 136.444 125.017 135.89 125.849C135.335 126.68 134.935 127.666 134.688 128.744C134.442 129.76 135.089 130.746 136.074 130.992C137.091 131.239 138.076 130.592 138.323 129.606C138.477 128.929 138.723 128.344 139.031 127.882C139.493 127.173 140.078 126.65 140.756 126.28C141.434 125.91 142.204 125.726 142.974 125.726C143.62 125.726 144.236 125.849 144.852 126.095C145.746 126.465 146.546 127.112 147.162 128.097C147.778 129.083 148.179 130.407 148.21 132.255C148.21 133.549 147.871 134.781 147.255 135.951C146.331 137.707 144.729 139.278 142.604 140.417C140.479 141.557 137.892 142.234 135.027 142.234C131.916 142.234 128.467 141.434 124.986 139.462C121.906 137.738 118.796 135.12 115.87 131.331C117.286 130.13 118.426 128.467 119.104 126.465C119.504 125.325 119.689 124.186 119.689 123.077C119.689 121.783 119.442 120.551 118.98 119.412C118.303 117.718 117.225 116.27 115.9 115.161C114.576 114.052 113.005 113.221 111.342 112.851C110.326 112.636 109.34 113.252 109.124 114.268C108.909 115.284 109.525 116.27 110.541 116.486C111.896 116.794 113.313 117.625 114.299 118.796C114.792 119.381 115.223 120.058 115.5 120.767C115.777 121.475 115.931 122.245 115.931 123.046C115.931 123.724 115.808 124.463 115.562 125.202C115.254 126.064 114.822 126.804 114.391 127.42C113.344 128.898 111.28 130.161 108.724 130.161C107.338 130.161 105.952 129.791 104.782 129.083C103.611 128.374 102.634 127.368 102.071 126.003C101.692 125.083 100.926 124.894 100.254 124.894ZM86.1783 39.9476C86.2399 39.7936 86.3015 39.6704 86.3631 39.5164C86.5479 41.6416 86.6403 43.6436 86.6403 45.6148C86.6403 47.6168 86.5479 49.5264 86.3631 51.3436C84.8231 49.4956 83.2523 47.9556 81.7123 46.6928C83.5603 44.5984 85.0695 42.35 86.1783 39.9476ZM32.8943 59.0744C35.5123 64.68 38.0379 72.7804 39.3007 84.3304C35.0811 83.8376 31.1079 82.852 27.4735 81.3736C24.2395 80.08 21.3135 78.386 18.6647 76.2916C14.7223 73.15 11.5191 69.1152 9.30152 64.064C7.05311 58.982 5.79031 52.8836 5.79031 45.584C5.79031 43.6436 5.88271 41.6108 6.06751 39.4856C8.16191 44.2288 11.7347 48.3252 17.0015 52.1444C21.4367 55.3784 26.8883 57.6576 32.8943 59.0744ZM36.6827 34.5576C37.7299 34.5576 38.5615 33.726 38.5615 32.6788C38.5615 31.6316 37.7299 30.8 36.6827 30.8C35.1735 30.8 33.7875 31.416 32.8019 32.4016C31.8163 33.3872 31.2003 34.7732 31.2003 36.2824C31.2003 37.7916 31.8163 39.1776 32.8019 40.1632C33.7875 41.1488 35.1735 41.7648 36.6827 41.7648C38.2843 41.7648 39.7627 41.0564 40.7483 39.9476C41.4259 39.1776 41.3643 38.0072 40.6251 37.2988C39.8551 36.6212 38.6847 36.6828 37.9763 37.422C37.6683 37.7608 37.2063 37.9764 36.6827 38.0072C36.1899 38.0072 35.7895 37.8224 35.4507 37.5144C35.1427 37.2064 34.9579 36.7752 34.9579 36.2824C34.9579 35.7896 35.1427 35.3892 35.4507 35.0504C35.7895 34.7424 36.1899 34.5576 36.6827 34.5576ZM116.085 61.5076C117.687 61.5076 119.165 60.7992 120.151 59.6904C120.828 58.9204 120.767 57.75 120.028 57.0416C119.258 56.364 118.087 56.4256 117.379 57.1648C117.071 57.5036 116.609 57.7192 116.085 57.75C115.592 57.75 115.192 57.5652 114.853 57.2572C114.545 56.9492 114.36 56.518 114.36 56.0252C114.36 55.5324 114.545 55.132 114.853 54.7932C115.161 54.4852 115.592 54.3004 116.085 54.3004C117.132 54.3004 117.964 53.4688 117.964 52.4216C117.964 51.3744 117.132 50.5428 116.085 50.5428C114.576 50.5428 113.19 51.1588 112.204 52.1444C111.219 53.13 110.603 54.516 110.603 56.0252C110.603 57.5344 111.219 58.9204 112.204 59.906C113.19 60.8916 114.576 61.5076 116.085 61.5076ZM58.2427 34.496C59.5865 34.496 60.6759 33.4066 60.6759 32.0628C60.6759 30.719 59.5865 29.6296 58.2427 29.6296C56.8989 29.6296 55.8095 30.719 55.8095 32.0628C55.8095 33.4066 56.8989 34.496 58.2427 34.496ZM58.2427 19.5888C59.5865 19.5888 60.6759 18.4994 60.6759 17.1556C60.6759 15.8118 59.5865 14.7224 58.2427 14.7224C56.8989 14.7224 55.8095 15.8118 55.8095 17.1556C55.8095 18.4994 56.8989 19.5888 58.2427 19.5888ZM65.6963 27.0424C67.0401 27.0424 68.1295 25.953 68.1295 24.6092C68.1295 23.2654 67.0401 22.176 65.6963 22.176C64.3525 22.176 63.2631 23.2654 63.2631 24.6092C63.2631 25.953 64.3525 27.0424 65.6963 27.0424ZM50.8199 22.176C49.4761 22.176 48.3867 23.2654 48.3867 24.6092C48.3867 25.953 49.4761 27.0424 50.8199 27.0424C52.1637 27.0424 53.2531 25.953 53.2531 24.6092C53.2531 23.2654 52.1637 22.176 50.8199 22.176ZM104.628 46.2308C105.733 46.2308 106.63 45.3345 106.63 44.2288C106.63 43.1231 105.733 42.2268 104.628 42.2268C103.522 42.2268 102.626 43.1231 102.626 44.2288C102.626 45.3345 103.522 46.2308 104.628 46.2308ZM17.4327 117.04C16.0889 117.04 14.9995 118.129 14.9995 119.473C14.9995 120.817 16.0889 121.906 17.4327 121.906C18.7765 121.906 19.8659 120.817 19.8659 119.473C19.8659 118.129 18.7765 117.04 17.4327 117.04ZM17.4327 131.916C16.0889 131.916 14.9995 133.006 14.9995 134.35C14.9995 135.693 16.0889 136.783 17.4327 136.783C18.7765 136.783 19.8659 135.693 19.8659 134.35C19.8659 133.006 18.7765 131.916 17.4327 131.916ZM9.99451 124.478C8.65071 124.478 7.56131 125.568 7.56131 126.911C7.56131 128.255 8.65071 129.345 9.99451 129.345C11.3383 129.345 12.4277 128.255 12.4277 126.911C12.4277 125.568 11.3383 124.478 9.99451 124.478ZM24.8709 124.478C23.5271 124.478 22.4377 125.568 22.4377 126.911C22.4377 128.255 23.5271 129.345 24.8709 129.345C26.2147 129.345 27.3041 128.255 27.3041 126.911C27.3041 125.568 26.2147 124.478 24.8709 124.478ZM31.6315 96.5888C30.5258 96.5888 29.6295 97.4851 29.6295 98.5908C29.6295 99.6965 30.5258 100.593 31.6315 100.593C32.7372 100.593 33.6335 99.6965 33.6335 98.5908C33.6335 97.4851 32.7372 96.5888 31.6315 96.5888ZM132.163 92.7671C132.163 94.1109 133.252 95.2003 134.596 95.2003C135.94 95.2003 137.029 94.1109 137.029 92.7671C137.029 91.4233 135.94 90.3339 134.596 90.3339C133.252 90.3339 132.163 91.4233 132.163 92.7671ZM149.503 95.2003C150.847 95.2003 151.936 94.1109 151.936 92.7671C151.936 91.4233 150.847 90.3339 149.503 90.3339C148.159 90.3339 147.07 91.4233 147.07 92.7671C147.07 94.1109 148.159 95.2003 149.503 95.2003ZM142.05 97.7875C140.706 97.7875 139.616 98.8769 139.616 100.221C139.616 101.565 140.706 102.654 142.05 102.654C143.393 102.654 144.483 101.565 144.483 100.221C144.483 98.8769 143.393 97.7875 142.05 97.7875ZM139.616 85.3135C139.616 86.6573 140.706 87.7467 142.05 87.7467C143.393 87.7467 144.483 86.6573 144.483 85.3135C144.483 83.9697 143.393 82.8803 142.05 82.8803C140.706 82.8803 139.616 83.9697 139.616 85.3135ZM115.315 145.099C114.209 145.099 113.313 145.995 113.313 147.101C113.313 148.207 114.209 149.103 115.315 149.103C116.421 149.103 117.317 148.207 117.317 147.101C117.317 145.995 116.421 145.099 115.315 145.099Z" fill="black"/>
</svg>
