<svg width="192" height="192" viewBox="0 0 192 192" fill="none" xmlns="http://www.w3.org/2000/svg">
<path d="M104.939 62.9438C104.143 63.3528 105.456 64.8187 105.759 63.6782C105.807 63.3278 105.298 62.7595 104.939 62.9438Z" fill="black"/>
<path d="M109.562 61.6623C109.61 61.3119 109.101 60.7465 108.742 60.9289C107.947 61.3436 109.258 62.8028 109.562 61.6623Z" fill="black"/>
<path d="M63.9982 120.401C63.8742 120.43 63.7668 120.507 63.6996 120.615C63.6325 120.723 63.6111 120.854 63.6401 120.978C63.6691 121.102 63.7462 121.209 63.8544 121.276C63.9626 121.344 64.093 121.365 64.217 121.336C71.3733 119.673 78.7969 119.515 86.0175 120.872C93.238 122.228 100.098 125.069 106.163 129.216C106.266 129.216 106.366 129.183 106.448 129.122C106.531 129.062 106.592 128.976 106.622 128.878C106.653 128.78 106.651 128.675 106.618 128.579C106.584 128.482 106.52 128.398 106.436 128.34C100.302 124.141 93.3601 121.267 86.0534 119.9C78.7467 118.533 71.2353 118.704 63.9982 120.401Z" fill="black"/>
<path d="M109.33 125.318C98.3268 118.437 86.0292 113.811 72.9819 115.73C72.8592 115.751 72.7493 115.818 72.6753 115.918C72.6012 116.018 72.5688 116.143 72.5848 116.266C72.6009 116.389 72.6641 116.501 72.7613 116.579C72.8585 116.657 72.9819 116.693 73.1057 116.682C81.1496 115.627 89.3295 116.686 96.8398 119.754C100.982 121.59 104.987 123.722 108.823 126.133C108.931 126.2 109.061 126.222 109.185 126.193C109.309 126.164 109.417 126.088 109.484 125.979C109.551 125.871 109.573 125.741 109.544 125.617C109.515 125.493 109.438 125.385 109.33 125.318Z" fill="black"/>
<path d="M81.5729 112.23C81.4456 112.235 81.3253 112.29 81.2385 112.383C81.1518 112.476 81.1056 112.6 81.1102 112.728C81.1148 112.855 81.1697 112.975 81.263 113.062C81.3562 113.149 81.4802 113.195 81.6075 113.19C92.6758 112.798 103.508 116.454 112.074 123.474C112.542 123.873 113.176 123.122 112.684 122.732C103.919 115.594 92.8702 111.864 81.5729 112.23Z" fill="black"/>
<path d="M78.9331 108.735C78.8058 108.744 78.6874 108.804 78.6039 108.9C78.5205 108.997 78.4788 109.123 78.4881 109.25C78.4974 109.377 78.5569 109.496 78.6535 109.579C78.75 109.663 78.8758 109.704 79.0031 109.695C92.3752 108.705 105.614 112.91 115.963 121.436C116.427 121.836 117.067 121.085 116.572 120.695C106.025 112.026 92.5492 107.744 78.9331 108.735Z" fill="black"/>
<path d="M83.5995 106.581C90.0689 105.691 96.6559 106.284 102.863 108.314C109.069 110.345 114.733 113.759 119.427 118.3C119.859 118.736 120.555 118.04 120.094 117.61C115.289 112.977 109.498 109.493 103.154 107.418C96.8108 105.343 90.0796 104.732 83.4661 105.63C83.3424 105.651 83.2317 105.719 83.1575 105.82C83.0832 105.921 83.0515 106.047 83.0689 106.171C83.0863 106.295 83.1516 106.407 83.2507 106.484C83.3498 106.56 83.475 106.595 83.5995 106.581Z" fill="black"/>
<path d="M34.4024 108.782C31.796 109.412 31.5972 113.064 34.5416 113.102C38.515 113.124 38.6024 107.766 34.4024 108.782ZM36.4184 111.272C36.136 111.613 35.7644 111.868 35.3452 112.009C34.926 112.149 34.4759 112.171 34.0452 112.07C32.7358 111.59 33.3444 110.038 34.6961 109.696C35.7464 109.191 37.146 110.214 36.4174 111.272H36.4184Z" fill="black"/>
<path d="M146.956 121.068C146.42 121.068 146.176 121.068 144.781 129.912C144.109 134.151 143.481 138.629 143.371 139.453C143.43 140.442 145.35 139.977 146.035 140.125C161.989 139.929 162.375 122.256 146.956 121.068ZM155.341 135.6C152.573 138.66 147.957 139.407 144.39 139.09C144.954 134.962 146.618 123.788 147.221 122.039C154.707 122.412 160.717 129.656 155.341 135.6Z" fill="black"/>
<path d="M186.992 53.1318C185.212 51.7945 183.104 52.9302 181.507 51.5103C181.347 51.3554 181.157 51.2357 180.948 51.1591C180.74 51.0824 180.517 51.0504 180.295 51.0653C180.073 51.0801 179.857 51.1414 179.66 51.2452C179.463 51.349 179.291 51.493 179.153 51.6678C178.604 52.3449 178.286 53.1798 178.245 54.0505C172.59 59.8767 165.89 64.3782 155.397 66.9193C157.592 64.6674 159.385 62.0563 160.699 59.199C163.867 51.4719 151.029 45.567 145.435 44.1634C145.187 43.1161 145.946 41.4438 146.254 40.3705C146.604 38.9564 145.582 38.2585 144.833 38.6425C142.989 39.2511 142.104 41.2844 141.033 42.685C138.942 45.469 140.52 46.309 142.976 47.5657C142.903 47.6607 142.871 47.7808 142.886 47.8998C142.9 48.0188 142.962 48.1272 143.056 48.2012C144.325 49.4626 150.544 54.4066 148.117 56.2882C146.804 57.303 142.869 60.3433 140.584 62.2873C136.127 62.0722 134.182 62.0617 131.303 62.558C131.268 62.5642 131.237 62.5818 131.213 62.608C131.189 62.6341 131.175 62.6674 131.173 62.7025C131.17 62.7377 131.179 62.7726 131.199 62.8019C131.219 62.8312 131.247 62.8531 131.281 62.8642C139.772 66.9596 141.298 77.9295 138.554 85.7602C140.438 85.6297 143.743 85.8409 145.307 85.1122C151.221 84.5257 159.581 82.9042 163.983 80.4015C168.489 77.9476 172.394 74.524 175.417 70.3778C178.439 66.2317 180.504 61.4663 181.461 56.4255C183.179 55.7854 184.941 55.272 186.733 54.8895C187.565 54.759 188.173 53.5494 186.992 53.1318ZM149.209 46.453C154.381 48.4777 162.147 53.4495 159.824 58.8006C158.333 62.0513 156.199 64.9668 153.551 67.3714C152.611 67.5999 151.373 67.8438 150.413 68.0569C153.213 65.2678 155.76 62.2358 158.024 58.9964C158.658 58.1811 159.06 57.2091 159.187 56.1836C158.696 52.8284 155.539 51.8713 152.931 50.0876C151.582 49.3363 150.282 48.4991 149.041 47.581C149.153 47.2155 149.209 46.8353 149.209 46.453ZM143.941 47.006L141.88 45.877C141.36 45.5967 140.824 45.1542 141.088 44.5119C141.708 43.377 142.414 42.2915 143.2 41.2652C143.66 40.4491 144.401 39.8283 145.285 39.519C145.354 39.5535 145.402 39.83 145.343 40.0825C144.861 41.361 144.528 42.6907 144.349 44.0454C144.293 44.3239 144.308 44.6121 144.392 44.8835C144.475 45.155 144.626 45.4012 144.829 45.5996C144.71 46.1593 144.395 46.658 143.941 47.006ZM145.228 48.8578C144.894 48.5516 144.577 48.2348 144.255 47.9593C144.718 47.6766 145.104 47.2849 145.38 46.8185C145.656 46.3521 145.814 45.8252 145.839 45.2838C146.596 45.5132 147.392 45.7791 148.19 46.069C148.589 47.8354 146.897 49.7065 145.228 48.8578ZM139.44 63.1676C139.962 63.1206 140.581 63.421 141.052 63.1542C143.29 61.2342 147.367 58.0854 148.679 57.0706C151.337 54.9318 148.061 51.7974 146.325 49.9897C146.812 49.9694 147.284 49.8201 147.694 49.5571C148.104 49.2941 148.436 48.9269 148.658 48.493C151.279 50.8182 157.426 52.597 158.23 56.1327C158.112 56.9747 157.772 57.77 157.245 58.4367C154.904 61.7908 152.257 64.9201 149.337 67.7842C148.863 67.2082 147.713 65.8191 147.096 66.6802C147.071 66.7383 147.058 66.8007 147.057 66.8638C147.056 66.9269 147.068 66.9896 147.092 67.0482C147.115 67.1068 147.15 67.1601 147.194 67.2052C147.238 67.2503 147.291 67.2863 147.349 67.311C147.929 67.5853 148.411 68.0309 148.73 68.5878C149.053 69.7906 151.147 68.7692 152.006 68.6991C162.152 66.6754 171.294 62.4889 176.74 56.7951C177.369 56.9406 177.939 57.2757 178.372 57.7551C172.908 71.4111 161.492 79.3657 147.007 79.6729C147.498 73.3522 145.509 66.2473 139.44 63.1676ZM174.158 70.5596C167.8 79.5634 157.76 82.839 146.431 84.0236C146.733 82.9187 146.902 81.7817 146.936 80.6367C161.709 80.3564 173.377 72.3346 179.069 58.5452C180.78 60.7071 175.776 68.271 174.158 70.5596ZM180.192 57.8156C180.15 57.9865 180.096 58.1545 180.051 58.3244C179.479 57.2862 178.573 56.4724 177.48 56.0156C177.926 55.5721 178.545 54.614 179.189 54.8578C179.474 54.956 179.733 55.1182 179.945 55.3319C180.158 55.5456 180.319 55.8051 180.416 56.0907C180.513 56.3762 180.543 56.6801 180.504 56.9791C180.465 57.2781 180.358 57.5642 180.192 57.8156ZM181.242 55.4473C180.806 54.8023 180.205 54.2856 179.502 53.9506C178.845 53.965 179.681 52.4857 179.891 52.2735C180.53 51.1542 182.359 54.2406 185.651 54.1734C184.159 54.517 182.687 54.9422 181.242 55.4473Z" fill="black"/>
<path d="M107.912 60.3538C108.364 60.2281 108.879 59.9074 109.287 60.1253C109.406 60.1726 109.538 60.1709 109.655 60.1207C109.772 60.0704 109.864 59.9758 109.911 59.8575C109.958 59.7392 109.957 59.6071 109.907 59.49C109.856 59.373 109.762 59.2807 109.643 59.2335C109.075 58.957 107.163 59.0905 107.5 60.1215C107.542 60.1925 107.603 60.2512 107.675 60.2919C107.747 60.3326 107.829 60.3539 107.912 60.3538Z" fill="black"/>
<path d="M104.395 62.9045C104.497 62.55 104.707 62.236 104.995 62.0059C105.097 61.9296 105.164 61.8158 105.182 61.6898C105.2 61.5638 105.167 61.4358 105.091 61.3339C105.015 61.2321 104.901 61.1648 104.775 61.1468C104.649 61.1288 104.521 61.1616 104.419 61.2379C103.956 61.6011 103.621 62.1036 103.465 62.6712C103.44 62.7923 103.463 62.9183 103.529 63.0229C103.595 63.1275 103.698 63.2026 103.818 63.2327C103.938 63.2627 104.065 63.2454 104.172 63.1843C104.28 63.1231 104.36 63.0229 104.395 62.9045Z" fill="black"/>
<path d="M109.223 65.3622C108.776 65.7961 109.468 66.4873 109.902 66.0409C110.094 65.8489 110.257 65.6646 110.422 65.4755C110.179 65.8969 109.909 66.4623 110.631 66.5699C111.574 66.3001 111.591 64.8966 111.007 64.2371C110.263 63.6006 109.754 64.9964 109.223 65.3622Z" fill="black"/>
<path d="M107.282 65.1117C107.848 65.3786 109.061 64.4589 108.368 63.8762C108.059 63.6333 107.696 63.9722 107.557 64.1891C107.289 63.8887 107.912 61.8093 107.021 61.8448C106.893 61.8448 106.771 61.8954 106.681 61.9854C106.591 62.0754 106.541 62.1975 106.541 62.3248C106.603 63.0986 106.233 64.8688 107.282 65.1117Z" fill="black"/>
<path d="M167.075 123.055C163.929 116.687 156.035 112.914 146.788 111.388C150.62 107.936 152.147 106.508 152.241 106.32C152.634 104.764 152.363 99.3818 153.124 97.9494C153.163 97.8473 153.168 97.7355 153.14 97.6299C153.112 97.5244 153.05 97.4306 152.965 97.3619C147.678 93.7557 141.895 90.9362 135.798 88.9917C141.15 80.5552 138.879 65.4122 127.786 62.5581C129.877 59.5735 127.696 55.0134 124.034 55.3139C121.615 55.3502 119.203 55.5868 116.823 56.0214C117.429 55.5107 117.111 54.3894 116.677 53.9786C118.624 52.8832 116.155 49.4339 114.277 49.6067C114.373 48.1283 113.342 45.4269 111.609 46.6039C111.102 45.8564 110.46 45.2102 109.715 44.6982C108.746 44.1222 107.501 43.9888 106.965 45.0333C106.164 44.5199 105.263 44.1837 104.322 44.0474C103.101 44.0301 102.018 44.8154 102.166 45.9107C100.868 45.6227 99.4395 45.76 98.733 47.0627C98.3922 47.8451 99.164 48.2896 97.9496 48.232C96.2475 48.3866 95.1656 50.7059 96.8936 51.7946C95.0072 52.2256 93.5336 55.6422 96.1026 56.1808C95.1944 57.4288 94.5723 59.2893 95.6082 60.5459C82.269 62.7789 71.637 64.6384 61.5838 66.6275C56.731 68.8144 53.0994 71.6944 48.4482 74.1155C48.3391 74.1721 48.256 74.2684 48.2158 74.3845C48.1756 74.5006 48.1815 74.6276 48.2322 74.7395C48.9406 76.2986 61.8757 77.4275 64.461 77.6416C76.3483 75.9193 88.1343 73.5585 99.7678 70.5693C95.6994 73.8237 89.8866 76.865 89.3816 82.6701C76.6558 81.2234 64.7854 83.0666 54.7342 89.4717C37.7278 99.5661 20.0984 109.686 4.34863 122.185C4.79311 125.112 5.78863 128.065 5.93743 130.818C5.94687 130.924 5.99164 131.025 6.06464 131.103C6.13763 131.181 6.23467 131.233 6.34035 131.25C6.44602 131.266 6.55426 131.247 6.64789 131.196C6.74151 131.144 6.81515 131.062 6.85711 130.964C18.2331 127.637 31.0923 127.553 42.8706 130.162C52.4542 131.844 49.292 136.344 52.1979 136.978C52.3717 137.021 55.6088 137.423 55.6539 137.37C56.2616 137.318 56.5352 136.626 56.5179 136.151C56.8635 131.735 59.469 131.63 63.6814 131.831C83.3221 133.106 90.3934 136.333 106.675 146.711C106.736 146.751 106.806 146.775 106.878 146.783C106.95 146.791 107.024 146.782 107.092 146.756C107.16 146.73 107.221 146.689 107.27 146.635C107.32 146.581 107.355 146.517 107.375 146.447C117.055 137.807 131.293 125.252 137.63 119.567C135.193 129.562 132.966 139.674 130.451 152.139C130.438 152.203 130.439 152.27 130.453 152.334C130.467 152.398 130.494 152.459 130.532 152.513C130.57 152.566 130.619 152.611 130.676 152.645C130.732 152.679 130.795 152.7 130.86 152.709C140.834 153.984 153.73 154.298 161.617 147.95C169.134 142.305 171.744 131.259 167.075 123.055ZM124.056 56.2739C127.456 56.249 128.608 60.0055 126.76 62.3018C125.448 61.9932 124.106 61.8322 122.758 61.8218C122.979 60.8473 122.929 59.831 122.614 58.8827C122.3 57.9344 121.732 57.0901 120.972 56.441C121.986 56.345 123.016 56.2826 124.056 56.2739ZM121.3 75.3942C121.031 74.1674 122.115 73.984 122.383 75.2195C122.893 78.981 122.479 82.8101 121.177 86.3757C116.354 85.7384 111.449 86.2989 106.894 88.0077C105.385 87.174 103.814 86.4564 102.196 85.8611C104.639 84.1005 107.748 81.6285 110.144 80.0147C112.607 82.9783 116.023 84.994 119.808 85.7171C119.916 85.7134 120.021 85.6746 120.105 85.6066C120.189 85.5386 120.25 85.445 120.276 85.3399C121.376 82.1471 121.726 78.7441 121.3 75.3942ZM116.393 61.4666C116.769 60.7937 116.957 60.0321 116.937 59.2616C116.916 58.4912 116.689 57.7404 116.279 57.088C117.297 56.9277 118.418 56.6915 119.543 56.608C120.461 57.099 121.181 57.8911 121.583 58.851C121.985 59.8109 122.045 60.88 121.751 61.8784C120.091 62.0157 116.82 62.3421 115.703 62.4544C115.28 62.1482 116.305 61.9293 116.393 61.4666ZM103.872 59.728C105.29 60.327 106.621 59.0733 107.169 57.76C107.668 57.9622 108.221 57.9908 108.738 57.8413C109.255 57.6917 109.707 57.3727 110.021 56.9354C110.196 57.0916 110.411 57.1946 110.643 57.2322C110.874 57.2698 111.112 57.2404 111.327 57.1475C111.606 57.6122 112.248 58.4589 112.741 59.0963C112.709 59.4888 112.781 59.8829 112.95 60.2387C113.059 60.4559 113.235 60.6322 113.452 60.7419C113.669 60.8515 113.915 60.8887 114.155 60.8478C114.395 60.807 114.615 60.6903 114.783 60.515C114.952 60.3397 115.059 60.115 115.09 59.8739C115.083 59.7443 115.455 59.7511 115.58 59.4832C115.79 59.2158 115.893 58.8796 115.868 58.5405C116.088 59.4602 116.008 61.1709 114.903 61.4339C114.529 61.455 114.175 61.9139 114.397 62.2624C115.228 63.6743 116.261 64.9573 117.463 66.0707C117.793 68.8374 113.527 72.3837 111.776 68.9853C112.419 68.4045 112.649 69.1562 113.155 69.5872C113.443 69.8752 113.932 69.3952 113.641 69.1015C113.268 68.7929 112.941 68.4332 112.669 68.033C112.573 67.841 112.381 67.841 112.184 67.937C111.126 68.7273 109.803 69.0757 108.493 68.9085C107.752 68.7252 107.055 68.3932 106.446 67.9326C105.836 67.4721 105.327 66.8925 104.948 66.2291C104.871 65.7654 104.742 64.9917 104.119 64.6931C103.388 64.168 103.189 62.9575 102.818 62.1271C103.33 61.4082 103.689 60.5915 103.872 59.728ZM108.884 69.5997C106.54 71.0243 103.028 68.9651 102.863 66.3213C102.878 66.1102 102.974 65.913 103.13 65.7702C103.286 65.6274 103.491 65.5498 103.703 65.5533C103.933 65.7088 103.976 66.3098 104.039 66.5834C104.203 67.239 104.992 68.2864 105.591 68.0406C106.459 68.9489 107.632 69.5043 108.884 69.5997ZM53.324 75.3597C52.0655 75.1897 50.821 74.9289 49.6002 74.5792C50.8952 74.1683 52.1835 72.2752 53.4891 73.2784C53.731 73.6374 53.1454 73.8054 53.1435 74.1376C53.0619 74.6906 53.7627 74.5811 53.9634 74.9363C53.8985 75.0537 53.8067 75.1539 53.6956 75.2289C53.5844 75.3038 53.4571 75.3513 53.324 75.3674V75.3597ZM64.364 76.6614C61.0942 76.3907 57.5547 75.9894 54.7006 75.5747C54.7906 75.4515 54.8537 75.3107 54.8859 75.1615C54.9181 75.0123 54.9185 74.858 54.8873 74.7086C54.8561 74.5592 54.7939 74.4181 54.7047 74.2942C54.6155 74.1704 54.5013 74.0667 54.3694 73.9898C54.4512 73.8258 54.4963 73.646 54.5015 73.4628C54.5067 73.2797 54.4719 73.0976 54.3995 72.9292C54.3271 72.7609 54.2189 72.6104 54.0824 72.4881C53.9459 72.3659 53.7844 72.2749 53.6091 72.2215C56.2575 70.4868 59.0152 68.9251 61.8651 67.5462C62.9164 67.5912 63.9262 67.969 64.7489 68.625C65.5717 69.281 66.1647 70.1814 66.4426 71.1963C66.7205 72.2112 66.6688 73.2881 66.2951 74.2718C65.9213 75.2554 65.2448 76.0949 64.363 76.6691L64.364 76.6614ZM66.092 76.4291C66.7078 75.7345 67.1515 74.9047 67.3875 74.0069C67.6235 73.1091 67.645 72.1684 67.4504 71.2607C67.2557 70.3531 66.8504 69.5039 66.2671 68.7818C65.6837 68.0596 64.9388 67.4848 64.0923 67.1037C73.9899 65.2077 84.6315 63.328 97.9381 61.1267C97.9717 62.056 98.7512 63.2311 99.7736 62.7309C100.062 62.5389 100.067 62.2768 100.336 62.6896C100.45 62.831 100.592 62.9469 100.753 63.0298C100.915 63.1127 101.092 63.1607 101.273 63.1706C101.454 63.1806 101.635 63.1523 101.804 63.0876C101.974 63.0229 102.128 62.9233 102.256 62.7952C102.502 63.4439 102.792 64.0748 103.125 64.6835C101.551 65.1952 101.719 67.12 102.503 68.2922C102.132 68.5398 101.784 68.8193 101.461 69.1274C89.812 72.1973 78.0058 74.6373 66.0939 76.4368L66.092 76.4291ZM52.149 135.776C52.0888 135.795 52.0256 135.802 51.9628 135.797C51.9 135.791 51.8389 135.773 51.783 135.744C51.7271 135.715 51.6775 135.675 51.637 135.627C51.5965 135.578 51.5659 135.523 51.547 135.462C50.8654 133.287 49.5234 131.379 47.7074 130.001C45.8914 128.624 43.6915 127.846 41.4133 127.776C41.286 127.776 41.1639 127.725 41.0739 127.635C40.9838 127.545 40.9333 127.423 40.9333 127.296C40.9333 127.168 40.9838 127.046 41.0739 126.956C41.1639 126.866 41.286 126.816 41.4133 126.816C43.897 126.882 46.2978 127.723 48.2787 129.223C50.2595 130.723 51.7211 132.805 52.4581 135.178C52.4953 135.299 52.4838 135.429 52.426 135.541C52.3681 135.652 52.2686 135.737 52.149 135.776ZM52.4053 131.552C45.8341 121.28 18.6267 119.826 7.31407 121.06C21.6267 110.137 37.3621 100.85 52.5954 91.8525C63.3262 84.5997 75.6354 81.9184 89.3682 83.6358C89.5909 86.489 91.8114 86.7626 94.4139 86.8586C98.3979 86.8586 103.087 82.409 104.835 78.3299C106.072 75.9908 107.072 73.5342 107.821 70.9965C108.309 70.9281 108.78 70.771 109.211 70.5328C106.756 75.639 105.839 82.073 101.03 85.5136C100.587 85.8352 100.963 86.3555 101.327 86.5466C102.996 87.1965 104.423 87.7946 105.83 88.5078C103.961 89.3094 102.023 90.8118 100.206 91.4253C90.1131 85.1642 76.1374 85.217 64.4245 87.2973C53.7176 92.3786 44.6667 99.3818 34.3198 105.12C27.7314 108.94 20.9192 112.889 14.4085 117.165C14.3205 117.223 14.254 117.308 14.2193 117.407C14.1845 117.507 14.1835 117.615 14.2162 117.715C14.2489 117.815 14.3137 117.902 14.4005 117.961C14.4873 118.021 14.5913 118.05 14.6965 118.045C23.8621 117.438 33.0603 118.552 41.8165 121.327C45.6814 122.529 50.419 124.428 52.7979 128.473C52.4871 129.468 52.3542 130.509 52.4053 131.55V131.552ZM58.7288 103.899C49.1941 106.233 50.5602 102.874 52.5282 95.1357C58.1202 92.056 62.5755 87.6198 69.4856 87.4557C79.917 86.6877 90.7429 86.7203 99.3646 92.0474C95.2837 94.3619 91.2046 96.8109 87.163 99.3914C86.4344 99.7072 85.7518 100.626 84.9733 100.485C76.1308 100.713 67.3357 101.856 58.7288 103.897V103.899ZM83.8808 101.49C80.8194 103.485 77.6658 105.643 74.2741 108.064C73.1883 107.921 70.9198 108.756 70.2152 107.944C69.2802 106.623 69.5432 104.447 69.4194 102.869C74.2113 102.153 79.038 101.692 83.8789 101.488L83.8808 101.49ZM42.1112 120.413C33.8139 117.796 25.1251 116.64 16.4322 116.997C27.9819 109.647 39.9339 103.173 51.3762 95.849C48.8226 104.469 49.9362 107.188 58.9717 104.828C62.1314 104.11 65.3029 103.502 68.4862 103.004C68.4539 104.196 68.5213 105.389 68.6878 106.57C68.9538 109.018 70.6539 109.586 72.7794 109.131C67.5943 112.942 62.6463 117.067 57.9627 121.48C55.9977 123.094 54.3868 125.096 53.2309 127.361C50.541 123.413 45.6363 121.521 42.1093 120.412L42.1112 120.413ZM76.9256 131.64C76.8892 131.762 76.8058 131.864 76.6938 131.925C76.5818 131.985 76.4504 131.999 76.3285 131.962C76.4494 131.813 53.2635 126.071 55.317 135.802C55.3306 135.864 55.3319 135.927 55.3209 135.99C55.3099 136.052 55.2868 136.111 55.2529 136.164C55.219 136.217 55.1749 136.263 55.1232 136.3C55.0716 136.336 55.0133 136.361 54.9517 136.375C54.8901 136.388 54.8264 136.39 54.7643 136.379C54.7022 136.368 54.6429 136.345 54.5897 136.311C54.5365 136.277 54.4906 136.233 54.4544 136.181C54.4183 136.129 54.3927 136.071 54.379 136.01C53.3701 131.934 57.355 129.024 62.4296 129.182C67.2162 129.155 71.9842 129.78 76.6021 131.04C76.6625 131.058 76.7187 131.088 76.7676 131.128C76.8164 131.167 76.8569 131.217 76.8868 131.272C76.9167 131.328 76.9353 131.389 76.9416 131.451C76.948 131.514 76.9419 131.577 76.9237 131.638L76.9256 131.64ZM91.0318 130.814C90.9913 130.935 90.9046 131.034 90.7906 131.091C90.6767 131.148 90.5448 131.157 90.4242 131.116C90.3282 131.083 80.5275 127.808 73.317 126.803C65.6542 125.736 57.8034 127.379 55.4437 130.541C55.0914 131.047 54.2859 130.462 54.6757 129.965C57.6286 126.004 66.548 124.888 73.4514 125.85C80.7474 126.868 90.6354 130.17 90.7314 130.204C90.8516 130.245 90.9505 130.332 91.0065 130.446C91.0624 130.56 91.0709 130.692 91.0299 130.812L91.0318 130.814ZM105.72 133.557C102.544 130.908 98.8927 128.888 94.9611 127.605C87.8695 125.064 80.3822 123.805 72.8494 123.887C67.5157 124.164 55.9448 124.655 53.3461 130.729C53.5141 127.291 55.915 124.602 58.6174 122.185C71.3269 110.002 90.6978 97.6086 105.903 89.535C109.593 87.567 114.625 86.8019 120.847 87.257C120.488 87.7859 120.166 89.5437 119.537 89.3162C116.12 88.8567 112.662 88.7903 109.23 89.1184C109.167 89.1238 109.105 89.1416 109.049 89.1707C108.993 89.1999 108.943 89.2398 108.902 89.2882C108.862 89.3366 108.831 89.3925 108.812 89.4529C108.793 89.5132 108.785 89.5767 108.791 89.6397C108.802 89.767 108.863 89.8847 108.961 89.967C109.009 90.0077 109.065 90.0386 109.125 90.0577C109.186 90.0768 109.249 90.0838 109.312 90.0784C112.64 89.7608 115.994 89.8214 119.309 90.2589C118.717 91.2217 118.052 92.1368 117.318 92.9958C117.247 92.9029 117.144 92.8396 117.03 92.8182C113.519 92.2295 109.944 92.1297 106.406 92.5216C106.343 92.5285 106.282 92.5477 106.227 92.5782C106.171 92.6086 106.122 92.6498 106.082 92.6992C106.042 92.7486 106.013 92.8054 105.995 92.8663C105.977 92.9271 105.972 92.9909 105.979 93.0539C105.985 93.117 106.005 93.178 106.035 93.2336C106.066 93.2892 106.107 93.3383 106.156 93.378C106.206 93.4177 106.262 93.4473 106.323 93.4651C106.384 93.4829 106.448 93.4885 106.511 93.4816C109.917 93.1049 113.36 93.1956 116.742 93.7514C115.979 94.5472 115.03 96.0698 113.958 96.231C113.677 96.0794 102.992 93.7782 105.839 95.9104C108.302 96.0767 110.748 96.4502 113.148 97.0269C112.044 97.9754 110.245 97.7114 109.156 98.5965C108.603 98.8221 108.246 99.4701 108.553 99.8723C107.497 99.7034 99.8091 98.2403 99.7602 99.5114C99.7602 99.6387 99.8107 99.7608 99.9007 99.8508C99.9908 99.9408 100.113 99.9914 100.24 99.9914C101.475 100.129 109.477 99.9846 107.806 101.478C107.39 102.071 107.249 103.404 108.205 103.488C108.441 103.397 108.225 104.138 108.465 104.387C102.154 101.964 95.369 101.029 88.6376 101.656C88.5103 101.668 88.393 101.73 88.3114 101.828C88.2299 101.927 88.1908 102.054 88.2027 102.181C88.2147 102.308 88.2767 102.426 88.3752 102.507C88.4737 102.589 88.6005 102.628 88.7278 102.616C102.087 101.238 115.085 106.672 124.327 116.022C124.42 116.023 124.512 115.995 124.591 115.944C124.669 115.893 124.731 115.819 124.768 115.733C124.805 115.647 124.817 115.552 124.8 115.459C124.784 115.367 124.741 115.281 124.677 115.213C120.408 110.697 115.221 107.147 109.467 104.801C109.713 104.682 109.919 104.492 110.056 104.255C110.063 104.417 110.117 104.573 110.211 104.705C110.304 104.837 110.434 104.939 110.585 104.999C110.736 105.059 110.9 105.074 111.059 105.043C111.218 105.011 111.365 104.934 111.481 104.821C112.248 103.947 113.115 103.166 114.065 102.494C118.917 104.4 123.294 107.341 126.893 111.113C126.935 111.161 126.987 111.2 127.046 111.228C127.104 111.255 127.167 111.271 127.231 111.273C127.295 111.276 127.359 111.266 127.42 111.243C127.48 111.221 127.535 111.186 127.582 111.142C127.628 111.098 127.666 111.045 127.691 110.986C127.717 110.927 127.731 110.863 127.731 110.799C127.732 110.734 127.72 110.671 127.695 110.611C127.671 110.552 127.634 110.498 127.589 110.452C124.206 106.912 120.151 104.083 115.66 102.132C117.978 101.947 120.248 101.363 122.367 100.404C126.085 102.278 129.513 104.68 132.543 107.535C132.589 107.58 132.643 107.616 132.702 107.641C132.762 107.665 132.825 107.677 132.89 107.676C132.954 107.675 133.017 107.661 133.076 107.635C133.135 107.609 133.188 107.572 133.232 107.525C133.276 107.479 133.31 107.423 133.333 107.363C133.355 107.303 133.365 107.239 133.362 107.175C133.36 107.111 133.344 107.048 133.316 106.99C133.289 106.932 133.25 106.88 133.202 106.837C130.292 104.098 127.024 101.766 123.488 99.905C125.076 99.176 126.6 98.3144 128.044 97.3293C131.645 99.0962 134.962 101.391 137.886 104.137C138.329 104.571 139.006 103.858 138.543 103.438C135.676 100.748 132.439 98.4814 128.932 96.7062C130.076 95.8566 131.148 94.9142 132.138 93.8886C135.478 95.3779 138.627 97.2641 141.516 99.5066C141.567 99.5448 141.624 99.5728 141.685 99.5888C141.747 99.6049 141.81 99.6087 141.873 99.6001C141.936 99.5915 141.996 99.5706 142.051 99.5387C142.106 99.5068 142.153 99.4644 142.192 99.4139C142.23 99.3635 142.258 99.306 142.274 99.2448C142.29 99.1836 142.294 99.1198 142.285 99.0571C142.277 98.9943 142.256 98.9339 142.224 98.8793C142.192 98.8246 142.149 98.7768 142.099 98.7386C139.24 96.5214 136.133 94.6429 132.841 93.1408C133.757 92.1167 134.585 91.0164 135.315 89.8518C141.091 91.671 146.585 94.2904 151.635 97.6336C148.913 99.1418 136.755 108.962 131.986 112.438C130.04 113.864 105.82 133.449 105.72 133.555V133.557ZM111.939 101.103C111.026 100.513 109.605 102.94 109.305 103.577C109.576 102.508 110.179 101.553 111.028 100.85C111.121 100.771 111.18 100.66 111.196 100.54C111.211 100.419 111.18 100.297 111.11 100.198C111.039 100.098 110.934 100.029 110.815 100.004C110.696 99.9785 110.572 99.9987 110.467 100.06C110.729 99.9027 111.004 99.7684 111.29 99.6592C111.386 99.6218 111.468 99.5542 111.523 99.4664C111.578 99.3785 111.604 99.2753 111.595 99.172C111.587 99.0687 111.545 98.9709 111.476 98.8933C111.407 98.8157 111.315 98.7624 111.214 98.7414C112.905 97.9629 114.286 99.6054 114.549 101.1C113.185 101.775 111.989 102.746 111.047 103.941C111.178 103.14 111.5 102.383 111.986 101.733C112.056 101.639 112.089 101.524 112.08 101.408C112.071 101.291 112.019 101.182 111.936 101.101L111.939 101.103ZM107.343 145.208L106.998 140.295C109.659 137.893 112.52 135.722 115.55 133.805C115.658 133.737 115.734 133.629 115.761 133.505C115.789 133.38 115.766 133.25 115.698 133.143C115.629 133.035 115.521 132.959 115.397 132.932C115.272 132.904 115.142 132.927 115.035 132.995C112.172 134.811 109.457 136.848 106.913 139.088L106.787 137.298L130.262 118.135C130.311 118.095 130.352 118.046 130.381 117.991C130.411 117.935 130.43 117.874 130.436 117.812C130.443 117.749 130.437 117.685 130.418 117.625C130.4 117.565 130.37 117.508 130.33 117.46C130.291 117.411 130.241 117.37 130.186 117.34C130.13 117.31 130.069 117.292 130.007 117.285C129.944 117.279 129.88 117.285 129.82 117.303C129.76 117.322 129.703 117.351 129.655 117.391L106.705 136.128L106.574 134.27C118.913 124.726 119.463 122.833 141.027 106.783C143.566 104.809 149.219 100.203 151.952 98.5274C151.669 100.162 151.522 101.817 151.514 103.475L139.271 113.404C139.194 113.467 139.138 113.552 139.111 113.647C139.085 113.743 139.088 113.844 139.121 113.937C139.154 114.031 139.216 114.112 139.297 114.169C139.378 114.226 139.474 114.257 139.573 114.257C139.831 114.257 138.91 114.929 151.477 104.745C151.458 105.296 151.44 105.748 151.424 105.829C150.511 106.952 115.958 137.559 107.343 145.206V145.208ZM165.19 133.394L168.411 133.563C168.11 137.617 166.503 141.465 163.831 144.529C163.126 143.947 161.239 141.649 160.536 142.466C160.468 142.573 160.445 142.703 160.473 142.827C160.5 142.952 160.576 143.06 160.684 143.128C161.598 143.727 162.436 144.435 163.18 145.235C160.516 147.966 157.181 149.949 153.51 150.984L152.663 147.937C152.626 147.817 152.544 147.717 152.434 147.657C152.325 147.597 152.196 147.582 152.076 147.616C151.955 147.649 151.853 147.729 151.79 147.837C151.727 147.944 151.708 148.073 151.738 148.194L152.593 151.266C148.976 152.213 145.238 152.611 141.504 152.448L141.991 149.199C142.003 149.076 141.968 148.953 141.893 148.855C141.817 148.757 141.707 148.693 141.584 148.674C141.462 148.656 141.337 148.686 141.236 148.757C141.135 148.828 141.066 148.936 141.042 149.057L140.535 152.436C137.516 152.392 134.501 152.188 131.503 151.825C134.076 139.089 136.354 128.808 138.874 118.551C141.658 115.828 144.294 113.708 146.12 111.986C146.36 112.504 147.144 112.337 147.608 112.506C147.493 113.254 146.568 116.034 147.635 116.197C147.763 116.197 147.885 116.147 147.975 116.057C148.065 115.967 148.115 115.844 148.115 115.717C148.123 114.693 148.271 113.674 148.555 112.69C151.375 113.236 154.126 114.093 156.758 115.244L155.092 117.993C155.059 118.047 155.037 118.107 155.028 118.169C155.018 118.232 155.021 118.295 155.036 118.357C155.051 118.418 155.078 118.476 155.116 118.526C155.153 118.577 155.2 118.62 155.254 118.653C155.308 118.685 155.368 118.707 155.43 118.717C155.492 118.726 155.556 118.723 155.617 118.708C155.679 118.693 155.736 118.666 155.787 118.629C155.838 118.592 155.881 118.545 155.913 118.491L157.633 115.655C161.264 117.486 163.935 119.627 165.781 122.716L163.349 123.932C163.29 123.959 163.238 123.997 163.195 124.045C163.151 124.092 163.118 124.148 163.097 124.209C163.076 124.269 163.067 124.334 163.071 124.398C163.075 124.462 163.092 124.525 163.121 124.582C163.149 124.64 163.189 124.691 163.238 124.733C163.287 124.774 163.344 124.806 163.405 124.825C163.466 124.845 163.531 124.852 163.595 124.845C163.659 124.839 163.721 124.821 163.778 124.79L166.256 123.553C167.75 126.329 168.503 129.444 168.44 132.597L165.241 132.429C165.113 132.422 164.988 132.466 164.893 132.552C164.798 132.637 164.741 132.757 164.734 132.885C164.727 133.012 164.771 133.138 164.857 133.233C164.942 133.328 165.062 133.385 165.19 133.392V133.394Z" fill="black"/>
</svg>
