<svg width="123" height="121" viewBox="0 0 123 121" fill="none" xmlns="http://www.w3.org/2000/svg">
<path d="M103.105 107.1C103.969 106.604 109.542 103.144 110.944 99.5102C111.139 99.0046 111.443 98.2194 111.28 97.2473C110.957 95.305 109.199 95.143 108.89 93.6627C108.482 91.7106 111.32 90.9437 112.232 87.103C112.452 86.1819 112.792 84.7472 112.156 83.3335C111.446 81.7545 110.25 81.8257 109.45 80.3931C108.453 78.6063 109.689 77.3762 109.418 74.8545C109.133 72.1982 107.238 68.6992 104.287 68.072C101.714 67.5252 99.3144 69.3695 98.1381 71.0321C96.4005 73.4878 96.4674 76.7712 97.429 79.0852C98.8118 82.4111 101.971 83.5602 101.558 84.7577C101.175 85.8728 98.4197 84.9236 97.2516 86.6261C96.4358 87.8144 96.6846 89.8729 97.6033 91.1377C98.8769 92.8905 100.866 92.3326 101.404 93.6574C101.97 95.0463 100.044 96.3039 99.5089 98.4813C99.0669 100.278 99.6503 103.073 103.105 107.101L103.105 107.1Z" fill="black"/>
<path d="M103.966 105.635C103.945 105.635 103.923 105.63 103.902 105.62C103.828 105.583 103.797 105.492 103.832 105.415C109.695 92.6938 105.245 79.2654 103.741 75.4528C103.71 75.3745 103.747 75.285 103.823 75.2529C103.898 75.2203 103.985 75.2582 104.016 75.3372C105.531 79.1792 110.015 92.7127 104.1 105.548C104.075 105.603 104.022 105.635 103.966 105.635V105.635Z" fill="white"/>
<path d="M103.42 106.021C103.281 106.331 103.6 106.647 103.892 106.489C113.207 101.435 115.479 97.572 115.602 94.8177C115.64 93.9691 115.525 92.23 116.325 90.0755C117.364 87.2813 118.934 86.5046 120.307 84.6238C122.992 80.9451 123.201 75.4 121.737 71.3875C120.714 68.5842 118 64.1314 114.228 64.0497C112.633 64.0151 110.419 64.7533 109.948 66.2507C109.274 68.3935 113.022 70.1142 112.749 73.5381C112.6 75.4065 111.449 75.4313 111.307 77.416C111.083 80.544 113.836 81.9387 113.18 83.7327C112.545 85.4704 109.773 84.5963 108.684 86.5908C107.441 88.8669 110.043 91.5499 108.644 93.5699C107.81 94.7726 106.717 94.069 105.61 95.3475C104.265 96.903 105.149 98.7949 104.564 102.32C104.32 103.789 103.87 105.015 103.419 106.02L103.42 106.021Z" fill="black"/>
<path d="M104.126 105.925C104.09 105.925 104.053 105.911 104.025 105.884C103.965 105.826 103.961 105.729 104.017 105.667C109.924 99.0941 114.637 90.8039 116.625 83.4909C119.313 73.5995 116.448 67.6043 116.419 67.5442C116.381 67.469 116.41 67.3763 116.484 67.3377C116.557 67.2992 116.646 67.3292 116.683 67.4044C116.713 67.4651 119.633 73.5577 116.911 83.5733C114.911 90.9312 110.172 99.2685 104.234 105.875C104.205 105.908 104.166 105.924 104.126 105.924V105.925Z" fill="white"/>
<path d="M54.9575 105.041C81.3285 105.041 102.706 82.6613 102.706 55.0546C102.706 27.4479 81.3285 5.06824 54.9575 5.06824C28.5864 5.06824 7.2085 27.4479 7.2085 55.0546C7.2085 82.6613 28.5864 105.041 54.9575 105.041Z" fill="white"/>
<path d="M54.9575 105.195C42.1633 105.195 30.135 99.9794 21.0888 90.5087C12.0426 81.0386 7.06079 68.4471 7.06079 55.0547C7.06079 41.6623 12.0426 29.0708 21.0888 19.6007C30.135 10.1307 42.1633 4.91479 54.9575 4.91479C67.7517 4.91479 79.7801 10.1307 88.8263 19.6007C97.8724 29.0708 102.854 41.6623 102.854 55.0547C102.854 68.4471 97.8724 81.0386 88.8263 90.5087C79.7794 99.9794 67.7511 105.195 54.9575 105.195ZM54.9575 5.22184C28.7105 5.22184 7.35755 27.5767 7.35755 55.0547C7.35755 82.5327 28.7111 104.888 54.9575 104.888C81.2039 104.888 102.558 82.5327 102.558 55.0547C102.558 27.5767 81.2039 5.22184 54.9575 5.22184Z" fill="black"/>
<path d="M52.0159 21.5716C51.9483 21.5716 51.8795 21.5651 51.81 21.5514C51.1155 21.4162 50.4007 20.6178 49.8981 19.4151C49.5193 18.5084 49.549 16.8157 49.578 15.1792C49.6014 13.8517 49.6235 12.5981 49.412 12.0225C49.0262 10.972 48.6221 10.9812 47.7387 11.0021C47.6106 11.0053 47.4735 11.008 47.3277 11.008C46.4803 11.008 45.9247 10.5115 45.7062 10.0862C45.5774 9.83531 45.5597 9.6047 45.6582 9.45379C47.2424 7.02159 52.4017 7.6383 55.1736 7.97017C58.4038 8.35691 60.0638 9.81767 59.8472 12.0839C59.63 14.3561 55.1578 16.9718 54.6482 17.2625C54.1229 17.5624 53.8924 18.4189 53.6702 19.2466C53.4725 19.9809 53.2686 20.74 52.8462 21.1823C52.6006 21.439 52.3171 21.571 52.0159 21.571V21.5716ZM48.0519 10.6905C48.7787 10.6905 49.2863 10.8152 49.6898 11.9134C49.9215 12.5445 49.8988 13.8269 49.8748 15.1851C49.8476 16.7144 49.8173 18.4476 50.1703 19.2936C50.6268 20.3859 51.2759 21.1352 51.8643 21.2496C52.1447 21.3038 52.4036 21.2091 52.6347 20.9667C53.0028 20.5813 53.1966 19.8607 53.3841 19.1643C53.6234 18.2751 53.8703 17.356 54.5049 16.994C56.3019 15.9677 59.3876 13.7727 59.5517 12.0539C59.7525 9.95159 58.227 8.64436 55.1395 8.27525C52.4301 7.95122 47.3877 7.34758 45.9039 9.62495C45.8824 9.65826 45.8811 9.77324 45.9676 9.94179C46.1476 10.292 46.6117 10.7009 47.327 10.7009C47.4704 10.7009 47.6049 10.6976 47.7312 10.695C47.8423 10.6924 47.949 10.6898 48.0513 10.6898L48.0519 10.6905Z" fill="black"/>
<path d="M40.2275 100.033C39.7035 100.033 39.0739 99.7284 38.6395 99.3214C37.6337 98.3793 35.7679 94.3413 34.9256 91.9751C34.2601 90.1054 33.9115 84.2846 33.6804 80.4328C33.611 79.2752 33.551 78.2757 33.4999 77.6982C33.3224 75.7056 32.5382 75.396 30.4432 74.5689C30.1073 74.4363 29.7266 74.286 29.3162 74.1155C26.3157 72.8671 26.0417 71.684 26.1017 69.0832C26.1067 68.8481 26.0865 68.541 26.0625 68.1856C25.9596 66.6537 25.8043 64.3384 27.3392 62.9018C28.7024 61.6253 29.4216 57.4854 29.3433 55.7464C29.3162 55.1414 29.647 54.5835 30.2077 54.2902C31.2981 53.7199 33.1412 53.2332 35.7262 54.1491C36.8047 54.5312 37.2965 55.1532 37.772 55.7549C38.1685 56.2566 38.5783 56.7753 39.3467 57.1797C39.8885 57.4652 40.5565 57.6396 41.203 57.8088C42.5606 58.1642 43.9648 58.5313 43.6384 59.9816C43.233 61.7847 45.4543 63.6649 49.0401 64.5533C51.154 65.0773 52.7225 66.5282 52.8538 68.0824C52.939 69.0885 52.3847 69.9364 51.334 70.4088C48.6953 71.5945 48.7389 72.4562 49.0426 73.8777C49.1575 74.4147 49.3678 74.9753 49.5717 75.5175C49.9512 76.5288 50.2795 77.4016 49.8716 77.8602C49.2895 78.5141 47.3845 79.1276 46.553 79.3222C45.7656 79.5065 44.8235 80.4622 44.6139 82.1268C44.3935 83.8802 41.6476 88.3958 40.04 90.3027C38.6016 92.0084 39.2053 93.4692 40.4068 96.3789C40.5053 96.6174 40.6076 96.8656 40.7131 97.1237C41.2978 98.5551 41.3268 99.4775 40.7996 99.8642C40.6405 99.9812 40.4428 100.033 40.2275 100.033V100.033ZM30.2746 54.4274L30.3416 54.5646C29.8869 54.8024 29.618 55.2492 29.6401 55.732C29.7102 57.2901 29.08 61.6861 27.5387 63.1298C26.1111 64.4671 26.2601 66.6922 26.3593 68.1647C26.3839 68.528 26.4047 68.8409 26.399 69.0904C26.3416 71.5919 26.5878 72.6482 29.4279 73.8307C29.8358 74.0005 30.2153 74.1502 30.5499 74.2821C32.6456 75.1092 33.6022 75.4868 33.7966 77.6701C33.8484 78.2522 33.9059 79.206 33.9778 80.4139C34.2077 84.248 34.5543 90.0414 35.2053 91.8693C36.0375 94.2068 37.8667 98.1827 38.8397 99.094C39.3593 99.5801 40.2218 99.9139 40.6291 99.6147C41.0161 99.3305 40.9492 98.4884 40.4409 97.2439C40.3355 96.9859 40.2332 96.7383 40.1347 96.4998C38.9237 93.5672 38.2569 91.9523 39.8171 90.1015C41.4019 88.2213 44.1063 83.7914 44.3203 82.0876C44.5489 80.2675 45.5737 79.2373 46.4879 79.023C47.4792 78.7911 49.1708 78.1947 49.6538 77.6524C49.9361 77.3349 49.6248 76.5066 49.2958 75.6292C49.0881 75.0759 48.8734 74.5042 48.7534 73.9444C48.3942 72.2641 48.5204 71.3397 51.2165 70.1278C52.1567 69.7052 52.6334 68.9885 52.5589 68.1098C52.4604 66.945 51.2961 65.4287 48.9719 64.8525C45.1576 63.9072 42.899 61.9219 43.3505 59.9124C43.598 58.8109 42.6685 58.5085 41.1317 58.1067C40.4693 57.9336 39.7849 57.7546 39.2135 57.4534C38.3895 57.019 37.9595 56.4754 37.5434 55.9489C37.0736 55.3544 36.6298 54.7926 35.6315 54.4391C33.1444 53.5578 31.3828 54.0204 30.3428 54.5639L30.2759 54.4267L30.2746 54.4274Z" fill="black"/>
<path d="M75.4967 85.49C75.21 85.49 74.9391 85.3437 74.6967 85.0549C73.384 83.4916 73.0537 77.5696 75.0402 74.4958C77.281 71.0282 75.7903 68.3229 75.0458 67.3208C74.4706 66.5466 74.3791 63.158 74.4031 60.4521L74.4043 60.2999C74.4043 60.2665 74.4087 60.2149 74.4151 60.147C74.4555 59.7243 74.5496 58.7346 73.7843 57.9957C72.8435 57.0876 70.9524 56.874 68.1629 57.3607C65.7408 57.7827 63.9526 57.411 62.847 56.2547C61.6114 54.9625 61.2534 52.7642 61.7819 49.7212C62.0344 48.2663 61.8058 47.0949 61.6038 46.0621C61.4845 45.4519 61.3721 44.8764 61.3721 44.3126C61.3721 42.5735 63.6338 41.1324 65.5312 40.2295C66.6715 39.6866 67.479 39.0418 68.2595 38.418C68.9843 37.8391 69.6688 37.2923 70.525 36.9232C71.7707 36.3862 72.2815 37.2956 72.7759 38.1749C73.0455 38.6545 73.324 39.1503 73.7319 39.5057C74.1915 39.9068 74.4902 39.7624 74.9417 39.5429C75.5314 39.2574 76.3396 38.8655 77.7874 39.8127C79.491 40.9272 81.4256 40.4543 82.1965 39.784C82.403 39.6043 82.7244 39.2424 82.5596 38.8289C82.3544 38.3134 81.9149 38.1423 81.406 37.9437C80.7374 37.6824 79.979 37.3864 79.5067 36.2745C78.9877 35.0516 79.9582 34.2474 80.8144 33.5379C81.4104 33.0447 82.0267 32.5338 82.1435 31.9197C82.2622 31.2991 81.9768 30.4981 81.3618 29.7233C80.7506 28.9531 79.9235 28.3723 79.4385 28.3723C79.1399 28.3723 79.0584 28.9773 78.9644 29.6783C78.8172 30.7719 78.6158 32.2699 77.3505 32.7337C76.2316 33.144 75.1488 32.5253 74.1019 31.9275C73.1655 31.3925 72.1969 30.8398 71.2201 31.0351C70.1228 31.254 69.1415 32.5985 68.1022 34.0226C67.1974 35.2632 66.2617 36.5456 65.1567 37.1996C64.3612 37.6706 63.6508 37.5772 63.2095 36.9422C62.4934 35.9133 62.6551 33.6993 63.8649 32.5815C65.3474 31.2122 65.2836 29.3523 65.2489 28.3527C65.2445 28.2208 65.2401 28.1045 65.2401 28.0065C65.2401 27.7295 65.3057 27.0246 65.9144 26.4536C66.5919 25.818 67.6874 25.5723 69.17 25.7219C70.3602 25.8421 71.2694 25.6625 71.7972 25.2006C72.2298 24.8224 72.2639 24.3912 72.2651 24.3729C72.6825 21.3122 72.286 20.314 71.8793 20.0129C71.5826 19.7927 71.2113 19.9077 70.9531 20.0436C70.8501 20.105 70.549 20.6426 70.2825 21.1169C69.5002 22.5117 68.4281 24.4199 67.4443 24.2122C66.7649 24.0678 66.3109 22.9448 66.0559 20.7785C65.6877 17.6551 66.0363 15.6737 67.092 14.8898C68.0094 14.2084 69.1011 14.7023 69.2123 14.7558C71.2271 15.4973 72.7968 15.4679 73.8777 14.669C75.4462 13.51 75.5882 11.0432 75.5762 10.0365C75.5762 9.98357 75.6015 9.93326 75.6451 9.90517C75.6886 9.87643 75.7435 9.87381 75.7896 9.89668C82.0343 13.0592 87.6633 17.7146 92.0667 23.359C96.5169 29.0629 99.7598 35.8381 101.445 42.9518C101.45 42.9733 101.451 42.9949 101.447 43.0165C101.187 44.4589 100.639 46.4639 99.5053 47.8247C98.5576 48.9627 98.7041 50.0674 98.8335 51.0415C98.9289 51.7607 99.0191 52.4401 98.5873 52.9425C98.4578 53.0934 98.3265 53.2986 98.1989 53.4972C97.8883 53.9832 97.5663 54.4856 97.1401 54.3981C96.6488 54.2974 96.0067 53.454 94.9706 47.9677C93.6496 40.9717 90.6637 40.5549 89.4419 40.6986C89.3649 40.7077 89.3422 40.7724 89.3365 40.792C89.3302 40.8162 89.3213 40.8776 89.3794 40.924C90.4749 41.787 92.8414 44.0408 91.1619 46.326C89.4091 48.7112 88.9412 50.8056 89.8442 52.2239C90.7338 53.6206 90.862 54.6607 90.372 56.5056C90.1933 57.1804 89.6528 57.8899 89.0808 58.6418C87.9859 60.0804 86.7452 61.7103 87.7119 63.5323C89.3201 66.5623 85.4975 75.9082 82.8879 78.0092C81.6737 78.9872 80.5719 80.3905 79.5067 81.7473C78.2768 83.3146 77.1143 84.7943 75.938 85.3803C75.7877 85.4554 75.6394 85.4926 75.4948 85.4926L75.4967 85.49ZM70.7327 56.8008C72.2279 56.8008 73.3177 57.1249 73.9863 57.7703C74.8589 58.6131 74.751 59.7491 74.7099 60.1764C74.7049 60.2306 74.7005 60.2724 74.7005 60.2992L74.6992 60.4547C74.6664 64.1575 74.8779 66.5917 75.2807 67.1339C76.0643 68.189 77.634 71.0341 75.2864 74.667C73.4017 77.5839 73.6921 83.3904 74.9208 84.8537C75.1967 85.1817 75.4878 85.2627 75.8117 85.1013C76.9281 84.5447 78.0697 83.0905 79.2788 81.5513C80.3547 80.1807 81.4673 78.7638 82.7086 77.7649C85.1919 75.7652 88.9715 66.5362 87.4549 63.678C86.3935 61.6777 87.6993 59.9628 88.8509 58.4497C89.4041 57.7233 89.9262 57.0367 90.0891 56.4226C90.6088 54.4647 90.3449 53.5625 89.5992 52.3911C89.0328 51.502 88.4525 49.5075 90.9283 46.1385C92.4456 44.0735 90.2268 41.9738 89.2026 41.1663C89.0644 41.0572 89.0069 40.8822 89.053 40.7084C89.0991 40.5359 89.2393 40.4118 89.4104 40.3915C90.7149 40.2361 93.8959 40.6594 95.2642 47.907C96.0187 51.9044 96.6703 53.9865 97.2001 54.0949C97.4274 54.142 97.7083 53.7088 97.9533 53.326C98.0859 53.1189 98.2229 52.904 98.3669 52.7367C98.7079 52.3402 98.6346 51.7849 98.5412 51.082C98.4098 50.0948 98.2469 48.866 99.2818 47.6228C100.363 46.3241 100.894 44.3936 101.15 42.991C97.7525 28.6859 88.5479 16.7784 75.8736 10.2789C75.8566 11.4482 75.6128 13.7615 74.0507 14.9165C72.8852 15.7782 71.2214 15.82 69.1062 15.04C69.1018 15.0381 69.0967 15.0361 69.0923 15.0341C69.0822 15.0289 68.0656 14.5409 67.2637 15.1387C66.6045 15.6299 65.9113 17.0005 66.3514 20.7387C66.6437 23.2185 67.14 23.8313 67.5049 23.9091C68.2822 24.0744 69.3739 22.1249 70.0268 20.9608C70.4441 20.2167 70.6525 19.8554 70.8198 19.7679C71.289 19.5222 71.7272 19.5203 72.053 19.762C72.7406 20.2716 72.9117 21.8329 72.5606 24.403C72.5606 24.4134 72.524 24.9609 71.998 25.426C71.3995 25.9558 70.4385 26.1577 69.1409 26.0264C67.7455 25.8853 66.7264 26.1048 66.1139 26.6797C65.593 27.1683 65.5368 27.7694 65.5368 28.0052C65.5368 28.1006 65.5406 28.2129 65.545 28.3403C65.581 29.3902 65.648 31.3435 64.0619 32.8088C62.979 33.809 62.8174 35.8518 63.45 36.7606C63.8024 37.2669 64.3416 37.3257 65.0096 36.9311C66.0615 36.3085 66.9783 35.0516 67.8655 33.8358C68.9395 32.3633 69.9542 30.9731 71.1639 30.7314C72.2462 30.5158 73.2627 31.0959 74.2452 31.6571C75.2807 32.2483 76.2588 32.8069 77.2514 32.443C78.3468 32.0419 78.5262 30.7072 78.6708 29.6345C78.7844 28.7917 78.8823 28.064 79.4392 28.064C79.9961 28.064 80.9078 28.6657 81.5916 29.5267C82.2635 30.3734 82.5716 31.2664 82.4352 31.9778C82.2969 32.7023 81.6377 33.2478 81 33.7763C80.152 34.4786 79.3508 35.1424 79.7782 36.1497C80.2 37.144 80.8662 37.4041 81.5108 37.6549C82.0608 37.8692 82.5798 38.0724 82.8343 38.7106C83.0073 39.1444 82.8444 39.6213 82.3879 40.0179C81.5247 40.7685 79.4777 41.2807 77.6289 40.0708C76.3188 39.2137 75.6539 39.5357 75.0673 39.8199C74.5931 40.0499 74.1448 40.2661 73.5399 39.7389C73.0929 39.3489 72.7879 38.8067 72.5189 38.3278C72.0113 37.4243 71.6438 36.7717 70.6386 37.2055C69.819 37.5589 69.1491 38.0939 68.4407 38.6597C67.6836 39.2646 66.8262 39.9499 65.6549 40.5072C63.0844 41.7301 61.6688 43.0811 61.6688 44.3113C61.6688 44.8444 61.7787 45.4055 61.8949 46C62.102 47.0603 62.3369 48.2617 62.0742 49.7747C61.5634 52.7139 61.8949 54.8214 63.0586 56.0378C64.0922 57.1183 65.7926 57.462 68.1142 57.0569C69.0923 56.8864 69.9668 56.8008 70.734 56.8008H70.7327Z" fill="black"/>
<path d="M25.5863 56.1495C25.3331 56.1495 25.0515 56.0633 24.744 55.8922C23.8392 55.3872 21.5775 52.7832 19.5027 49.456C18.0738 47.1649 15.7048 42.8434 15.8923 39.6396C15.9176 39.2117 15.9397 38.8008 15.9618 38.4036C16.2144 33.7725 16.3672 30.977 19.4358 25.9075C20.2825 24.5088 20.6809 22.5326 20.6209 20.0338C20.6197 19.9907 20.6367 19.9489 20.667 19.9188C22.7488 17.859 25.0339 15.954 27.4578 14.2561C27.4907 14.2326 27.5317 14.2247 27.5709 14.2326L27.6915 14.2581C29.4108 14.6259 32.6108 15.3105 36.0488 14.0059C38.3503 13.1331 39.6958 12.5053 40.5867 12.0905C41.7788 11.5345 42.181 11.3477 42.9513 11.4692C44.36 11.6919 45.5382 12.7856 45.4239 13.7642C45.2484 15.2635 43.6547 16.0239 40.6884 16.0239C38.9299 16.0239 37.3558 16.9666 36.4781 18.5449C35.9187 19.5517 35.7754 20.6413 36.122 21.2567C36.4636 21.8643 36.7471 22.1478 37.1007 22.2341C37.7081 22.383 38.63 21.9669 40.5002 20.7001C43.9426 18.3686 45.5401 20.4101 45.8255 20.8432C46.2372 21.4684 45.7377 22.581 45.2086 23.7582C44.9731 24.2821 44.73 24.8244 44.5627 25.33C44.2697 26.2191 44.2741 27.0501 44.2779 27.7178C44.2811 28.2652 44.2836 28.6971 44.1257 28.9963C43.8946 29.4346 43.1149 29.743 42.0352 30.1696C41.4543 30.3989 40.7957 30.6595 40.1094 30.9849C38.0308 31.9707 36.6006 32.752 35.6977 34.5584C35.1137 35.7277 34.0422 36.4202 33.1809 36.9762C32.6127 37.3433 32.122 37.6602 31.9655 37.9947C31.8247 38.2952 31.7874 38.855 31.7483 39.4482C31.6712 40.6078 31.5841 41.9216 30.7374 42.4102C29.6387 43.0446 27.5109 42.1339 26.6673 41.2337C26.2904 40.8312 25.7783 40.6548 25.2991 40.7607C24.9013 40.8489 24.5875 41.1187 24.4593 41.4826C24.0703 42.5879 24.3197 44.0794 25.1999 45.9151C26.4324 48.4865 27.0569 50.6809 27.0569 52.4376C27.0569 54.4419 26.7469 55.608 26.1091 56.0019C25.9519 56.0992 25.7777 56.1476 25.587 56.1476L25.5863 56.1495ZM20.9183 20.0939C20.9714 22.6221 20.5572 24.6323 19.6865 26.0702C16.6582 31.0724 16.5155 33.6823 16.2567 38.4206C16.2352 38.8178 16.2125 39.2294 16.1872 39.6579C15.8633 45.1841 23.2173 54.6914 24.8836 55.6217C25.3243 55.8673 25.6848 55.9072 25.9551 55.7399C26.488 55.4107 26.7582 54.3001 26.7582 52.4395C26.7582 50.7305 26.1439 48.5819 24.9316 46.0536C24.0141 44.1395 23.7609 42.567 24.1783 41.3793C24.3412 40.9155 24.7365 40.5725 25.2353 40.4621C25.8155 40.3334 26.4299 40.5431 26.8788 41.0213C27.7274 41.9268 29.7183 42.6474 30.5909 42.1437C31.2968 41.736 31.3782 40.5105 31.4502 39.4286C31.4932 38.778 31.5304 38.2161 31.6965 37.862C31.891 37.4479 32.415 37.1095 33.0218 36.7168C33.8521 36.1805 34.8857 35.5128 35.4325 34.4179C36.4497 32.3816 38.2461 31.5297 39.9837 30.7059C40.6789 30.376 41.3419 30.114 41.9272 29.8828C42.909 29.4947 43.6838 29.1883 43.8631 28.8493C43.9843 28.62 43.9818 28.2221 43.9793 27.7197C43.9755 27.0286 43.9704 26.1688 44.2798 25.2307C44.4516 24.7094 44.6984 24.16 44.9371 23.6282C45.4081 22.5803 45.8949 21.4965 45.578 21.0157C45.3197 20.6244 43.8707 18.7821 40.6606 20.9569C38.6874 22.2935 37.7365 22.7051 37.03 22.5333C36.4825 22.3994 36.1328 21.8911 35.8631 21.4116C35.459 20.693 35.5986 19.5079 36.2186 18.3921C37.1499 16.717 38.82 15.7169 40.6858 15.7169C43.4779 15.7169 44.9718 15.0472 45.1265 13.7269C45.2193 12.9325 44.1188 11.9644 42.904 11.7723C42.2208 11.6639 41.8697 11.8278 40.706 12.3701C39.8113 12.7869 38.4601 13.4173 36.1485 14.294C32.631 15.6287 29.3767 14.9329 27.6289 14.5586L27.5702 14.5462C25.1974 16.2127 22.9597 18.0785 20.9171 20.0939H20.9183Z" fill="black"/>
<path d="M100.456 64.0602C99.7341 63.8923 99.8945 65.7385 98.9328 66.0743C97.9712 66.4101 97.5703 66.9138 97.8108 68.7593C98.0514 70.6055 97.6504 73.039 96.6888 73.9621C95.7272 74.8852 94.3646 75.5561 94.2844 77.8217C94.2042 80.0873 92.2001 82.2693 90.9979 83.0245C89.7957 83.7797 87.952 84.9543 87.952 86.8848C87.952 88.1274 87.9205 89.7162 88.1964 90.9378C94.5591 84.4774 99.2075 76.1794 101.363 66.8609C101.175 65.6222 100.868 64.1562 100.456 64.0609V64.0602Z" fill="white"/>
<path d="M30.2713 97.5759C30.6647 97.5478 30.9514 97.1251 30.8238 96.7671C30.0592 94.6237 29.8306 93.3994 29.8843 92.2941C29.9923 90.0637 31.3599 90.1349 30.5359 87.6538C30.0264 86.1205 28.3727 86.4746 27.6561 84.8636C26.8024 82.9448 28.1909 81.6213 27.5601 79.9822C26.7923 77.9877 24.2704 78.7351 21.5901 77.254C18.1224 75.3373 19.1586 72.3256 16.6052 69.9725C12.4612 66.1527 3.36642 66.5578 1.35601 70.0293C-0.539476 73.303 3.86397 79.5053 9.385 82.0995C15.271 84.8649 18.1054 82.839 21.6065 86.3184C24.0255 88.7232 21.688 91.0221 25.0749 95.0843C27.0007 97.3943 28.8261 97.6798 30.272 97.5766L30.2713 97.5759Z" fill="white"/>
<path d="M30.2713 97.5759C30.6646 97.5478 30.9513 97.1251 30.8237 96.7671C30.0591 94.6237 29.8305 93.3994 29.8842 92.294C29.9922 90.0637 31.3598 90.1349 30.5358 87.6537C30.0263 86.1205 28.3726 86.4745 27.656 84.8635C26.8023 82.9448 28.1908 81.6213 27.56 79.9822C26.7922 77.9877 24.2704 78.735 21.59 77.254C18.1223 75.3373 19.1585 72.3256 16.6051 69.9725C12.4611 66.1527 4.602 64.1974 1.35593 70.0293C-0.485259 73.3369 3.86388 79.5053 9.38491 82.0995C15.2709 84.8648 18.1053 82.839 21.6064 86.3184C24.0254 88.7232 21.6879 91.0221 25.0748 95.0842C27.0006 97.3943 28.826 97.6797 30.2719 97.5765L30.2713 97.5759Z" fill="white"/>
<path d="M29.7801 97.7477C28.5072 97.7477 26.7739 97.3576 24.9618 95.1842C23.1055 92.9571 22.9419 91.2651 22.798 89.773C22.6799 88.552 22.5782 87.4976 21.5029 86.4288C19.6011 84.5382 17.9046 84.3036 15.7565 84.007C13.9822 83.7614 11.9718 83.4838 9.32308 82.2392C5.48854 80.4375 2.09599 76.881 1.07374 73.591C0.634907 72.1792 0.687946 70.921 1.22654 69.9528C2.34413 67.9446 4.1146 66.6857 6.34663 66.3127C10.1528 65.6771 14.2904 67.6343 16.703 69.8581C17.8496 70.9151 18.2884 72.0996 18.7134 73.2454C19.252 74.6983 19.7609 76.0702 21.6589 77.1194C22.7475 77.7211 23.8101 77.9484 24.7471 78.1497C26.0724 78.4338 27.2166 78.6788 27.6971 79.9266C28.0096 80.738 27.8518 81.484 27.6996 82.2053C27.531 83.0029 27.3567 83.8274 27.7899 84.8008C28.1245 85.5534 28.6865 85.8552 29.2295 86.1472C29.8047 86.4562 30.3995 86.7757 30.6748 87.606C31.1818 89.1327 30.8863 89.7429 30.5441 90.4504C30.3124 90.9286 30.0737 91.4232 30.0307 92.3038C29.9758 93.4464 30.2366 94.6837 30.9614 96.7161C31.0353 96.9239 31.0063 97.1577 30.8806 97.3583C30.7455 97.5745 30.5207 97.7137 30.2801 97.7313C30.1223 97.7424 29.955 97.7503 29.7788 97.7503L29.7801 97.7477ZM7.85253 66.4963C7.36382 66.4963 6.87701 66.5342 6.39524 66.6145C4.25477 66.9725 2.55691 68.1798 1.48478 70.1051C0.989127 70.9961 0.944929 72.1688 1.35724 73.4963C2.34034 76.6595 5.74237 80.2186 9.44684 81.959C12.0558 83.1846 14.0435 83.4596 15.7969 83.702C17.9986 84.0064 19.7375 84.2468 21.7094 86.2073C22.8636 87.3545 22.9703 88.4612 23.0941 89.7429C23.2336 91.1899 23.3921 92.8304 25.1872 94.9843C27.1629 97.3544 29.0287 97.5112 30.2612 97.423C30.4096 97.4125 30.5485 97.3256 30.6331 97.1898C30.7076 97.0709 30.7259 96.9363 30.6849 96.8206C29.9449 94.7458 29.6784 93.4745 29.7359 92.2868C29.7813 91.3415 30.0465 90.7941 30.2801 90.3113C30.6053 89.6397 30.8617 89.1092 30.3951 87.7047C30.1583 86.9906 29.6645 86.726 29.0937 86.419C28.5337 86.1178 27.8985 85.7768 27.5209 84.9288C27.0461 83.862 27.2311 82.9866 27.4104 82.1399C27.56 81.4324 27.7008 80.7641 27.4224 80.0403C27.0012 78.9467 26.0314 78.7383 24.6884 78.4508C23.7312 78.2457 22.6464 78.0131 21.52 77.3905C19.5241 76.2871 18.9716 74.797 18.4375 73.3558C18.0251 72.2446 17.5996 71.0948 16.5066 70.0881C14.4533 68.1955 11.1264 66.4983 7.85253 66.4983V66.4963Z" fill="black"/>
<path d="M29.9802 97.4758C29.9429 97.4758 29.9057 97.4615 29.8773 97.4327C27.8252 95.3834 26.8566 92.5409 25.8306 89.5318C25.0003 87.0957 24.1416 84.576 22.6401 82.0785C17.6879 73.8379 4.08615 72.6025 3.94977 72.5914C3.86831 72.5842 3.80707 72.5104 3.81401 72.4261C3.82033 72.3419 3.89041 72.2778 3.97376 72.2857C4.00849 72.289 7.47618 72.5914 11.5153 73.9209C15.2526 75.1504 20.2597 77.5362 22.8926 81.9171C24.4112 84.4434 25.2749 86.9788 26.1109 89.4306C27.125 92.405 28.0822 95.2135 30.0837 97.2126C30.1425 97.2714 30.1444 97.3687 30.0875 97.4295C30.0585 97.4608 30.0193 97.4765 29.9808 97.4765L29.9802 97.4758Z" fill="black"/>
<path d="M29.0783 97.3244C29.4275 97.1826 29.5462 96.7312 29.317 96.4229C28.3124 95.0666 26.5375 92.9951 25.538 90.6262C23.6533 86.1571 24.9262 84.2547 21.9036 82.5333C19.7897 81.3286 18.6746 83.9705 16.1206 82.6097C14.3791 81.6821 14.3255 80.1769 12.2311 79.5354C11.832 79.4132 10.544 79.0375 9.23001 79.5798C8.01076 80.0828 7.88764 80.9138 6.64503 82.2197C4.39342 84.5859 2.664 84.0979 2.15319 85.6423C1.7011 87.009 2.48026 89.1302 3.85041 89.822C6.43098 91.1253 9.47373 86.5314 11.9912 87.7315C14.1411 88.7565 13.1094 92.673 15.4778 93.8293C17.612 94.8713 19.6943 92.2993 21.6277 93.5425C23.1065 94.493 22.5773 96.4392 24.0226 97.4786C25.3334 98.4213 27.4676 97.9796 29.0783 97.3257V97.3244Z" fill="white"/>
<path d="M25.9644 98.1716C25.2383 98.1716 24.521 98.0227 23.9382 97.6033C23.1843 97.061 22.9412 96.2947 22.7063 95.5533C22.4734 94.8183 22.253 94.1239 21.5496 93.6718C20.6246 93.0773 19.651 93.4157 18.6205 93.7737C17.5863 94.133 16.5167 94.5047 15.4148 93.9664C14.1394 93.3438 13.8079 91.9889 13.4872 90.6791C13.1929 89.4757 12.9145 88.339 11.9295 87.8693C10.7569 87.3101 9.45309 88.0894 8.07283 88.9145C6.64269 89.7697 5.16393 90.6542 3.7862 89.9578C2.39457 89.2556 1.51692 87.0919 2.01383 85.5906C2.28976 84.7564 2.90601 84.4656 3.68517 84.0978C4.46433 83.7307 5.43354 83.2734 6.5404 82.1105C6.98744 81.6402 7.28609 81.2345 7.55002 80.8771C8.00527 80.2591 8.36454 79.7705 9.17653 79.436C9.80983 79.1747 10.8618 78.9538 12.2749 79.387C13.489 79.7593 14.0529 80.4257 14.5978 81.0705C15.0164 81.5657 15.4489 82.0772 16.1896 82.4718C17.4556 83.1466 18.3534 82.7906 19.2222 82.447C20.0462 82.1203 20.8986 81.7832 21.9764 82.3973C23.9104 83.4988 24.1428 84.6851 24.4945 86.4804C24.7041 87.5492 24.9649 88.8799 25.6752 90.5634C26.4866 92.488 27.8391 94.2441 28.826 95.5271C29.0482 95.8159 29.2547 96.0837 29.4359 96.3287C29.5742 96.5156 29.6184 96.7527 29.5578 96.9794C29.4971 97.2041 29.3424 97.3818 29.1334 97.4667C28.4799 97.7326 27.2108 98.1716 25.965 98.1716H25.9644ZM20.4339 93.0407C20.862 93.0407 21.2876 93.1413 21.7062 93.4105C22.5011 93.9213 22.7486 94.7027 22.988 95.4572C23.2178 96.1824 23.435 96.867 24.1068 97.3505C25.5723 98.4049 28.0335 97.583 29.023 97.1806C29.1448 97.131 29.2345 97.0277 29.2698 96.8964C29.3058 96.7631 29.2793 96.6247 29.1985 96.5149C29.0185 96.2712 28.8133 96.0053 28.5923 95.7179C27.5947 94.4218 26.229 92.6474 25.4012 90.6863C24.6782 88.9727 24.4143 87.6243 24.2022 86.5411C23.8549 84.7688 23.6452 83.6993 21.8318 82.6658C20.8746 82.1203 20.1574 82.4045 19.3264 82.7331C18.4406 83.0839 17.436 83.4811 16.0519 82.7436C15.2608 82.3222 14.8093 81.7878 14.3724 81.2717C13.8313 80.6315 13.3198 80.0272 12.1883 79.6803C10.8567 79.272 9.87424 79.4771 9.28387 79.7201C8.54828 80.0233 8.24457 80.4368 7.78364 81.062C7.51466 81.4272 7.21032 81.8407 6.7494 82.3248C5.60402 83.5282 4.60703 83.9985 3.80577 84.3761C3.03545 84.7394 2.52654 84.9798 2.29165 85.6886C1.84588 87.035 2.66482 89.0498 3.91374 89.6808C5.14941 90.3047 6.4962 89.4999 7.92192 88.6473C9.30723 87.8196 10.7393 86.9632 12.0513 87.589C13.1658 88.1201 13.4739 89.3823 13.7726 90.6026C14.0763 91.8439 14.3901 93.1269 15.5392 93.6875C16.5331 94.1729 17.5452 93.8214 18.5239 93.481C19.1528 93.2628 19.7943 93.0394 20.432 93.0394L20.4339 93.0407Z" fill="black"/>
<path d="M28.1807 96.7808C28.1535 96.7808 28.1264 96.773 28.1018 96.7573C26.2883 95.5709 25.3368 94.1258 24.235 92.4528C23.1578 90.8176 21.9373 88.9635 19.6118 86.8665C16.2932 83.8738 12.6411 83.8267 10.1622 84.3147C7.4686 84.8446 5.54218 86.0982 5.52323 86.1106C5.45378 86.1564 5.36222 86.1348 5.31866 86.0636C5.27446 85.9917 5.29529 85.897 5.36412 85.8513C5.38369 85.8382 7.3581 84.5538 10.1073 84.0129C12.6512 83.5125 16.3986 83.5615 19.8076 86.6352C22.1621 88.7584 23.394 90.6294 24.4813 92.2803C25.5641 93.9246 26.4999 95.3455 28.2615 96.4979C28.331 96.543 28.3512 96.6377 28.3076 96.7096C28.2792 96.756 28.2312 96.7808 28.1819 96.7808H28.1807Z" fill="black"/>
<path d="M26.3454 73.848C26.1882 73.9878 28.0509 81.6025 30.8991 86.363C33.7474 91.1235 32.7984 96.0219 30.5872 96.6582C28.376 97.2945 27.7977 97.808 28.0685 98.428C28.3394 99.0479 36.1821 100.311 38.656 98.718C41.1298 97.1253 43.9415 83.4219 44.2869 77.62C44.6323 71.8182 32.417 68.4387 26.3448 73.848H26.3454Z" fill="black"/>
<path d="M34.5472 99.6515C32.2527 99.6515 29.7959 99.2563 28.6713 98.9035C28.1018 98.7245 27.9787 98.5945 27.9332 98.4913C27.8372 98.2717 27.8334 98.0614 27.9218 97.8661C28.1403 97.3826 28.9258 96.9769 30.5479 96.5098C31.2121 96.3191 31.7722 95.6991 32.1245 94.7655C32.7723 93.0507 32.807 89.8424 30.7733 86.4433C29.2497 83.8968 28.0727 80.6748 27.3542 78.4203C26.9968 77.2999 26.6748 76.1671 26.4462 75.2296C26.1103 73.8538 26.1747 73.7963 26.2486 73.7303C28.5678 71.6646 31.4356 71.1008 33.4328 70.9917C35.9818 70.8539 38.6312 71.383 40.7028 72.4472C43.195 73.727 44.5557 75.6157 44.4357 77.6278C44.1206 82.9195 41.3519 97.1618 38.7347 98.8466C37.8141 99.4392 36.2242 99.6502 34.5472 99.6502V99.6515ZM26.4841 73.9269C26.5157 74.6541 28.343 81.7997 31.0252 86.2826C33.1164 89.7777 33.0735 93.0971 32.401 94.8779C32.0134 95.9042 31.3838 96.5889 30.6274 96.8064C29.1588 97.2291 28.3619 97.6185 28.1908 97.9967C28.1397 98.1104 28.1435 98.2273 28.2041 98.3652C28.3575 98.586 30.2006 99.059 32.6239 99.2563C35.3971 99.4816 37.5672 99.238 38.5775 98.5879C40.9402 97.0664 43.7935 83.4134 44.1389 77.6108C44.2513 75.7274 42.9506 73.9466 40.5702 72.7243C36.6138 70.6925 30.2757 70.5926 26.4841 73.9276V73.9269Z" fill="white"/>
<path d="M72.723 74.5043C72.723 74.5043 75.8257 84.4421 77.8021 91.2181C79.7784 97.994 75.2752 100.919 69.3797 100.894C63.4842 100.869 67.8309 98.1932 68.2274 97.4152C68.6245 96.6371 60.9624 79.0813 60.9624 79.0813L72.723 74.5037V74.5043Z" fill="black"/>
<path d="M69.4551 101.048C69.4299 101.048 69.4053 101.048 69.3794 101.048C67.4441 101.04 66.4377 100.757 66.2116 100.157C65.954 99.4751 66.8064 98.6552 67.4915 97.9973C67.7661 97.7334 68.0263 97.4838 68.097 97.3447C68.2694 96.6137 63.8451 86.0591 60.8282 79.146C60.8112 79.1075 60.8105 79.0631 60.8263 79.0239C60.8421 78.9847 60.873 78.954 60.9109 78.9389L72.6709 74.3613C72.7088 74.3463 72.7511 74.3483 72.7877 74.3666C72.8243 74.3849 72.8521 74.4175 72.8641 74.4574C72.8951 74.5567 75.9902 84.4743 77.9438 91.1744C78.7558 93.9587 78.5399 96.2406 77.3023 97.9568C75.8639 99.952 73.0782 101.049 69.4545 101.049L69.4551 101.048ZM61.1635 79.1682C61.5146 79.9751 63.2269 83.9203 64.8806 87.8968C68.64 96.9364 68.443 97.3225 68.359 97.4878C68.2643 97.6733 68.0124 97.9157 67.6929 98.2227C67.1398 98.7545 66.3038 99.558 66.4875 100.046C66.6056 100.358 67.2029 100.733 69.38 100.742C69.4046 100.742 69.4299 100.742 69.4545 100.742C72.9828 100.742 75.6827 99.6893 77.0642 97.7732C78.2425 96.1394 78.4426 93.9489 77.6597 91.2632C75.8399 85.023 73.0296 75.9893 72.6292 74.7056L61.1629 79.1689L61.1635 79.1682Z" fill="white"/>
<path d="M15.72 66.8276C15.72 66.8276 13.4286 64.8893 15.0835 63.6141C16.7384 62.3389 18.0063 64.9788 18.0063 64.9788L15.72 66.8276Z" fill="black"/>
<path d="M75.3054 64.1982C75.7013 64.1498 79.8774 65.8013 80.1369 70.1679C80.3965 74.5345 75.76 70.9146 75.76 70.9146L75.3054 64.1982Z" fill="black"/>
<path d="M78.8614 72.4748C77.5297 72.4748 75.7586 71.1061 75.6702 71.0369C75.6361 71.0101 75.6147 70.9696 75.6115 70.9252L75.1569 64.2087C75.1512 64.127 75.2087 64.0552 75.2876 64.0454C75.554 64.0153 76.7657 64.4569 77.9281 65.4617C78.927 66.3254 80.1469 67.841 80.2846 70.1582C80.3509 71.2799 80.104 72.005 79.5496 72.3127C79.345 72.4264 79.1108 72.4748 78.8614 72.4748ZM75.9026 70.8324C76.2663 71.1042 78.3733 72.6178 79.4088 72.0423C79.852 71.796 80.0465 71.1682 79.9878 70.1771C79.8609 68.0442 78.7648 66.6265 77.8675 65.8125C76.88 64.9169 75.8571 64.4772 75.465 64.374L75.9019 70.8324H75.9026Z" fill="white"/>
<path d="M16.3477 78.6183C16.3477 78.6183 20.4392 79.6877 22.9188 78.4785C25.3983 77.2699 31.141 71.6927 34.5474 73.7722C37.9539 75.8516 40.607 83.107 40.607 83.107C40.607 83.107 39.3966 88.006 37.3932 90.3716C35.3897 92.7371 35.1277 94.2168 37.2903 96.4576C39.4522 98.6984 40.6923 99.8893 42.8448 100.146C44.9972 100.403 45.0111 97.625 44.5729 95.9474L44.1347 94.2704C44.1347 94.2704 48.8071 92.9475 50.8018 89.4661C52.7964 85.9847 52.9227 85.7045 52.9227 85.7045L58.1987 84.6429C58.1987 84.6429 58.0775 90.2305 56.302 92.0636C54.5264 93.8974 50.2171 98.0458 50.8106 99.3536C51.4041 100.662 59.0025 102.525 60.958 100.551C62.9128 98.5775 72.5291 85.3883 74.7201 80.9629C76.9111 76.5375 79.0383 69.1822 76.7406 64.3237C74.4429 59.4651 68.5008 53.0459 55.8347 51.5029C43.1687 49.9598 43.456 48.6526 40.5685 48.0156C37.6811 47.3787 22.6769 61.6138 17.5322 63.5175C13.2424 65.105 10.4245 75.5282 9.60617 78.9495C9.44579 79.6198 9.79938 80.3162 10.4169 80.5193C11.7397 80.9551 14.1043 81.1844 16.349 78.6183H16.3477Z" fill="black"/>
<path d="M57.8658 101.562C56.7104 101.562 55.6048 101.385 55.0908 101.288C53.1536 100.924 51.0151 100.166 50.676 99.4189C50.1469 98.2528 52.7881 95.4247 55.5378 92.628C55.7809 92.381 56.0038 92.1543 56.1964 91.9551C57.7276 90.3741 58.001 85.8207 58.0426 84.8303L53.0198 85.841C52.9112 86.0467 52.4945 86.8117 50.9286 89.5438C49.1234 92.6953 45.1183 94.1155 44.3146 94.3742L44.7149 95.9075C45.0552 97.2095 45.0824 98.9035 44.3752 99.7527C44.0083 100.194 43.4874 100.377 42.8263 100.299C40.6221 100.036 39.3757 98.8381 37.1841 96.5667C34.827 94.124 35.3669 92.53 37.2807 90.2709C39.1345 88.0817 40.3203 83.6237 40.4504 83.1161C40.2186 82.5 37.6545 75.8476 34.4709 73.9047C32.0198 72.4087 28.2276 75.0715 25.4588 77.0163C24.4764 77.7069 23.6271 78.3027 22.9806 78.6182C20.6526 79.7536 17.0194 78.9416 16.3962 78.7894C14.0809 81.3836 11.6304 81.0818 10.3688 80.6663C9.67805 80.4389 9.27837 79.6687 9.45958 78.9135C10.2337 75.6778 13.0984 64.9945 17.4797 63.3737C19.8317 62.5035 24.3393 58.9725 28.698 55.5584C33.9828 51.4185 38.9741 47.504 40.5968 47.8659C41.4164 48.0462 41.9878 48.2821 42.6502 48.5552C44.3771 49.2666 46.743 50.2413 55.8498 51.3512C70.1373 53.0923 75.3104 60.9565 76.8719 64.2576C79.138 69.0488 77.1996 76.2899 74.8501 81.0341C72.6332 85.5124 62.9588 98.7447 61.0595 100.662C60.3637 101.364 59.0857 101.563 57.864 101.563L57.8658 101.562ZM58.198 84.4893C58.2327 84.4893 58.2668 84.5017 58.2939 84.5252C58.328 84.5553 58.3476 84.5997 58.347 84.6461C58.3419 84.8767 58.2036 90.3166 56.4073 92.1726C56.2141 92.3725 55.9906 92.5992 55.7468 92.8475C54.0313 94.5918 50.4613 98.2221 50.9456 99.2889C51.1672 99.7776 52.7982 100.546 55.1445 100.986C57.2521 101.382 59.8592 101.446 60.8549 100.442C62.746 98.533 72.38 85.3543 74.5887 80.8936C76.9066 76.2121 78.8261 69.0815 76.6079 64.3922C75.0679 61.1368 69.9598 53.379 55.8176 51.6563C46.6716 50.5418 44.2855 49.5586 42.5428 48.8407C41.8931 48.5728 41.3324 48.3422 40.5375 48.1665C39.0493 47.8365 33.8787 51.8876 28.8792 55.8034C24.5022 59.2319 19.9763 62.7766 17.5814 63.6631C13.3396 65.233 10.514 75.7895 9.7494 78.9873C9.60607 79.5864 9.91862 80.1952 10.461 80.3736C11.6651 80.7701 14.0165 81.0556 16.2377 78.5156C16.2744 78.4738 16.3306 78.4555 16.3842 78.4699C16.4246 78.4804 20.4537 79.5112 22.8555 78.3406C23.4813 78.0355 24.321 77.4455 25.2934 76.7622C28.1278 74.7716 32.0091 72.0455 34.6231 73.6401C38.0352 75.7228 40.6366 82.7542 40.7459 83.0527C40.7566 83.0821 40.7585 83.1148 40.7509 83.1448C40.701 83.346 39.5089 88.1066 37.5048 90.4728C35.4344 92.9174 35.4086 94.2906 37.395 96.3491C39.5386 98.5709 40.756 99.7423 42.8611 99.9938C43.418 100.06 43.8524 99.9115 44.151 99.5528C44.7837 98.7931 44.7382 97.1723 44.4289 95.9878L43.9907 94.3108C43.9692 94.2292 44.0159 94.1449 44.0948 94.1227C44.1409 94.1096 48.7338 92.775 50.6735 89.3883C52.6094 86.0095 52.7817 85.6522 52.7881 85.6384C52.8083 85.5953 52.848 85.5633 52.8935 85.5542L58.1696 84.4926C58.179 84.4906 58.1885 84.49 58.198 84.49V84.4893Z" fill="white"/>
<path d="M22.976 66.8813C22.9671 66.8813 22.9583 66.8807 22.9488 66.8787C22.868 66.8637 22.815 66.7833 22.8295 66.7004C22.832 66.684 23.1041 65.0946 22.5207 64.2695C22.3281 63.9971 22.0693 63.8429 21.7296 63.7978C20.1473 63.5868 19.6567 65.6525 19.6516 65.6728C19.6327 65.7551 19.5525 65.8067 19.4729 65.7864C19.3934 65.7668 19.3435 65.6839 19.3624 65.6015C19.3681 65.578 19.9225 63.2477 21.7668 63.4921C22.1861 63.5476 22.5201 63.7482 22.76 64.0879C23.4186 65.0201 23.1332 66.684 23.1212 66.7546C23.1079 66.8284 23.0454 66.8807 22.9753 66.8807L22.976 66.8813Z" fill="white"/>
<path d="M52.9218 85.858C52.8966 85.858 52.8707 85.8514 52.8467 85.8371C52.776 85.7939 52.7526 85.6999 52.7937 85.6267C56.9262 78.3451 52.1496 72.8641 52.1004 72.8098C52.0448 72.7478 52.0486 72.6504 52.1086 72.5929C52.1686 72.5355 52.2627 72.5387 52.3182 72.6014C52.3694 72.6589 53.5861 74.0374 54.2958 76.3598C54.9506 78.5032 55.2656 81.8781 53.0494 85.7822C53.0216 85.8305 52.9724 85.858 52.9212 85.858H52.9218Z" fill="white"/>
<path d="M58.4032 84.7546C58.3337 84.7546 58.2712 84.7037 58.2579 84.6305C58.2421 84.5469 58.2946 84.4665 58.3754 84.4502C63.7354 83.3716 66.679 79.1004 66.7081 79.0573C66.7548 78.9874 66.8476 78.9711 66.9145 79.0194C66.9821 79.0678 66.9979 79.1638 66.9512 79.233C66.9215 79.2768 63.9084 83.6486 58.4322 84.7514C58.4227 84.7533 58.4133 84.754 58.4038 84.754L58.4032 84.7546Z" fill="white"/>
<path d="M16.2906 72.7393C16.4067 72.9398 16.2047 73.2985 15.8397 73.5409C15.4748 73.7832 15.3491 73.6343 15.233 73.4337C15.1168 73.2332 15.0543 73.0574 15.4192 72.815C15.7842 72.5727 16.1744 72.5387 16.2906 72.7386V72.7393Z" fill="white"/>
<path d="M9.60454 78.9494C9.60454 78.9494 11.1919 78.3686 11.637 78.7926C12.0822 79.2166 10.8282 80.6375 10.8282 80.6375C10.8282 80.6375 9.27999 80.2462 9.60454 78.9494Z" fill="white"/>
<path d="M10.8283 80.791C10.8163 80.791 10.8049 80.7897 10.7929 80.7865C10.7582 80.778 9.94555 80.5663 9.58249 79.9378C9.40759 79.6347 9.36655 79.2891 9.46126 78.9109C9.47389 78.8612 9.50861 78.8214 9.55534 78.8044C9.72645 78.7417 11.2412 78.206 11.7381 78.6789C12.2653 79.1813 11.1642 80.484 10.9381 80.7407C10.9097 80.7727 10.8699 80.7904 10.8283 80.7904V80.791ZM9.73087 79.067C9.68036 79.3316 9.71572 79.5713 9.83695 79.7804C10.0763 80.1939 10.5807 80.3964 10.7803 80.4631C11.2481 79.913 11.747 79.1055 11.5367 78.9056C11.2721 78.6535 10.3219 78.8625 9.73087 79.067Z" fill="black"/>
<path d="M85.4395 77.778C85.4395 77.778 88.8112 91.1357 88.2953 99.7049H90.5949L92.3275 78.948L85.4395 77.778Z" fill="white"/>
<path d="M90.5948 99.8584H88.2952C88.2542 99.8584 88.2151 99.8408 88.1873 99.8101C88.1589 99.7794 88.145 99.7376 88.1475 99.6951C88.6558 91.2487 85.3302 77.9497 85.2961 77.8165C85.2834 77.7662 85.2961 77.7126 85.3301 77.674C85.3642 77.6355 85.4148 77.6172 85.464 77.6263L92.352 78.7964C92.4284 78.8095 92.4827 78.8813 92.4758 78.961L90.7432 99.718C90.7363 99.7977 90.6725 99.8584 90.5955 99.8584H90.5948ZM88.4531 99.5514H90.4591L92.1683 79.0767L85.6402 77.9674C86.0765 79.7606 88.8806 91.6668 88.4537 99.5514H88.4531Z" fill="black"/>
<path d="M105.042 50.7064L102.455 54.2407C102.455 54.2407 99.5205 54.2708 98.0304 54.9744C96.5403 55.6779 92.6666 58.7765 92.1501 59.8368C91.633 60.8964 94.576 62.527 97.6642 61.3531C97.6642 61.3531 99.6323 63.4978 95.7422 64.692C89.6472 66.563 77.1327 63.4148 72.2828 66.0966C72.2828 66.0966 68.4918 67.5854 66.5724 69.4545C65.5009 70.4978 66.9468 70.6069 68.4331 70.5004C67.5952 72.2009 67.6192 73.8106 67.5574 76.1193C67.4481 80.1893 64.4401 84.2038 64.3801 86.7294C64.3631 87.4598 64.6516 99.575 64.6516 99.575H65.7395C65.7395 99.575 65.6619 88.2078 70.304 85.0446L72.6869 99.575H74.6639C74.6639 99.575 72.0745 86.9587 74.6639 85.562C77.2533 84.1646 79.5377 83.6276 80.2089 82.0244L89.6169 82.1394C89.6169 82.1394 94.3114 91.8336 94.288 99.5757H96.5403C96.5403 99.5757 97.017 90.0194 96.6324 86.7301C96.2479 83.4408 97.5966 80.6702 100.423 77.7813C103.249 74.8925 108.833 72.2996 103.452 56.5703C103.452 56.5703 108.063 55.6048 105.042 50.7084V50.7064Z" fill="white"/>
<path d="M96.5406 99.7278H94.2883C94.2492 99.7278 94.2113 99.7115 94.1835 99.6827C94.1558 99.654 94.14 99.6148 94.14 99.5737C94.1614 92.3346 89.9802 83.2578 89.5244 82.2902L80.3045 82.1779C79.7729 83.3185 78.4697 83.9182 76.8312 84.6728C76.16 84.9818 75.4661 85.3013 74.7336 85.6965C72.273 87.024 74.7848 99.4169 74.81 99.5416C74.8195 99.5867 74.8081 99.6344 74.7804 99.6703C74.7519 99.7063 74.7096 99.7272 74.6648 99.7272H72.6879C72.6153 99.7272 72.5534 99.673 72.5414 99.5991L70.1976 85.3065C65.8643 88.567 65.8876 99.4613 65.8889 99.5723C65.8889 99.6135 65.8737 99.6527 65.8459 99.6814C65.8182 99.7102 65.7803 99.7265 65.7405 99.7265H64.6526C64.5718 99.7265 64.5061 99.6599 64.5042 99.5769C64.4922 99.0824 64.2156 87.4493 64.2327 86.7235C64.2598 85.5776 64.8559 84.1848 65.5454 82.5718C66.3908 80.5956 67.3493 78.3555 67.4093 76.1128L67.4219 75.611C67.4705 73.6381 67.5059 72.1845 68.1885 70.6676C66.5178 70.7591 66.1869 70.4625 66.0871 70.226C65.9842 69.9816 66.1092 69.6922 66.4704 69.3401C68.3615 67.4985 71.9687 66.0534 72.2213 65.9541C74.8631 64.4992 79.7881 64.7455 84.5501 64.984C88.6562 65.1891 92.9018 65.4014 95.7002 64.5424C97.0324 64.1334 97.7977 63.5788 97.9751 62.8928C98.133 62.2826 97.7687 61.7267 97.6184 61.5307C95.2658 62.3813 92.9883 61.6431 92.2344 60.7677C91.9439 60.4306 91.8675 60.0745 92.0184 59.7649C92.5457 58.6837 96.4231 55.5623 97.9695 54.8319C99.3567 54.1766 101.906 54.095 102.381 54.0858L104.924 50.611C104.953 50.5705 105 50.547 105.049 50.5502C105.097 50.5522 105.142 50.579 105.168 50.6208C106.18 52.2605 106.463 53.6533 106.008 54.7607C105.479 56.0509 104.123 56.5389 103.647 56.6742C108.393 70.6637 104.423 74.2927 101.521 76.9457C101.166 77.2697 100.832 77.5761 100.528 77.8864C97.5761 80.904 96.42 83.6249 96.7805 86.7078C97.1625 89.9723 96.694 99.4841 96.689 99.5802C96.6852 99.6618 96.6195 99.7259 96.5406 99.7259V99.7278ZM94.4367 99.4208H96.3998C96.4572 98.2057 96.8386 89.7645 96.4856 86.747C96.1131 83.5602 97.2951 80.7609 100.319 77.6702C100.628 77.354 100.966 77.045 101.324 76.7177C104.174 74.113 108.076 70.5454 103.312 56.6193C103.297 56.5775 103.301 56.5311 103.323 56.4925C103.344 56.454 103.38 56.4266 103.422 56.4174C103.44 56.4135 105.164 56.0352 105.735 54.6418C106.13 53.6743 105.894 52.4421 105.03 50.9768L102.574 54.3334C102.546 54.3713 102.503 54.3942 102.457 54.3942C102.428 54.3942 99.536 54.4321 98.0919 55.1141C96.6163 55.8105 92.7787 58.8888 92.2824 59.9053C92.1637 60.1483 92.3108 60.3986 92.4547 60.5658C93.1625 61.3883 95.3485 62.069 97.6127 61.2086C97.6683 61.1871 97.7308 61.2027 97.7718 61.2472C97.8015 61.2798 98.4992 62.054 98.2612 62.9745C98.0553 63.7702 97.2219 64.398 95.7842 64.839C92.9371 65.7124 88.6663 65.4988 84.5356 65.2923C79.8083 65.0558 74.9199 64.8115 72.3526 66.2311C72.3469 66.2344 72.3412 66.237 72.3349 66.2389C72.2977 66.254 68.549 67.7389 66.6737 69.5655C66.3271 69.9032 66.3378 70.0548 66.3586 70.1045C66.3965 70.1933 66.656 70.4736 68.4227 70.3462C68.4776 70.3436 68.5275 70.3684 68.5566 70.4148C68.5863 70.4612 68.5894 70.5199 68.5648 70.5689C67.8039 72.1127 67.7679 73.5839 67.7181 75.6202L67.7054 76.1225C67.6436 78.4254 66.6725 80.6949 65.8163 82.6972C65.1388 84.2802 64.5541 85.6475 64.5288 86.732C64.513 87.4061 64.7637 98.026 64.7965 99.4201H65.5908C65.5978 97.9888 65.8068 87.9236 70.2222 84.9152C70.2645 84.8864 70.3176 84.8818 70.363 84.9027C70.4091 84.9237 70.442 84.9668 70.4502 85.0177L72.8116 99.4201H74.4811C74.1572 97.7862 72.0805 86.7803 74.5947 85.4241C75.3354 85.0243 76.0653 84.6885 76.7087 84.3919C78.3327 83.6439 79.6151 83.0539 80.0716 81.9616C80.0956 81.9048 80.1511 81.8728 80.2098 81.8689L89.6178 81.9839C89.6734 81.9845 89.7239 82.0172 89.7492 82.0688C89.7959 82.1655 94.3969 91.7551 94.4361 99.4201L94.4367 99.4208Z" fill="black"/>
<path d="M70.3049 85.1974C70.2336 85.1974 70.1711 85.1445 70.1584 85.0694C69.8358 83.1017 72.9783 80.6904 73.5731 80.2533L70.6711 70.9302C70.6459 70.8499 70.6888 70.763 70.7671 70.7369C70.8454 70.7114 70.9287 70.7552 70.954 70.8362L73.8894 80.267C73.9096 80.3317 73.8863 80.4023 73.832 80.4408C73.7947 80.4669 70.1338 83.0847 70.4514 85.0177C70.4653 85.1014 70.4104 85.1804 70.3295 85.1948C70.3213 85.1961 70.3131 85.1967 70.3049 85.1967V85.1974Z" fill="black"/>
<path d="M68.4335 70.6539C68.3672 70.6539 68.3066 70.6075 68.2895 70.5376C68.27 70.4553 68.3179 70.3723 68.3975 70.3514C68.4114 70.3475 69.8106 69.9849 70.7451 69.493C70.8177 69.4544 70.9074 69.4845 70.9446 69.5603C70.9819 69.6361 70.9528 69.7282 70.8796 69.7667C69.9141 70.275 68.5276 70.6343 68.4689 70.6493C68.4569 70.6526 68.4449 70.6539 68.4329 70.6539H68.4335Z" fill="black"/>
<path d="M99.0961 57.0126C98.8037 56.6434 97.7493 58.1506 97.7493 58.1506C97.7493 58.1506 99.8512 57.965 99.0961 57.0126Z" fill="black"/>
<path d="M99.8438 54.2406C99.8438 54.2406 97.6553 52.8236 97.3181 49.2802C96.9809 45.7367 95.5022 50.1941 97.1369 52.4493C98.7716 54.7051 94.442 52.3709 93.649 49.2736C92.8559 46.1764 92.1216 50.0948 93.3876 51.6274C94.6536 53.1601 89.9104 48.8523 90.8405 44.5817C91.7706 40.3118 93.0043 40.2929 92.6659 39.6331C92.3275 38.9732 89.7248 39.5867 89.4394 42.1939C89.154 44.8019 89.9913 47.1132 89.3611 47.0845C88.731 47.0557 87.7788 45.9059 87.7529 42.8792C87.727 39.8526 87.2509 39.4188 86.5103 39.8284C85.7703 40.238 85.3902 43.4888 87.0344 45.4375C88.6786 47.3863 88.5472 47.5392 87.5818 47.2707C86.6164 47.0015 87.2522 49.307 89.6181 50.9519C91.984 52.5976 94.9863 55.4871 99.8444 54.2412L99.8438 54.2406Z" fill="black"/>
<path d="M101.023 54.2406C101.023 54.2406 103.212 52.8236 103.549 49.2802C103.886 45.7367 105.365 50.1941 103.73 52.4493C102.095 54.7051 106.425 52.3709 107.218 49.2736C108.011 46.1764 108.745 50.0948 107.479 51.6274C106.213 53.1601 110.956 48.8523 110.026 44.5817C109.097 40.3118 107.863 40.2929 108.201 39.6331C108.539 38.9732 111.142 39.5867 111.427 42.1939C111.713 44.8019 110.876 47.1132 111.506 47.0845C112.136 47.0557 113.088 45.9059 113.114 42.8792C113.14 39.8526 113.616 39.4188 114.357 39.8284C115.097 40.238 115.477 43.4888 113.832 45.4375C112.188 47.3863 112.32 47.5392 113.285 47.2707C114.25 47.0015 113.615 49.307 111.249 50.9519C108.883 52.5976 105.88 55.4871 101.022 54.2412L101.023 54.2406Z" fill="black"/>
<path d="M61.5829 97.0553H60.9629V99.5522C60.9629 99.6652 60.8827 99.7619 60.7747 99.7762C59.9772 99.8834 59.3528 99.6358 57.7585 99.366C57.7408 99.758 56.3706 100.06 55.5776 100.332C55.4734 100.367 55.4399 100.501 55.5132 100.586C55.8207 100.944 56.0208 101.347 56.036 101.828C56.0379 101.896 56.0922 101.949 56.1578 101.953C57.074 102.012 57.6518 101.734 57.8885 102.43L61.2773 100.373C61.4187 100.26 61.4996 100.085 61.4958 99.9004C61.4806 99.138 61.5842 97.0553 61.5842 97.0553H61.5829Z" fill="white"/>
<path d="M57.8873 102.583C57.8703 102.583 57.8526 102.58 57.8362 102.574C57.7945 102.559 57.7617 102.524 57.7471 102.481C57.6152 102.093 57.3822 102.086 56.8221 102.106C56.6239 102.114 56.3991 102.122 56.1472 102.106C56.0032 102.097 55.8914 101.98 55.8864 101.833C55.8738 101.428 55.7146 101.054 55.4008 100.687C55.3333 100.608 55.3086 100.501 55.3352 100.399C55.3617 100.299 55.4343 100.219 55.5303 100.186C55.7109 100.124 55.9167 100.062 56.1352 99.9963C56.6106 99.8526 57.6013 99.554 57.6095 99.3594C57.6114 99.3156 57.6316 99.2751 57.6644 99.247C57.6973 99.2196 57.7402 99.2078 57.7819 99.215C58.2782 99.2993 58.6741 99.3796 59.0232 99.4502C59.7752 99.603 60.2286 99.6945 60.7552 99.6246C60.7886 99.62 60.8139 99.5893 60.8139 99.5527V97.0559C60.8139 96.9709 60.8802 96.9023 60.9623 96.9023H61.5823C61.6227 96.9023 61.6619 96.9193 61.6897 96.95C61.7174 96.9807 61.7326 97.0212 61.7301 97.0637C61.7288 97.0846 61.6271 99.1497 61.6417 99.8977C61.6461 100.131 61.5425 100.354 61.3651 100.495C61.3601 100.499 61.355 100.503 61.35 100.506L57.9618 102.563C57.9391 102.577 57.9126 102.584 57.8867 102.584L57.8873 102.583ZM57.0861 101.793C57.4542 101.793 57.7674 101.852 57.9555 102.21L61.1921 100.245C61.2912 100.163 61.3487 100.036 61.3462 99.9036C61.3335 99.2601 61.403 97.7157 61.427 97.2087H61.1113V99.5521C61.1113 99.7422 60.9749 99.9042 60.7937 99.9284C60.2191 100.006 59.7474 99.9101 58.9658 99.7513C58.6482 99.6867 58.2914 99.6141 57.8564 99.539C57.6872 99.8284 57.0987 100.025 56.2185 100.291C56.0032 100.356 55.7993 100.418 55.6237 100.478C55.9798 100.9 56.1623 101.331 56.1825 101.801C56.413 101.815 56.6245 101.807 56.8114 101.8C56.9055 101.796 56.997 101.793 57.0861 101.793Z" fill="black"/>
<path d="M75.4615 93.1316C66.1577 91.4115 65.3937 85.1772 59.5418 85.1772C58.7614 85.1772 58.0555 85.2105 57.4172 85.2784C57.2385 85.2974 57.0812 85.1582 57.0699 84.972C56.984 83.6119 57.5599 80.938 57.957 78.6201L54.7179 79.6948L52.0647 88.0079C51.8709 88.7304 51.5394 90.4956 51.617 91.4474C51.9618 95.6755 56.7403 99.151 62.5922 99.151C68.4441 99.151 79.5379 93.8849 75.4628 93.1316H75.4615Z" fill="white"/>
<path d="M58.3698 77.3841C58.3698 78.8782 57.2048 80.0894 55.7684 80.0894C54.3319 80.0894 52.7534 79.2904 52.7534 77.7963C52.7534 76.3023 54.3319 74.6788 55.7684 74.6788C57.2048 74.6788 58.3698 75.89 58.3698 77.3841Z" fill="white"/>
<path d="M57.8217 78.7605L54.717 79.6954L53.3191 84.075C54.6406 84.0116 56.0152 83.8137 57.1726 83.2368C57.3475 81.8695 57.5571 80.3068 57.8217 78.7612V78.7605Z" fill="white"/>
<path d="M53.3191 84.2279C53.2382 84.2279 53.1719 84.1606 53.1707 84.0763C53.1694 83.9914 53.2351 83.9221 53.3172 83.9202C54.782 83.898 56.0227 83.6281 57.1094 83.0964C57.1833 83.0604 57.2723 83.0925 57.307 83.1695C57.3424 83.246 57.3102 83.3381 57.2363 83.374C56.1105 83.9247 54.83 84.2037 53.3216 84.2272H53.3191V84.2279Z" fill="black"/>
<path d="M57.4345 91.1267C59.4715 92.5574 62.5054 93.4628 66.1069 93.8587C66.2938 93.879 65.4629 92.8788 65.6529 92.8971C65.8398 92.9147 67.0477 93.9502 67.2378 93.9652C67.6596 93.9985 68.0889 94.0247 68.5233 94.0449C68.7298 94.0547 67.8837 93.4047 68.0927 93.4112C68.3983 93.421 69.7603 94.0854 70.0709 94.0887C72.3377 94.1135 74.7421 93.9717 77.2027 93.6666C71.537 91.222 65.1851 88.4358 62.0047 86.5556C60.9161 85.9121 58.3153 85.6678 57.319 86.438C56.4716 87.0933 56.2349 87.9112 56.3491 89.2563C56.4129 90.0017 56.8088 90.6863 57.4358 91.1267H57.4345Z" fill="white"/>
<path d="M52.5058 77.9877C51.858 79.0787 51.1811 80.1089 50.5579 80.7812C50.4695 80.8765 50.5301 81.0353 50.6571 81.0444C51.5113 81.1078 52.903 80.4101 54.1039 79.7261C54.1885 79.6778 54.1784 79.5504 54.0881 79.5151C53.5565 79.308 53.2136 78.7638 52.9762 78.0445C52.9042 77.827 52.622 77.7917 52.5058 77.9877Z" fill="white"/>
<path d="M62.5907 99.3051C56.7123 99.3051 51.8264 95.8597 51.4678 91.4611C51.3882 90.4811 51.7235 88.7016 51.9205 87.9673L54.4544 80.0285C53.2926 79.6379 52.6043 78.8121 52.6043 77.7969C52.6043 76.2074 54.2302 74.5259 55.7677 74.5259C57.3052 74.5259 58.5175 75.8083 58.5175 77.3847C58.5175 77.9609 58.3533 78.5155 58.042 78.9905C57.9745 79.3765 57.9025 79.7698 57.8311 80.1638C57.4958 82.0067 57.1498 83.9123 57.2161 84.9628C57.2193 85.0118 57.2408 85.0562 57.2761 85.0869C57.3108 85.1177 57.3544 85.1327 57.3999 85.1268C58.0363 85.0589 58.7568 85.0242 59.5403 85.0242C62.3589 85.0242 64.0284 86.4504 65.9605 88.1019C66.2737 88.3691 66.597 88.6454 66.9329 88.9224C70.0236 90.3871 73.7211 92 77.2577 93.5261C77.3157 93.551 77.3524 93.6117 77.3486 93.677C77.3448 93.7424 77.3018 93.7979 77.2412 93.8155C76.983 93.8913 76.7071 93.9645 76.4204 94.0324C75.6236 95.8551 67.2915 99.3058 62.59 99.3058L62.5907 99.3051ZM55.7683 74.8323C54.4019 74.8323 52.9017 76.3832 52.9017 77.7962C52.9017 78.7089 53.5679 79.4504 54.6842 79.7796C54.7233 79.7914 54.7555 79.8182 54.7745 79.8554C54.7934 79.892 54.7972 79.9358 54.7846 79.9756L52.2053 88.0568C52.0209 88.7434 51.6888 90.506 51.7646 91.4356C51.9287 93.4484 53.1214 95.339 55.123 96.7593C57.158 98.2037 59.8106 98.9987 62.5919 98.9987C67.4734 98.9987 75.688 95.3854 76.1716 93.8528C76.188 93.8012 76.2291 93.7626 76.2802 93.7509C76.4387 93.7143 76.5934 93.6757 76.7437 93.6365C73.3215 92.1588 69.7755 90.6072 66.7946 89.1942C66.7839 89.1889 66.7731 89.1824 66.7637 89.1746C66.4208 88.8924 66.0918 88.6108 65.773 88.339C63.8844 86.7254 62.2535 85.3319 59.5416 85.3319C58.7681 85.3319 58.0584 85.3659 57.4321 85.4325C57.3058 85.4449 57.1833 85.4071 57.0861 85.3221C56.9882 85.2365 56.9295 85.1163 56.9213 84.9831C56.8524 83.8934 57.2022 81.9688 57.5407 80.1069C57.6139 79.7032 57.6878 79.2995 57.7566 78.9036C57.7604 78.882 57.7686 78.8611 57.7806 78.8435C58.0692 78.4143 58.2213 77.9099 58.2213 77.3847C58.2213 75.9775 57.1208 74.8329 55.7683 74.8329V74.8323Z" fill="black"/>
<path d="M63.8959 98.0763C63.6603 98.0763 63.4697 98.2749 63.4697 98.5199V100.576C63.4697 100.689 63.3888 100.784 63.2815 100.798C62.484 100.905 60.4901 101.115 58.8951 100.845C58.8774 101.237 58.8768 101.082 58.0844 101.353C57.9802 101.389 57.9474 101.524 58.02 101.609C58.3268 101.967 58.5264 102.37 58.5415 102.849C58.5434 102.917 58.5977 102.971 58.6628 102.975C59.5789 103.033 60.3379 103.24 60.5747 103.935L63.7822 101.394C63.9236 101.281 64.0045 101.106 64.0007 100.921C63.9887 100.303 64.0543 98.8171 64.0796 98.2769C64.0847 98.1671 64.0007 98.0763 63.8952 98.0763H63.8959Z" fill="white"/>
<path d="M60.5753 104.089C60.5614 104.089 60.5469 104.087 60.533 104.082C60.4875 104.068 60.4509 104.032 60.4351 103.986C60.2564 103.46 59.7071 103.195 58.6546 103.128C58.5106 103.118 58.3988 103.001 58.3938 102.854C58.3812 102.45 58.2227 102.076 57.9095 101.71C57.8413 101.631 57.8167 101.522 57.8438 101.421C57.8704 101.32 57.943 101.24 58.0383 101.207C58.27 101.128 58.4336 101.084 58.5529 101.053C58.635 101.031 58.7196 101.009 58.7385 100.994C58.7411 100.982 58.7449 100.898 58.7474 100.836C58.7493 100.793 58.7695 100.752 58.8023 100.724C58.8351 100.697 58.8775 100.685 58.9198 100.692C60.5608 100.97 62.659 100.726 63.2632 100.644C63.2967 100.64 63.3219 100.61 63.3219 100.575V98.5186C63.3219 98.1894 63.5795 97.9215 63.8965 97.9215C63.9868 97.9215 64.0752 97.9601 64.1377 98.028C64.2002 98.0959 64.2337 98.1887 64.2293 98.2828C64.2078 98.7427 64.1383 100.292 64.1503 100.917C64.1548 101.15 64.0512 101.373 63.8731 101.515L60.6656 104.056C60.6391 104.077 60.6075 104.087 60.5753 104.087V104.089ZM58.6893 102.822C59.4217 102.871 60.2792 103.019 60.634 103.695L63.6919 101.272C63.7949 101.191 63.8555 101.061 63.8523 100.925C63.8403 100.307 63.9035 98.8622 63.9312 98.2697C63.9319 98.2566 63.9262 98.2475 63.9211 98.2416C63.9161 98.2364 63.9079 98.2305 63.8953 98.2305C63.7418 98.2305 63.6174 98.3605 63.6174 98.5206V100.576C63.6174 100.766 63.481 100.927 63.2998 100.951C62.5377 101.053 60.6321 101.26 59.0277 101.021C58.993 101.233 58.8989 101.279 58.6255 101.351C58.5106 101.382 58.3528 101.423 58.1311 101.5C58.4866 101.922 58.6691 102.353 58.6893 102.823V102.822Z" fill="black"/>
<path d="M52.1099 79.4243C52.293 79.4126 52.4432 79.2447 52.5638 78.9429C52.5803 78.9024 52.5386 78.8618 52.5013 78.8821C52.2803 79.0023 52.132 79.1709 52.1099 79.425V79.4243Z" fill="black"/>
<path d="M68.29 94.2847C68.2792 94.2847 68.2679 94.2834 68.2571 94.2808C67.1414 94.0194 66.3168 93.4622 65.6999 92.9448C65.7511 93.225 65.8641 93.5014 66.0396 93.7712C66.0718 93.8208 66.0731 93.8849 66.0434 93.9365C66.0137 93.9874 65.9569 94.0162 65.9007 94.0096C60.8602 93.455 57.8282 92.2928 56.6317 90.4571C56.0375 89.5451 55.9081 88.4606 56.2465 87.2331C56.2692 87.1514 56.3513 87.105 56.4296 87.1272C56.5085 87.1508 56.554 87.2357 56.5313 87.3174C56.213 88.4698 56.3267 89.4399 56.8773 90.2852C57.9835 91.9818 60.9297 93.1205 65.6362 93.6706C65.4581 93.3185 65.3697 92.9559 65.3722 92.5874C65.3722 92.5273 65.407 92.4731 65.4594 92.4489C65.5118 92.4241 65.5737 92.4339 65.6179 92.4724C66.1785 92.9755 66.9457 93.5765 68.0065 93.8966L67.6636 93.2074C67.6333 93.1466 67.6453 93.0728 67.6933 93.0258C67.7413 92.9787 67.8133 92.9703 67.8701 93.0042C69.4884 93.9776 72.439 93.8417 75.5625 93.698L76.1958 93.6693C76.2792 93.6621 76.3467 93.7313 76.3505 93.8163C76.3543 93.9012 76.2905 93.9724 76.2085 93.9763L75.5758 94.0051C72.6517 94.1396 69.878 94.267 68.1359 93.4857L68.4219 94.0613C68.4485 94.1142 68.4428 94.1782 68.4074 94.2259C68.379 94.2638 68.3354 94.2853 68.29 94.2853V94.2847Z" fill="black"/>
<path d="M109.149 105.136C106.658 108.517 104.2 111.52 102.251 113.338C101.333 114.193 100.199 115.078 98.8756 115.963L88.1644 112.783C87.0083 112.444 83.4832 113.874 82.382 114.334L70.9586 119.208C70.8695 119.245 69.2683 119.7 69.1774 119.734C64.8806 121.354 60.5694 119.436 58.367 118.502C52.3188 116.151 44.781 112.462 37.326 106.617C34.3653 104.295 31.8315 101.96 29.6733 99.7312C29.4075 99.5574 29.3039 99.2504 29.4075 98.9727C30.2965 96.5836 32.502 95.9722 34.9891 96.9613C36.5759 97.5923 38.0685 98.3939 39.4563 99.3248L45.1169 103.126L49.5191 105.18C50.386 102.838 54.3841 103.654 57.1433 103.453L66.5128 102.806L75.0911 98.8395C78.711 97.1644 82.9351 96.8619 86.8088 98.0013L96.0772 101.51L109.148 105.137L109.149 105.136Z" fill="white"/>
<path d="M60.3952 110.662C59.3534 110.662 58.3741 110.61 57.4592 110.507C54.0249 110.12 51.481 109.004 49.8968 107.191C49.8419 107.128 49.8463 107.031 49.9075 106.974C49.9681 106.917 50.0622 106.923 50.1171 106.985C53.2401 110.559 60.3358 111.299 70.6347 109.124C70.7149 109.108 70.7932 109.161 70.8096 109.244C70.8261 109.327 70.7743 109.408 70.6941 109.425C66.7964 110.248 63.347 110.661 60.3958 110.661L60.3952 110.662Z" fill="black"/>
<path d="M65.6271 120.517C62.717 120.517 60.0979 119.404 58.4752 118.714L58.3104 118.645C50.5586 115.632 43.4666 111.626 37.2359 106.739C34.5214 104.611 31.9459 102.293 29.5794 99.8514C29.2643 99.6371 29.1393 99.2634 29.2688 98.9172C30.1477 96.5555 32.3595 95.7507 35.0424 96.8175C36.5899 97.4329 38.1022 98.2332 39.5374 99.1955L45.1885 102.99L49.4416 104.975C50.2107 103.254 52.6328 103.291 54.9778 103.326C55.745 103.337 56.4692 103.348 57.1328 103.299L66.4764 102.655L75.0307 98.6996C78.6594 97.02 82.9675 96.7117 86.8494 97.8536L96.1286 101.366L109.187 104.989C109.266 105.011 109.313 105.095 109.292 105.177C109.27 105.259 109.189 105.308 109.11 105.285L96.0389 101.658L86.7578 98.1456C82.9517 97.0266 78.7181 97.329 75.1519 98.9799L66.5736 102.947C66.5578 102.954 66.5401 102.958 66.5231 102.96L57.1536 103.606C56.478 103.655 55.7475 103.645 54.974 103.633C52.665 103.599 50.2776 103.563 49.6582 105.236C49.6437 105.275 49.614 105.307 49.5761 105.323C49.5382 105.338 49.4959 105.338 49.4587 105.321L45.0565 103.266C45.0495 103.263 45.0432 103.259 45.0369 103.255L39.3763 99.4542C37.9588 98.5036 36.4649 97.7132 34.9363 97.1056C32.3867 96.0917 30.3712 96.811 29.5459 99.0289C29.467 99.2399 29.5504 99.4705 29.7524 99.6025C29.7619 99.6083 29.7701 99.6155 29.7783 99.6234C32.1379 102.059 34.7077 104.372 37.4152 106.495C43.6232 111.364 50.6899 115.355 58.419 118.359L58.5882 118.431C60.8253 119.381 64.9888 121.151 69.127 119.59C69.1693 119.575 69.3973 119.508 69.9081 119.361C70.3052 119.246 70.8495 119.088 70.9044 119.067L82.326 114.194C84.0485 113.473 87.102 112.314 88.205 112.637L98.9169 115.817C98.9958 115.841 99.0413 115.926 99.0185 116.007C98.9958 116.089 98.9131 116.136 98.8348 116.112L88.1236 112.932C87.3804 112.714 85.3075 113.277 82.4377 114.478L71.0149 119.351C70.9632 119.373 70.6468 119.465 69.9876 119.656C69.6505 119.753 69.2685 119.864 69.2274 119.879C68.0113 120.338 66.7952 120.518 65.6265 120.518L65.6271 120.517Z" fill="black"/>
<path d="M4.45669 36.2994C5.29836 35.9061 6.28146 36.3118 6.6521 37.2048C7.02273 38.0979 6.64073 39.1412 5.79843 39.5338C4.95677 39.9271 3.97366 39.5214 3.60303 38.6284C3.23239 37.7353 3.61439 36.692 4.45669 36.2994Z" fill="black"/>
<path d="M22.2935 106.557C22.2317 106.557 22.1736 106.517 22.1527 106.453L21.7745 105.283C21.7486 105.203 21.7903 105.116 21.868 105.089C21.9456 105.061 22.0296 105.105 22.0555 105.186L22.4337 106.356C22.4596 106.436 22.4179 106.523 22.3403 106.55C22.3245 106.556 22.3087 106.558 22.2929 106.558L22.2935 106.557Z" fill="black"/>
<path d="M23.1453 109.191C23.0835 109.191 23.0254 109.15 23.0045 109.086L22.6263 107.916C22.6004 107.836 22.6421 107.749 22.7198 107.722C22.7974 107.696 22.8814 107.739 22.9073 107.819L23.2855 108.989C23.3114 109.069 23.2697 109.156 23.1921 109.184C23.1763 109.189 23.1605 109.192 23.1447 109.192L23.1453 109.191Z" fill="black"/>
<path d="M20.7953 107.977C20.7334 107.977 20.6759 107.937 20.6545 107.873C20.628 107.792 20.6696 107.705 20.7473 107.678L21.8725 107.284C21.9501 107.256 22.0341 107.3 22.0606 107.38C22.0871 107.46 22.0455 107.547 21.9678 107.575L20.8426 107.969C20.8268 107.974 20.8111 107.976 20.7953 107.976V107.977Z" fill="black"/>
<path d="M23.3273 107.092C23.2654 107.092 23.2079 107.051 23.1865 106.987C23.1599 106.907 23.2016 106.82 23.2793 106.793L24.4044 106.399C24.4827 106.371 24.5661 106.414 24.5926 106.495C24.6191 106.575 24.5775 106.662 24.4998 106.689L23.3746 107.083C23.3588 107.089 23.343 107.091 23.3273 107.091V107.092Z" fill="black"/>
<path d="M117.561 30.9392C117.502 30.9392 117.446 30.9027 117.423 30.8432C116.537 28.5717 115.476 26.3407 114.269 24.2136C109.491 15.7921 102.517 9.08413 94.1026 4.81554C94.0288 4.7783 93.9985 4.68619 94.0351 4.61041C94.0711 4.53463 94.1601 4.50261 94.2333 4.5405C102.701 8.83588 109.717 15.585 114.524 24.0588C115.738 26.199 116.806 28.4437 117.698 30.7289C117.728 30.8073 117.691 30.8968 117.616 30.9288C117.597 30.936 117.578 30.9399 117.56 30.9399L117.561 30.9392Z" fill="black"/>
<path d="M117.969 25.2863C117.915 25.2863 117.864 25.2562 117.838 25.204C113.475 16.6034 107.084 9.29051 99.3558 4.05505C99.287 4.00867 99.268 3.91329 99.3129 3.84208C99.3577 3.77153 99.4499 3.75127 99.5181 3.79766C107.288 9.06186 113.714 16.414 118.1 25.0609C118.138 25.136 118.11 25.2288 118.038 25.268C118.016 25.2797 117.992 25.2856 117.969 25.2856V25.2863Z" fill="black"/>
<path d="M114.99 59.2473C114.908 59.2473 114.841 59.1787 114.841 59.0938V58.1433C114.841 58.0583 114.907 57.9897 114.989 57.9897C115.071 57.9897 115.137 58.0583 115.137 58.1433V59.0938C115.137 59.1787 115.072 59.2473 114.99 59.2473Z" fill="black"/>
<path d="M114.988 55.9209C114.906 55.9209 114.84 55.8523 114.84 55.7674V54.8169C114.84 54.7319 114.906 54.6633 114.988 54.6633C115.07 54.6633 115.136 54.7319 115.136 54.8169V55.7674C115.136 55.8523 115.071 55.9209 114.988 55.9209Z" fill="black"/>
<path d="M117.046 57.1098H116.131C116.049 57.1098 115.983 57.0406 115.983 56.9556C115.983 56.8707 116.049 56.8021 116.131 56.8021H117.046C117.128 56.8021 117.194 56.8714 117.194 56.9563C117.194 57.0412 117.128 57.1098 117.046 57.1098Z" fill="black"/>
<path d="M113.846 57.1085H112.932C112.85 57.1085 112.784 57.0392 112.784 56.9543C112.784 56.8694 112.85 56.8008 112.932 56.8008H113.846C113.928 56.8008 113.995 56.87 113.995 56.955C113.995 57.0399 113.928 57.1085 113.846 57.1085Z" fill="black"/>
<path d="M87.4294 4.29809C87.3915 4.29809 87.3536 4.28306 87.3246 4.25366C87.2665 4.19356 87.2658 4.09687 87.3246 4.03677L87.9705 3.36454C88.0286 3.30443 88.122 3.30378 88.1801 3.36454C88.2382 3.42529 88.2388 3.52133 88.1801 3.58143L87.5342 4.25366C87.5051 4.28371 87.4673 4.29874 87.4287 4.29874L87.4294 4.29809Z" fill="black"/>
<path d="M89.6911 1.9442C89.6532 1.9442 89.6153 1.92918 89.5863 1.89978C89.5282 1.83968 89.5276 1.74299 89.5863 1.68289L90.2322 1.01065C90.2903 0.950552 90.3838 0.949898 90.4418 1.01065C90.4999 1.07141 90.4999 1.16744 90.4418 1.22755L89.7959 1.89978C89.7669 1.92983 89.729 1.94485 89.6905 1.94485L89.6911 1.9442Z" fill="black"/>
<path d="M90.3369 4.298C90.2991 4.298 90.2605 4.28298 90.2315 4.25293L89.5856 3.58069C89.5275 3.52059 89.5281 3.42325 89.5856 3.3638C89.6437 3.3037 89.7377 3.30435 89.7952 3.3638L90.4411 4.03604C90.4992 4.09614 90.4986 4.19348 90.4411 4.25293C90.4121 4.28298 90.3742 4.29735 90.3363 4.29735L90.3369 4.298Z" fill="black"/>
<path d="M88.076 1.94424C88.0381 1.94424 87.9996 1.92922 87.9705 1.89917L87.3246 1.22693C87.2665 1.16683 87.2671 1.06949 87.3246 1.01004C87.3827 0.94994 87.4767 0.950593 87.5342 1.01004L88.1801 1.68228C88.2382 1.74238 88.2376 1.83972 88.1801 1.89917C88.1511 1.92922 88.1132 1.94359 88.0753 1.94359L88.076 1.94424Z" fill="black"/>
<path d="M119.39 35.5239C119.636 33.6307 121.973 33.6313 122.22 35.5252C121.974 37.4184 119.638 37.4178 119.39 35.5239Z" fill="black"/>
<path d="M29.6953 113.84C29.9409 111.946 32.2778 111.947 32.5253 113.841C32.2797 115.734 29.9428 115.733 29.6953 113.84Z" fill="black"/>
<path d="M79.6113 9.13704C80.6919 9.13704 81.568 8.22624 81.568 7.1027C81.568 5.97917 80.6919 5.06836 79.6113 5.06836C78.5306 5.06836 77.6545 5.97917 77.6545 7.1027C77.6545 8.22624 78.5306 9.13704 79.6113 9.13704Z" fill="black"/>
<path d="M12.9111 21.3593C12.8561 21.3593 12.8031 21.3279 12.7778 21.273C12.7418 21.1966 12.7722 21.1045 12.846 21.0679L13.713 20.6296C13.7868 20.5923 13.8752 20.6237 13.9112 20.7001C13.9472 20.7765 13.9169 20.8687 13.843 20.9052L12.9761 21.3436C12.9553 21.3541 12.9332 21.3593 12.9111 21.3593Z" fill="black"/>
<path d="M14.9304 20.3376C14.8754 20.3376 14.8224 20.3062 14.7971 20.2513C14.7611 20.1749 14.7914 20.0828 14.8653 20.0462L15.7322 19.6078C15.8061 19.5706 15.8945 19.602 15.9305 19.6784C15.9665 19.7548 15.9362 19.8469 15.8623 19.8835L14.9954 20.3219C14.9746 20.3323 14.9525 20.3376 14.9304 20.3376Z" fill="black"/>
<path d="M15.056 22.1302C15.0011 22.1302 14.948 22.0982 14.9221 22.0433L14.5004 21.1418C14.4644 21.0653 14.4953 20.9739 14.5692 20.9366C14.6431 20.9001 14.7315 20.9314 14.7675 21.0078L15.1892 21.9094C15.2252 21.9858 15.1943 22.0773 15.1204 22.1145C15.0996 22.125 15.0775 22.1295 15.056 22.1295V22.1302Z" fill="black"/>
<path d="M14.0736 20.0299C14.0187 20.0299 13.9656 19.9978 13.9397 19.943L13.5179 19.0414C13.482 18.965 13.5129 18.8735 13.5868 18.8363C13.6606 18.7997 13.7497 18.8311 13.785 18.9075L14.2068 19.809C14.2428 19.8855 14.2119 19.9769 14.138 20.0142C14.1172 20.0246 14.0951 20.0292 14.0736 20.0292V20.0299Z" fill="black"/>
<path d="M10.7524 27.4592C10.4178 27.4592 10.0914 27.2906 9.89878 26.9823C9.75419 26.7504 9.7062 26.4747 9.76429 26.2049C9.82238 25.9318 9.98213 25.6979 10.2132 25.5477C10.6855 25.24 11.3131 25.3804 11.6131 25.8606C11.7576 26.0925 11.8056 26.3682 11.7475 26.638C11.6888 26.9111 11.5297 27.1443 11.2986 27.2952C11.1288 27.4056 10.9393 27.4585 10.7524 27.4585V27.4592ZM10.76 25.6914C10.6268 25.6914 10.4917 25.7293 10.3711 25.8077C10.2075 25.9141 10.0951 26.0788 10.0541 26.2715C10.0137 26.4603 10.0472 26.6537 10.1482 26.8157C10.3597 27.1554 10.8049 27.254 11.1401 27.0358C11.3037 26.9294 11.4161 26.7647 11.4571 26.572C11.4975 26.3832 11.464 26.1898 11.363 26.0272C11.2273 25.8096 10.9962 25.6907 10.76 25.6907V25.6914Z" fill="black"/>
</svg>
